<svg xmlns="http://www.w3.org/2000/svg" xmlns:xlink="http://www.w3.org/1999/xlink" width="100%" zoomAndPan="magnify" viewBox="0 0 136.5 172.499994" height="100%" preserveAspectRatio="xMidYMid meet" version="1.0"><defs><clipPath id="73f8d91b6e"><path d="M 38 163.136719 L 98.226562 163.136719 L 98.226562 171.921875 L 38 171.921875 Z M 38 163.136719 " clip-rule="nonzero"/></clipPath><clipPath id="3a74982ede"><path d="M 25.339844 1 L 110.527344 1 L 110.527344 139 L 25.339844 139 Z M 25.339844 1 " clip-rule="nonzero"/></clipPath></defs><path fill="#d9d9d9" d="M 114.488281 118.972656 L 114.476562 122.21875 L 111.320312 124.054688 L 111.328125 120.808594 L 114.488281 118.972656 " fill-opacity="1" fill-rule="nonzero"/><path fill="#d9d9d9" d="M 24.445312 120.808594 L 24.433594 124.058594 L 21.253906 122.21875 L 21.265625 118.972656 L 24.445312 120.808594 " fill-opacity="1" fill-rule="nonzero"/><path fill="#d9d9d9" d="M 120.726562 138.277344 L 120.71875 141.527344 C 120.699219 147.539062 117.632812 153.542969 111.511719 158.695312 L 111.523438 155.445312 C 117.644531 150.296875 120.707031 144.289062 120.726562 138.277344 " fill-opacity="1" fill-rule="nonzero"/><path fill="#d9d9d9" d="M 15.25 141.222656 L 15.261719 137.976562 C 15.242188 144.085938 18.371094 150.203125 24.640625 155.445312 L 24.628906 158.695312 C 18.363281 153.449219 15.234375 147.332031 15.25 141.222656 " fill-opacity="1" fill-rule="nonzero"/><path fill="#d9d9d9" d="M 101.203125 165.125 L 101.195312 168.375 L 98.015625 166.539062 L 98.023438 163.289062 L 101.203125 165.125 " fill-opacity="1" fill-rule="nonzero"/><path fill="#d9d9d9" d="M 114.703125 157.28125 L 114.695312 160.53125 L 101.195312 168.375 L 101.203125 165.125 L 114.703125 157.28125 " fill-opacity="1" fill-rule="nonzero"/><path fill="#d9d9d9" d="M 38.226562 163.289062 L 38.21875 166.539062 L 35.058594 168.375 L 35.066406 165.125 L 38.226562 163.289062 " fill-opacity="1" fill-rule="nonzero"/><path fill="#d9d9d9" d="M 35.066406 165.125 L 35.058594 168.375 L 21.472656 160.53125 L 21.480469 157.28125 L 35.066406 165.125 " fill-opacity="1" fill-rule="nonzero"/><g clip-path="url(#73f8d91b6e)"><path fill="#d9d9d9" d="M 98.023438 163.289062 L 98.015625 166.539062 C 80.125 173.722656 56.210938 173.707031 38.21875 166.539062 L 38.226562 163.289062 C 56.222656 170.457031 80.136719 170.472656 98.023438 163.289062 " fill-opacity="1" fill-rule="nonzero"/></g><path fill="#737373" d="M 114.488281 118.972656 L 111.328125 120.808594 C 123.785156 131.191406 123.863281 145.058594 111.523438 155.445312 L 114.703125 157.28125 L 101.203125 165.125 L 98.023438 163.289062 C 80.136719 170.472656 56.222656 170.457031 38.226562 163.289062 L 35.066406 165.125 L 21.480469 157.28125 L 24.640625 155.445312 C 12.207031 145.046875 12.128906 131.207031 24.445312 120.808594 L 21.265625 118.972656 L 34.761719 111.128906 L 37.941406 112.964844 C 55.855469 105.796875 79.769531 105.78125 97.765625 112.980469 L 100.925781 111.144531 L 114.488281 118.972656 " fill-opacity="1" fill-rule="nonzero"/><path fill="#d9d9d9" d="M 37.21875 155.910156 C 20.195312 146.078125 20.195312 130.171875 37.191406 120.359375 C 54.21875 110.527344 81.769531 110.527344 98.796875 120.359375 C 115.792969 130.171875 115.824219 146.097656 98.796875 155.925781 C 81.800781 165.738281 54.21875 165.722656 37.21875 155.910156 Z M 100.703125 119.257812 C 82.632812 108.824219 53.351562 108.824219 35.28125 119.257812 C 17.242188 129.671875 17.242188 146.578125 35.3125 157.011719 C 53.351562 167.425781 82.636719 167.425781 100.675781 157.011719 C 118.746094 146.578125 118.742188 129.671875 100.703125 119.257812 " fill-opacity="1" fill-rule="nonzero"/><path fill="#d9d9d9" d="M 59.734375 142.898438 C 55.167969 140.261719 55.167969 135.992188 59.726562 133.359375 C 64.296875 130.71875 71.691406 130.71875 76.257812 133.359375 C 80.820312 135.992188 80.828125 140.265625 76.257812 142.902344 C 71.699219 145.535156 64.296875 145.53125 59.734375 142.898438 Z M 77.363281 132.71875 C 72.1875 129.730469 63.796875 129.730469 58.621094 132.71875 C 53.453125 135.703125 53.453125 140.546875 58.628906 143.535156 C 63.800781 146.519531 72.1875 146.519531 77.355469 143.535156 C 82.535156 140.546875 82.535156 135.703125 77.363281 132.71875 " fill-opacity="1" fill-rule="nonzero"/><path fill="#d9d9d9" d="M 65.207031 138.710938 L 65.207031 137.539062 C 65.207031 136.976562 66 136.519531 66.976562 136.519531 L 69.007812 136.519531 C 69.984375 136.519531 70.777344 136.976562 70.777344 137.539062 L 70.777344 138.710938 C 70.777344 139.277344 69.984375 139.734375 69.007812 139.734375 L 66.976562 139.734375 C 66 139.734375 65.207031 139.277344 65.207031 138.710938 " fill-opacity="1" fill-rule="nonzero"/><path fill="#d9d9d9" d="M 64.765625 141.011719 C 63.757812 141.011719 62.996094 140.574219 62.996094 139.988281 L 62.996094 136.261719 C 62.996094 135.703125 63.757812 135.238281 64.765625 135.238281 L 71.21875 135.238281 C 72.230469 135.238281 72.992188 135.703125 72.992188 136.261719 L 72.992188 139.988281 C 72.992188 140.574219 72.230469 141.011719 71.21875 141.011719 Z M 74.128906 140.644531 L 74.128906 135.605469 C 74.128906 135.046875 73.328125 134.582031 72.359375 134.582031 L 63.628906 134.582031 C 62.660156 134.582031 61.855469 135.046875 61.855469 135.605469 L 61.855469 140.644531 C 61.855469 141.203125 62.660156 141.667969 63.628906 141.667969 L 72.359375 141.667969 C 73.328125 141.667969 74.128906 141.203125 74.128906 140.644531 " fill-opacity="1" fill-rule="nonzero"/><path fill="#d9d9d9" d="M 80.167969 133.164062 L 76.585938 131.097656 L 78.679688 129.890625 L 82.257812 131.957031 L 80.167969 133.164062 " fill-opacity="1" fill-rule="nonzero"/><path fill="#d9d9d9" d="M 70.523438 129.648438 L 65.460938 129.648438 L 65.460938 127.9375 L 70.523438 127.9375 L 70.523438 129.648438 " fill-opacity="1" fill-rule="nonzero"/><path fill="#d9d9d9" d="M 59.394531 131.097656 L 55.816406 133.164062 L 53.722656 131.957031 L 57.304688 129.890625 L 59.394531 131.097656 " fill-opacity="1" fill-rule="nonzero"/><path fill="#d9d9d9" d="M 53.304688 136.667969 L 53.304688 139.589844 L 50.347656 139.589844 L 50.347656 136.667969 L 53.304688 136.667969 " fill-opacity="1" fill-rule="nonzero"/><path fill="#d9d9d9" d="M 55.820312 143.089844 L 59.398438 145.15625 L 57.308594 146.363281 L 53.726562 144.296875 L 55.820312 143.089844 " fill-opacity="1" fill-rule="nonzero"/><path fill="#d9d9d9" d="M 65.464844 146.605469 L 70.527344 146.605469 L 70.527344 148.3125 L 65.464844 148.3125 L 65.464844 146.605469 " fill-opacity="1" fill-rule="nonzero"/><path fill="#d9d9d9" d="M 76.589844 145.15625 L 80.167969 143.089844 L 82.261719 144.296875 L 78.683594 146.363281 L 76.589844 145.15625 " fill-opacity="1" fill-rule="nonzero"/><path fill="#d9d9d9" d="M 82.679688 139.589844 L 82.679688 136.664062 L 85.636719 136.664062 L 85.636719 139.589844 L 82.679688 139.589844 " fill-opacity="1" fill-rule="nonzero"/><path fill="#d9d9d9" d="M 94.242188 125.035156 L 90.695312 122.988281 L 92.238281 122.09375 L 95.789062 124.144531 L 94.242188 125.035156 " fill-opacity="1" fill-rule="nonzero"/><path fill="#d9d9d9" d="M 97.371094 122.46875 C 96.746094 122.828125 95.734375 122.828125 95.113281 122.46875 C 94.488281 122.109375 94.488281 121.523438 95.113281 121.164062 C 95.734375 120.804688 96.746094 120.804688 97.371094 121.164062 C 97.996094 121.523438 97.996094 122.109375 97.371094 122.46875 " fill-opacity="1" fill-rule="nonzero"/><path fill="#d9d9d9" d="M 83.570312 120.234375 L 78.929688 119.125 L 79.765625 117.957031 L 84.402344 119.066406 L 83.570312 120.234375 " fill-opacity="1" fill-rule="nonzero"/><path fill="#d9d9d9" d="M 84.753906 117.167969 C 84.417969 117.640625 83.484375 117.863281 82.667969 117.667969 C 81.851562 117.472656 81.464844 116.933594 81.804688 116.464844 C 82.140625 115.992188 83.074219 115.769531 83.890625 115.964844 C 84.707031 116.160156 85.09375 116.699219 84.753906 117.167969 " fill-opacity="1" fill-rule="nonzero"/><path fill="#d9d9d9" d="M 70.523438 118.152344 L 65.503906 118.152344 L 65.503906 116.894531 L 70.523438 116.894531 L 70.523438 118.152344 " fill-opacity="1" fill-rule="nonzero"/><path fill="#d9d9d9" d="M 69.589844 115.0625 C 69.589844 115.570312 68.875 115.984375 67.992188 115.984375 C 67.109375 115.984375 66.394531 115.570312 66.394531 115.0625 C 66.394531 114.550781 67.109375 114.136719 67.992188 114.136719 C 68.875 114.136719 69.589844 114.550781 69.589844 115.0625 " fill-opacity="1" fill-rule="nonzero"/><path fill="#d9d9d9" d="M 57.089844 119.113281 L 52.453125 120.222656 L 51.617188 119.058594 L 56.253906 117.949219 L 57.089844 119.113281 " fill-opacity="1" fill-rule="nonzero"/><path fill="#d9d9d9" d="M 54.179688 116.464844 C 54.515625 116.933594 54.128906 117.472656 53.3125 117.667969 C 52.496094 117.863281 51.5625 117.640625 51.226562 117.171875 C 50.886719 116.699219 51.273438 116.160156 52.089844 115.964844 C 52.90625 115.769531 53.839844 115.992188 54.179688 116.464844 " fill-opacity="1" fill-rule="nonzero"/><path fill="#d9d9d9" d="M 45.316406 122.96875 L 41.769531 125.019531 L 40.226562 124.128906 L 43.773438 122.078125 L 45.316406 122.96875 " fill-opacity="1" fill-rule="nonzero"/><path fill="#d9d9d9" d="M 40.871094 121.164062 C 41.496094 121.527344 41.496094 122.109375 40.871094 122.46875 C 40.246094 122.828125 39.234375 122.828125 38.613281 122.46875 C 37.988281 122.109375 37.988281 121.527344 38.613281 121.164062 C 39.234375 120.804688 40.246094 120.804688 40.871094 121.164062 " fill-opacity="1" fill-rule="nonzero"/><path fill="#d9d9d9" d="M 37 129.132812 L 35.078125 131.8125 L 33.058594 131.328125 L 34.980469 128.652344 L 37 129.132812 " fill-opacity="1" fill-rule="nonzero"/><path fill="#d9d9d9" d="M 31.691406 128.449219 C 32.507812 128.644531 32.894531 129.183594 32.558594 129.652344 C 32.21875 130.125 31.285156 130.347656 30.46875 130.152344 C 29.65625 129.957031 29.269531 129.417969 29.605469 128.945312 C 29.941406 128.476562 30.878906 128.253906 31.691406 128.449219 " fill-opacity="1" fill-rule="nonzero"/><path fill="#d9d9d9" d="M 33.398438 136.667969 L 33.398438 139.5625 L 31.210938 139.5625 L 31.210938 136.667969 L 33.398438 136.667969 " fill-opacity="1" fill-rule="nonzero"/><path fill="#d9d9d9" d="M 28.042969 137.203125 C 28.921875 137.203125 29.640625 137.617188 29.640625 138.128906 C 29.640625 138.636719 28.921875 139.050781 28.042969 139.050781 C 27.160156 139.050781 26.445312 138.636719 26.445312 138.128906 C 26.445312 137.617188 27.160156 137.203125 28.042969 137.203125 " fill-opacity="1" fill-rule="nonzero"/><path fill="#d9d9d9" d="M 35.0625 144.421875 L 36.984375 147.097656 L 34.964844 147.582031 L 33.042969 144.902344 L 35.0625 144.421875 " fill-opacity="1" fill-rule="nonzero"/><path fill="#d9d9d9" d="M 30.472656 146.101562 C 31.285156 145.90625 32.222656 146.128906 32.558594 146.601562 C 32.894531 147.070312 32.507812 147.613281 31.695312 147.808594 C 30.878906 148 29.945312 147.777344 29.605469 147.308594 C 29.269531 146.835938 29.65625 146.296875 30.472656 146.101562 " fill-opacity="1" fill-rule="nonzero"/><path fill="#d9d9d9" d="M 41.742188 151.21875 L 45.292969 153.265625 L 43.746094 154.160156 L 40.195312 152.109375 L 41.742188 151.21875 " fill-opacity="1" fill-rule="nonzero"/><path fill="#d9d9d9" d="M 38.613281 153.785156 C 39.238281 153.425781 40.25 153.425781 40.875 153.785156 C 41.496094 154.144531 41.496094 154.730469 40.875 155.089844 C 40.25 155.449219 39.238281 155.449219 38.613281 155.089844 C 37.992188 154.730469 37.992188 154.144531 38.613281 153.785156 " fill-opacity="1" fill-rule="nonzero"/><path fill="#d9d9d9" d="M 52.417969 156.019531 L 57.054688 157.128906 L 56.21875 158.296875 L 51.582031 157.1875 L 52.417969 156.019531 " fill-opacity="1" fill-rule="nonzero"/><path fill="#d9d9d9" d="M 51.230469 159.085938 C 51.566406 158.613281 52.5 158.390625 53.316406 158.585938 C 54.132812 158.78125 54.519531 159.320312 54.183594 159.789062 C 53.84375 160.261719 52.910156 160.484375 52.09375 160.289062 C 51.28125 160.09375 50.890625 159.554688 51.230469 159.085938 " fill-opacity="1" fill-rule="nonzero"/><path fill="#d9d9d9" d="M 65.464844 158.101562 L 70.484375 158.101562 L 70.484375 159.363281 L 65.464844 159.363281 L 65.464844 158.101562 " fill-opacity="1" fill-rule="nonzero"/><path fill="#d9d9d9" d="M 66.398438 161.191406 C 66.398438 160.683594 67.113281 160.269531 67.996094 160.269531 C 68.875 160.269531 69.59375 160.683594 69.59375 161.191406 C 69.59375 161.703125 68.875 162.117188 67.996094 162.117188 C 67.113281 162.117188 66.398438 161.703125 66.398438 161.191406 " fill-opacity="1" fill-rule="nonzero"/><path fill="#d9d9d9" d="M 78.894531 157.140625 L 83.53125 156.03125 L 84.371094 157.195312 L 79.730469 158.304688 L 78.894531 157.140625 " fill-opacity="1" fill-rule="nonzero"/><path fill="#d9d9d9" d="M 81.808594 159.789062 C 81.46875 159.320312 81.855469 158.78125 82.671875 158.585938 C 83.488281 158.390625 84.421875 158.613281 84.761719 159.085938 C 85.097656 159.554688 84.710938 160.09375 83.894531 160.289062 C 83.082031 160.484375 82.144531 160.261719 81.808594 159.789062 " fill-opacity="1" fill-rule="nonzero"/><path fill="#d9d9d9" d="M 90.667969 153.285156 L 94.214844 151.234375 L 95.761719 152.125 L 92.210938 154.175781 L 90.667969 153.285156 " fill-opacity="1" fill-rule="nonzero"/><path fill="#d9d9d9" d="M 95.113281 155.089844 C 94.492188 154.730469 94.492188 154.144531 95.113281 153.785156 C 95.738281 153.425781 96.75 153.425781 97.375 153.785156 C 97.996094 154.144531 97.996094 154.730469 97.375 155.089844 C 96.75 155.449219 95.738281 155.449219 95.113281 155.089844 " fill-opacity="1" fill-rule="nonzero"/><path fill="#d9d9d9" d="M 98.988281 147.121094 L 100.90625 144.441406 L 102.925781 144.925781 L 101.003906 147.601562 L 98.988281 147.121094 " fill-opacity="1" fill-rule="nonzero"/><path fill="#d9d9d9" d="M 104.292969 147.804688 C 103.476562 147.609375 103.089844 147.070312 103.429688 146.601562 C 103.765625 146.128906 104.699219 145.90625 105.515625 146.101562 C 106.332031 146.296875 106.71875 146.835938 106.378906 147.304688 C 106.042969 147.777344 105.109375 148 104.292969 147.804688 " fill-opacity="1" fill-rule="nonzero"/><path fill="#d9d9d9" d="M 102.589844 139.589844 L 102.589844 136.6875 L 104.773438 136.6875 L 104.773438 139.589844 L 102.589844 139.589844 " fill-opacity="1" fill-rule="nonzero"/><path fill="#d9d9d9" d="M 107.945312 139.046875 C 107.0625 139.046875 106.347656 138.636719 106.347656 138.125 C 106.347656 137.617188 107.0625 137.203125 107.945312 137.203125 C 108.828125 137.203125 109.542969 137.617188 109.542969 138.125 C 109.542969 138.636719 108.828125 139.046875 107.945312 139.046875 " fill-opacity="1" fill-rule="nonzero"/><path fill="#d9d9d9" d="M 100.921875 131.832031 L 99 129.15625 L 101.019531 128.671875 L 102.941406 131.351562 L 100.921875 131.832031 " fill-opacity="1" fill-rule="nonzero"/><path fill="#d9d9d9" d="M 105.515625 130.152344 C 104.699219 130.347656 103.765625 130.121094 103.425781 129.652344 C 103.089844 129.179688 103.476562 128.640625 104.292969 128.449219 C 105.105469 128.253906 106.042969 128.476562 106.378906 128.945312 C 106.71875 129.417969 106.328125 129.957031 105.515625 130.152344 " fill-opacity="1" fill-rule="nonzero"/><path fill="#d9d9d9" d="M 53.03125 146.773438 C 44.753906 141.992188 44.753906 134.257812 53.015625 129.488281 C 61.296875 124.707031 74.691406 124.707031 82.96875 129.488281 C 91.234375 134.257812 91.25 142 82.96875 146.78125 C 74.707031 151.550781 61.296875 151.542969 53.03125 146.773438 Z M 85.832031 127.835938 C 75.976562 122.144531 60.007812 122.144531 50.152344 127.832031 C 40.3125 133.515625 40.3125 142.734375 50.167969 148.425781 C 60.007812 154.105469 75.980469 154.105469 85.816406 148.425781 C 95.671875 142.734375 95.671875 133.515625 85.832031 127.835938 " fill-opacity="1" fill-rule="nonzero"/><path fill="#d9d9d9" d="M 90.226562 126.59375 C 89.613281 126.949219 88.613281 126.949219 88 126.59375 C 87.382812 126.238281 87.382812 125.660156 88 125.304688 C 88.613281 124.949219 89.613281 124.949219 90.226562 125.304688 C 90.84375 125.660156 90.84375 126.238281 90.226562 126.59375 " fill-opacity="1" fill-rule="nonzero"/><path fill="#d9d9d9" d="M 69.589844 120.894531 C 69.589844 121.394531 68.882812 121.804688 68.011719 121.804688 C 67.140625 121.804688 66.4375 121.394531 66.4375 120.894531 C 66.4375 120.390625 67.140625 119.984375 68.011719 119.984375 C 68.882812 119.984375 69.589844 120.390625 69.589844 120.894531 " fill-opacity="1" fill-rule="nonzero"/><path fill="#d9d9d9" d="M 48.015625 125.289062 C 48.628906 125.644531 48.628906 126.222656 48.015625 126.578125 C 47.398438 126.933594 46.402344 126.933594 45.785156 126.574219 C 45.167969 126.222656 45.167969 125.644531 45.785156 125.289062 C 46.402344 124.933594 47.398438 124.933594 48.015625 125.289062 " fill-opacity="1" fill-rule="nonzero"/><path fill="#d9d9d9" d="M 38.144531 137.203125 C 39.015625 137.203125 39.71875 137.613281 39.71875 138.117188 C 39.71875 138.617188 39.015625 139.023438 38.144531 139.023438 C 37.273438 139.023438 36.566406 138.617188 36.566406 138.117188 C 36.566406 137.613281 37.273438 137.203125 38.144531 137.203125 " fill-opacity="1" fill-rule="nonzero"/><path fill="#d9d9d9" d="M 45.757812 149.660156 C 46.375 149.304688 47.371094 149.304688 47.988281 149.660156 C 48.601562 150.015625 48.601562 150.59375 47.988281 150.949219 C 47.371094 151.304688 46.375 151.304688 45.757812 150.949219 C 45.140625 150.59375 45.140625 150.015625 45.757812 149.660156 " fill-opacity="1" fill-rule="nonzero"/><path fill="#d9d9d9" d="M 66.398438 155.359375 C 66.398438 154.859375 67.101562 154.449219 67.972656 154.449219 C 68.84375 154.449219 69.550781 154.859375 69.550781 155.359375 C 69.550781 155.863281 68.84375 156.269531 67.972656 156.269531 C 67.101562 156.269531 66.398438 155.863281 66.398438 155.359375 " fill-opacity="1" fill-rule="nonzero"/><path fill="#d9d9d9" d="M 87.972656 150.964844 C 87.355469 150.609375 87.355469 150.03125 87.972656 149.679688 C 88.585938 149.324219 89.585938 149.324219 90.199219 149.679688 C 90.816406 150.03125 90.816406 150.609375 90.199219 150.964844 C 89.585938 151.320312 88.585938 151.320312 87.972656 150.964844 " fill-opacity="1" fill-rule="nonzero"/><path fill="#d9d9d9" d="M 97.84375 139.046875 C 96.972656 139.046875 96.265625 138.640625 96.265625 138.140625 C 96.265625 137.636719 96.972656 137.230469 97.84375 137.230469 C 98.710938 137.230469 99.417969 137.636719 99.417969 138.140625 C 99.417969 138.640625 98.710938 139.046875 97.84375 139.046875 " fill-opacity="1" fill-rule="nonzero"/><g clip-path="url(#3a74982ede)"><path fill="#ffffff" d="M 68.144531 138.855469 C 64.992188 123.390625 59.4375 110.523438 52.710938 98.59375 C 47.722656 89.746094 41.941406 81.582031 36.59375 73.003906 C 34.808594 70.136719 33.265625 67.113281 31.550781 64.140625 C 28.121094 58.199219 25.339844 51.304688 25.515625 42.367188 C 25.6875 33.636719 28.214844 26.628906 31.855469 20.902344 C 37.847656 11.480469 47.878906 3.757812 61.34375 1.726562 C 72.351562 0.0664062 82.671875 2.871094 89.992188 7.152344 C 95.972656 10.648438 100.605469 15.320312 104.125 20.824219 C 107.800781 26.570312 110.332031 33.359375 110.542969 42.214844 C 110.652344 46.753906 109.910156 50.953125 108.863281 54.4375 C 107.804688 57.964844 106.101562 60.914062 104.585938 64.0625 C 101.625 70.210938 97.917969 75.84375 94.195312 81.480469 C 83.105469 98.269531 72.699219 115.394531 68.144531 138.855469 Z M 68.144531 138.855469 " fill-opacity="1" fill-rule="evenodd"/></g><path fill="#d9d9d9" d="M 82.925781 42.273438 C 82.925781 43.25 82.832031 44.21875 82.640625 45.179688 C 82.449219 46.136719 82.167969 47.070312 81.792969 47.972656 C 81.417969 48.875 80.960938 49.734375 80.417969 50.546875 C 79.875 51.363281 79.257812 52.113281 78.5625 52.804688 C 77.871094 53.496094 77.121094 54.117188 76.308594 54.660156 C 75.492188 55.203125 74.636719 55.660156 73.730469 56.035156 C 72.828125 56.410156 71.894531 56.691406 70.9375 56.882812 C 69.976562 57.074219 69.007812 57.167969 68.03125 57.167969 C 67.050781 57.167969 66.082031 57.074219 65.125 56.882812 C 64.164062 56.691406 63.234375 56.410156 62.328125 56.035156 C 61.425781 55.660156 60.566406 55.203125 59.753906 54.660156 C 58.941406 54.117188 58.1875 53.496094 57.496094 52.804688 C 56.804688 52.113281 56.1875 51.363281 55.644531 50.546875 C 55.097656 49.734375 54.640625 48.875 54.265625 47.972656 C 53.890625 47.070312 53.609375 46.136719 53.417969 45.179688 C 53.226562 44.21875 53.132812 43.25 53.132812 42.273438 C 53.132812 41.292969 53.226562 40.324219 53.417969 39.367188 C 53.609375 38.40625 53.890625 37.472656 54.265625 36.570312 C 54.640625 35.667969 55.097656 34.808594 55.644531 33.996094 C 56.1875 33.183594 56.804688 32.429688 57.496094 31.738281 C 58.1875 31.046875 58.941406 30.429688 59.753906 29.886719 C 60.566406 29.339844 61.425781 28.882812 62.328125 28.507812 C 63.234375 28.132812 64.164062 27.851562 65.125 27.660156 C 66.082031 27.46875 67.050781 27.375 68.03125 27.375 C 69.007812 27.375 69.976562 27.46875 70.9375 27.660156 C 71.894531 27.851562 72.828125 28.132812 73.730469 28.507812 C 74.636719 28.882812 75.492188 29.339844 76.308594 29.886719 C 77.121094 30.429688 77.871094 31.046875 78.5625 31.738281 C 79.257812 32.429688 79.875 33.183594 80.417969 33.996094 C 80.960938 34.808594 81.417969 35.667969 81.792969 36.570312 C 82.167969 37.472656 82.449219 38.40625 82.640625 39.367188 C 82.832031 40.324219 82.925781 41.292969 82.925781 42.273438 Z M 82.925781 42.273438 " fill-opacity="1" fill-rule="nonzero"/></svg>
