<svg xmlns="http://www.w3.org/2000/svg" xmlns:xlink="http://www.w3.org/1999/xlink" width="100%" zoomAndPan="magnify" viewBox="0 0 42.75 277.499983" height="100%" preserveAspectRatio="xMidYMid meet" version="1.0"><defs><clipPath id="d16910fbd5"><path d="M 1.3125 136.542969 L 40 136.542969 L 40 276.445312 L 1.3125 276.445312 Z M 1.3125 136.542969 " clip-rule="nonzero"/></clipPath><clipPath id="4e52dec55d"><path d="M 26 136.542969 L 40 136.542969 L 40 276.445312 L 26 276.445312 Z M 26 136.542969 " clip-rule="nonzero"/></clipPath><clipPath id="499cb91b66"><path d="M 1.3125 136.542969 L 33 136.542969 L 33 276.445312 L 1.3125 276.445312 Z M 1.3125 136.542969 " clip-rule="nonzero"/></clipPath><clipPath id="a58efd9042"><path d="M 20 136.542969 L 33 136.542969 L 33 276.445312 L 20 276.445312 Z M 20 136.542969 " clip-rule="nonzero"/></clipPath><clipPath id="9126512833"><path d="M 1.3125 136.542969 L 27 136.542969 L 27 276.445312 L 1.3125 276.445312 Z M 1.3125 136.542969 " clip-rule="nonzero"/></clipPath><clipPath id="e0e6922be7"><path d="M 10 136.542969 L 27 136.542969 L 27 276.445312 L 10 276.445312 Z M 10 136.542969 " clip-rule="nonzero"/></clipPath><clipPath id="c24e9d5bc6"><path d="M 1.3125 136.542969 L 20 136.542969 L 20 276.445312 L 1.3125 276.445312 Z M 1.3125 136.542969 " clip-rule="nonzero"/></clipPath><clipPath id="0401cf7bd6"><path d="M 4 136.542969 L 20 136.542969 L 20 276.445312 L 4 276.445312 Z M 4 136.542969 " clip-rule="nonzero"/></clipPath><clipPath id="487c84a171"><path d="M 1.726562 0.558594 L 40 0.558594 L 40 137.292969 L 1.726562 137.292969 Z M 1.726562 0.558594 " clip-rule="nonzero"/></clipPath><clipPath id="712d15d82c"><path d="M 26 0.558594 L 40 0.558594 L 40 137.292969 L 26 137.292969 Z M 26 0.558594 " clip-rule="nonzero"/></clipPath><clipPath id="c529459cd6"><path d="M 1.726562 0.558594 L 33 0.558594 L 33 137.292969 L 1.726562 137.292969 Z M 1.726562 0.558594 " clip-rule="nonzero"/></clipPath><clipPath id="82dbb9ea26"><path d="M 20 0.558594 L 33 0.558594 L 33 137.292969 L 20 137.292969 Z M 20 0.558594 " clip-rule="nonzero"/></clipPath><clipPath id="c5d815ac50"><path d="M 1.726562 0.558594 L 27 0.558594 L 27 137.292969 L 1.726562 137.292969 Z M 1.726562 0.558594 " clip-rule="nonzero"/></clipPath><clipPath id="117b49bbd6"><path d="M 11 0.558594 L 27 0.558594 L 27 137.292969 L 11 137.292969 Z M 11 0.558594 " clip-rule="nonzero"/></clipPath><clipPath id="5854da95b1"><path d="M 1.726562 0.558594 L 20 0.558594 L 20 137.292969 L 1.726562 137.292969 Z M 1.726562 0.558594 " clip-rule="nonzero"/></clipPath><clipPath id="4bf4fad58c"><path d="M 4 0.558594 L 20 0.558594 L 20 137.292969 L 4 137.292969 Z M 4 0.558594 " clip-rule="nonzero"/></clipPath></defs><g clip-path="url(#d16910fbd5)"><path fill="#79baf2" d="M 34.210938 301.21875 L 1.660156 301.21875 L 1.660156 136.828125 L 37.691406 136.828125 C 35.980469 140.328125 33.511719 143.707031 32.476562 147.464844 C 29.628906 157.78125 37.90625 167.773438 39.140625 178.402344 C 40.835938 192.992188 29.121094 206.699219 30.964844 221.269531 C 32.109375 230.320312 38.4375 238.804688 36.636719 247.746094 C 35.207031 254.84375 28.9375 260.128906 27.121094 267.136719 C 25.460938 273.5625 27.792969 280.277344 30.195312 286.460938 C 32.042969 291.21875 33.980469 296.207031 34.210938 301.21875 Z M 34.210938 301.21875 " fill-opacity="1" fill-rule="nonzero"/></g><g clip-path="url(#4e52dec55d)"><path fill="#ffffff" d="M 30.449219 286.363281 C 28.015625 280.089844 25.769531 273.445312 27.386719 267.203125 C 28.25 263.878906 30.171875 260.875 32.027344 257.976562 C 34.054688 254.808594 36.152344 251.535156 36.90625 247.800781 C 38.011719 242.304688 36.058594 236.898438 34.171875 231.664062 C 32.949219 228.273438 31.683594 224.769531 31.234375 221.234375 C 30.320312 213.976562 32.847656 206.78125 35.292969 199.824219 C 37.734375 192.875 40.261719 185.691406 39.410156 178.371094 C 38.921875 174.15625 37.324219 170.011719 35.777344 166.003906 C 33.339844 159.683594 31.035156 153.710938 32.742188 147.539062 C 33.421875 145.066406 34.757812 142.71875 36.046875 140.445312 C 36.71875 139.257812 37.402344 138.054688 37.996094 136.828125 L 37.390625 136.828125 C 36.839844 137.9375 36.210938 139.046875 35.570312 140.175781 C 34.265625 142.476562 32.914062 144.855469 32.210938 147.390625 C 30.457031 153.738281 32.902344 160.074219 35.265625 166.203125 C 36.800781 170.175781 38.386719 174.289062 38.867188 178.433594 C 39.703125 185.628906 37.199219 192.753906 34.777344 199.644531 C 32.667969 205.644531 30.496094 211.820312 30.496094 218.105469 C 30.496094 219.167969 30.558594 220.234375 30.691406 221.304688 C 31.148438 224.898438 32.421875 228.433594 33.65625 231.851562 C 35.605469 237.25 37.445312 242.347656 36.367188 247.691406 C 35.636719 251.324219 33.566406 254.554688 31.566406 257.679688 C 29.683594 260.617188 27.742188 263.65625 26.855469 267.066406 C 26.464844 268.589844 26.289062 270.128906 26.289062 271.679688 C 26.289062 276.648438 28.058594 281.71875 29.9375 286.5625 C 31.800781 291.355469 33.710938 296.273438 33.941406 301.21875 L 34.488281 301.21875 C 34.265625 296.183594 32.332031 291.210938 30.449219 286.363281 Z M 30.449219 286.363281 " fill-opacity="1" fill-rule="nonzero"/></g><g clip-path="url(#499cb91b66)"><path fill="#4592d6" d="M 1.660156 301.21875 L 1.660156 136.828125 L 32.226562 136.828125 C 31.816406 138.480469 31.191406 140.09375 30.449219 141.585938 C 28.140625 146.21875 24.773438 150.324219 22.996094 155.183594 C 19.792969 163.921875 22.171875 173.632812 24.9375 182.519531 C 27.707031 191.40625 30.886719 200.664062 29.1875 209.8125 C 27.929688 216.578125 24.046875 222.890625 24.304688 229.765625 C 24.550781 236.25 28.472656 242.097656 29.164062 248.550781 C 30.523438 261.246094 19.296875 272.746094 20.574219 285.449219 C 20.949219 289.144531 22.375 292.648438 23.039062 296.304688 C 23.304688 297.785156 23.472656 299.527344 23.324219 301.21875 Z M 1.660156 301.21875 " fill-opacity="1" fill-rule="nonzero"/></g><g clip-path="url(#a58efd9042)"><path fill="#ffffff" d="M 23.308594 296.253906 C 23.027344 294.707031 22.605469 293.167969 22.195312 291.675781 C 21.636719 289.644531 21.0625 287.539062 20.847656 285.421875 C 20.21875 279.15625 22.714844 273.054688 25.132812 267.15625 C 27.585938 261.15625 30.125 254.957031 29.4375 248.523438 C 29.109375 245.464844 28.050781 242.511719 27.03125 239.652344 C 25.886719 236.460938 24.707031 233.15625 24.582031 229.753906 C 24.425781 225.617188 25.820312 221.585938 27.171875 217.691406 C 28.054688 215.152344 28.960938 212.527344 29.457031 209.863281 C 31.070312 201.171875 28.332031 192.429688 25.679688 183.976562 C 25.519531 183.460938 25.359375 182.949219 25.199219 182.4375 C 22.554688 173.945312 20.003906 164.140625 23.25 155.277344 C 24.304688 152.398438 25.957031 149.730469 27.550781 147.152344 C 28.636719 145.398438 29.757812 143.585938 30.695312 141.710938 C 31.234375 140.628906 31.996094 138.882812 32.503906 136.828125 L 31.9375 136.828125 C 31.445312 138.777344 30.71875 140.433594 30.203125 141.464844 C 29.28125 143.320312 28.164062 145.121094 27.085938 146.863281 C 25.476562 149.46875 23.808594 152.160156 22.738281 155.089844 C 21.265625 159.105469 20.84375 163.601562 21.457031 168.828125 C 22.019531 173.660156 23.398438 178.503906 24.675781 182.601562 C 24.835938 183.113281 24.996094 183.625 25.160156 184.140625 C 27.789062 192.53125 30.507812 201.207031 28.917969 209.761719 C 28.429688 212.386719 27.527344 214.992188 26.65625 217.511719 C 25.285156 221.457031 23.871094 225.535156 24.03125 229.773438 C 24.164062 233.261719 25.359375 236.605469 26.515625 239.835938 C 27.523438 242.664062 28.570312 245.585938 28.890625 248.582031 C 29.566406 254.878906 27.054688 261.011719 24.625 266.945312 C 22.183594 272.910156 19.65625 279.074219 20.300781 285.476562 C 20.519531 287.640625 21.105469 289.765625 21.667969 291.820312 C 22.070312 293.300781 22.492188 294.828125 22.769531 296.351562 C 22.996094 297.605469 23.214844 299.40625 23.054688 301.21875 L 23.601562 301.21875 C 23.757812 299.363281 23.539062 297.535156 23.308594 296.253906 Z M 23.308594 296.253906 " fill-opacity="1" fill-rule="nonzero"/></g><g clip-path="url(#9126512833)"><path fill="#3178ad" d="M 11.152344 301.21875 L 1.660156 301.21875 L 1.660156 136.828125 L 26.484375 136.828125 C 24.960938 144.722656 21.390625 152.222656 18.144531 159.652344 C 14.160156 168.773438 10.515625 178.554688 11.71875 188.433594 C 12.988281 198.871094 19.511719 208.023438 21.378906 218.371094 C 23.550781 230.40625 19.242188 242.523438 17.089844 254.558594 C 16.425781 258.285156 15.960938 262.042969 15.5 265.796875 C 14.96875 270.125 14.4375 274.449219 13.90625 278.773438 C 12.988281 286.253906 12.070312 293.738281 11.152344 301.21875 Z M 11.152344 301.21875 " fill-opacity="1" fill-rule="nonzero"/></g><g clip-path="url(#e0e6922be7)"><path fill="#ffffff" d="M 13.039062 288.09375 L 15.773438 265.832031 C 16.226562 262.144531 16.695312 258.328125 17.359375 254.609375 C 17.894531 251.625 18.570312 248.582031 19.230469 245.640625 C 21.226562 236.683594 23.289062 227.421875 21.648438 218.324219 C 20.765625 213.421875 18.816406 208.722656 16.929688 204.179688 C 14.828125 199.121094 12.65625 193.882812 11.988281 188.398438 C 10.761719 178.308594 14.652344 168.328125 18.394531 159.761719 C 18.773438 158.902344 19.152344 158.039062 19.535156 157.175781 C 22.429688 150.613281 25.40625 143.875 26.761719 136.828125 L 26.203125 136.828125 C 24.851562 143.78125 21.902344 150.453125 19.035156 156.953125 C 18.652344 157.816406 18.269531 158.679688 17.894531 159.542969 C 14.609375 167.0625 11.210938 175.664062 11.210938 184.519531 C 11.210938 185.828125 11.285156 187.148438 11.445312 188.464844 C 12.121094 194.023438 14.308594 199.292969 16.425781 204.390625 C 18.296875 208.90625 20.234375 213.574219 21.109375 218.421875 C 22.730469 227.414062 20.679688 236.617188 18.695312 245.519531 C 18.035156 248.46875 17.355469 251.515625 16.820312 254.511719 C 16.152344 258.246094 15.683594 262.070312 15.230469 265.765625 L 12.496094 288.027344 C 11.957031 292.425781 11.414062 296.824219 10.875 301.21875 L 11.425781 301.21875 C 11.964844 296.84375 12.503906 292.46875 13.039062 288.09375 Z M 13.039062 288.09375 " fill-opacity="1" fill-rule="nonzero"/></g><g clip-path="url(#c24e9d5bc6)"><path fill="#ffffff" d="M 1.660156 301.21875 L 1.660156 136.828125 L 19.296875 136.828125 C 19.625 142.179688 18.738281 147.617188 17.125 152.703125 C 13.609375 163.800781 7.402344 174.167969 6.113281 185.738281 C 4.128906 203.554688 14.113281 220.582031 15.179688 238.480469 C 15.738281 247.917969 13.800781 257.300781 11.875 266.558594 C 9.46875 278.109375 7.0625 289.664062 4.65625 301.21875 Z M 1.660156 301.21875 " fill-opacity="1" fill-rule="nonzero"/></g><g clip-path="url(#0401cf7bd6)"><path fill="#ffffff" d="M 12.144531 266.613281 C 14.046875 257.460938 16.019531 248 15.449219 238.464844 C 14.992188 230.753906 12.859375 223.109375 10.792969 215.714844 C 8.074219 205.96875 5.257812 195.886719 6.386719 185.765625 C 7.210938 178.355469 10.125 171.292969 12.945312 164.46875 C 14.511719 160.671875 16.132812 156.746094 17.386719 152.785156 C 19.148438 147.230469 19.882812 141.867188 19.574219 136.828125 L 19.023438 136.828125 C 19.070312 137.574219 19.09375 138.328125 19.09375 139.085938 C 19.09375 143.402344 18.347656 147.941406 16.863281 152.621094 C 15.617188 156.558594 14 160.472656 12.4375 164.257812 C 9.605469 171.121094 6.675781 178.21875 5.839844 185.707031 C 4.703125 195.929688 7.53125 206.0625 10.265625 215.863281 C 12.324219 223.230469 14.449219 230.847656 14.902344 238.496094 C 15.46875 247.960938 13.503906 257.386719 11.605469 266.5 L 4.375 301.21875 L 4.9375 301.21875 Z M 12.144531 266.613281 " fill-opacity="1" fill-rule="nonzero"/></g><g clip-path="url(#487c84a171)"><path fill="#79baf2" d="M 33.992188 -24.238281 L 1.996094 -24.238281 L 1.996094 137.367188 L 37.414062 137.367188 C 35.734375 133.925781 33.308594 130.601562 32.289062 126.910156 C 29.488281 116.769531 37.625 106.949219 38.839844 96.496094 C 40.503906 82.15625 28.988281 68.679688 30.800781 54.355469 C 31.925781 45.460938 38.148438 37.117188 36.378906 28.328125 C 34.972656 21.351562 28.808594 16.15625 27.023438 9.265625 C 25.390625 2.953125 27.683594 -3.648438 30.042969 -9.730469 C 31.863281 -14.40625 33.765625 -19.308594 33.992188 -24.238281 Z M 33.992188 -24.238281 " fill-opacity="1" fill-rule="nonzero"/></g><g clip-path="url(#712d15d82c)"><path fill="#ffffff" d="M 30.296875 -9.632812 C 27.902344 -3.46875 25.695312 3.066406 27.285156 9.199219 C 28.132812 12.472656 30.019531 15.421875 31.847656 18.273438 C 33.839844 21.386719 35.902344 24.605469 36.640625 28.277344 C 37.730469 33.679688 35.8125 38.996094 33.957031 44.136719 C 32.75 47.46875 31.507812 50.917969 31.066406 54.390625 C 30.167969 61.527344 32.652344 68.597656 35.054688 75.4375 C 37.457031 82.269531 39.941406 89.332031 39.105469 96.527344 C 38.625 100.667969 37.054688 104.746094 35.53125 108.683594 C 33.136719 114.898438 30.871094 120.769531 32.546875 126.839844 C 33.21875 129.265625 34.53125 131.578125 35.796875 133.8125 C 36.460938 134.980469 37.128906 136.160156 37.710938 137.367188 L 37.117188 137.367188 C 36.578125 136.277344 35.957031 135.183594 35.328125 134.078125 C 34.042969 131.8125 32.714844 129.476562 32.027344 126.980469 C 30.304688 120.742188 32.707031 114.515625 35.03125 108.492188 C 36.539062 104.582031 38.097656 100.539062 38.570312 96.464844 C 39.390625 89.394531 36.929688 82.390625 34.546875 75.617188 C 32.472656 69.714844 30.339844 63.644531 30.339844 57.46875 C 30.339844 56.421875 30.402344 55.375 30.535156 54.324219 C 30.980469 50.789062 32.234375 47.316406 33.449219 43.953125 C 35.363281 38.648438 37.171875 33.636719 36.113281 28.382812 C 35.394531 24.8125 33.359375 21.632812 31.394531 18.5625 C 29.542969 15.675781 27.632812 12.6875 26.761719 9.335938 C 26.375 7.839844 26.207031 6.324219 26.207031 4.800781 C 26.207031 -0.0859375 27.945312 -5.066406 29.792969 -9.828125 C 31.625 -14.542969 33.5 -19.375 33.726562 -24.238281 L 34.265625 -24.238281 C 34.046875 -19.289062 32.144531 -14.398438 30.296875 -9.632812 Z M 30.296875 -9.632812 " fill-opacity="1" fill-rule="nonzero"/></g><g clip-path="url(#c529459cd6)"><path fill="#4592d6" d="M 1.996094 -24.238281 L 1.996094 137.367188 L 32.039062 137.367188 C 31.636719 135.742188 31.027344 134.15625 30.292969 132.6875 C 28.023438 128.132812 24.714844 124.101562 22.964844 119.324219 C 19.820312 110.730469 22.15625 101.1875 24.878906 92.453125 C 27.597656 83.714844 30.726562 74.613281 29.054688 65.617188 C 27.820312 58.96875 24 52.765625 24.253906 46.007812 C 24.496094 39.628906 28.351562 33.882812 29.03125 27.539062 C 30.367188 15.058594 19.328125 3.753906 20.589844 -8.734375 C 20.953125 -12.367188 22.355469 -15.8125 23.007812 -19.40625 C 23.273438 -20.859375 23.4375 -22.574219 23.292969 -24.238281 Z M 1.996094 -24.238281 " fill-opacity="1" fill-rule="nonzero"/></g><g clip-path="url(#82dbb9ea26)"><path fill="#ffffff" d="M 23.273438 -19.359375 C 22.996094 -17.835938 22.582031 -16.320312 22.179688 -14.855469 C 21.632812 -12.855469 21.066406 -10.789062 20.855469 -8.707031 C 20.234375 -2.550781 22.691406 3.449219 25.066406 9.25 C 27.480469 15.144531 29.976562 21.242188 29.300781 27.566406 C 28.976562 30.574219 27.9375 33.476562 26.933594 36.285156 C 25.8125 39.425781 24.652344 42.671875 24.523438 46.015625 C 24.375 50.082031 25.746094 54.042969 27.074219 57.875 C 27.9375 60.371094 28.832031 62.949219 29.320312 65.570312 C 30.90625 74.113281 28.214844 82.707031 25.609375 91.015625 C 25.449219 91.523438 25.292969 92.027344 25.132812 92.53125 C 22.535156 100.878906 20.027344 110.515625 23.21875 119.230469 C 24.253906 122.058594 25.878906 124.679688 27.445312 127.21875 C 28.511719 128.941406 29.617188 130.722656 30.535156 132.566406 C 31.066406 133.628906 31.816406 135.347656 32.3125 137.367188 L 31.757812 137.367188 C 31.273438 135.453125 30.558594 133.824219 30.054688 132.808594 C 29.144531 130.984375 28.046875 129.214844 26.988281 127.5 C 25.40625 124.941406 23.769531 122.296875 22.714844 119.414062 C 21.265625 115.464844 20.851562 111.046875 21.453125 105.910156 C 22.007812 101.15625 23.363281 96.398438 24.621094 92.371094 C 24.777344 91.867188 24.9375 91.363281 25.09375 90.855469 C 27.679688 82.609375 30.351562 74.078125 28.789062 65.667969 C 28.3125 63.085938 27.421875 60.527344 26.566406 58.050781 C 25.21875 54.171875 23.828125 50.164062 23.988281 45.996094 C 24.117188 42.566406 25.292969 39.28125 26.425781 36.105469 C 27.421875 33.324219 28.449219 30.453125 28.761719 27.507812 C 29.425781 21.316406 26.957031 15.285156 24.566406 9.453125 C 22.167969 3.59375 19.6875 -2.46875 20.320312 -8.761719 C 20.535156 -10.890625 21.109375 -12.976562 21.660156 -15 C 22.058594 -16.453125 22.472656 -17.957031 22.746094 -19.453125 C 22.96875 -20.6875 23.179688 -22.457031 23.023438 -24.238281 L 23.5625 -24.238281 C 23.71875 -22.410156 23.503906 -20.613281 23.273438 -19.359375 Z M 23.273438 -19.359375 " fill-opacity="1" fill-rule="nonzero"/></g><g clip-path="url(#c5d815ac50)"><path fill="#3178ad" d="M 11.324219 -24.238281 L 1.996094 -24.238281 L 1.996094 137.367188 L 26.398438 137.367188 C 24.898438 129.605469 21.390625 122.234375 18.199219 114.929688 C 14.28125 105.964844 10.699219 96.347656 11.882812 86.636719 C 13.128906 76.375 19.542969 67.378906 21.378906 57.207031 C 23.511719 45.375 19.28125 33.464844 17.164062 21.628906 C 16.507812 17.96875 16.054688 14.273438 15.601562 10.582031 C 15.078125 6.332031 14.554688 2.078125 14.035156 -2.171875 C 13.128906 -9.527344 12.226562 -16.882812 11.324219 -24.238281 Z M 11.324219 -24.238281 " fill-opacity="1" fill-rule="nonzero"/></g><g clip-path="url(#117b49bbd6)"><path fill="#ffffff" d="M 13.179688 -11.335938 L 15.867188 10.550781 C 16.3125 14.175781 16.773438 17.925781 17.425781 21.582031 C 17.953125 24.515625 18.617188 27.507812 19.265625 30.398438 C 21.226562 39.203125 23.257812 48.308594 21.644531 57.253906 C 20.773438 62.074219 18.859375 66.691406 17.003906 71.15625 C 14.941406 76.132812 12.804688 81.277344 12.148438 86.667969 C 10.941406 96.589844 14.765625 106.402344 18.445312 114.820312 C 18.816406 115.667969 19.191406 116.515625 19.566406 117.363281 C 22.414062 123.816406 25.335938 130.4375 26.671875 137.367188 L 26.121094 137.367188 C 24.789062 130.53125 21.894531 123.972656 19.074219 117.582031 C 18.695312 116.730469 18.320312 115.882812 17.953125 115.035156 C 14.722656 107.644531 11.382812 99.1875 11.382812 90.484375 C 11.382812 89.195312 11.457031 87.902344 11.613281 86.605469 C 12.277344 81.140625 14.429688 75.960938 16.507812 70.949219 C 18.347656 66.511719 20.253906 61.921875 21.113281 57.15625 C 22.707031 48.316406 20.691406 39.269531 18.738281 30.519531 C 18.09375 27.617188 17.425781 24.621094 16.898438 21.679688 C 16.238281 18.007812 15.777344 14.25 15.332031 10.617188 L 12.644531 -11.269531 C 12.113281 -15.589844 11.582031 -19.914062 11.054688 -24.238281 L 11.59375 -24.238281 C 12.125 -19.9375 12.652344 -15.636719 13.179688 -11.335938 Z M 13.179688 -11.335938 " fill-opacity="1" fill-rule="nonzero"/></g><g clip-path="url(#5854da95b1)"><path fill="#ffffff" d="M 1.996094 -24.238281 L 1.996094 137.367188 L 19.332031 137.367188 C 19.652344 132.105469 18.78125 126.761719 17.199219 121.757812 C 13.742188 110.851562 7.636719 100.660156 6.371094 89.289062 C 4.421875 71.769531 14.234375 55.03125 15.28125 37.4375 C 15.832031 28.160156 13.929688 18.933594 12.035156 9.835938 C 9.667969 -1.519531 7.304688 -12.878906 4.941406 -24.238281 Z M 1.996094 -24.238281 " fill-opacity="1" fill-rule="nonzero"/></g><g clip-path="url(#4bf4fad58c)"><path fill="#ffffff" d="M 12.300781 9.78125 C 14.171875 18.777344 16.109375 28.078125 15.550781 37.453125 C 15.101562 45.03125 13.003906 52.546875 10.972656 59.816406 C 8.296875 69.398438 5.53125 79.308594 6.640625 89.257812 C 7.449219 96.542969 10.316406 103.484375 13.085938 110.195312 C 14.628906 113.925781 16.21875 117.785156 17.453125 121.679688 C 19.1875 127.140625 19.90625 132.410156 19.601562 137.367188 L 19.0625 137.367188 C 19.109375 136.632812 19.132812 135.894531 19.132812 135.148438 C 19.132812 130.902344 18.398438 126.441406 16.941406 121.839844 C 15.714844 117.96875 14.125 114.121094 12.589844 110.402344 C 9.804688 103.65625 6.921875 96.679688 6.105469 89.316406 C 4.984375 79.265625 7.765625 69.304688 10.453125 59.671875 C 12.476562 52.429688 14.566406 44.941406 15.011719 37.421875 C 15.566406 28.121094 13.636719 18.851562 11.769531 9.890625 L 4.664062 -24.238281 L 5.214844 -24.238281 Z M 12.300781 9.78125 " fill-opacity="1" fill-rule="nonzero"/></g></svg>
