<svg xmlns="http://www.w3.org/2000/svg" xmlns:xlink="http://www.w3.org/1999/xlink" width="48" zoomAndPan="magnify" viewBox="0 0 36 21.75" height="29" preserveAspectRatio="xMidYMid meet" version="1.0"><defs><clipPath id="88fb6fe6bb"><path d="M 0.203125 13.871094 L 6.984375 13.871094 L 6.984375 21.101562 L 0.203125 21.101562 Z M 0.203125 13.871094 " clip-rule="nonzero"/></clipPath><clipPath id="daf539cc07"><path d="M 3.59375 13.871094 C 4.496094 13.871094 5.355469 14.226562 5.992188 14.863281 C 6.628906 15.5 6.984375 16.363281 6.984375 17.261719 L 6.984375 17.695312 C 6.984375 18.59375 6.628906 19.457031 5.992188 20.09375 C 5.355469 20.730469 4.496094 21.085938 3.59375 21.085938 C 2.695312 21.085938 1.832031 20.730469 1.199219 20.09375 C 0.5625 19.457031 0.203125 18.59375 0.203125 17.695312 L 0.203125 17.261719 C 0.203125 16.363281 0.5625 15.5 1.199219 14.863281 C 1.832031 14.226562 2.695312 13.871094 3.59375 13.871094 Z M 3.59375 13.871094 " clip-rule="nonzero"/></clipPath><clipPath id="cdfc3fb101"><path d="M 9.355469 8.464844 L 16.136719 8.464844 L 16.136719 21.101562 L 9.355469 21.101562 Z M 9.355469 8.464844 " clip-rule="nonzero"/></clipPath><clipPath id="5231592bdd"><path d="M 12.746094 8.464844 C 13.644531 8.464844 14.507812 8.824219 15.144531 9.460938 C 15.78125 10.09375 16.136719 10.957031 16.136719 11.855469 L 16.136719 17.695312 C 16.136719 18.59375 15.78125 19.457031 15.144531 20.09375 C 14.507812 20.730469 13.644531 21.085938 12.746094 21.085938 C 11.847656 21.085938 10.984375 20.730469 10.347656 20.09375 C 9.714844 19.457031 9.355469 18.59375 9.355469 17.695312 L 9.355469 11.855469 C 9.355469 10.957031 9.714844 10.09375 10.347656 9.460938 C 10.984375 8.824219 11.847656 8.464844 12.746094 8.464844 Z M 12.746094 8.464844 " clip-rule="nonzero"/></clipPath><clipPath id="ab28716b3c"><path d="M 18.9375 3.78125 L 25.71875 3.78125 L 25.71875 21.105469 L 18.9375 21.105469 Z M 18.9375 3.78125 " clip-rule="nonzero"/></clipPath><clipPath id="d282f2478f"><path d="M 22.328125 3.78125 C 23.230469 3.78125 24.089844 4.140625 24.726562 4.777344 C 25.363281 5.410156 25.71875 6.273438 25.71875 7.171875 L 25.71875 17.695312 C 25.71875 18.59375 25.363281 19.457031 24.726562 20.09375 C 24.089844 20.730469 23.230469 21.085938 22.328125 21.085938 C 21.429688 21.085938 20.566406 20.730469 19.933594 20.09375 C 19.296875 19.457031 18.9375 18.59375 18.9375 17.695312 L 18.9375 7.171875 C 18.9375 6.273438 19.296875 5.410156 19.933594 4.777344 C 20.566406 4.140625 21.429688 3.78125 22.328125 3.78125 Z M 22.328125 3.78125 " clip-rule="nonzero"/></clipPath><clipPath id="a78f00d331"><path d="M 28.523438 0 L 35.304688 0 L 35.304688 21.113281 L 28.523438 21.113281 Z M 28.523438 0 " clip-rule="nonzero"/></clipPath><clipPath id="8397f1d442"><path d="M 31.914062 0 C 32.8125 0 33.675781 0.355469 34.308594 0.992188 C 34.945312 1.628906 35.304688 2.492188 35.304688 3.390625 L 35.304688 17.695312 C 35.304688 18.59375 34.945312 19.457031 34.308594 20.09375 C 33.675781 20.730469 32.8125 21.085938 31.914062 21.085938 C 31.011719 21.085938 30.152344 20.730469 29.515625 20.09375 C 28.878906 19.457031 28.523438 18.59375 28.523438 17.695312 L 28.523438 3.390625 C 28.523438 2.492188 28.878906 1.628906 29.515625 0.992188 C 30.152344 0.355469 31.011719 0 31.914062 0 Z M 31.914062 0 " clip-rule="nonzero"/></clipPath></defs><g clip-path="url(#88fb6fe6bb)"><g clip-path="url(#daf539cc07)"><path fill="#004aad" d="M 0.203125 13.871094 L 6.984375 13.871094 L 6.984375 21.078125 L 0.203125 21.078125 Z M 0.203125 13.871094 " fill-opacity="1" fill-rule="nonzero"/></g></g><g clip-path="url(#cdfc3fb101)"><g clip-path="url(#5231592bdd)"><path fill="#004aad" d="M 9.355469 8.464844 L 16.136719 8.464844 L 16.136719 21.074219 L 9.355469 21.074219 Z M 9.355469 8.464844 " fill-opacity="1" fill-rule="nonzero"/></g></g><g clip-path="url(#ab28716b3c)"><g clip-path="url(#d282f2478f)"><path fill="#004aad" d="M 18.9375 3.78125 L 25.71875 3.78125 L 25.71875 21.082031 L 18.9375 21.082031 Z M 18.9375 3.78125 " fill-opacity="1" fill-rule="nonzero"/></g></g><g clip-path="url(#a78f00d331)"><g clip-path="url(#8397f1d442)"><path fill="#004aad" d="M 28.523438 0 L 35.304688 0 L 35.304688 21.085938 L 28.523438 21.085938 Z M 28.523438 0 " fill-opacity="1" fill-rule="nonzero"/></g></g></svg>