<svg xmlns="http://www.w3.org/2000/svg" xmlns:xlink="http://www.w3.org/1999/xlink" width="93" zoomAndPan="magnify" viewBox="0 0 69.75 41.25" height="55" preserveAspectRatio="xMidYMid meet" version="1.0"><defs><clipPath id="a40464a617"><path d="M 16.308594 35 L 53 35 L 53 40.339844 L 16.308594 40.339844 Z M 16.308594 35 " clip-rule="nonzero"/></clipPath></defs><path fill="#4d4d4d" d="M 62.964844 8.046875 L 62.960938 10.027344 L 61.035156 11.144531 L 61.039062 9.164062 L 62.964844 8.046875 " fill-opacity="1" fill-rule="nonzero"/><path fill="#4d4d4d" d="M 8.050781 9.164062 L 8.042969 11.148438 L 6.105469 10.027344 L 6.109375 8.046875 L 8.050781 9.164062 " fill-opacity="1" fill-rule="nonzero"/><path fill="#4d4d4d" d="M 66.769531 19.820312 L 66.765625 21.800781 C 66.753906 25.46875 64.882812 29.128906 61.152344 32.269531 L 61.15625 30.289062 C 64.890625 27.148438 66.761719 23.488281 66.769531 19.820312 " fill-opacity="1" fill-rule="nonzero"/><path fill="#4d4d4d" d="M 2.441406 21.617188 L 2.449219 19.636719 C 2.4375 23.363281 4.347656 27.09375 8.167969 30.289062 L 8.164062 32.269531 C 4.339844 29.074219 2.433594 25.34375 2.441406 21.617188 " fill-opacity="1" fill-rule="nonzero"/><path fill="#4d4d4d" d="M 54.863281 36.195312 L 54.859375 38.175781 L 52.917969 37.054688 L 52.925781 35.074219 L 54.863281 36.195312 " fill-opacity="1" fill-rule="nonzero"/><path fill="#4d4d4d" d="M 63.097656 31.410156 L 63.09375 33.390625 L 54.859375 38.175781 L 54.863281 36.195312 L 63.097656 31.410156 " fill-opacity="1" fill-rule="nonzero"/><path fill="#4d4d4d" d="M 16.457031 35.074219 L 16.449219 37.054688 L 14.523438 38.175781 L 14.527344 36.195312 L 16.457031 35.074219 " fill-opacity="1" fill-rule="nonzero"/><path fill="#4d4d4d" d="M 14.527344 36.195312 L 14.523438 38.175781 L 6.234375 33.390625 L 6.242188 31.410156 L 14.527344 36.195312 " fill-opacity="1" fill-rule="nonzero"/><g clip-path="url(#a40464a617)"><path fill="#4d4d4d" d="M 52.925781 35.074219 L 52.917969 37.054688 C 42.007812 41.4375 27.425781 41.425781 16.449219 37.054688 L 16.457031 35.074219 C 27.429688 39.445312 42.015625 39.457031 52.925781 35.074219 " fill-opacity="1" fill-rule="nonzero"/></g><path fill="#c5c5c5" d="M 62.964844 8.046875 L 61.039062 9.164062 C 68.636719 15.5 68.683594 23.957031 61.15625 30.289062 L 63.097656 31.410156 L 54.863281 36.195312 L 52.925781 35.074219 C 42.015625 39.457031 27.429688 39.445312 16.457031 35.074219 L 14.527344 36.195312 L 6.242188 31.410156 L 8.167969 30.289062 C 0.585938 23.949219 0.539062 15.507812 8.050781 9.164062 L 6.109375 8.046875 L 14.34375 3.261719 L 16.28125 4.382812 C 27.207031 0.0078125 41.792969 0 52.769531 4.390625 L 54.695312 3.269531 L 62.964844 8.046875 " fill-opacity="1" fill-rule="nonzero"/><path fill="#4d4d4d" d="M 15.84375 30.574219 C 5.457031 24.578125 5.457031 14.875 15.824219 8.890625 C 26.207031 2.894531 43.011719 2.894531 53.394531 8.890625 C 63.761719 14.875 63.78125 24.589844 53.398438 30.582031 C 43.03125 36.570312 26.207031 36.558594 15.84375 30.574219 Z M 54.558594 8.21875 C 43.539062 1.855469 25.679688 1.855469 14.660156 8.21875 C 3.65625 14.570312 3.65625 24.882812 14.679688 31.246094 C 25.679688 37.597656 43.539062 37.597656 54.542969 31.246094 C 65.5625 24.882812 65.5625 14.570312 54.558594 8.21875 " fill-opacity="1" fill-rule="nonzero"/><path fill="#4d4d4d" d="M 29.574219 22.636719 C 26.785156 21.027344 26.785156 18.425781 29.570312 16.820312 C 32.355469 15.210938 36.863281 15.210938 39.652344 16.820312 C 42.433594 18.425781 42.4375 21.03125 39.652344 22.640625 C 36.871094 24.246094 32.355469 24.242188 29.574219 22.636719 Z M 40.324219 16.429688 C 37.167969 14.605469 32.050781 14.605469 28.894531 16.429688 C 25.742188 18.25 25.742188 21.203125 28.898438 23.027344 C 32.050781 24.847656 37.167969 24.847656 40.320312 23.027344 C 43.476562 21.203125 43.476562 18.25 40.324219 16.429688 " fill-opacity="1" fill-rule="nonzero"/><path fill="#4d4d4d" d="M 32.910156 20.085938 L 32.910156 19.371094 C 32.910156 19.027344 33.394531 18.746094 33.992188 18.746094 L 35.226562 18.746094 C 35.824219 18.746094 36.308594 19.027344 36.308594 19.371094 L 36.308594 20.085938 C 36.308594 20.429688 35.824219 20.710938 35.226562 20.710938 L 33.992188 20.710938 C 33.394531 20.710938 32.910156 20.429688 32.910156 20.085938 " fill-opacity="1" fill-rule="nonzero"/><path fill="#4d4d4d" d="M 32.640625 21.488281 C 32.027344 21.488281 31.5625 21.21875 31.5625 20.863281 L 31.5625 18.589844 C 31.5625 18.25 32.027344 17.96875 32.640625 17.96875 L 36.578125 17.96875 C 37.195312 17.96875 37.65625 18.25 37.65625 18.589844 L 37.65625 20.863281 C 37.65625 21.21875 37.195312 21.488281 36.578125 21.488281 Z M 38.351562 21.265625 L 38.351562 18.191406 C 38.351562 17.847656 37.863281 17.566406 37.273438 17.566406 L 31.949219 17.566406 C 31.355469 17.566406 30.867188 17.847656 30.867188 18.191406 L 30.867188 21.265625 C 30.867188 21.605469 31.355469 21.886719 31.949219 21.886719 L 37.273438 21.886719 C 37.863281 21.886719 38.351562 21.605469 38.351562 21.265625 " fill-opacity="1" fill-rule="nonzero"/><path fill="#4d4d4d" d="M 42.035156 16.699219 L 39.851562 15.441406 L 41.125 14.703125 L 43.308594 15.964844 L 42.035156 16.699219 " fill-opacity="1" fill-rule="nonzero"/><path fill="#4d4d4d" d="M 36.152344 14.554688 L 33.066406 14.554688 L 33.066406 13.515625 L 36.152344 13.515625 L 36.152344 14.554688 " fill-opacity="1" fill-rule="nonzero"/><path fill="#4d4d4d" d="M 29.367188 15.441406 L 27.183594 16.703125 L 25.90625 15.964844 L 28.089844 14.703125 L 29.367188 15.441406 " fill-opacity="1" fill-rule="nonzero"/><path fill="#4d4d4d" d="M 25.652344 18.835938 L 25.652344 20.621094 L 23.847656 20.621094 L 23.847656 18.835938 L 25.652344 18.835938 " fill-opacity="1" fill-rule="nonzero"/><path fill="#4d4d4d" d="M 27.183594 22.753906 L 29.367188 24.015625 L 28.09375 24.753906 L 25.910156 23.492188 L 27.183594 22.753906 " fill-opacity="1" fill-rule="nonzero"/><path fill="#4d4d4d" d="M 33.066406 24.898438 L 36.15625 24.898438 L 36.15625 25.941406 L 33.066406 25.941406 L 33.066406 24.898438 " fill-opacity="1" fill-rule="nonzero"/><path fill="#4d4d4d" d="M 39.851562 24.015625 L 42.035156 22.753906 L 43.3125 23.492188 L 41.128906 24.75 L 39.851562 24.015625 " fill-opacity="1" fill-rule="nonzero"/><path fill="#4d4d4d" d="M 43.566406 20.617188 L 43.566406 18.835938 L 45.371094 18.835938 L 45.371094 20.617188 L 43.566406 20.617188 " fill-opacity="1" fill-rule="nonzero"/><path fill="#4d4d4d" d="M 50.621094 11.746094 L 48.453125 10.496094 L 49.398438 9.949219 L 51.5625 11.199219 L 50.621094 11.746094 " fill-opacity="1" fill-rule="nonzero"/><path fill="#4d4d4d" d="M 52.527344 10.179688 C 52.144531 10.398438 51.53125 10.398438 51.148438 10.179688 C 50.769531 9.957031 50.769531 9.601562 51.148438 9.382812 C 51.53125 9.164062 52.144531 9.164062 52.527344 9.382812 C 52.90625 9.601562 52.90625 9.957031 52.527344 10.179688 " fill-opacity="1" fill-rule="nonzero"/><path fill="#4d4d4d" d="M 44.109375 8.816406 L 41.28125 8.136719 L 41.789062 7.425781 L 44.617188 8.105469 L 44.109375 8.816406 " fill-opacity="1" fill-rule="nonzero"/><path fill="#4d4d4d" d="M 44.832031 6.945312 C 44.625 7.234375 44.058594 7.371094 43.558594 7.25 C 43.0625 7.132812 42.828125 6.800781 43.03125 6.515625 C 43.238281 6.230469 43.808594 6.09375 44.304688 6.210938 C 44.804688 6.332031 45.039062 6.660156 44.832031 6.945312 " fill-opacity="1" fill-rule="nonzero"/><path fill="#4d4d4d" d="M 36.152344 7.546875 L 33.089844 7.546875 L 33.089844 6.777344 L 36.152344 6.777344 L 36.152344 7.546875 " fill-opacity="1" fill-rule="nonzero"/><path fill="#4d4d4d" d="M 35.582031 5.660156 C 35.582031 5.96875 35.144531 6.222656 34.609375 6.222656 C 34.070312 6.222656 33.632812 5.96875 33.632812 5.660156 C 33.632812 5.347656 34.070312 5.097656 34.609375 5.097656 C 35.144531 5.097656 35.582031 5.347656 35.582031 5.660156 " fill-opacity="1" fill-rule="nonzero"/><path fill="#4d4d4d" d="M 27.960938 8.132812 L 25.132812 8.808594 L 24.621094 8.097656 L 27.449219 7.421875 L 27.960938 8.132812 " fill-opacity="1" fill-rule="nonzero"/><path fill="#4d4d4d" d="M 26.183594 6.515625 C 26.390625 6.804688 26.152344 7.132812 25.65625 7.25 C 25.160156 7.371094 24.589844 7.234375 24.382812 6.945312 C 24.175781 6.660156 24.414062 6.332031 24.910156 6.210938 C 25.40625 6.09375 25.976562 6.230469 26.183594 6.515625 " fill-opacity="1" fill-rule="nonzero"/><path fill="#4d4d4d" d="M 20.78125 10.484375 L 18.617188 11.734375 L 17.675781 11.191406 L 19.839844 9.941406 L 20.78125 10.484375 " fill-opacity="1" fill-rule="nonzero"/><path fill="#4d4d4d" d="M 18.066406 9.382812 C 18.449219 9.601562 18.449219 9.957031 18.066406 10.179688 C 17.6875 10.398438 17.070312 10.398438 16.691406 10.179688 C 16.308594 9.957031 16.308594 9.601562 16.691406 9.382812 C 17.070312 9.164062 17.6875 9.164062 18.066406 9.382812 " fill-opacity="1" fill-rule="nonzero"/><path fill="#4d4d4d" d="M 15.707031 14.242188 L 14.535156 15.875 L 13.304688 15.582031 L 14.476562 13.949219 L 15.707031 14.242188 " fill-opacity="1" fill-rule="nonzero"/><path fill="#4d4d4d" d="M 12.46875 13.824219 C 12.96875 13.945312 13.203125 14.273438 12.996094 14.558594 C 12.792969 14.847656 12.222656 14.984375 11.726562 14.863281 C 11.226562 14.746094 10.992188 14.417969 11.195312 14.128906 C 11.402344 13.84375 11.972656 13.707031 12.46875 13.824219 " fill-opacity="1" fill-rule="nonzero"/><path fill="#4d4d4d" d="M 13.511719 18.835938 L 13.511719 20.605469 L 12.175781 20.605469 L 12.175781 18.835938 L 13.511719 18.835938 " fill-opacity="1" fill-rule="nonzero"/><path fill="#4d4d4d" d="M 10.242188 19.164062 C 10.78125 19.164062 11.21875 19.417969 11.21875 19.726562 C 11.21875 20.039062 10.78125 20.289062 10.242188 20.289062 C 9.703125 20.289062 9.269531 20.039062 9.269531 19.726562 C 9.269531 19.417969 9.703125 19.164062 10.242188 19.164062 " fill-opacity="1" fill-rule="nonzero"/><path fill="#4d4d4d" d="M 14.527344 23.566406 L 15.695312 25.199219 L 14.464844 25.492188 L 13.296875 23.859375 L 14.527344 23.566406 " fill-opacity="1" fill-rule="nonzero"/><path fill="#4d4d4d" d="M 11.726562 24.59375 C 12.222656 24.472656 12.792969 24.609375 13 24.898438 C 13.203125 25.183594 12.96875 25.511719 12.472656 25.632812 C 11.972656 25.75 11.402344 25.613281 11.199219 25.328125 C 10.992188 25.039062 11.226562 24.710938 11.726562 24.59375 " fill-opacity="1" fill-rule="nonzero"/><path fill="#4d4d4d" d="M 18.597656 27.710938 L 20.765625 28.960938 L 19.820312 29.503906 L 17.65625 28.253906 L 18.597656 27.710938 " fill-opacity="1" fill-rule="nonzero"/><path fill="#4d4d4d" d="M 16.691406 29.277344 C 17.074219 29.058594 17.6875 29.058594 18.070312 29.277344 C 18.449219 29.496094 18.449219 29.855469 18.070312 30.074219 C 17.6875 30.292969 17.074219 30.292969 16.691406 30.074219 C 16.3125 29.855469 16.3125 29.496094 16.691406 29.277344 " fill-opacity="1" fill-rule="nonzero"/><path fill="#4d4d4d" d="M 25.109375 30.640625 L 27.9375 31.316406 L 27.429688 32.027344 L 24.601562 31.351562 L 25.109375 30.640625 " fill-opacity="1" fill-rule="nonzero"/><path fill="#4d4d4d" d="M 24.386719 32.507812 C 24.59375 32.222656 25.160156 32.085938 25.660156 32.207031 C 26.15625 32.324219 26.390625 32.652344 26.1875 32.941406 C 25.980469 33.226562 25.410156 33.363281 24.914062 33.246094 C 24.417969 33.125 24.179688 32.796875 24.386719 32.507812 " fill-opacity="1" fill-rule="nonzero"/><path fill="#4d4d4d" d="M 33.066406 31.910156 L 36.128906 31.910156 L 36.128906 32.679688 L 33.066406 32.679688 L 33.066406 31.910156 " fill-opacity="1" fill-rule="nonzero"/><path fill="#4d4d4d" d="M 33.636719 33.796875 C 33.636719 33.484375 34.074219 33.234375 34.609375 33.234375 C 35.148438 33.234375 35.585938 33.484375 35.585938 33.796875 C 35.585938 34.105469 35.148438 34.359375 34.609375 34.359375 C 34.074219 34.359375 33.636719 34.105469 33.636719 33.796875 " fill-opacity="1" fill-rule="nonzero"/><path fill="#4d4d4d" d="M 41.257812 31.324219 L 44.085938 30.648438 L 44.597656 31.359375 L 41.769531 32.035156 L 41.257812 31.324219 " fill-opacity="1" fill-rule="nonzero"/><path fill="#4d4d4d" d="M 43.035156 32.941406 C 42.828125 32.652344 43.066406 32.324219 43.5625 32.207031 C 44.058594 32.085938 44.628906 32.222656 44.835938 32.507812 C 45.042969 32.796875 44.804688 33.125 44.308594 33.246094 C 43.8125 33.363281 43.242188 33.226562 43.035156 32.941406 " fill-opacity="1" fill-rule="nonzero"/><path fill="#4d4d4d" d="M 48.4375 28.972656 L 50.601562 27.722656 L 51.546875 28.265625 L 49.378906 29.515625 L 48.4375 28.972656 " fill-opacity="1" fill-rule="nonzero"/><path fill="#4d4d4d" d="M 51.152344 30.074219 C 50.769531 29.851562 50.769531 29.496094 51.152344 29.277344 C 51.53125 29.058594 52.148438 29.058594 52.527344 29.277344 C 52.910156 29.496094 52.910156 29.851562 52.527344 30.074219 C 52.148438 30.292969 51.53125 30.292969 51.152344 30.074219 " fill-opacity="1" fill-rule="nonzero"/><path fill="#4d4d4d" d="M 53.511719 25.214844 L 54.683594 23.578125 L 55.914062 23.875 L 54.742188 25.507812 L 53.511719 25.214844 " fill-opacity="1" fill-rule="nonzero"/><path fill="#4d4d4d" d="M 56.75 25.628906 C 56.25 25.511719 56.015625 25.183594 56.222656 24.894531 C 56.425781 24.609375 56.996094 24.472656 57.496094 24.589844 C 57.992188 24.710938 58.226562 25.039062 58.023438 25.328125 C 57.816406 25.613281 57.246094 25.75 56.75 25.628906 " fill-opacity="1" fill-rule="nonzero"/><path fill="#4d4d4d" d="M 55.707031 20.617188 L 55.707031 18.851562 L 57.042969 18.851562 L 57.042969 20.617188 L 55.707031 20.617188 " fill-opacity="1" fill-rule="nonzero"/><path fill="#4d4d4d" d="M 58.976562 20.289062 C 58.4375 20.289062 58 20.039062 58 19.726562 C 58 19.417969 58.4375 19.164062 58.976562 19.164062 C 59.515625 19.164062 59.949219 19.417969 59.949219 19.726562 C 59.949219 20.039062 59.515625 20.289062 58.976562 20.289062 " fill-opacity="1" fill-rule="nonzero"/><path fill="#4d4d4d" d="M 54.691406 15.890625 L 53.519531 14.257812 L 54.753906 13.960938 L 55.925781 15.59375 L 54.691406 15.890625 " fill-opacity="1" fill-rule="nonzero"/><path fill="#4d4d4d" d="M 57.492188 14.863281 C 56.996094 14.984375 56.425781 14.847656 56.21875 14.558594 C 56.015625 14.273438 56.25 13.945312 56.746094 13.824219 C 57.246094 13.707031 57.816406 13.839844 58.019531 14.128906 C 58.226562 14.414062 57.992188 14.746094 57.492188 14.863281 " fill-opacity="1" fill-rule="nonzero"/><path fill="#4d4d4d" d="M 25.484375 25 C 20.4375 22.085938 20.433594 17.367188 25.476562 14.457031 C 30.523438 11.542969 38.695312 11.542969 43.742188 14.457031 C 48.785156 17.367188 48.792969 22.089844 43.742188 25.007812 C 38.703125 27.914062 30.523438 27.910156 25.484375 25 Z M 45.488281 13.449219 C 39.480469 9.980469 29.738281 9.980469 23.730469 13.449219 C 17.726562 16.914062 17.726562 22.539062 23.738281 26.007812 C 29.738281 29.472656 39.480469 29.472656 45.480469 26.007812 C 51.492188 22.539062 51.492188 16.914062 45.488281 13.449219 " fill-opacity="1" fill-rule="nonzero"/><path fill="#4d4d4d" d="M 48.171875 12.695312 C 47.792969 12.910156 47.1875 12.910156 46.8125 12.695312 C 46.433594 12.476562 46.433594 12.125 46.8125 11.910156 C 47.1875 11.691406 47.792969 11.691406 48.171875 11.910156 C 48.546875 12.125 48.546875 12.476562 48.171875 12.695312 " fill-opacity="1" fill-rule="nonzero"/><path fill="#4d4d4d" d="M 35.582031 9.21875 C 35.582031 9.523438 35.152344 9.773438 34.621094 9.773438 C 34.089844 9.773438 33.660156 9.523438 33.660156 9.21875 C 33.660156 8.910156 34.089844 8.664062 34.621094 8.664062 C 35.152344 8.664062 35.582031 8.910156 35.582031 9.21875 " fill-opacity="1" fill-rule="nonzero"/><path fill="#4d4d4d" d="M 22.425781 11.898438 C 22.800781 12.113281 22.800781 12.46875 22.425781 12.683594 C 22.050781 12.898438 21.441406 12.898438 21.066406 12.683594 C 20.691406 12.46875 20.691406 12.113281 21.066406 11.898438 C 21.441406 11.683594 22.050781 11.683594 22.425781 11.898438 " fill-opacity="1" fill-rule="nonzero"/><path fill="#4d4d4d" d="M 16.40625 19.164062 C 16.9375 19.164062 17.367188 19.414062 17.367188 19.722656 C 17.367188 20.027344 16.9375 20.277344 16.40625 20.277344 C 15.875 20.277344 15.445312 20.027344 15.445312 19.722656 C 15.445312 19.414062 15.875 19.164062 16.40625 19.164062 " fill-opacity="1" fill-rule="nonzero"/><path fill="#4d4d4d" d="M 21.050781 26.761719 C 21.425781 26.546875 22.03125 26.546875 22.40625 26.761719 C 22.785156 26.980469 22.785156 27.332031 22.40625 27.546875 C 22.03125 27.765625 21.425781 27.765625 21.050781 27.546875 C 20.671875 27.332031 20.671875 26.980469 21.050781 26.761719 " fill-opacity="1" fill-rule="nonzero"/><path fill="#4d4d4d" d="M 33.636719 30.238281 C 33.636719 29.933594 34.066406 29.683594 34.597656 29.683594 C 35.128906 29.683594 35.558594 29.933594 35.558594 30.238281 C 35.558594 30.546875 35.128906 30.792969 34.597656 30.792969 C 34.066406 30.792969 33.636719 30.546875 33.636719 30.238281 " fill-opacity="1" fill-rule="nonzero"/><path fill="#4d4d4d" d="M 46.792969 27.558594 C 46.417969 27.339844 46.417969 26.988281 46.792969 26.773438 C 47.167969 26.554688 47.777344 26.554688 48.152344 26.773438 C 48.527344 26.988281 48.527344 27.339844 48.152344 27.558594 C 47.777344 27.773438 47.167969 27.773438 46.792969 27.558594 " fill-opacity="1" fill-rule="nonzero"/><path fill="#4d4d4d" d="M 52.8125 20.289062 C 52.28125 20.289062 51.851562 20.042969 51.851562 19.734375 C 51.851562 19.429688 52.28125 19.179688 52.8125 19.179688 C 53.34375 19.179688 53.773438 19.429688 53.773438 19.734375 C 53.773438 20.042969 53.34375 20.289062 52.8125 20.289062 " fill-opacity="1" fill-rule="nonzero"/></svg>