<svg xmlns="http://www.w3.org/2000/svg" xmlns:xlink="http://www.w3.org/1999/xlink" width="185" zoomAndPan="magnify" viewBox="0 0 138.75 24.749999" height="33" preserveAspectRatio="xMidYMid meet" version="1.0"><defs><clipPath id="09b5c8fee2"><path d="M 0.570312 0 L 45.488281 0 L 45.488281 23.902344 L 0.570312 23.902344 Z M 0.570312 0 " clip-rule="nonzero"/></clipPath><clipPath id="c2fa2365a1"><path d="M 1.277344 15.929688 C 0.847656 14.707031 0.566406 13.308594 0.566406 11.941406 C 0.566406 10.574219 0.808594 9.257812 1.238281 8.046875 C 1.25 8.019531 1.25 7.992188 1.265625 7.96875 C 2.988281 3.414062 7.53125 0.0585938 13.164062 -0.0078125 L 45.46875 -0.0078125 L 45.46875 23.902344 L 13.1875 23.902344 C 7.503906 23.839844 2.960938 20.535156 1.277344 15.929688 Z M 1.277344 15.929688 " clip-rule="nonzero"/></clipPath><clipPath id="96e12ebecb"><path d="M 46.785156 0.00390625 L 91.683594 0.00390625 L 91.683594 23.914062 L 46.785156 23.914062 Z M 46.785156 0.00390625 " clip-rule="nonzero"/></clipPath><clipPath id="6fa22b00d6"><path d="M 92.699219 0.00390625 L 137.625 0.00390625 L 137.625 23.914062 L 92.699219 23.914062 Z M 92.699219 0.00390625 " clip-rule="nonzero"/></clipPath><clipPath id="6af799b478"><path d="M 136.910156 7.976562 C 137.34375 9.199219 137.625 10.597656 137.625 11.964844 C 137.625 13.332031 137.382812 14.648438 136.953125 15.863281 C 136.9375 15.886719 136.9375 15.914062 136.925781 15.9375 C 135.203125 20.496094 130.660156 23.847656 125.027344 23.914062 L 92.722656 23.914062 L 92.722656 0.00390625 L 125.003906 0.00390625 C 130.6875 0.0703125 135.230469 3.371094 136.910156 7.976562 Z M 136.910156 7.976562 " clip-rule="nonzero"/></clipPath></defs><g clip-path="url(#96e12ebecb)"><path d="M 91.683594 0.00390625 L 91.683594 23.914062 L 46.761719 23.914062 L 46.761719 0.00390625 Z M 91.683594 0.00390625 " fill-opacity="1" fill-rule="nonzero"/></g></svg>
