<svg xmlns="http://www.w3.org/2000/svg" xmlns:xlink="http://www.w3.org/1999/xlink" width="55" zoomAndPan="magnify" viewBox="0 0 41.25 277.499989" height="370" preserveAspectRatio="xMidYMid meet" version="1.0"><defs><clipPath id="5daf824206"><path d="M 5.523438 2.230469 L 34.988281 2.230469 L 34.988281 274.777344 L 5.523438 274.777344 Z M 5.523438 2.230469 " clip-rule="nonzero"/></clipPath><clipPath id="bf6fe16920"><path d="M 20.257812 2.230469 C 24.164062 2.230469 27.910156 3.785156 30.675781 6.546875 C 33.4375 9.308594 34.988281 13.058594 34.988281 16.964844 L 34.988281 260.042969 C 34.988281 263.953125 33.4375 267.699219 30.675781 270.460938 C 27.910156 273.226562 24.164062 274.777344 20.257812 274.777344 C 16.347656 274.777344 12.601562 273.226562 9.839844 270.460938 C 7.078125 267.699219 5.523438 263.953125 5.523438 260.042969 L 5.523438 16.964844 C 5.523438 13.058594 7.078125 9.308594 9.839844 6.546875 C 12.601562 3.785156 16.347656 2.230469 20.257812 2.230469 Z M 20.257812 2.230469 " clip-rule="nonzero"/></clipPath></defs><g clip-path="url(#5daf824206)"><g clip-path="url(#bf6fe16920)"><path fill="#005fa0" d="M 5.523438 2.230469 L 34.988281 2.230469 L 34.988281 274.777344 L 5.523438 274.777344 Z M 5.523438 2.230469 " fill-opacity="1" fill-rule="nonzero"/></g></g></svg>