<svg xmlns="http://www.w3.org/2000/svg" xmlns:xlink="http://www.w3.org/1999/xlink" width="57" zoomAndPan="magnify" viewBox="0 0 42.75 277.499983" height="370" preserveAspectRatio="xMidYMid meet" version="1.0"><defs><clipPath id="032f73c85a"><path d="M 0 0.558594 L 42.5 0.558594 L 42.5 276.445312 L 0 276.445312 Z M 0 0.558594 " clip-rule="nonzero"/></clipPath><clipPath id="d08d9e0b38"><path d="M 7.457031 0.558594 L 35.046875 0.558594 C 37.023438 0.558594 38.917969 1.34375 40.316406 2.742188 C 41.714844 4.140625 42.5 6.035156 42.5 8.015625 L 42.5 268.988281 C 42.5 270.964844 41.714844 272.863281 40.316406 274.261719 C 38.917969 275.660156 37.023438 276.445312 35.046875 276.445312 L 7.457031 276.445312 C 5.480469 276.445312 3.582031 275.660156 2.183594 274.261719 C 0.785156 272.863281 0 270.964844 0 268.988281 L 0 8.015625 C 0 6.035156 0.785156 4.140625 2.183594 2.742188 C 3.582031 1.34375 5.480469 0.558594 7.457031 0.558594 Z M 7.457031 0.558594 " clip-rule="nonzero"/></clipPath></defs><g clip-path="url(#032f73c85a)"><g clip-path="url(#d08d9e0b38)"><path fill="#9cd3e5" d="M 0 0.558594 L 42.5 0.558594 L 42.5 276.484375 L 0 276.484375 Z M 0 0.558594 " fill-opacity="1" fill-rule="nonzero"/></g></g></svg>