<svg xmlns="http://www.w3.org/2000/svg" xmlns:xlink="http://www.w3.org/1999/xlink" width="100%" zoomAndPan="magnify" viewBox="0 0 114.75 19.5" height="100%" preserveAspectRatio="xMidYMid meet" version="1.0"><defs><clipPath id="be8c387894"><path d="M 1.3125 0 L 30.441406 0 L 30.441406 18.589844 L 1.3125 18.589844 Z M 1.3125 0 " clip-rule="nonzero"/></clipPath><clipPath id="d35a9fffce"><path d="M 1.855469 12.386719 C 1.527344 11.4375 1.3125 10.347656 1.3125 9.285156 C 1.3125 8.222656 1.496094 7.199219 1.824219 6.253906 C 1.832031 6.234375 1.832031 6.214844 1.84375 6.195312 C 3.152344 2.652344 6.601562 0.0429688 10.769531 -0.0078125 L 30.386719 -0.0078125 L 30.386719 18.589844 L 10.785156 18.589844 C 6.582031 18.539062 3.128906 15.96875 1.855469 12.386719 Z M 1.855469 12.386719 " clip-rule="nonzero"/></clipPath><clipPath id="6e1896ccce"><path d="M 83.453125 0 L 112.585938 0 L 112.585938 18.597656 L 83.453125 18.597656 Z M 83.453125 0 " clip-rule="nonzero"/></clipPath><clipPath id="2b7c564db1"><path d="M 112.042969 6.203125 C 112.371094 7.152344 112.585938 8.238281 112.585938 9.304688 C 112.585938 10.367188 112.402344 11.390625 112.074219 12.332031 C 112.0625 12.355469 112.0625 12.375 112.054688 12.394531 C 110.746094 15.9375 107.296875 18.546875 103.128906 18.597656 L 83.507812 18.597656 L 83.507812 0 L 103.113281 0 C 107.316406 0.0507812 110.765625 2.617188 112.042969 6.203125 Z M 112.042969 6.203125 " clip-rule="nonzero"/></clipPath><clipPath id="0accaa2dc7"><path d="M 31.253906 0 L 56.648438 0 L 56.648438 18.597656 L 31.253906 18.597656 Z M 31.253906 0 " clip-rule="nonzero"/></clipPath><clipPath id="4cc44e101f"><path d="M 57.386719 0 L 82.78125 0 L 82.78125 18.597656 L 57.386719 18.597656 Z M 57.386719 0 " clip-rule="nonzero"/></clipPath></defs><g clip-path="url(#4cc44e101f)"><path fill="" d="M 57.386719 0 L 82.8125 0 L 82.8125 18.597656 L 57.386719 18.597656 Z M 57.386719 0 " fill-opacity="1" fill-rule="nonzero"/></g></svg>
