<svg xmlns="http://www.w3.org/2000/svg" xmlns:xlink="http://www.w3.org/1999/xlink" width="452" zoomAndPan="magnify" viewBox="0 0 339 103.5" height="138" preserveAspectRatio="xMidYMid meet" version="1.0"><defs><g/><clipPath id="3cf105fb90"><path d="M 78.414062 61.664062 L 338 61.664062 L 338 79.578125 L 78.414062 79.578125 Z M 78.414062 61.664062 " clip-rule="nonzero"/></clipPath><clipPath id="5cf62b8ab3"><path d="M 82.890625 61.664062 L 333.503906 61.664062 C 334.691406 61.664062 335.832031 62.132812 336.671875 62.972656 C 337.511719 63.8125 337.984375 64.953125 337.984375 66.140625 L 337.984375 75.0625 C 337.984375 76.25 337.511719 77.390625 336.671875 78.230469 C 335.832031 79.070312 334.691406 79.542969 333.503906 79.542969 L 82.890625 79.542969 C 81.703125 79.542969 80.566406 79.070312 79.726562 78.230469 C 78.886719 77.390625 78.414062 76.25 78.414062 75.0625 L 78.414062 66.140625 C 78.414062 64.953125 78.886719 63.8125 79.726562 62.972656 C 80.566406 62.132812 81.703125 61.664062 82.890625 61.664062 Z M 82.890625 61.664062 " clip-rule="nonzero"/></clipPath><clipPath id="a159fa406c"><path d="M 120.609375 41.539062 L 337.78125 41.539062 L 337.78125 59.453125 L 120.609375 59.453125 Z M 120.609375 41.539062 " clip-rule="nonzero"/></clipPath><clipPath id="9ce9eca9fa"><path d="M 125.085938 41.539062 L 333.507812 41.539062 C 334.695312 41.539062 335.835938 42.011719 336.675781 42.851562 C 337.515625 43.691406 337.984375 44.828125 337.984375 46.015625 L 337.984375 54.941406 C 337.984375 56.128906 337.515625 57.265625 336.675781 58.105469 C 335.835938 58.945312 334.695312 59.417969 333.507812 59.417969 L 125.085938 59.417969 C 123.898438 59.417969 122.757812 58.945312 121.917969 58.105469 C 121.078125 57.265625 120.609375 56.128906 120.609375 54.941406 L 120.609375 46.015625 C 120.609375 44.828125 121.078125 43.691406 121.917969 42.851562 C 122.757812 42.011719 123.898438 41.539062 125.085938 41.539062 Z M 125.085938 41.539062 " clip-rule="nonzero"/></clipPath><clipPath id="7512586b44"><path d="M 78.414062 21.335938 L 338 21.335938 L 338 39.246094 L 78.414062 39.246094 Z M 78.414062 21.335938 " clip-rule="nonzero"/></clipPath><clipPath id="ae793b79f1"><path d="M 82.890625 21.335938 L 333.503906 21.335938 C 334.691406 21.335938 335.832031 21.804688 336.671875 22.644531 C 337.511719 23.484375 337.984375 24.625 337.984375 25.8125 L 337.984375 34.734375 C 337.984375 35.921875 337.511719 37.0625 336.671875 37.902344 C 335.832031 38.742188 334.691406 39.210938 333.503906 39.210938 L 82.890625 39.210938 C 81.703125 39.210938 80.566406 38.742188 79.726562 37.902344 C 78.886719 37.0625 78.414062 35.921875 78.414062 34.734375 L 78.414062 25.8125 C 78.414062 24.625 78.886719 23.484375 79.726562 22.644531 C 80.566406 21.804688 81.703125 21.335938 82.890625 21.335938 Z M 82.890625 21.335938 " clip-rule="nonzero"/></clipPath><clipPath id="21e19c5bd7"><path d="M 71.5625 1.210938 L 328.292969 1.210938 L 328.292969 19.125 L 71.5625 19.125 Z M 71.5625 1.210938 " clip-rule="nonzero"/></clipPath><clipPath id="4a1fe18cd1"><path d="M 76.039062 1.210938 L 323.921875 1.210938 C 325.109375 1.210938 326.246094 1.683594 327.085938 2.523438 C 327.925781 3.363281 328.398438 4.5 328.398438 5.6875 L 328.398438 14.613281 C 328.398438 15.800781 327.925781 16.9375 327.085938 17.777344 C 326.246094 18.617188 325.109375 19.089844 323.921875 19.089844 L 76.039062 19.089844 C 74.855469 19.089844 73.714844 18.617188 72.875 17.777344 C 72.035156 16.9375 71.5625 15.800781 71.5625 14.613281 L 71.5625 5.6875 C 71.5625 4.5 72.035156 3.363281 72.875 2.523438 C 73.714844 1.683594 74.855469 1.210938 76.039062 1.210938 Z M 76.039062 1.210938 " clip-rule="nonzero"/></clipPath></defs><g fill="#ffffff" fill-opacity="0.4"><g transform="translate(5.445709, 33.94428)"><g><path d="M 0.546875 0 L 0.546875 -7.359375 L 2.46875 -7.359375 L 2.46875 -1.546875 L 6.296875 -1.546875 L 6.296875 0 Z M 0.546875 0 "/></g></g></g><g fill="#ffffff" fill-opacity="0.4"><g transform="translate(11.552111, 33.94428)"><g><path d="M 5 0.265625 C 4.070312 0.265625 3.257812 0.101562 2.5625 -0.21875 C 1.863281 -0.550781 1.316406 -1.015625 0.921875 -1.609375 C 0.535156 -2.203125 0.34375 -2.894531 0.34375 -3.6875 C 0.34375 -4.476562 0.535156 -5.164062 0.921875 -5.75 C 1.316406 -6.34375 1.863281 -6.800781 2.5625 -7.125 C 3.257812 -7.457031 4.070312 -7.625 5 -7.625 C 5.9375 -7.625 6.753906 -7.457031 7.453125 -7.125 C 8.160156 -6.800781 8.707031 -6.34375 9.09375 -5.75 C 9.488281 -5.164062 9.6875 -4.476562 9.6875 -3.6875 C 9.6875 -2.894531 9.488281 -2.203125 9.09375 -1.609375 C 8.707031 -1.015625 8.160156 -0.550781 7.453125 -0.21875 C 6.753906 0.101562 5.9375 0.265625 5 0.265625 Z M 5 -1.25 C 5.550781 -1.25 6.035156 -1.347656 6.453125 -1.546875 C 6.867188 -1.753906 7.191406 -2.039062 7.421875 -2.40625 C 7.648438 -2.769531 7.765625 -3.195312 7.765625 -3.6875 C 7.765625 -4.175781 7.648438 -4.597656 7.421875 -4.953125 C 7.191406 -5.316406 6.867188 -5.597656 6.453125 -5.796875 C 6.035156 -6.003906 5.550781 -6.109375 5 -6.109375 C 4.457031 -6.109375 3.976562 -6.003906 3.5625 -5.796875 C 3.15625 -5.597656 2.835938 -5.316406 2.609375 -4.953125 C 2.378906 -4.597656 2.265625 -4.175781 2.265625 -3.6875 C 2.265625 -3.195312 2.378906 -2.769531 2.609375 -2.40625 C 2.835938 -2.039062 3.15625 -1.753906 3.5625 -1.546875 C 3.976562 -1.347656 4.457031 -1.25 5 -1.25 Z M 5 -1.25 "/></g></g></g><g fill="#ffffff" fill-opacity="0.4"><g transform="translate(21.233701, 33.94428)"><g><path d="M 4.9375 0.234375 C 4 0.234375 3.1875 0.078125 2.5 -0.234375 C 1.8125 -0.554688 1.28125 -1.007812 0.90625 -1.59375 C 0.53125 -2.175781 0.34375 -2.875 0.34375 -3.6875 C 0.34375 -4.476562 0.519531 -5.164062 0.875 -5.75 C 1.226562 -6.34375 1.726562 -6.800781 2.375 -7.125 C 3.019531 -7.445312 3.789062 -7.609375 4.6875 -7.609375 C 5.363281 -7.609375 5.972656 -7.5 6.515625 -7.28125 C 7.066406 -7.0625 7.523438 -6.753906 7.890625 -6.359375 C 8.265625 -5.960938 8.515625 -5.488281 8.640625 -4.9375 L 6.890625 -4.515625 C 6.773438 -5.003906 6.519531 -5.382812 6.125 -5.65625 C 5.738281 -5.9375 5.269531 -6.078125 4.71875 -6.078125 C 4.21875 -6.078125 3.78125 -5.976562 3.40625 -5.78125 C 3.039062 -5.59375 2.757812 -5.316406 2.5625 -4.953125 C 2.363281 -4.597656 2.265625 -4.175781 2.265625 -3.6875 C 2.265625 -3.195312 2.375 -2.769531 2.59375 -2.40625 C 2.8125 -2.050781 3.125 -1.773438 3.53125 -1.578125 C 3.945312 -1.378906 4.429688 -1.28125 4.984375 -1.28125 C 5.640625 -1.28125 6.195312 -1.445312 6.65625 -1.78125 C 7.113281 -2.113281 7.398438 -2.554688 7.515625 -3.109375 L 9.3125 -2.8125 C 9.195312 -2.1875 8.941406 -1.644531 8.546875 -1.1875 C 8.160156 -0.726562 7.65625 -0.375 7.03125 -0.125 C 6.414062 0.113281 5.71875 0.234375 4.9375 0.234375 Z M 4.9375 0.234375 "/></g></g></g><g fill="#ffffff" fill-opacity="0.4"><g transform="translate(30.39865, 33.94428)"><g><path d="M 0.046875 0 L 3.25 -7.359375 L 5.546875 -7.359375 L 8.703125 0 L 6.703125 0 L 6.109375 -1.453125 L 2.625 -1.453125 L 2.03125 0 Z M 3.015625 -2.703125 L 5.71875 -2.703125 L 4.390625 -5.984375 L 4.375 -5.984375 Z M 3.015625 -2.703125 "/></g></g></g><g fill="#ffffff" fill-opacity="0.4"><g transform="translate(38.8093, 33.94428)"><g><path d="M 2.765625 0 L 2.765625 -5.859375 L 0.109375 -5.859375 L 0.109375 -7.359375 L 7.328125 -7.359375 L 7.328125 -5.859375 L 4.6875 -5.859375 L 4.6875 0 Z M 2.765625 0 "/></g></g></g><g fill="#ffffff" fill-opacity="0.4"><g transform="translate(45.917997, 33.94428)"><g><path d="M 0.546875 0 L 0.546875 -7.359375 L 2.46875 -7.359375 L 2.46875 0 Z M 0.546875 0 "/></g></g></g><g fill="#ffffff" fill-opacity="0.4"><g transform="translate(48.593873, 33.94428)"><g><path d="M 5 0.265625 C 4.070312 0.265625 3.257812 0.101562 2.5625 -0.21875 C 1.863281 -0.550781 1.316406 -1.015625 0.921875 -1.609375 C 0.535156 -2.203125 0.34375 -2.894531 0.34375 -3.6875 C 0.34375 -4.476562 0.535156 -5.164062 0.921875 -5.75 C 1.316406 -6.34375 1.863281 -6.800781 2.5625 -7.125 C 3.257812 -7.457031 4.070312 -7.625 5 -7.625 C 5.9375 -7.625 6.753906 -7.457031 7.453125 -7.125 C 8.160156 -6.800781 8.707031 -6.34375 9.09375 -5.75 C 9.488281 -5.164062 9.6875 -4.476562 9.6875 -3.6875 C 9.6875 -2.894531 9.488281 -2.203125 9.09375 -1.609375 C 8.707031 -1.015625 8.160156 -0.550781 7.453125 -0.21875 C 6.753906 0.101562 5.9375 0.265625 5 0.265625 Z M 5 -1.25 C 5.550781 -1.25 6.035156 -1.347656 6.453125 -1.546875 C 6.867188 -1.753906 7.191406 -2.039062 7.421875 -2.40625 C 7.648438 -2.769531 7.765625 -3.195312 7.765625 -3.6875 C 7.765625 -4.175781 7.648438 -4.597656 7.421875 -4.953125 C 7.191406 -5.316406 6.867188 -5.597656 6.453125 -5.796875 C 6.035156 -6.003906 5.550781 -6.109375 5 -6.109375 C 4.457031 -6.109375 3.976562 -6.003906 3.5625 -5.796875 C 3.15625 -5.597656 2.835938 -5.316406 2.609375 -4.953125 C 2.378906 -4.597656 2.265625 -4.175781 2.265625 -3.6875 C 2.265625 -3.195312 2.378906 -2.769531 2.609375 -2.40625 C 2.835938 -2.039062 3.15625 -1.753906 3.5625 -1.546875 C 3.976562 -1.347656 4.457031 -1.25 5 -1.25 Z M 5 -1.25 "/></g></g></g><g fill="#ffffff" fill-opacity="0.4"><g transform="translate(58.275467, 33.94428)"><g><path d="M 0.546875 0 L 0.546875 -7.359375 L 2.84375 -7.359375 L 6.65625 -2.0625 L 6.65625 -7.359375 L 8.5 -7.359375 L 8.5 0 L 6.203125 0 L 2.375 -5.328125 L 2.375 0 Z M 0.546875 0 "/></g></g></g><g fill="#ffffff" fill-opacity="0.4"><g transform="translate(66.975431, 33.94428)"><g/></g></g><g fill="#ffffff" fill-opacity="0.4"><g transform="translate(69.134662, 33.94428)"><g><path d="M 1.296875 -3.703125 C 1.003906 -3.703125 0.765625 -3.785156 0.578125 -3.953125 C 0.390625 -4.128906 0.296875 -4.359375 0.296875 -4.640625 C 0.296875 -4.898438 0.390625 -5.117188 0.578125 -5.296875 C 0.765625 -5.472656 1.003906 -5.5625 1.296875 -5.5625 C 1.597656 -5.5625 1.84375 -5.472656 2.03125 -5.296875 C 2.21875 -5.117188 2.3125 -4.898438 2.3125 -4.640625 C 2.3125 -4.359375 2.21875 -4.128906 2.03125 -3.953125 C 1.84375 -3.785156 1.597656 -3.703125 1.296875 -3.703125 Z M 1.296875 0.109375 C 1.003906 0.109375 0.765625 0.0234375 0.578125 -0.140625 C 0.390625 -0.316406 0.296875 -0.539062 0.296875 -0.8125 C 0.296875 -1.09375 0.390625 -1.316406 0.578125 -1.484375 C 0.765625 -1.660156 1.003906 -1.75 1.296875 -1.75 C 1.597656 -1.75 1.84375 -1.660156 2.03125 -1.484375 C 2.21875 -1.316406 2.3125 -1.09375 2.3125 -0.8125 C 2.3125 -0.539062 2.21875 -0.316406 2.03125 -0.140625 C 1.84375 0.0234375 1.597656 0.109375 1.296875 0.109375 Z M 1.296875 0.109375 "/></g></g></g><g fill="#004aad" fill-opacity="1"><g transform="translate(4.988579, 33.48715)"><g><path d="M 0.546875 0 L 0.546875 -7.359375 L 2.46875 -7.359375 L 2.46875 -1.546875 L 6.296875 -1.546875 L 6.296875 0 Z M 0.546875 0 "/></g></g></g><g fill="#004aad" fill-opacity="1"><g transform="translate(11.09498, 33.48715)"><g><path d="M 5 0.265625 C 4.070312 0.265625 3.257812 0.101562 2.5625 -0.21875 C 1.863281 -0.550781 1.316406 -1.015625 0.921875 -1.609375 C 0.535156 -2.203125 0.34375 -2.894531 0.34375 -3.6875 C 0.34375 -4.476562 0.535156 -5.164062 0.921875 -5.75 C 1.316406 -6.34375 1.863281 -6.800781 2.5625 -7.125 C 3.257812 -7.457031 4.070312 -7.625 5 -7.625 C 5.9375 -7.625 6.753906 -7.457031 7.453125 -7.125 C 8.160156 -6.800781 8.707031 -6.34375 9.09375 -5.75 C 9.488281 -5.164062 9.6875 -4.476562 9.6875 -3.6875 C 9.6875 -2.894531 9.488281 -2.203125 9.09375 -1.609375 C 8.707031 -1.015625 8.160156 -0.550781 7.453125 -0.21875 C 6.753906 0.101562 5.9375 0.265625 5 0.265625 Z M 5 -1.25 C 5.550781 -1.25 6.035156 -1.347656 6.453125 -1.546875 C 6.867188 -1.753906 7.191406 -2.039062 7.421875 -2.40625 C 7.648438 -2.769531 7.765625 -3.195312 7.765625 -3.6875 C 7.765625 -4.175781 7.648438 -4.597656 7.421875 -4.953125 C 7.191406 -5.316406 6.867188 -5.597656 6.453125 -5.796875 C 6.035156 -6.003906 5.550781 -6.109375 5 -6.109375 C 4.457031 -6.109375 3.976562 -6.003906 3.5625 -5.796875 C 3.15625 -5.597656 2.835938 -5.316406 2.609375 -4.953125 C 2.378906 -4.597656 2.265625 -4.175781 2.265625 -3.6875 C 2.265625 -3.195312 2.378906 -2.769531 2.609375 -2.40625 C 2.835938 -2.039062 3.15625 -1.753906 3.5625 -1.546875 C 3.976562 -1.347656 4.457031 -1.25 5 -1.25 Z M 5 -1.25 "/></g></g></g><g fill="#004aad" fill-opacity="1"><g transform="translate(20.776571, 33.48715)"><g><path d="M 4.9375 0.234375 C 4 0.234375 3.1875 0.078125 2.5 -0.234375 C 1.8125 -0.554688 1.28125 -1.007812 0.90625 -1.59375 C 0.53125 -2.175781 0.34375 -2.875 0.34375 -3.6875 C 0.34375 -4.476562 0.519531 -5.164062 0.875 -5.75 C 1.226562 -6.34375 1.726562 -6.800781 2.375 -7.125 C 3.019531 -7.445312 3.789062 -7.609375 4.6875 -7.609375 C 5.363281 -7.609375 5.972656 -7.5 6.515625 -7.28125 C 7.066406 -7.0625 7.523438 -6.753906 7.890625 -6.359375 C 8.265625 -5.960938 8.515625 -5.488281 8.640625 -4.9375 L 6.890625 -4.515625 C 6.773438 -5.003906 6.519531 -5.382812 6.125 -5.65625 C 5.738281 -5.9375 5.269531 -6.078125 4.71875 -6.078125 C 4.21875 -6.078125 3.78125 -5.976562 3.40625 -5.78125 C 3.039062 -5.59375 2.757812 -5.316406 2.5625 -4.953125 C 2.363281 -4.597656 2.265625 -4.175781 2.265625 -3.6875 C 2.265625 -3.195312 2.375 -2.769531 2.59375 -2.40625 C 2.8125 -2.050781 3.125 -1.773438 3.53125 -1.578125 C 3.945312 -1.378906 4.429688 -1.28125 4.984375 -1.28125 C 5.640625 -1.28125 6.195312 -1.445312 6.65625 -1.78125 C 7.113281 -2.113281 7.398438 -2.554688 7.515625 -3.109375 L 9.3125 -2.8125 C 9.195312 -2.1875 8.941406 -1.644531 8.546875 -1.1875 C 8.160156 -0.726562 7.65625 -0.375 7.03125 -0.125 C 6.414062 0.113281 5.71875 0.234375 4.9375 0.234375 Z M 4.9375 0.234375 "/></g></g></g><g fill="#004aad" fill-opacity="1"><g transform="translate(29.941519, 33.48715)"><g><path d="M 0.046875 0 L 3.25 -7.359375 L 5.546875 -7.359375 L 8.703125 0 L 6.703125 0 L 6.109375 -1.453125 L 2.625 -1.453125 L 2.03125 0 Z M 3.015625 -2.703125 L 5.71875 -2.703125 L 4.390625 -5.984375 L 4.375 -5.984375 Z M 3.015625 -2.703125 "/></g></g></g><g fill="#004aad" fill-opacity="1"><g transform="translate(38.352169, 33.48715)"><g><path d="M 2.765625 0 L 2.765625 -5.859375 L 0.109375 -5.859375 L 0.109375 -7.359375 L 7.328125 -7.359375 L 7.328125 -5.859375 L 4.6875 -5.859375 L 4.6875 0 Z M 2.765625 0 "/></g></g></g><g fill="#004aad" fill-opacity="1"><g transform="translate(45.460866, 33.48715)"><g><path d="M 0.546875 0 L 0.546875 -7.359375 L 2.46875 -7.359375 L 2.46875 0 Z M 0.546875 0 "/></g></g></g><g fill="#004aad" fill-opacity="1"><g transform="translate(48.136743, 33.48715)"><g><path d="M 5 0.265625 C 4.070312 0.265625 3.257812 0.101562 2.5625 -0.21875 C 1.863281 -0.550781 1.316406 -1.015625 0.921875 -1.609375 C 0.535156 -2.203125 0.34375 -2.894531 0.34375 -3.6875 C 0.34375 -4.476562 0.535156 -5.164062 0.921875 -5.75 C 1.316406 -6.34375 1.863281 -6.800781 2.5625 -7.125 C 3.257812 -7.457031 4.070312 -7.625 5 -7.625 C 5.9375 -7.625 6.753906 -7.457031 7.453125 -7.125 C 8.160156 -6.800781 8.707031 -6.34375 9.09375 -5.75 C 9.488281 -5.164062 9.6875 -4.476562 9.6875 -3.6875 C 9.6875 -2.894531 9.488281 -2.203125 9.09375 -1.609375 C 8.707031 -1.015625 8.160156 -0.550781 7.453125 -0.21875 C 6.753906 0.101562 5.9375 0.265625 5 0.265625 Z M 5 -1.25 C 5.550781 -1.25 6.035156 -1.347656 6.453125 -1.546875 C 6.867188 -1.753906 7.191406 -2.039062 7.421875 -2.40625 C 7.648438 -2.769531 7.765625 -3.195312 7.765625 -3.6875 C 7.765625 -4.175781 7.648438 -4.597656 7.421875 -4.953125 C 7.191406 -5.316406 6.867188 -5.597656 6.453125 -5.796875 C 6.035156 -6.003906 5.550781 -6.109375 5 -6.109375 C 4.457031 -6.109375 3.976562 -6.003906 3.5625 -5.796875 C 3.15625 -5.597656 2.835938 -5.316406 2.609375 -4.953125 C 2.378906 -4.597656 2.265625 -4.175781 2.265625 -3.6875 C 2.265625 -3.195312 2.378906 -2.769531 2.609375 -2.40625 C 2.835938 -2.039062 3.15625 -1.753906 3.5625 -1.546875 C 3.976562 -1.347656 4.457031 -1.25 5 -1.25 Z M 5 -1.25 "/></g></g></g><g fill="#004aad" fill-opacity="1"><g transform="translate(57.818336, 33.48715)"><g><path d="M 0.546875 0 L 0.546875 -7.359375 L 2.84375 -7.359375 L 6.65625 -2.0625 L 6.65625 -7.359375 L 8.5 -7.359375 L 8.5 0 L 6.203125 0 L 2.375 -5.328125 L 2.375 0 Z M 0.546875 0 "/></g></g></g><g fill="#004aad" fill-opacity="1"><g transform="translate(66.5183, 33.48715)"><g/></g></g><g fill="#004aad" fill-opacity="1"><g transform="translate(68.677531, 33.48715)"><g><path d="M 1.296875 -3.703125 C 1.003906 -3.703125 0.765625 -3.785156 0.578125 -3.953125 C 0.390625 -4.128906 0.296875 -4.359375 0.296875 -4.640625 C 0.296875 -4.898438 0.390625 -5.117188 0.578125 -5.296875 C 0.765625 -5.472656 1.003906 -5.5625 1.296875 -5.5625 C 1.597656 -5.5625 1.84375 -5.472656 2.03125 -5.296875 C 2.21875 -5.117188 2.3125 -4.898438 2.3125 -4.640625 C 2.3125 -4.359375 2.21875 -4.128906 2.03125 -3.953125 C 1.84375 -3.785156 1.597656 -3.703125 1.296875 -3.703125 Z M 1.296875 0.109375 C 1.003906 0.109375 0.765625 0.0234375 0.578125 -0.140625 C 0.390625 -0.316406 0.296875 -0.539062 0.296875 -0.8125 C 0.296875 -1.09375 0.390625 -1.316406 0.578125 -1.484375 C 0.765625 -1.660156 1.003906 -1.75 1.296875 -1.75 C 1.597656 -1.75 1.84375 -1.660156 2.03125 -1.484375 C 2.21875 -1.316406 2.3125 -1.09375 2.3125 -0.8125 C 2.3125 -0.539062 2.21875 -0.316406 2.03125 -0.140625 C 1.84375 0.0234375 1.597656 0.109375 1.296875 0.109375 Z M 1.296875 0.109375 "/></g></g></g><g fill="#ffffff" fill-opacity="0.4"><g transform="translate(5.445709, 54.564426)"><g><path d="M 4.9375 0.234375 C 4 0.234375 3.1875 0.078125 2.5 -0.234375 C 1.8125 -0.554688 1.28125 -1.007812 0.90625 -1.59375 C 0.53125 -2.175781 0.34375 -2.875 0.34375 -3.6875 C 0.34375 -4.476562 0.519531 -5.164062 0.875 -5.75 C 1.226562 -6.34375 1.726562 -6.800781 2.375 -7.125 C 3.019531 -7.445312 3.789062 -7.609375 4.6875 -7.609375 C 5.363281 -7.609375 5.972656 -7.5 6.515625 -7.28125 C 7.066406 -7.0625 7.523438 -6.753906 7.890625 -6.359375 C 8.265625 -5.960938 8.515625 -5.488281 8.640625 -4.9375 L 6.890625 -4.515625 C 6.773438 -5.003906 6.519531 -5.382812 6.125 -5.65625 C 5.738281 -5.9375 5.269531 -6.078125 4.71875 -6.078125 C 4.21875 -6.078125 3.78125 -5.976562 3.40625 -5.78125 C 3.039062 -5.59375 2.757812 -5.316406 2.5625 -4.953125 C 2.363281 -4.597656 2.265625 -4.175781 2.265625 -3.6875 C 2.265625 -3.195312 2.375 -2.769531 2.59375 -2.40625 C 2.8125 -2.050781 3.125 -1.773438 3.53125 -1.578125 C 3.945312 -1.378906 4.429688 -1.28125 4.984375 -1.28125 C 5.640625 -1.28125 6.195312 -1.445312 6.65625 -1.78125 C 7.113281 -2.113281 7.398438 -2.554688 7.515625 -3.109375 L 9.3125 -2.8125 C 9.195312 -2.1875 8.941406 -1.644531 8.546875 -1.1875 C 8.160156 -0.726562 7.65625 -0.375 7.03125 -0.125 C 6.414062 0.113281 5.71875 0.234375 4.9375 0.234375 Z M 4.9375 0.234375 "/></g></g></g><g fill="#ffffff" fill-opacity="0.4"><g transform="translate(14.610657, 54.564426)"><g><path d="M 5 0.265625 C 4.070312 0.265625 3.257812 0.101562 2.5625 -0.21875 C 1.863281 -0.550781 1.316406 -1.015625 0.921875 -1.609375 C 0.535156 -2.203125 0.34375 -2.894531 0.34375 -3.6875 C 0.34375 -4.476562 0.535156 -5.164062 0.921875 -5.75 C 1.316406 -6.34375 1.863281 -6.800781 2.5625 -7.125 C 3.257812 -7.457031 4.070312 -7.625 5 -7.625 C 5.9375 -7.625 6.753906 -7.457031 7.453125 -7.125 C 8.160156 -6.800781 8.707031 -6.34375 9.09375 -5.75 C 9.488281 -5.164062 9.6875 -4.476562 9.6875 -3.6875 C 9.6875 -2.894531 9.488281 -2.203125 9.09375 -1.609375 C 8.707031 -1.015625 8.160156 -0.550781 7.453125 -0.21875 C 6.753906 0.101562 5.9375 0.265625 5 0.265625 Z M 5 -1.25 C 5.550781 -1.25 6.035156 -1.347656 6.453125 -1.546875 C 6.867188 -1.753906 7.191406 -2.039062 7.421875 -2.40625 C 7.648438 -2.769531 7.765625 -3.195312 7.765625 -3.6875 C 7.765625 -4.175781 7.648438 -4.597656 7.421875 -4.953125 C 7.191406 -5.316406 6.867188 -5.597656 6.453125 -5.796875 C 6.035156 -6.003906 5.550781 -6.109375 5 -6.109375 C 4.457031 -6.109375 3.976562 -6.003906 3.5625 -5.796875 C 3.15625 -5.597656 2.835938 -5.316406 2.609375 -4.953125 C 2.378906 -4.597656 2.265625 -4.175781 2.265625 -3.6875 C 2.265625 -3.195312 2.378906 -2.769531 2.609375 -2.40625 C 2.835938 -2.039062 3.15625 -1.753906 3.5625 -1.546875 C 3.976562 -1.347656 4.457031 -1.25 5 -1.25 Z M 5 -1.25 "/></g></g></g><g fill="#ffffff" fill-opacity="0.4"><g transform="translate(24.292248, 54.564426)"><g><path d="M 0.546875 0 L 0.546875 -7.359375 L 3.078125 -7.359375 L 5.609375 -1.90625 L 5.640625 -1.90625 L 8.171875 -7.359375 L 10.703125 -7.359375 L 10.703125 0 L 8.90625 0 L 8.90625 -5.203125 L 8.890625 -5.203125 L 6.46875 0 L 4.8125 0 L 2.359375 -5.1875 L 2.34375 -5.1875 L 2.34375 0 Z M 0.546875 0 "/></g></g></g><g fill="#ffffff" fill-opacity="0.4"><g transform="translate(35.20346, 54.564426)"><g><path d="M 0.546875 0 L 0.546875 -7.359375 L 3.078125 -7.359375 L 5.609375 -1.90625 L 5.640625 -1.90625 L 8.171875 -7.359375 L 10.703125 -7.359375 L 10.703125 0 L 8.90625 0 L 8.90625 -5.203125 L 8.890625 -5.203125 L 6.46875 0 L 4.8125 0 L 2.359375 -5.1875 L 2.34375 -5.1875 L 2.34375 0 Z M 0.546875 0 "/></g></g></g><g fill="#ffffff" fill-opacity="0.4"><g transform="translate(46.114672, 54.564426)"><g><path d="M 4.359375 0.234375 C 3.554688 0.234375 2.859375 0.101562 2.265625 -0.15625 C 1.679688 -0.414062 1.234375 -0.796875 0.921875 -1.296875 C 0.609375 -1.796875 0.453125 -2.398438 0.453125 -3.109375 L 0.453125 -7.359375 L 2.375 -7.359375 L 2.375 -3.171875 C 2.375 -2.585938 2.550781 -2.128906 2.90625 -1.796875 C 3.269531 -1.460938 3.753906 -1.296875 4.359375 -1.296875 C 4.972656 -1.296875 5.457031 -1.457031 5.8125 -1.78125 C 6.164062 -2.113281 6.34375 -2.578125 6.34375 -3.171875 L 6.34375 -7.359375 L 8.265625 -7.359375 L 8.265625 -3.109375 C 8.265625 -2.398438 8.109375 -1.796875 7.796875 -1.296875 C 7.484375 -0.796875 7.035156 -0.414062 6.453125 -0.15625 C 5.867188 0.101562 5.171875 0.234375 4.359375 0.234375 Z M 4.359375 0.234375 "/></g></g></g><g fill="#ffffff" fill-opacity="0.4"><g transform="translate(54.494318, 54.564426)"><g><path d="M 0.546875 0 L 0.546875 -7.359375 L 2.84375 -7.359375 L 6.65625 -2.0625 L 6.65625 -7.359375 L 8.5 -7.359375 L 8.5 0 L 6.203125 0 L 2.375 -5.328125 L 2.375 0 Z M 0.546875 0 "/></g></g></g><g fill="#ffffff" fill-opacity="0.4"><g transform="translate(63.194282, 54.564426)"><g><path d="M 0.546875 0 L 0.546875 -7.359375 L 2.46875 -7.359375 L 2.46875 0 Z M 0.546875 0 "/></g></g></g><g fill="#ffffff" fill-opacity="0.4"><g transform="translate(65.870155, 54.564426)"><g><path d="M 4.9375 0.234375 C 4 0.234375 3.1875 0.078125 2.5 -0.234375 C 1.8125 -0.554688 1.28125 -1.007812 0.90625 -1.59375 C 0.53125 -2.175781 0.34375 -2.875 0.34375 -3.6875 C 0.34375 -4.476562 0.519531 -5.164062 0.875 -5.75 C 1.226562 -6.34375 1.726562 -6.800781 2.375 -7.125 C 3.019531 -7.445312 3.789062 -7.609375 4.6875 -7.609375 C 5.363281 -7.609375 5.972656 -7.5 6.515625 -7.28125 C 7.066406 -7.0625 7.523438 -6.753906 7.890625 -6.359375 C 8.265625 -5.960938 8.515625 -5.488281 8.640625 -4.9375 L 6.890625 -4.515625 C 6.773438 -5.003906 6.519531 -5.382812 6.125 -5.65625 C 5.738281 -5.9375 5.269531 -6.078125 4.71875 -6.078125 C 4.21875 -6.078125 3.78125 -5.976562 3.40625 -5.78125 C 3.039062 -5.59375 2.757812 -5.316406 2.5625 -4.953125 C 2.363281 -4.597656 2.265625 -4.175781 2.265625 -3.6875 C 2.265625 -3.195312 2.375 -2.769531 2.59375 -2.40625 C 2.8125 -2.050781 3.125 -1.773438 3.53125 -1.578125 C 3.945312 -1.378906 4.429688 -1.28125 4.984375 -1.28125 C 5.640625 -1.28125 6.195312 -1.445312 6.65625 -1.78125 C 7.113281 -2.113281 7.398438 -2.554688 7.515625 -3.109375 L 9.3125 -2.8125 C 9.195312 -2.1875 8.941406 -1.644531 8.546875 -1.1875 C 8.160156 -0.726562 7.65625 -0.375 7.03125 -0.125 C 6.414062 0.113281 5.71875 0.234375 4.9375 0.234375 Z M 4.9375 0.234375 "/></g></g></g><g fill="#ffffff" fill-opacity="0.4"><g transform="translate(75.035101, 54.564426)"><g><path d="M 0.046875 0 L 3.25 -7.359375 L 5.546875 -7.359375 L 8.703125 0 L 6.703125 0 L 6.109375 -1.453125 L 2.625 -1.453125 L 2.03125 0 Z M 3.015625 -2.703125 L 5.71875 -2.703125 L 4.390625 -5.984375 L 4.375 -5.984375 Z M 3.015625 -2.703125 "/></g></g></g><g fill="#ffffff" fill-opacity="0.4"><g transform="translate(83.445748, 54.564426)"><g><path d="M 2.765625 0 L 2.765625 -5.859375 L 0.109375 -5.859375 L 0.109375 -7.359375 L 7.328125 -7.359375 L 7.328125 -5.859375 L 4.6875 -5.859375 L 4.6875 0 Z M 2.765625 0 "/></g></g></g><g fill="#ffffff" fill-opacity="0.4"><g transform="translate(90.554442, 54.564426)"><g><path d="M 0.546875 0 L 0.546875 -7.359375 L 2.46875 -7.359375 L 2.46875 0 Z M 0.546875 0 "/></g></g></g><g fill="#ffffff" fill-opacity="0.4"><g transform="translate(93.230316, 54.564426)"><g><path d="M 5 0.265625 C 4.070312 0.265625 3.257812 0.101562 2.5625 -0.21875 C 1.863281 -0.550781 1.316406 -1.015625 0.921875 -1.609375 C 0.535156 -2.203125 0.34375 -2.894531 0.34375 -3.6875 C 0.34375 -4.476562 0.535156 -5.164062 0.921875 -5.75 C 1.316406 -6.34375 1.863281 -6.800781 2.5625 -7.125 C 3.257812 -7.457031 4.070312 -7.625 5 -7.625 C 5.9375 -7.625 6.753906 -7.457031 7.453125 -7.125 C 8.160156 -6.800781 8.707031 -6.34375 9.09375 -5.75 C 9.488281 -5.164062 9.6875 -4.476562 9.6875 -3.6875 C 9.6875 -2.894531 9.488281 -2.203125 9.09375 -1.609375 C 8.707031 -1.015625 8.160156 -0.550781 7.453125 -0.21875 C 6.753906 0.101562 5.9375 0.265625 5 0.265625 Z M 5 -1.25 C 5.550781 -1.25 6.035156 -1.347656 6.453125 -1.546875 C 6.867188 -1.753906 7.191406 -2.039062 7.421875 -2.40625 C 7.648438 -2.769531 7.765625 -3.195312 7.765625 -3.6875 C 7.765625 -4.175781 7.648438 -4.597656 7.421875 -4.953125 C 7.191406 -5.316406 6.867188 -5.597656 6.453125 -5.796875 C 6.035156 -6.003906 5.550781 -6.109375 5 -6.109375 C 4.457031 -6.109375 3.976562 -6.003906 3.5625 -5.796875 C 3.15625 -5.597656 2.835938 -5.316406 2.609375 -4.953125 C 2.378906 -4.597656 2.265625 -4.175781 2.265625 -3.6875 C 2.265625 -3.195312 2.378906 -2.769531 2.609375 -2.40625 C 2.835938 -2.039062 3.15625 -1.753906 3.5625 -1.546875 C 3.976562 -1.347656 4.457031 -1.25 5 -1.25 Z M 5 -1.25 "/></g></g></g><g fill="#ffffff" fill-opacity="0.4"><g transform="translate(102.911904, 54.564426)"><g><path d="M 0.546875 0 L 0.546875 -7.359375 L 2.84375 -7.359375 L 6.65625 -2.0625 L 6.65625 -7.359375 L 8.5 -7.359375 L 8.5 0 L 6.203125 0 L 2.375 -5.328125 L 2.375 0 Z M 0.546875 0 "/></g></g></g><g fill="#ffffff" fill-opacity="0.4"><g transform="translate(111.611867, 54.564426)"><g/></g></g><g fill="#ffffff" fill-opacity="0.4"><g transform="translate(113.771099, 54.564426)"><g><path d="M 1.296875 -3.703125 C 1.003906 -3.703125 0.765625 -3.785156 0.578125 -3.953125 C 0.390625 -4.128906 0.296875 -4.359375 0.296875 -4.640625 C 0.296875 -4.898438 0.390625 -5.117188 0.578125 -5.296875 C 0.765625 -5.472656 1.003906 -5.5625 1.296875 -5.5625 C 1.597656 -5.5625 1.84375 -5.472656 2.03125 -5.296875 C 2.21875 -5.117188 2.3125 -4.898438 2.3125 -4.640625 C 2.3125 -4.359375 2.21875 -4.128906 2.03125 -3.953125 C 1.84375 -3.785156 1.597656 -3.703125 1.296875 -3.703125 Z M 1.296875 0.109375 C 1.003906 0.109375 0.765625 0.0234375 0.578125 -0.140625 C 0.390625 -0.316406 0.296875 -0.539062 0.296875 -0.8125 C 0.296875 -1.09375 0.390625 -1.316406 0.578125 -1.484375 C 0.765625 -1.660156 1.003906 -1.75 1.296875 -1.75 C 1.597656 -1.75 1.84375 -1.660156 2.03125 -1.484375 C 2.21875 -1.316406 2.3125 -1.09375 2.3125 -0.8125 C 2.3125 -0.539062 2.21875 -0.316406 2.03125 -0.140625 C 1.84375 0.0234375 1.597656 0.109375 1.296875 0.109375 Z M 1.296875 0.109375 "/></g></g></g><g fill="#004aad" fill-opacity="1"><g transform="translate(4.988579, 54.107296)"><g><path d="M 4.9375 0.234375 C 4 0.234375 3.1875 0.078125 2.5 -0.234375 C 1.8125 -0.554688 1.28125 -1.007812 0.90625 -1.59375 C 0.53125 -2.175781 0.34375 -2.875 0.34375 -3.6875 C 0.34375 -4.476562 0.519531 -5.164062 0.875 -5.75 C 1.226562 -6.34375 1.726562 -6.800781 2.375 -7.125 C 3.019531 -7.445312 3.789062 -7.609375 4.6875 -7.609375 C 5.363281 -7.609375 5.972656 -7.5 6.515625 -7.28125 C 7.066406 -7.0625 7.523438 -6.753906 7.890625 -6.359375 C 8.265625 -5.960938 8.515625 -5.488281 8.640625 -4.9375 L 6.890625 -4.515625 C 6.773438 -5.003906 6.519531 -5.382812 6.125 -5.65625 C 5.738281 -5.9375 5.269531 -6.078125 4.71875 -6.078125 C 4.21875 -6.078125 3.78125 -5.976562 3.40625 -5.78125 C 3.039062 -5.59375 2.757812 -5.316406 2.5625 -4.953125 C 2.363281 -4.597656 2.265625 -4.175781 2.265625 -3.6875 C 2.265625 -3.195312 2.375 -2.769531 2.59375 -2.40625 C 2.8125 -2.050781 3.125 -1.773438 3.53125 -1.578125 C 3.945312 -1.378906 4.429688 -1.28125 4.984375 -1.28125 C 5.640625 -1.28125 6.195312 -1.445312 6.65625 -1.78125 C 7.113281 -2.113281 7.398438 -2.554688 7.515625 -3.109375 L 9.3125 -2.8125 C 9.195312 -2.1875 8.941406 -1.644531 8.546875 -1.1875 C 8.160156 -0.726562 7.65625 -0.375 7.03125 -0.125 C 6.414062 0.113281 5.71875 0.234375 4.9375 0.234375 Z M 4.9375 0.234375 "/></g></g></g><g fill="#004aad" fill-opacity="1"><g transform="translate(14.153527, 54.107296)"><g><path d="M 5 0.265625 C 4.070312 0.265625 3.257812 0.101562 2.5625 -0.21875 C 1.863281 -0.550781 1.316406 -1.015625 0.921875 -1.609375 C 0.535156 -2.203125 0.34375 -2.894531 0.34375 -3.6875 C 0.34375 -4.476562 0.535156 -5.164062 0.921875 -5.75 C 1.316406 -6.34375 1.863281 -6.800781 2.5625 -7.125 C 3.257812 -7.457031 4.070312 -7.625 5 -7.625 C 5.9375 -7.625 6.753906 -7.457031 7.453125 -7.125 C 8.160156 -6.800781 8.707031 -6.34375 9.09375 -5.75 C 9.488281 -5.164062 9.6875 -4.476562 9.6875 -3.6875 C 9.6875 -2.894531 9.488281 -2.203125 9.09375 -1.609375 C 8.707031 -1.015625 8.160156 -0.550781 7.453125 -0.21875 C 6.753906 0.101562 5.9375 0.265625 5 0.265625 Z M 5 -1.25 C 5.550781 -1.25 6.035156 -1.347656 6.453125 -1.546875 C 6.867188 -1.753906 7.191406 -2.039062 7.421875 -2.40625 C 7.648438 -2.769531 7.765625 -3.195312 7.765625 -3.6875 C 7.765625 -4.175781 7.648438 -4.597656 7.421875 -4.953125 C 7.191406 -5.316406 6.867188 -5.597656 6.453125 -5.796875 C 6.035156 -6.003906 5.550781 -6.109375 5 -6.109375 C 4.457031 -6.109375 3.976562 -6.003906 3.5625 -5.796875 C 3.15625 -5.597656 2.835938 -5.316406 2.609375 -4.953125 C 2.378906 -4.597656 2.265625 -4.175781 2.265625 -3.6875 C 2.265625 -3.195312 2.378906 -2.769531 2.609375 -2.40625 C 2.835938 -2.039062 3.15625 -1.753906 3.5625 -1.546875 C 3.976562 -1.347656 4.457031 -1.25 5 -1.25 Z M 5 -1.25 "/></g></g></g><g fill="#004aad" fill-opacity="1"><g transform="translate(23.835117, 54.107296)"><g><path d="M 0.546875 0 L 0.546875 -7.359375 L 3.078125 -7.359375 L 5.609375 -1.90625 L 5.640625 -1.90625 L 8.171875 -7.359375 L 10.703125 -7.359375 L 10.703125 0 L 8.90625 0 L 8.90625 -5.203125 L 8.890625 -5.203125 L 6.46875 0 L 4.8125 0 L 2.359375 -5.1875 L 2.34375 -5.1875 L 2.34375 0 Z M 0.546875 0 "/></g></g></g><g fill="#004aad" fill-opacity="1"><g transform="translate(34.746329, 54.107296)"><g><path d="M 0.546875 0 L 0.546875 -7.359375 L 3.078125 -7.359375 L 5.609375 -1.90625 L 5.640625 -1.90625 L 8.171875 -7.359375 L 10.703125 -7.359375 L 10.703125 0 L 8.90625 0 L 8.90625 -5.203125 L 8.890625 -5.203125 L 6.46875 0 L 4.8125 0 L 2.359375 -5.1875 L 2.34375 -5.1875 L 2.34375 0 Z M 0.546875 0 "/></g></g></g><g fill="#004aad" fill-opacity="1"><g transform="translate(45.657541, 54.107296)"><g><path d="M 4.359375 0.234375 C 3.554688 0.234375 2.859375 0.101562 2.265625 -0.15625 C 1.679688 -0.414062 1.234375 -0.796875 0.921875 -1.296875 C 0.609375 -1.796875 0.453125 -2.398438 0.453125 -3.109375 L 0.453125 -7.359375 L 2.375 -7.359375 L 2.375 -3.171875 C 2.375 -2.585938 2.550781 -2.128906 2.90625 -1.796875 C 3.269531 -1.460938 3.753906 -1.296875 4.359375 -1.296875 C 4.972656 -1.296875 5.457031 -1.457031 5.8125 -1.78125 C 6.164062 -2.113281 6.34375 -2.578125 6.34375 -3.171875 L 6.34375 -7.359375 L 8.265625 -7.359375 L 8.265625 -3.109375 C 8.265625 -2.398438 8.109375 -1.796875 7.796875 -1.296875 C 7.484375 -0.796875 7.035156 -0.414062 6.453125 -0.15625 C 5.867188 0.101562 5.171875 0.234375 4.359375 0.234375 Z M 4.359375 0.234375 "/></g></g></g><g fill="#004aad" fill-opacity="1"><g transform="translate(54.037187, 54.107296)"><g><path d="M 0.546875 0 L 0.546875 -7.359375 L 2.84375 -7.359375 L 6.65625 -2.0625 L 6.65625 -7.359375 L 8.5 -7.359375 L 8.5 0 L 6.203125 0 L 2.375 -5.328125 L 2.375 0 Z M 0.546875 0 "/></g></g></g><g fill="#004aad" fill-opacity="1"><g transform="translate(62.737151, 54.107296)"><g><path d="M 0.546875 0 L 0.546875 -7.359375 L 2.46875 -7.359375 L 2.46875 0 Z M 0.546875 0 "/></g></g></g><g fill="#004aad" fill-opacity="1"><g transform="translate(65.413025, 54.107296)"><g><path d="M 4.9375 0.234375 C 4 0.234375 3.1875 0.078125 2.5 -0.234375 C 1.8125 -0.554688 1.28125 -1.007812 0.90625 -1.59375 C 0.53125 -2.175781 0.34375 -2.875 0.34375 -3.6875 C 0.34375 -4.476562 0.519531 -5.164062 0.875 -5.75 C 1.226562 -6.34375 1.726562 -6.800781 2.375 -7.125 C 3.019531 -7.445312 3.789062 -7.609375 4.6875 -7.609375 C 5.363281 -7.609375 5.972656 -7.5 6.515625 -7.28125 C 7.066406 -7.0625 7.523438 -6.753906 7.890625 -6.359375 C 8.265625 -5.960938 8.515625 -5.488281 8.640625 -4.9375 L 6.890625 -4.515625 C 6.773438 -5.003906 6.519531 -5.382812 6.125 -5.65625 C 5.738281 -5.9375 5.269531 -6.078125 4.71875 -6.078125 C 4.21875 -6.078125 3.78125 -5.976562 3.40625 -5.78125 C 3.039062 -5.59375 2.757812 -5.316406 2.5625 -4.953125 C 2.363281 -4.597656 2.265625 -4.175781 2.265625 -3.6875 C 2.265625 -3.195312 2.375 -2.769531 2.59375 -2.40625 C 2.8125 -2.050781 3.125 -1.773438 3.53125 -1.578125 C 3.945312 -1.378906 4.429688 -1.28125 4.984375 -1.28125 C 5.640625 -1.28125 6.195312 -1.445312 6.65625 -1.78125 C 7.113281 -2.113281 7.398438 -2.554688 7.515625 -3.109375 L 9.3125 -2.8125 C 9.195312 -2.1875 8.941406 -1.644531 8.546875 -1.1875 C 8.160156 -0.726562 7.65625 -0.375 7.03125 -0.125 C 6.414062 0.113281 5.71875 0.234375 4.9375 0.234375 Z M 4.9375 0.234375 "/></g></g></g><g fill="#004aad" fill-opacity="1"><g transform="translate(74.57797, 54.107296)"><g><path d="M 0.046875 0 L 3.25 -7.359375 L 5.546875 -7.359375 L 8.703125 0 L 6.703125 0 L 6.109375 -1.453125 L 2.625 -1.453125 L 2.03125 0 Z M 3.015625 -2.703125 L 5.71875 -2.703125 L 4.390625 -5.984375 L 4.375 -5.984375 Z M 3.015625 -2.703125 "/></g></g></g><g fill="#004aad" fill-opacity="1"><g transform="translate(82.988617, 54.107296)"><g><path d="M 2.765625 0 L 2.765625 -5.859375 L 0.109375 -5.859375 L 0.109375 -7.359375 L 7.328125 -7.359375 L 7.328125 -5.859375 L 4.6875 -5.859375 L 4.6875 0 Z M 2.765625 0 "/></g></g></g><g fill="#004aad" fill-opacity="1"><g transform="translate(90.097311, 54.107296)"><g><path d="M 0.546875 0 L 0.546875 -7.359375 L 2.46875 -7.359375 L 2.46875 0 Z M 0.546875 0 "/></g></g></g><g fill="#004aad" fill-opacity="1"><g transform="translate(92.773185, 54.107296)"><g><path d="M 5 0.265625 C 4.070312 0.265625 3.257812 0.101562 2.5625 -0.21875 C 1.863281 -0.550781 1.316406 -1.015625 0.921875 -1.609375 C 0.535156 -2.203125 0.34375 -2.894531 0.34375 -3.6875 C 0.34375 -4.476562 0.535156 -5.164062 0.921875 -5.75 C 1.316406 -6.34375 1.863281 -6.800781 2.5625 -7.125 C 3.257812 -7.457031 4.070312 -7.625 5 -7.625 C 5.9375 -7.625 6.753906 -7.457031 7.453125 -7.125 C 8.160156 -6.800781 8.707031 -6.34375 9.09375 -5.75 C 9.488281 -5.164062 9.6875 -4.476562 9.6875 -3.6875 C 9.6875 -2.894531 9.488281 -2.203125 9.09375 -1.609375 C 8.707031 -1.015625 8.160156 -0.550781 7.453125 -0.21875 C 6.753906 0.101562 5.9375 0.265625 5 0.265625 Z M 5 -1.25 C 5.550781 -1.25 6.035156 -1.347656 6.453125 -1.546875 C 6.867188 -1.753906 7.191406 -2.039062 7.421875 -2.40625 C 7.648438 -2.769531 7.765625 -3.195312 7.765625 -3.6875 C 7.765625 -4.175781 7.648438 -4.597656 7.421875 -4.953125 C 7.191406 -5.316406 6.867188 -5.597656 6.453125 -5.796875 C 6.035156 -6.003906 5.550781 -6.109375 5 -6.109375 C 4.457031 -6.109375 3.976562 -6.003906 3.5625 -5.796875 C 3.15625 -5.597656 2.835938 -5.316406 2.609375 -4.953125 C 2.378906 -4.597656 2.265625 -4.175781 2.265625 -3.6875 C 2.265625 -3.195312 2.378906 -2.769531 2.609375 -2.40625 C 2.835938 -2.039062 3.15625 -1.753906 3.5625 -1.546875 C 3.976562 -1.347656 4.457031 -1.25 5 -1.25 Z M 5 -1.25 "/></g></g></g><g fill="#004aad" fill-opacity="1"><g transform="translate(102.454773, 54.107296)"><g><path d="M 0.546875 0 L 0.546875 -7.359375 L 2.84375 -7.359375 L 6.65625 -2.0625 L 6.65625 -7.359375 L 8.5 -7.359375 L 8.5 0 L 6.203125 0 L 2.375 -5.328125 L 2.375 0 Z M 0.546875 0 "/></g></g></g><g fill="#004aad" fill-opacity="1"><g transform="translate(111.154737, 54.107296)"><g/></g></g><g fill="#004aad" fill-opacity="1"><g transform="translate(113.313968, 54.107296)"><g><path d="M 1.296875 -3.703125 C 1.003906 -3.703125 0.765625 -3.785156 0.578125 -3.953125 C 0.390625 -4.128906 0.296875 -4.359375 0.296875 -4.640625 C 0.296875 -4.898438 0.390625 -5.117188 0.578125 -5.296875 C 0.765625 -5.472656 1.003906 -5.5625 1.296875 -5.5625 C 1.597656 -5.5625 1.84375 -5.472656 2.03125 -5.296875 C 2.21875 -5.117188 2.3125 -4.898438 2.3125 -4.640625 C 2.3125 -4.359375 2.21875 -4.128906 2.03125 -3.953125 C 1.84375 -3.785156 1.597656 -3.703125 1.296875 -3.703125 Z M 1.296875 0.109375 C 1.003906 0.109375 0.765625 0.0234375 0.578125 -0.140625 C 0.390625 -0.316406 0.296875 -0.539062 0.296875 -0.8125 C 0.296875 -1.09375 0.390625 -1.316406 0.578125 -1.484375 C 0.765625 -1.660156 1.003906 -1.75 1.296875 -1.75 C 1.597656 -1.75 1.84375 -1.660156 2.03125 -1.484375 C 2.21875 -1.316406 2.3125 -1.09375 2.3125 -0.8125 C 2.3125 -0.539062 2.21875 -0.316406 2.03125 -0.140625 C 1.84375 0.0234375 1.597656 0.109375 1.296875 0.109375 Z M 1.296875 0.109375 "/></g></g></g><g fill="#ffffff" fill-opacity="0.4"><g transform="translate(116.051999, 54.564426)"><g/></g></g><g fill="#004aad" fill-opacity="1"><g transform="translate(115.594869, 54.107296)"><g/></g></g><g fill="#ffffff" fill-opacity="0.4"><g transform="translate(5.445709, 94.569584)"><g><path d="M 9.6875 -3.6875 C 9.6875 -2.957031 9.519531 -2.3125 9.1875 -1.75 C 8.863281 -1.195312 8.398438 -0.75 7.796875 -0.40625 C 7.203125 -0.0625 6.492188 0.148438 5.671875 0.234375 L 5.671875 0.453125 C 5.671875 0.679688 5.753906 0.859375 5.921875 0.984375 C 6.085938 1.117188 6.3125 1.1875 6.59375 1.1875 C 6.875 1.1875 7.144531 1.128906 7.40625 1.015625 C 7.675781 0.898438 7.90625 0.734375 8.09375 0.515625 L 8.640625 1.4375 C 8.390625 1.71875 8.0625 1.941406 7.65625 2.109375 C 7.25 2.285156 6.8125 2.375 6.34375 2.375 C 5.695312 2.375 5.1875 2.21875 4.8125 1.90625 C 4.445312 1.601562 4.265625 1.179688 4.265625 0.640625 L 4.265625 0.21875 C 3.472656 0.132812 2.78125 -0.078125 2.1875 -0.421875 C 1.601562 -0.765625 1.148438 -1.210938 0.828125 -1.765625 C 0.503906 -2.328125 0.34375 -2.96875 0.34375 -3.6875 C 0.34375 -4.476562 0.535156 -5.164062 0.921875 -5.75 C 1.316406 -6.34375 1.863281 -6.800781 2.5625 -7.125 C 3.257812 -7.457031 4.070312 -7.625 5 -7.625 C 5.9375 -7.625 6.753906 -7.457031 7.453125 -7.125 C 8.160156 -6.800781 8.707031 -6.34375 9.09375 -5.75 C 9.488281 -5.164062 9.6875 -4.476562 9.6875 -3.6875 Z M 2.265625 -3.6875 C 2.265625 -3.195312 2.378906 -2.769531 2.609375 -2.40625 C 2.835938 -2.039062 3.15625 -1.753906 3.5625 -1.546875 C 3.976562 -1.347656 4.457031 -1.25 5 -1.25 C 5.550781 -1.25 6.035156 -1.347656 6.453125 -1.546875 C 6.867188 -1.753906 7.191406 -2.039062 7.421875 -2.40625 C 7.648438 -2.769531 7.765625 -3.195312 7.765625 -3.6875 C 7.765625 -4.175781 7.648438 -4.597656 7.421875 -4.953125 C 7.191406 -5.316406 6.867188 -5.597656 6.453125 -5.796875 C 6.035156 -6.003906 5.550781 -6.109375 5 -6.109375 C 4.457031 -6.109375 3.976562 -6.003906 3.5625 -5.796875 C 3.15625 -5.597656 2.835938 -5.316406 2.609375 -4.953125 C 2.378906 -4.597656 2.265625 -4.175781 2.265625 -3.6875 Z M 2.265625 -3.6875 "/></g></g></g><g fill="#ffffff" fill-opacity="0.4"><g transform="translate(15.1273, 94.569584)"><g><path d="M 4.359375 0.234375 C 3.554688 0.234375 2.859375 0.101562 2.265625 -0.15625 C 1.679688 -0.414062 1.234375 -0.796875 0.921875 -1.296875 C 0.609375 -1.796875 0.453125 -2.398438 0.453125 -3.109375 L 0.453125 -7.359375 L 2.375 -7.359375 L 2.375 -3.171875 C 2.375 -2.585938 2.550781 -2.128906 2.90625 -1.796875 C 3.269531 -1.460938 3.753906 -1.296875 4.359375 -1.296875 C 4.972656 -1.296875 5.457031 -1.457031 5.8125 -1.78125 C 6.164062 -2.113281 6.34375 -2.578125 6.34375 -3.171875 L 6.34375 -7.359375 L 8.265625 -7.359375 L 8.265625 -3.109375 C 8.265625 -2.398438 8.109375 -1.796875 7.796875 -1.296875 C 7.484375 -0.796875 7.035156 -0.414062 6.453125 -0.15625 C 5.867188 0.101562 5.171875 0.234375 4.359375 0.234375 Z M 4.359375 0.234375 "/></g></g></g><g fill="#ffffff" fill-opacity="0.4"><g transform="translate(23.506949, 94.569584)"><g><path d="M 0.046875 0 L 3.25 -7.359375 L 5.546875 -7.359375 L 8.703125 0 L 6.703125 0 L 6.109375 -1.453125 L 2.625 -1.453125 L 2.03125 0 Z M 3.015625 -2.703125 L 5.71875 -2.703125 L 4.390625 -5.984375 L 4.375 -5.984375 Z M 3.015625 -2.703125 "/></g></g></g><g fill="#ffffff" fill-opacity="0.4"><g transform="translate(31.917599, 94.569584)"><g><path d="M 0.546875 0 L 0.546875 -7.359375 L 2.46875 -7.359375 L 2.46875 -1.546875 L 6.296875 -1.546875 L 6.296875 0 Z M 0.546875 0 "/></g></g></g><g fill="#ffffff" fill-opacity="0.4"><g transform="translate(38.024, 94.569584)"><g><path d="M 0.546875 0 L 0.546875 -7.359375 L 2.46875 -7.359375 L 2.46875 0 Z M 0.546875 0 "/></g></g></g><g fill="#ffffff" fill-opacity="0.4"><g transform="translate(40.699877, 94.569584)"><g><path d="M 2.765625 0 L 2.765625 -5.859375 L 0.109375 -5.859375 L 0.109375 -7.359375 L 7.328125 -7.359375 L 7.328125 -5.859375 L 4.6875 -5.859375 L 4.6875 0 Z M 2.765625 0 "/></g></g></g><g fill="#ffffff" fill-opacity="0.4"><g transform="translate(47.808574, 94.569584)"><g><path d="M 3.125 0 L 3.125 -2.59375 L 0.015625 -7.359375 L 2.078125 -7.359375 L 4.078125 -4.078125 L 4.09375 -4.078125 L 6.015625 -7.359375 L 8.09375 -7.359375 L 5.046875 -2.59375 L 5.046875 0 Z M 3.125 0 "/></g></g></g><g fill="#ffffff" fill-opacity="0.4"><g transform="translate(55.599251, 94.569584)"><g/></g></g><g fill="#ffffff" fill-opacity="0.4"><g transform="translate(57.758483, 94.569584)"><g><path d="M 0.546875 0 L 0.546875 -7.359375 L 2.46875 -7.359375 L 2.46875 0 Z M 0.546875 0 "/></g></g></g><g fill="#ffffff" fill-opacity="0.4"><g transform="translate(60.434356, 94.569584)"><g><path d="M 0.546875 0 L 0.546875 -7.359375 L 2.84375 -7.359375 L 6.65625 -2.0625 L 6.65625 -7.359375 L 8.5 -7.359375 L 8.5 0 L 6.203125 0 L 2.375 -5.328125 L 2.375 0 Z M 0.546875 0 "/></g></g></g><g fill="#ffffff" fill-opacity="0.4"><g transform="translate(69.13432, 94.569584)"><g><path d="M 0.546875 0 L 0.546875 -7.359375 L 4.53125 -7.359375 C 5.875 -7.359375 6.90625 -7.039062 7.625 -6.40625 C 8.351562 -5.78125 8.71875 -4.875 8.71875 -3.6875 C 8.71875 -2.5 8.351562 -1.585938 7.625 -0.953125 C 6.90625 -0.316406 5.875 0 4.53125 0 Z M 2.421875 -1.4375 L 4.390625 -1.4375 C 5.171875 -1.4375 5.769531 -1.628906 6.1875 -2.015625 C 6.601562 -2.410156 6.8125 -2.96875 6.8125 -3.6875 C 6.8125 -4.40625 6.601562 -4.957031 6.1875 -5.34375 C 5.769531 -5.726562 5.171875 -5.921875 4.390625 -5.921875 L 2.421875 -5.921875 Z M 2.421875 -1.4375 "/></g></g></g><g fill="#ffffff" fill-opacity="0.4"><g transform="translate(77.844614, 94.569584)"><g><path d="M 0.546875 0 L 0.546875 -7.359375 L 2.46875 -7.359375 L 2.46875 0 Z M 0.546875 0 "/></g></g></g><g fill="#ffffff" fill-opacity="0.4"><g transform="translate(80.520488, 94.569584)"><g><path d="M 4.9375 0.234375 C 4 0.234375 3.1875 0.078125 2.5 -0.234375 C 1.8125 -0.554688 1.28125 -1.007812 0.90625 -1.59375 C 0.53125 -2.175781 0.34375 -2.875 0.34375 -3.6875 C 0.34375 -4.476562 0.519531 -5.164062 0.875 -5.75 C 1.226562 -6.34375 1.726562 -6.800781 2.375 -7.125 C 3.019531 -7.445312 3.789062 -7.609375 4.6875 -7.609375 C 5.363281 -7.609375 5.972656 -7.5 6.515625 -7.28125 C 7.066406 -7.0625 7.523438 -6.753906 7.890625 -6.359375 C 8.265625 -5.960938 8.515625 -5.488281 8.640625 -4.9375 L 6.890625 -4.515625 C 6.773438 -5.003906 6.519531 -5.382812 6.125 -5.65625 C 5.738281 -5.9375 5.269531 -6.078125 4.71875 -6.078125 C 4.21875 -6.078125 3.78125 -5.976562 3.40625 -5.78125 C 3.039062 -5.59375 2.757812 -5.316406 2.5625 -4.953125 C 2.363281 -4.597656 2.265625 -4.175781 2.265625 -3.6875 C 2.265625 -3.195312 2.375 -2.769531 2.59375 -2.40625 C 2.8125 -2.050781 3.125 -1.773438 3.53125 -1.578125 C 3.945312 -1.378906 4.429688 -1.28125 4.984375 -1.28125 C 5.640625 -1.28125 6.195312 -1.445312 6.65625 -1.78125 C 7.113281 -2.113281 7.398438 -2.554688 7.515625 -3.109375 L 9.3125 -2.8125 C 9.195312 -2.1875 8.941406 -1.644531 8.546875 -1.1875 C 8.160156 -0.726562 7.65625 -0.375 7.03125 -0.125 C 6.414062 0.113281 5.71875 0.234375 4.9375 0.234375 Z M 4.9375 0.234375 "/></g></g></g><g fill="#ffffff" fill-opacity="0.4"><g transform="translate(89.685433, 94.569584)"><g><path d="M 0.046875 0 L 3.25 -7.359375 L 5.546875 -7.359375 L 8.703125 0 L 6.703125 0 L 6.109375 -1.453125 L 2.625 -1.453125 L 2.03125 0 Z M 3.015625 -2.703125 L 5.71875 -2.703125 L 4.390625 -5.984375 L 4.375 -5.984375 Z M 3.015625 -2.703125 "/></g></g></g><g fill="#ffffff" fill-opacity="0.4"><g transform="translate(98.09608, 94.569584)"><g><path d="M 2.765625 0 L 2.765625 -5.859375 L 0.109375 -5.859375 L 0.109375 -7.359375 L 7.328125 -7.359375 L 7.328125 -5.859375 L 4.6875 -5.859375 L 4.6875 0 Z M 2.765625 0 "/></g></g></g><g fill="#ffffff" fill-opacity="0.4"><g transform="translate(105.204774, 94.569584)"><g><path d="M 5 0.265625 C 4.070312 0.265625 3.257812 0.101562 2.5625 -0.21875 C 1.863281 -0.550781 1.316406 -1.015625 0.921875 -1.609375 C 0.535156 -2.203125 0.34375 -2.894531 0.34375 -3.6875 C 0.34375 -4.476562 0.535156 -5.164062 0.921875 -5.75 C 1.316406 -6.34375 1.863281 -6.800781 2.5625 -7.125 C 3.257812 -7.457031 4.070312 -7.625 5 -7.625 C 5.9375 -7.625 6.753906 -7.457031 7.453125 -7.125 C 8.160156 -6.800781 8.707031 -6.34375 9.09375 -5.75 C 9.488281 -5.164062 9.6875 -4.476562 9.6875 -3.6875 C 9.6875 -2.894531 9.488281 -2.203125 9.09375 -1.609375 C 8.707031 -1.015625 8.160156 -0.550781 7.453125 -0.21875 C 6.753906 0.101562 5.9375 0.265625 5 0.265625 Z M 5 -1.25 C 5.550781 -1.25 6.035156 -1.347656 6.453125 -1.546875 C 6.867188 -1.753906 7.191406 -2.039062 7.421875 -2.40625 C 7.648438 -2.769531 7.765625 -3.195312 7.765625 -3.6875 C 7.765625 -4.175781 7.648438 -4.597656 7.421875 -4.953125 C 7.191406 -5.316406 6.867188 -5.597656 6.453125 -5.796875 C 6.035156 -6.003906 5.550781 -6.109375 5 -6.109375 C 4.457031 -6.109375 3.976562 -6.003906 3.5625 -5.796875 C 3.15625 -5.597656 2.835938 -5.316406 2.609375 -4.953125 C 2.378906 -4.597656 2.265625 -4.175781 2.265625 -3.6875 C 2.265625 -3.195312 2.378906 -2.769531 2.609375 -2.40625 C 2.835938 -2.039062 3.15625 -1.753906 3.5625 -1.546875 C 3.976562 -1.347656 4.457031 -1.25 5 -1.25 Z M 5 -1.25 "/></g></g></g><g fill="#ffffff" fill-opacity="0.4"><g transform="translate(114.886362, 94.569584)"><g><path d="M 7.234375 0.203125 C 6.816406 0.203125 6.476562 0.09375 6.21875 -0.125 C 5.957031 -0.351562 5.753906 -0.625 5.609375 -0.9375 L 5.203125 -1.953125 C 5.109375 -2.191406 4.96875 -2.378906 4.78125 -2.515625 C 4.601562 -2.648438 4.398438 -2.71875 4.171875 -2.71875 L 2.46875 -2.71875 L 2.46875 0 L 0.546875 0 L 0.546875 -7.359375 L 5.34375 -7.359375 C 6.238281 -7.359375 6.941406 -7.15625 7.453125 -6.75 C 7.960938 -6.351562 8.21875 -5.800781 8.21875 -5.09375 C 8.21875 -4.570312 8.046875 -4.128906 7.703125 -3.765625 C 7.359375 -3.410156 6.878906 -3.171875 6.265625 -3.046875 C 6.441406 -2.972656 6.585938 -2.867188 6.703125 -2.734375 C 6.816406 -2.597656 6.910156 -2.4375 6.984375 -2.25 L 7.359375 -1.359375 C 7.410156 -1.253906 7.472656 -1.160156 7.546875 -1.078125 C 7.628906 -1.003906 7.734375 -0.96875 7.859375 -0.96875 C 7.953125 -0.96875 8.050781 -0.992188 8.15625 -1.046875 C 8.257812 -1.109375 8.34375 -1.179688 8.40625 -1.265625 L 8.8125 -0.40625 C 8.632812 -0.226562 8.40625 -0.0820312 8.125 0.03125 C 7.84375 0.144531 7.546875 0.203125 7.234375 0.203125 Z M 2.46875 -3.953125 L 4.9375 -3.953125 C 5.351562 -3.953125 5.679688 -4.046875 5.921875 -4.234375 C 6.171875 -4.421875 6.296875 -4.675781 6.296875 -5 C 6.296875 -5.320312 6.171875 -5.578125 5.921875 -5.765625 C 5.679688 -5.960938 5.351562 -6.0625 4.9375 -6.0625 L 2.46875 -6.0625 Z M 2.46875 -3.953125 "/></g></g></g><g fill="#ffffff" fill-opacity="0.4"><g transform="translate(123.390001, 94.569584)"><g/></g></g><g fill="#ffffff" fill-opacity="0.4"><g transform="translate(125.549232, 94.569584)"><g><path d="M 1.296875 -3.703125 C 1.003906 -3.703125 0.765625 -3.785156 0.578125 -3.953125 C 0.390625 -4.128906 0.296875 -4.359375 0.296875 -4.640625 C 0.296875 -4.898438 0.390625 -5.117188 0.578125 -5.296875 C 0.765625 -5.472656 1.003906 -5.5625 1.296875 -5.5625 C 1.597656 -5.5625 1.84375 -5.472656 2.03125 -5.296875 C 2.21875 -5.117188 2.3125 -4.898438 2.3125 -4.640625 C 2.3125 -4.359375 2.21875 -4.128906 2.03125 -3.953125 C 1.84375 -3.785156 1.597656 -3.703125 1.296875 -3.703125 Z M 1.296875 0.109375 C 1.003906 0.109375 0.765625 0.0234375 0.578125 -0.140625 C 0.390625 -0.316406 0.296875 -0.539062 0.296875 -0.8125 C 0.296875 -1.09375 0.390625 -1.316406 0.578125 -1.484375 C 0.765625 -1.660156 1.003906 -1.75 1.296875 -1.75 C 1.597656 -1.75 1.84375 -1.660156 2.03125 -1.484375 C 2.21875 -1.316406 2.3125 -1.09375 2.3125 -0.8125 C 2.3125 -0.539062 2.21875 -0.316406 2.03125 -0.140625 C 1.84375 0.0234375 1.597656 0.109375 1.296875 0.109375 Z M 1.296875 0.109375 "/></g></g></g><g fill="#004aad" fill-opacity="1"><g transform="translate(4.988579, 94.112454)"><g><path d="M 9.6875 -3.6875 C 9.6875 -2.957031 9.519531 -2.3125 9.1875 -1.75 C 8.863281 -1.195312 8.398438 -0.75 7.796875 -0.40625 C 7.203125 -0.0625 6.492188 0.148438 5.671875 0.234375 L 5.671875 0.453125 C 5.671875 0.679688 5.753906 0.859375 5.921875 0.984375 C 6.085938 1.117188 6.3125 1.1875 6.59375 1.1875 C 6.875 1.1875 7.144531 1.128906 7.40625 1.015625 C 7.675781 0.898438 7.90625 0.734375 8.09375 0.515625 L 8.640625 1.4375 C 8.390625 1.71875 8.0625 1.941406 7.65625 2.109375 C 7.25 2.285156 6.8125 2.375 6.34375 2.375 C 5.695312 2.375 5.1875 2.21875 4.8125 1.90625 C 4.445312 1.601562 4.265625 1.179688 4.265625 0.640625 L 4.265625 0.21875 C 3.472656 0.132812 2.78125 -0.078125 2.1875 -0.421875 C 1.601562 -0.765625 1.148438 -1.210938 0.828125 -1.765625 C 0.503906 -2.328125 0.34375 -2.96875 0.34375 -3.6875 C 0.34375 -4.476562 0.535156 -5.164062 0.921875 -5.75 C 1.316406 -6.34375 1.863281 -6.800781 2.5625 -7.125 C 3.257812 -7.457031 4.070312 -7.625 5 -7.625 C 5.9375 -7.625 6.753906 -7.457031 7.453125 -7.125 C 8.160156 -6.800781 8.707031 -6.34375 9.09375 -5.75 C 9.488281 -5.164062 9.6875 -4.476562 9.6875 -3.6875 Z M 2.265625 -3.6875 C 2.265625 -3.195312 2.378906 -2.769531 2.609375 -2.40625 C 2.835938 -2.039062 3.15625 -1.753906 3.5625 -1.546875 C 3.976562 -1.347656 4.457031 -1.25 5 -1.25 C 5.550781 -1.25 6.035156 -1.347656 6.453125 -1.546875 C 6.867188 -1.753906 7.191406 -2.039062 7.421875 -2.40625 C 7.648438 -2.769531 7.765625 -3.195312 7.765625 -3.6875 C 7.765625 -4.175781 7.648438 -4.597656 7.421875 -4.953125 C 7.191406 -5.316406 6.867188 -5.597656 6.453125 -5.796875 C 6.035156 -6.003906 5.550781 -6.109375 5 -6.109375 C 4.457031 -6.109375 3.976562 -6.003906 3.5625 -5.796875 C 3.15625 -5.597656 2.835938 -5.316406 2.609375 -4.953125 C 2.378906 -4.597656 2.265625 -4.175781 2.265625 -3.6875 Z M 2.265625 -3.6875 "/></g></g></g><g fill="#004aad" fill-opacity="1"><g transform="translate(14.670169, 94.112454)"><g><path d="M 4.359375 0.234375 C 3.554688 0.234375 2.859375 0.101562 2.265625 -0.15625 C 1.679688 -0.414062 1.234375 -0.796875 0.921875 -1.296875 C 0.609375 -1.796875 0.453125 -2.398438 0.453125 -3.109375 L 0.453125 -7.359375 L 2.375 -7.359375 L 2.375 -3.171875 C 2.375 -2.585938 2.550781 -2.128906 2.90625 -1.796875 C 3.269531 -1.460938 3.753906 -1.296875 4.359375 -1.296875 C 4.972656 -1.296875 5.457031 -1.457031 5.8125 -1.78125 C 6.164062 -2.113281 6.34375 -2.578125 6.34375 -3.171875 L 6.34375 -7.359375 L 8.265625 -7.359375 L 8.265625 -3.109375 C 8.265625 -2.398438 8.109375 -1.796875 7.796875 -1.296875 C 7.484375 -0.796875 7.035156 -0.414062 6.453125 -0.15625 C 5.867188 0.101562 5.171875 0.234375 4.359375 0.234375 Z M 4.359375 0.234375 "/></g></g></g><g fill="#004aad" fill-opacity="1"><g transform="translate(23.049818, 94.112454)"><g><path d="M 0.046875 0 L 3.25 -7.359375 L 5.546875 -7.359375 L 8.703125 0 L 6.703125 0 L 6.109375 -1.453125 L 2.625 -1.453125 L 2.03125 0 Z M 3.015625 -2.703125 L 5.71875 -2.703125 L 4.390625 -5.984375 L 4.375 -5.984375 Z M 3.015625 -2.703125 "/></g></g></g><g fill="#004aad" fill-opacity="1"><g transform="translate(31.460468, 94.112454)"><g><path d="M 0.546875 0 L 0.546875 -7.359375 L 2.46875 -7.359375 L 2.46875 -1.546875 L 6.296875 -1.546875 L 6.296875 0 Z M 0.546875 0 "/></g></g></g><g fill="#004aad" fill-opacity="1"><g transform="translate(37.56687, 94.112454)"><g><path d="M 0.546875 0 L 0.546875 -7.359375 L 2.46875 -7.359375 L 2.46875 0 Z M 0.546875 0 "/></g></g></g><g fill="#004aad" fill-opacity="1"><g transform="translate(40.242747, 94.112454)"><g><path d="M 2.765625 0 L 2.765625 -5.859375 L 0.109375 -5.859375 L 0.109375 -7.359375 L 7.328125 -7.359375 L 7.328125 -5.859375 L 4.6875 -5.859375 L 4.6875 0 Z M 2.765625 0 "/></g></g></g><g fill="#004aad" fill-opacity="1"><g transform="translate(47.351443, 94.112454)"><g><path d="M 3.125 0 L 3.125 -2.59375 L 0.015625 -7.359375 L 2.078125 -7.359375 L 4.078125 -4.078125 L 4.09375 -4.078125 L 6.015625 -7.359375 L 8.09375 -7.359375 L 5.046875 -2.59375 L 5.046875 0 Z M 3.125 0 "/></g></g></g><g fill="#004aad" fill-opacity="1"><g transform="translate(55.142121, 94.112454)"><g/></g></g><g fill="#004aad" fill-opacity="1"><g transform="translate(57.301352, 94.112454)"><g><path d="M 0.546875 0 L 0.546875 -7.359375 L 2.46875 -7.359375 L 2.46875 0 Z M 0.546875 0 "/></g></g></g><g fill="#004aad" fill-opacity="1"><g transform="translate(59.977226, 94.112454)"><g><path d="M 0.546875 0 L 0.546875 -7.359375 L 2.84375 -7.359375 L 6.65625 -2.0625 L 6.65625 -7.359375 L 8.5 -7.359375 L 8.5 0 L 6.203125 0 L 2.375 -5.328125 L 2.375 0 Z M 0.546875 0 "/></g></g></g><g fill="#004aad" fill-opacity="1"><g transform="translate(68.67719, 94.112454)"><g><path d="M 0.546875 0 L 0.546875 -7.359375 L 4.53125 -7.359375 C 5.875 -7.359375 6.90625 -7.039062 7.625 -6.40625 C 8.351562 -5.78125 8.71875 -4.875 8.71875 -3.6875 C 8.71875 -2.5 8.351562 -1.585938 7.625 -0.953125 C 6.90625 -0.316406 5.875 0 4.53125 0 Z M 2.421875 -1.4375 L 4.390625 -1.4375 C 5.171875 -1.4375 5.769531 -1.628906 6.1875 -2.015625 C 6.601562 -2.410156 6.8125 -2.96875 6.8125 -3.6875 C 6.8125 -4.40625 6.601562 -4.957031 6.1875 -5.34375 C 5.769531 -5.726562 5.171875 -5.921875 4.390625 -5.921875 L 2.421875 -5.921875 Z M 2.421875 -1.4375 "/></g></g></g><g fill="#004aad" fill-opacity="1"><g transform="translate(77.387483, 94.112454)"><g><path d="M 0.546875 0 L 0.546875 -7.359375 L 2.46875 -7.359375 L 2.46875 0 Z M 0.546875 0 "/></g></g></g><g fill="#004aad" fill-opacity="1"><g transform="translate(80.063357, 94.112454)"><g><path d="M 4.9375 0.234375 C 4 0.234375 3.1875 0.078125 2.5 -0.234375 C 1.8125 -0.554688 1.28125 -1.007812 0.90625 -1.59375 C 0.53125 -2.175781 0.34375 -2.875 0.34375 -3.6875 C 0.34375 -4.476562 0.519531 -5.164062 0.875 -5.75 C 1.226562 -6.34375 1.726562 -6.800781 2.375 -7.125 C 3.019531 -7.445312 3.789062 -7.609375 4.6875 -7.609375 C 5.363281 -7.609375 5.972656 -7.5 6.515625 -7.28125 C 7.066406 -7.0625 7.523438 -6.753906 7.890625 -6.359375 C 8.265625 -5.960938 8.515625 -5.488281 8.640625 -4.9375 L 6.890625 -4.515625 C 6.773438 -5.003906 6.519531 -5.382812 6.125 -5.65625 C 5.738281 -5.9375 5.269531 -6.078125 4.71875 -6.078125 C 4.21875 -6.078125 3.78125 -5.976562 3.40625 -5.78125 C 3.039062 -5.59375 2.757812 -5.316406 2.5625 -4.953125 C 2.363281 -4.597656 2.265625 -4.175781 2.265625 -3.6875 C 2.265625 -3.195312 2.375 -2.769531 2.59375 -2.40625 C 2.8125 -2.050781 3.125 -1.773438 3.53125 -1.578125 C 3.945312 -1.378906 4.429688 -1.28125 4.984375 -1.28125 C 5.640625 -1.28125 6.195312 -1.445312 6.65625 -1.78125 C 7.113281 -2.113281 7.398438 -2.554688 7.515625 -3.109375 L 9.3125 -2.8125 C 9.195312 -2.1875 8.941406 -1.644531 8.546875 -1.1875 C 8.160156 -0.726562 7.65625 -0.375 7.03125 -0.125 C 6.414062 0.113281 5.71875 0.234375 4.9375 0.234375 Z M 4.9375 0.234375 "/></g></g></g><g fill="#004aad" fill-opacity="1"><g transform="translate(89.228302, 94.112454)"><g><path d="M 0.046875 0 L 3.25 -7.359375 L 5.546875 -7.359375 L 8.703125 0 L 6.703125 0 L 6.109375 -1.453125 L 2.625 -1.453125 L 2.03125 0 Z M 3.015625 -2.703125 L 5.71875 -2.703125 L 4.390625 -5.984375 L 4.375 -5.984375 Z M 3.015625 -2.703125 "/></g></g></g><g fill="#004aad" fill-opacity="1"><g transform="translate(97.63895, 94.112454)"><g><path d="M 2.765625 0 L 2.765625 -5.859375 L 0.109375 -5.859375 L 0.109375 -7.359375 L 7.328125 -7.359375 L 7.328125 -5.859375 L 4.6875 -5.859375 L 4.6875 0 Z M 2.765625 0 "/></g></g></g><g fill="#004aad" fill-opacity="1"><g transform="translate(104.747644, 94.112454)"><g><path d="M 5 0.265625 C 4.070312 0.265625 3.257812 0.101562 2.5625 -0.21875 C 1.863281 -0.550781 1.316406 -1.015625 0.921875 -1.609375 C 0.535156 -2.203125 0.34375 -2.894531 0.34375 -3.6875 C 0.34375 -4.476562 0.535156 -5.164062 0.921875 -5.75 C 1.316406 -6.34375 1.863281 -6.800781 2.5625 -7.125 C 3.257812 -7.457031 4.070312 -7.625 5 -7.625 C 5.9375 -7.625 6.753906 -7.457031 7.453125 -7.125 C 8.160156 -6.800781 8.707031 -6.34375 9.09375 -5.75 C 9.488281 -5.164062 9.6875 -4.476562 9.6875 -3.6875 C 9.6875 -2.894531 9.488281 -2.203125 9.09375 -1.609375 C 8.707031 -1.015625 8.160156 -0.550781 7.453125 -0.21875 C 6.753906 0.101562 5.9375 0.265625 5 0.265625 Z M 5 -1.25 C 5.550781 -1.25 6.035156 -1.347656 6.453125 -1.546875 C 6.867188 -1.753906 7.191406 -2.039062 7.421875 -2.40625 C 7.648438 -2.769531 7.765625 -3.195312 7.765625 -3.6875 C 7.765625 -4.175781 7.648438 -4.597656 7.421875 -4.953125 C 7.191406 -5.316406 6.867188 -5.597656 6.453125 -5.796875 C 6.035156 -6.003906 5.550781 -6.109375 5 -6.109375 C 4.457031 -6.109375 3.976562 -6.003906 3.5625 -5.796875 C 3.15625 -5.597656 2.835938 -5.316406 2.609375 -4.953125 C 2.378906 -4.597656 2.265625 -4.175781 2.265625 -3.6875 C 2.265625 -3.195312 2.378906 -2.769531 2.609375 -2.40625 C 2.835938 -2.039062 3.15625 -1.753906 3.5625 -1.546875 C 3.976562 -1.347656 4.457031 -1.25 5 -1.25 Z M 5 -1.25 "/></g></g></g><g fill="#004aad" fill-opacity="1"><g transform="translate(114.429232, 94.112454)"><g><path d="M 7.234375 0.203125 C 6.816406 0.203125 6.476562 0.09375 6.21875 -0.125 C 5.957031 -0.351562 5.753906 -0.625 5.609375 -0.9375 L 5.203125 -1.953125 C 5.109375 -2.191406 4.96875 -2.378906 4.78125 -2.515625 C 4.601562 -2.648438 4.398438 -2.71875 4.171875 -2.71875 L 2.46875 -2.71875 L 2.46875 0 L 0.546875 0 L 0.546875 -7.359375 L 5.34375 -7.359375 C 6.238281 -7.359375 6.941406 -7.15625 7.453125 -6.75 C 7.960938 -6.351562 8.21875 -5.800781 8.21875 -5.09375 C 8.21875 -4.570312 8.046875 -4.128906 7.703125 -3.765625 C 7.359375 -3.410156 6.878906 -3.171875 6.265625 -3.046875 C 6.441406 -2.972656 6.585938 -2.867188 6.703125 -2.734375 C 6.816406 -2.597656 6.910156 -2.4375 6.984375 -2.25 L 7.359375 -1.359375 C 7.410156 -1.253906 7.472656 -1.160156 7.546875 -1.078125 C 7.628906 -1.003906 7.734375 -0.96875 7.859375 -0.96875 C 7.953125 -0.96875 8.050781 -0.992188 8.15625 -1.046875 C 8.257812 -1.109375 8.34375 -1.179688 8.40625 -1.265625 L 8.8125 -0.40625 C 8.632812 -0.226562 8.40625 -0.0820312 8.125 0.03125 C 7.84375 0.144531 7.546875 0.203125 7.234375 0.203125 Z M 2.46875 -3.953125 L 4.9375 -3.953125 C 5.351562 -3.953125 5.679688 -4.046875 5.921875 -4.234375 C 6.171875 -4.421875 6.296875 -4.675781 6.296875 -5 C 6.296875 -5.320312 6.171875 -5.578125 5.921875 -5.765625 C 5.679688 -5.960938 5.351562 -6.0625 4.9375 -6.0625 L 2.46875 -6.0625 Z M 2.46875 -3.953125 "/></g></g></g><g fill="#004aad" fill-opacity="1"><g transform="translate(122.932871, 94.112454)"><g/></g></g><g fill="#004aad" fill-opacity="1"><g transform="translate(125.092102, 94.112454)"><g><path d="M 1.296875 -3.703125 C 1.003906 -3.703125 0.765625 -3.785156 0.578125 -3.953125 C 0.390625 -4.128906 0.296875 -4.359375 0.296875 -4.640625 C 0.296875 -4.898438 0.390625 -5.117188 0.578125 -5.296875 C 0.765625 -5.472656 1.003906 -5.5625 1.296875 -5.5625 C 1.597656 -5.5625 1.84375 -5.472656 2.03125 -5.296875 C 2.21875 -5.117188 2.3125 -4.898438 2.3125 -4.640625 C 2.3125 -4.359375 2.21875 -4.128906 2.03125 -3.953125 C 1.84375 -3.785156 1.597656 -3.703125 1.296875 -3.703125 Z M 1.296875 0.109375 C 1.003906 0.109375 0.765625 0.0234375 0.578125 -0.140625 C 0.390625 -0.316406 0.296875 -0.539062 0.296875 -0.8125 C 0.296875 -1.09375 0.390625 -1.316406 0.578125 -1.484375 C 0.765625 -1.660156 1.003906 -1.75 1.296875 -1.75 C 1.597656 -1.75 1.84375 -1.660156 2.03125 -1.484375 C 2.21875 -1.316406 2.3125 -1.09375 2.3125 -0.8125 C 2.3125 -0.539062 2.21875 -0.316406 2.03125 -0.140625 C 1.84375 0.0234375 1.597656 0.109375 1.296875 0.109375 Z M 1.296875 0.109375 "/></g></g></g><g fill="#ffffff" fill-opacity="0.4"><g transform="translate(5.445709, 74.446636)"><g><path d="M 4.9375 0.234375 C 4 0.234375 3.1875 0.078125 2.5 -0.234375 C 1.8125 -0.554688 1.28125 -1.007812 0.90625 -1.59375 C 0.53125 -2.175781 0.34375 -2.875 0.34375 -3.6875 C 0.34375 -4.476562 0.519531 -5.164062 0.875 -5.75 C 1.226562 -6.34375 1.726562 -6.800781 2.375 -7.125 C 3.019531 -7.445312 3.789062 -7.609375 4.6875 -7.609375 C 5.363281 -7.609375 5.972656 -7.5 6.515625 -7.28125 C 7.066406 -7.0625 7.523438 -6.753906 7.890625 -6.359375 C 8.265625 -5.960938 8.515625 -5.488281 8.640625 -4.9375 L 6.890625 -4.515625 C 6.773438 -5.003906 6.519531 -5.382812 6.125 -5.65625 C 5.738281 -5.9375 5.269531 -6.078125 4.71875 -6.078125 C 4.21875 -6.078125 3.78125 -5.976562 3.40625 -5.78125 C 3.039062 -5.59375 2.757812 -5.316406 2.5625 -4.953125 C 2.363281 -4.597656 2.265625 -4.175781 2.265625 -3.6875 C 2.265625 -3.195312 2.375 -2.769531 2.59375 -2.40625 C 2.8125 -2.050781 3.125 -1.773438 3.53125 -1.578125 C 3.945312 -1.378906 4.429688 -1.28125 4.984375 -1.28125 C 5.640625 -1.28125 6.195312 -1.445312 6.65625 -1.78125 C 7.113281 -2.113281 7.398438 -2.554688 7.515625 -3.109375 L 9.3125 -2.8125 C 9.195312 -2.1875 8.941406 -1.644531 8.546875 -1.1875 C 8.160156 -0.726562 7.65625 -0.375 7.03125 -0.125 C 6.414062 0.113281 5.71875 0.234375 4.9375 0.234375 Z M 4.9375 0.234375 "/></g></g></g><g fill="#ffffff" fill-opacity="0.4"><g transform="translate(14.610657, 74.446636)"><g><path d="M 5 0.265625 C 4.070312 0.265625 3.257812 0.101562 2.5625 -0.21875 C 1.863281 -0.550781 1.316406 -1.015625 0.921875 -1.609375 C 0.535156 -2.203125 0.34375 -2.894531 0.34375 -3.6875 C 0.34375 -4.476562 0.535156 -5.164062 0.921875 -5.75 C 1.316406 -6.34375 1.863281 -6.800781 2.5625 -7.125 C 3.257812 -7.457031 4.070312 -7.625 5 -7.625 C 5.9375 -7.625 6.753906 -7.457031 7.453125 -7.125 C 8.160156 -6.800781 8.707031 -6.34375 9.09375 -5.75 C 9.488281 -5.164062 9.6875 -4.476562 9.6875 -3.6875 C 9.6875 -2.894531 9.488281 -2.203125 9.09375 -1.609375 C 8.707031 -1.015625 8.160156 -0.550781 7.453125 -0.21875 C 6.753906 0.101562 5.9375 0.265625 5 0.265625 Z M 5 -1.25 C 5.550781 -1.25 6.035156 -1.347656 6.453125 -1.546875 C 6.867188 -1.753906 7.191406 -2.039062 7.421875 -2.40625 C 7.648438 -2.769531 7.765625 -3.195312 7.765625 -3.6875 C 7.765625 -4.175781 7.648438 -4.597656 7.421875 -4.953125 C 7.191406 -5.316406 6.867188 -5.597656 6.453125 -5.796875 C 6.035156 -6.003906 5.550781 -6.109375 5 -6.109375 C 4.457031 -6.109375 3.976562 -6.003906 3.5625 -5.796875 C 3.15625 -5.597656 2.835938 -5.316406 2.609375 -4.953125 C 2.378906 -4.597656 2.265625 -4.175781 2.265625 -3.6875 C 2.265625 -3.195312 2.378906 -2.769531 2.609375 -2.40625 C 2.835938 -2.039062 3.15625 -1.753906 3.5625 -1.546875 C 3.976562 -1.347656 4.457031 -1.25 5 -1.25 Z M 5 -1.25 "/></g></g></g><g fill="#ffffff" fill-opacity="0.4"><g transform="translate(24.292248, 74.446636)"><g><path d="M 0.546875 0 L 0.546875 -7.359375 L 3.078125 -7.359375 L 5.609375 -1.90625 L 5.640625 -1.90625 L 8.171875 -7.359375 L 10.703125 -7.359375 L 10.703125 0 L 8.90625 0 L 8.90625 -5.203125 L 8.890625 -5.203125 L 6.46875 0 L 4.8125 0 L 2.359375 -5.1875 L 2.34375 -5.1875 L 2.34375 0 Z M 0.546875 0 "/></g></g></g><g fill="#ffffff" fill-opacity="0.4"><g transform="translate(35.20346, 74.446636)"><g><path d="M 0.546875 0 L 0.546875 -7.359375 L 3.078125 -7.359375 L 5.609375 -1.90625 L 5.640625 -1.90625 L 8.171875 -7.359375 L 10.703125 -7.359375 L 10.703125 0 L 8.90625 0 L 8.90625 -5.203125 L 8.890625 -5.203125 L 6.46875 0 L 4.8125 0 L 2.359375 -5.1875 L 2.34375 -5.1875 L 2.34375 0 Z M 0.546875 0 "/></g></g></g><g fill="#ffffff" fill-opacity="0.4"><g transform="translate(46.114672, 74.446636)"><g><path d="M 4.359375 0.234375 C 3.554688 0.234375 2.859375 0.101562 2.265625 -0.15625 C 1.679688 -0.414062 1.234375 -0.796875 0.921875 -1.296875 C 0.609375 -1.796875 0.453125 -2.398438 0.453125 -3.109375 L 0.453125 -7.359375 L 2.375 -7.359375 L 2.375 -3.171875 C 2.375 -2.585938 2.550781 -2.128906 2.90625 -1.796875 C 3.269531 -1.460938 3.753906 -1.296875 4.359375 -1.296875 C 4.972656 -1.296875 5.457031 -1.457031 5.8125 -1.78125 C 6.164062 -2.113281 6.34375 -2.578125 6.34375 -3.171875 L 6.34375 -7.359375 L 8.265625 -7.359375 L 8.265625 -3.109375 C 8.265625 -2.398438 8.109375 -1.796875 7.796875 -1.296875 C 7.484375 -0.796875 7.035156 -0.414062 6.453125 -0.15625 C 5.867188 0.101562 5.171875 0.234375 4.359375 0.234375 Z M 4.359375 0.234375 "/></g></g></g><g fill="#ffffff" fill-opacity="0.4"><g transform="translate(54.494318, 74.446636)"><g/></g></g><g fill="#ffffff" fill-opacity="0.4"><g transform="translate(56.653549, 74.446636)"><g><path d="M 0.546875 0 L 0.546875 -7.359375 L 2.46875 -7.359375 L 2.46875 0 Z M 0.546875 0 "/></g></g></g><g fill="#ffffff" fill-opacity="0.4"><g transform="translate(59.329423, 74.446636)"><g><path d="M 0.546875 0 L 0.546875 -7.359375 L 4.53125 -7.359375 C 5.875 -7.359375 6.90625 -7.039062 7.625 -6.40625 C 8.351562 -5.78125 8.71875 -4.875 8.71875 -3.6875 C 8.71875 -2.5 8.351562 -1.585938 7.625 -0.953125 C 6.90625 -0.316406 5.875 0 4.53125 0 Z M 2.421875 -1.4375 L 4.390625 -1.4375 C 5.171875 -1.4375 5.769531 -1.628906 6.1875 -2.015625 C 6.601562 -2.410156 6.8125 -2.96875 6.8125 -3.6875 C 6.8125 -4.40625 6.601562 -4.957031 6.1875 -5.34375 C 5.769531 -5.726562 5.171875 -5.921875 4.390625 -5.921875 L 2.421875 -5.921875 Z M 2.421875 -1.4375 "/></g></g></g><g fill="#ffffff" fill-opacity="0.4"><g transform="translate(68.039716, 74.446636)"><g/></g></g><g fill="#ffffff" fill-opacity="0.4"><g transform="translate(70.198948, 74.446636)"><g><path d="M 1.296875 -3.703125 C 1.003906 -3.703125 0.765625 -3.785156 0.578125 -3.953125 C 0.390625 -4.128906 0.296875 -4.359375 0.296875 -4.640625 C 0.296875 -4.898438 0.390625 -5.117188 0.578125 -5.296875 C 0.765625 -5.472656 1.003906 -5.5625 1.296875 -5.5625 C 1.597656 -5.5625 1.84375 -5.472656 2.03125 -5.296875 C 2.21875 -5.117188 2.3125 -4.898438 2.3125 -4.640625 C 2.3125 -4.359375 2.21875 -4.128906 2.03125 -3.953125 C 1.84375 -3.785156 1.597656 -3.703125 1.296875 -3.703125 Z M 1.296875 0.109375 C 1.003906 0.109375 0.765625 0.0234375 0.578125 -0.140625 C 0.390625 -0.316406 0.296875 -0.539062 0.296875 -0.8125 C 0.296875 -1.09375 0.390625 -1.316406 0.578125 -1.484375 C 0.765625 -1.660156 1.003906 -1.75 1.296875 -1.75 C 1.597656 -1.75 1.84375 -1.660156 2.03125 -1.484375 C 2.21875 -1.316406 2.3125 -1.09375 2.3125 -0.8125 C 2.3125 -0.539062 2.21875 -0.316406 2.03125 -0.140625 C 1.84375 0.0234375 1.597656 0.109375 1.296875 0.109375 Z M 1.296875 0.109375 "/></g></g></g><g fill="#004aad" fill-opacity="1"><g transform="translate(4.988579, 73.989506)"><g><path d="M 4.9375 0.234375 C 4 0.234375 3.1875 0.078125 2.5 -0.234375 C 1.8125 -0.554688 1.28125 -1.007812 0.90625 -1.59375 C 0.53125 -2.175781 0.34375 -2.875 0.34375 -3.6875 C 0.34375 -4.476562 0.519531 -5.164062 0.875 -5.75 C 1.226562 -6.34375 1.726562 -6.800781 2.375 -7.125 C 3.019531 -7.445312 3.789062 -7.609375 4.6875 -7.609375 C 5.363281 -7.609375 5.972656 -7.5 6.515625 -7.28125 C 7.066406 -7.0625 7.523438 -6.753906 7.890625 -6.359375 C 8.265625 -5.960938 8.515625 -5.488281 8.640625 -4.9375 L 6.890625 -4.515625 C 6.773438 -5.003906 6.519531 -5.382812 6.125 -5.65625 C 5.738281 -5.9375 5.269531 -6.078125 4.71875 -6.078125 C 4.21875 -6.078125 3.78125 -5.976562 3.40625 -5.78125 C 3.039062 -5.59375 2.757812 -5.316406 2.5625 -4.953125 C 2.363281 -4.597656 2.265625 -4.175781 2.265625 -3.6875 C 2.265625 -3.195312 2.375 -2.769531 2.59375 -2.40625 C 2.8125 -2.050781 3.125 -1.773438 3.53125 -1.578125 C 3.945312 -1.378906 4.429688 -1.28125 4.984375 -1.28125 C 5.640625 -1.28125 6.195312 -1.445312 6.65625 -1.78125 C 7.113281 -2.113281 7.398438 -2.554688 7.515625 -3.109375 L 9.3125 -2.8125 C 9.195312 -2.1875 8.941406 -1.644531 8.546875 -1.1875 C 8.160156 -0.726562 7.65625 -0.375 7.03125 -0.125 C 6.414062 0.113281 5.71875 0.234375 4.9375 0.234375 Z M 4.9375 0.234375 "/></g></g></g><g fill="#004aad" fill-opacity="1"><g transform="translate(14.153527, 73.989506)"><g><path d="M 5 0.265625 C 4.070312 0.265625 3.257812 0.101562 2.5625 -0.21875 C 1.863281 -0.550781 1.316406 -1.015625 0.921875 -1.609375 C 0.535156 -2.203125 0.34375 -2.894531 0.34375 -3.6875 C 0.34375 -4.476562 0.535156 -5.164062 0.921875 -5.75 C 1.316406 -6.34375 1.863281 -6.800781 2.5625 -7.125 C 3.257812 -7.457031 4.070312 -7.625 5 -7.625 C 5.9375 -7.625 6.753906 -7.457031 7.453125 -7.125 C 8.160156 -6.800781 8.707031 -6.34375 9.09375 -5.75 C 9.488281 -5.164062 9.6875 -4.476562 9.6875 -3.6875 C 9.6875 -2.894531 9.488281 -2.203125 9.09375 -1.609375 C 8.707031 -1.015625 8.160156 -0.550781 7.453125 -0.21875 C 6.753906 0.101562 5.9375 0.265625 5 0.265625 Z M 5 -1.25 C 5.550781 -1.25 6.035156 -1.347656 6.453125 -1.546875 C 6.867188 -1.753906 7.191406 -2.039062 7.421875 -2.40625 C 7.648438 -2.769531 7.765625 -3.195312 7.765625 -3.6875 C 7.765625 -4.175781 7.648438 -4.597656 7.421875 -4.953125 C 7.191406 -5.316406 6.867188 -5.597656 6.453125 -5.796875 C 6.035156 -6.003906 5.550781 -6.109375 5 -6.109375 C 4.457031 -6.109375 3.976562 -6.003906 3.5625 -5.796875 C 3.15625 -5.597656 2.835938 -5.316406 2.609375 -4.953125 C 2.378906 -4.597656 2.265625 -4.175781 2.265625 -3.6875 C 2.265625 -3.195312 2.378906 -2.769531 2.609375 -2.40625 C 2.835938 -2.039062 3.15625 -1.753906 3.5625 -1.546875 C 3.976562 -1.347656 4.457031 -1.25 5 -1.25 Z M 5 -1.25 "/></g></g></g><g fill="#004aad" fill-opacity="1"><g transform="translate(23.835117, 73.989506)"><g><path d="M 0.546875 0 L 0.546875 -7.359375 L 3.078125 -7.359375 L 5.609375 -1.90625 L 5.640625 -1.90625 L 8.171875 -7.359375 L 10.703125 -7.359375 L 10.703125 0 L 8.90625 0 L 8.90625 -5.203125 L 8.890625 -5.203125 L 6.46875 0 L 4.8125 0 L 2.359375 -5.1875 L 2.34375 -5.1875 L 2.34375 0 Z M 0.546875 0 "/></g></g></g><g fill="#004aad" fill-opacity="1"><g transform="translate(34.746329, 73.989506)"><g><path d="M 0.546875 0 L 0.546875 -7.359375 L 3.078125 -7.359375 L 5.609375 -1.90625 L 5.640625 -1.90625 L 8.171875 -7.359375 L 10.703125 -7.359375 L 10.703125 0 L 8.90625 0 L 8.90625 -5.203125 L 8.890625 -5.203125 L 6.46875 0 L 4.8125 0 L 2.359375 -5.1875 L 2.34375 -5.1875 L 2.34375 0 Z M 0.546875 0 "/></g></g></g><g fill="#004aad" fill-opacity="1"><g transform="translate(45.657541, 73.989506)"><g><path d="M 4.359375 0.234375 C 3.554688 0.234375 2.859375 0.101562 2.265625 -0.15625 C 1.679688 -0.414062 1.234375 -0.796875 0.921875 -1.296875 C 0.609375 -1.796875 0.453125 -2.398438 0.453125 -3.109375 L 0.453125 -7.359375 L 2.375 -7.359375 L 2.375 -3.171875 C 2.375 -2.585938 2.550781 -2.128906 2.90625 -1.796875 C 3.269531 -1.460938 3.753906 -1.296875 4.359375 -1.296875 C 4.972656 -1.296875 5.457031 -1.457031 5.8125 -1.78125 C 6.164062 -2.113281 6.34375 -2.578125 6.34375 -3.171875 L 6.34375 -7.359375 L 8.265625 -7.359375 L 8.265625 -3.109375 C 8.265625 -2.398438 8.109375 -1.796875 7.796875 -1.296875 C 7.484375 -0.796875 7.035156 -0.414062 6.453125 -0.15625 C 5.867188 0.101562 5.171875 0.234375 4.359375 0.234375 Z M 4.359375 0.234375 "/></g></g></g><g fill="#004aad" fill-opacity="1"><g transform="translate(54.037187, 73.989506)"><g/></g></g><g fill="#004aad" fill-opacity="1"><g transform="translate(56.196419, 73.989506)"><g><path d="M 0.546875 0 L 0.546875 -7.359375 L 2.46875 -7.359375 L 2.46875 0 Z M 0.546875 0 "/></g></g></g><g fill="#004aad" fill-opacity="1"><g transform="translate(58.872292, 73.989506)"><g><path d="M 0.546875 0 L 0.546875 -7.359375 L 4.53125 -7.359375 C 5.875 -7.359375 6.90625 -7.039062 7.625 -6.40625 C 8.351562 -5.78125 8.71875 -4.875 8.71875 -3.6875 C 8.71875 -2.5 8.351562 -1.585938 7.625 -0.953125 C 6.90625 -0.316406 5.875 0 4.53125 0 Z M 2.421875 -1.4375 L 4.390625 -1.4375 C 5.171875 -1.4375 5.769531 -1.628906 6.1875 -2.015625 C 6.601562 -2.410156 6.8125 -2.96875 6.8125 -3.6875 C 6.8125 -4.40625 6.601562 -4.957031 6.1875 -5.34375 C 5.769531 -5.726562 5.171875 -5.921875 4.390625 -5.921875 L 2.421875 -5.921875 Z M 2.421875 -1.4375 "/></g></g></g><g fill="#004aad" fill-opacity="1"><g transform="translate(67.582586, 73.989506)"><g/></g></g><g fill="#004aad" fill-opacity="1"><g transform="translate(69.741817, 73.989506)"><g><path d="M 1.296875 -3.703125 C 1.003906 -3.703125 0.765625 -3.785156 0.578125 -3.953125 C 0.390625 -4.128906 0.296875 -4.359375 0.296875 -4.640625 C 0.296875 -4.898438 0.390625 -5.117188 0.578125 -5.296875 C 0.765625 -5.472656 1.003906 -5.5625 1.296875 -5.5625 C 1.597656 -5.5625 1.84375 -5.472656 2.03125 -5.296875 C 2.21875 -5.117188 2.3125 -4.898438 2.3125 -4.640625 C 2.3125 -4.359375 2.21875 -4.128906 2.03125 -3.953125 C 1.84375 -3.785156 1.597656 -3.703125 1.296875 -3.703125 Z M 1.296875 0.109375 C 1.003906 0.109375 0.765625 0.0234375 0.578125 -0.140625 C 0.390625 -0.316406 0.296875 -0.539062 0.296875 -0.8125 C 0.296875 -1.09375 0.390625 -1.316406 0.578125 -1.484375 C 0.765625 -1.660156 1.003906 -1.75 1.296875 -1.75 C 1.597656 -1.75 1.84375 -1.660156 2.03125 -1.484375 C 2.21875 -1.316406 2.3125 -1.09375 2.3125 -0.8125 C 2.3125 -0.539062 2.21875 -0.316406 2.03125 -0.140625 C 1.84375 0.0234375 1.597656 0.109375 1.296875 0.109375 Z M 1.296875 0.109375 "/></g></g></g><g clip-path="url(#3cf105fb90)"><g clip-path="url(#5cf62b8ab3)"><path stroke-linecap="butt" transform="matrix(0.746394, 0, 0, 0.746394, 78.415132, 61.662836)" fill="none" stroke-linejoin="miter" d="M 5.996152 0.00164387 L 341.761463 0.00164387 C 343.352446 0.00164387 344.880626 0.629663 346.005828 1.754865 C 347.131029 2.880066 347.764282 4.408246 347.764282 5.999229 L 347.764282 17.95253 C 347.764282 19.543513 347.131029 21.071693 346.005828 22.196894 C 344.880626 23.322096 343.352446 23.955349 341.761463 23.955349 L 5.996152 23.955349 C 4.405169 23.955349 2.882222 23.322096 1.757021 22.196894 C 0.63182 21.071693 -0.00143325 19.543513 -0.00143325 17.95253 L -0.00143325 5.999229 C -0.00143325 4.408246 0.63182 2.880066 1.757021 1.754865 C 2.882222 0.629663 4.405169 0.00164387 5.996152 0.00164387 Z M 5.996152 0.00164387 " stroke="#004aad" stroke-width="2" stroke-opacity="1" stroke-miterlimit="4"/></g></g><g clip-path="url(#a159fa406c)"><g clip-path="url(#9ce9eca9fa)"><path stroke-linecap="butt" transform="matrix(0.746394, 0, 0, 0.746394, 120.607659, 41.53989)" fill="none" stroke-linejoin="miter" d="M 5.999883 -0.00110902 L 285.23822 -0.00110902 C 286.829202 -0.00110902 288.357383 0.632144 289.482584 1.757345 C 290.607786 2.882546 291.235805 4.405493 291.235805 5.996476 L 291.235805 17.955011 C 291.235805 19.545993 290.607786 21.06894 289.482584 22.194142 C 288.357383 23.319343 286.829202 23.952596 285.23822 23.952596 L 5.999883 23.952596 C 4.408901 23.952596 2.88072 23.319343 1.755519 22.194142 C 0.630318 21.06894 0.00229843 19.545993 0.00229843 17.955011 L 0.00229843 5.996476 C 0.00229843 4.405493 0.630318 2.882546 1.755519 1.757345 C 2.88072 0.632144 4.408901 -0.00110902 5.999883 -0.00110902 Z M 5.999883 -0.00110902 " stroke="#004aad" stroke-width="2" stroke-opacity="1" stroke-miterlimit="4"/></g></g><g clip-path="url(#7512586b44)"><g clip-path="url(#ae793b79f1)"><path stroke-linecap="butt" transform="matrix(0.746394, 0, 0, 0.746394, 78.415132, 21.334147)" fill="none" stroke-linejoin="miter" d="M 5.996152 0.00239909 L 341.761463 0.00239909 C 343.352446 0.00239909 344.880626 0.630418 346.005828 1.75562 C 347.131029 2.880821 347.764282 4.409002 347.764282 5.999984 L 347.764282 17.953286 C 347.764282 19.544268 347.131029 21.072448 346.005828 22.19765 C 344.880626 23.322851 343.352446 23.95087 341.761463 23.95087 L 5.996152 23.95087 C 4.405169 23.95087 2.882222 23.322851 1.757021 22.19765 C 0.63182 21.072448 -0.00143325 19.544268 -0.00143325 17.953286 L -0.00143325 5.999984 C -0.00143325 4.409002 0.63182 2.880821 1.757021 1.75562 C 2.882222 0.630418 4.405169 0.00239909 5.996152 0.00239909 Z M 5.996152 0.00239909 " stroke="#004aad" stroke-width="2" stroke-opacity="1" stroke-miterlimit="4"/></g></g><g fill="#ffffff" fill-opacity="0.4"><g transform="translate(5.445709, 12.479116)"><g><path d="M 0.546875 0 L 0.546875 -7.359375 L 4.53125 -7.359375 C 5.875 -7.359375 6.90625 -7.039062 7.625 -6.40625 C 8.351562 -5.78125 8.71875 -4.875 8.71875 -3.6875 C 8.71875 -2.5 8.351562 -1.585938 7.625 -0.953125 C 6.90625 -0.316406 5.875 0 4.53125 0 Z M 2.421875 -1.4375 L 4.390625 -1.4375 C 5.171875 -1.4375 5.769531 -1.628906 6.1875 -2.015625 C 6.601562 -2.410156 6.8125 -2.96875 6.8125 -3.6875 C 6.8125 -4.40625 6.601562 -4.957031 6.1875 -5.34375 C 5.769531 -5.726562 5.171875 -5.921875 4.390625 -5.921875 L 2.421875 -5.921875 Z M 2.421875 -1.4375 "/></g></g></g><g fill="#ffffff" fill-opacity="0.4"><g transform="translate(14.156005, 12.479116)"><g><path d="M 0.546875 0 L 0.546875 -7.359375 L 6.90625 -7.359375 L 6.90625 -5.984375 L 2.40625 -5.984375 L 2.40625 -4.390625 L 6.5 -4.390625 L 6.5 -3.15625 L 2.40625 -3.15625 L 2.40625 -1.390625 L 7.015625 -1.390625 L 7.015625 0 Z M 0.546875 0 "/></g></g></g><g fill="#ffffff" fill-opacity="0.4"><g transform="translate(21.058048, 12.479116)"><g><path d="M 3.234375 0 L 0.03125 -7.359375 L 2.03125 -7.359375 L 4.328125 -1.6875 L 4.34375 -1.6875 L 6.625 -7.359375 L 8.640625 -7.359375 L 5.421875 0 Z M 3.234375 0 "/></g></g></g><g fill="#ffffff" fill-opacity="0.4"><g transform="translate(29.375695, 12.479116)"><g><path d="M 0.546875 0 L 0.546875 -7.359375 L 2.46875 -7.359375 L 2.46875 0 Z M 0.546875 0 "/></g></g></g><g fill="#ffffff" fill-opacity="0.4"><g transform="translate(32.051571, 12.479116)"><g><path d="M 4.9375 0.234375 C 4 0.234375 3.1875 0.078125 2.5 -0.234375 C 1.8125 -0.554688 1.28125 -1.007812 0.90625 -1.59375 C 0.53125 -2.175781 0.34375 -2.875 0.34375 -3.6875 C 0.34375 -4.476562 0.519531 -5.164062 0.875 -5.75 C 1.226562 -6.34375 1.726562 -6.800781 2.375 -7.125 C 3.019531 -7.445312 3.789062 -7.609375 4.6875 -7.609375 C 5.363281 -7.609375 5.972656 -7.5 6.515625 -7.28125 C 7.066406 -7.0625 7.523438 -6.753906 7.890625 -6.359375 C 8.265625 -5.960938 8.515625 -5.488281 8.640625 -4.9375 L 6.890625 -4.515625 C 6.773438 -5.003906 6.519531 -5.382812 6.125 -5.65625 C 5.738281 -5.9375 5.269531 -6.078125 4.71875 -6.078125 C 4.21875 -6.078125 3.78125 -5.976562 3.40625 -5.78125 C 3.039062 -5.59375 2.757812 -5.316406 2.5625 -4.953125 C 2.363281 -4.597656 2.265625 -4.175781 2.265625 -3.6875 C 2.265625 -3.195312 2.375 -2.769531 2.59375 -2.40625 C 2.8125 -2.050781 3.125 -1.773438 3.53125 -1.578125 C 3.945312 -1.378906 4.429688 -1.28125 4.984375 -1.28125 C 5.640625 -1.28125 6.195312 -1.445312 6.65625 -1.78125 C 7.113281 -2.113281 7.398438 -2.554688 7.515625 -3.109375 L 9.3125 -2.8125 C 9.195312 -2.1875 8.941406 -1.644531 8.546875 -1.1875 C 8.160156 -0.726562 7.65625 -0.375 7.03125 -0.125 C 6.414062 0.113281 5.71875 0.234375 4.9375 0.234375 Z M 4.9375 0.234375 "/></g></g></g><g fill="#ffffff" fill-opacity="0.4"><g transform="translate(41.216519, 12.479116)"><g><path d="M 0.546875 0 L 0.546875 -7.359375 L 6.90625 -7.359375 L 6.90625 -5.984375 L 2.40625 -5.984375 L 2.40625 -4.390625 L 6.5 -4.390625 L 6.5 -3.15625 L 2.40625 -3.15625 L 2.40625 -1.390625 L 7.015625 -1.390625 L 7.015625 0 Z M 0.546875 0 "/></g></g></g><g fill="#ffffff" fill-opacity="0.4"><g transform="translate(48.118562, 12.479116)"><g/></g></g><g fill="#ffffff" fill-opacity="0.4"><g transform="translate(50.277796, 12.479116)"><g><path d="M 0.546875 0 L 0.546875 -7.359375 L 2.46875 -7.359375 L 2.46875 0 Z M 0.546875 0 "/></g></g></g><g fill="#ffffff" fill-opacity="0.4"><g transform="translate(52.953672, 12.479116)"><g><path d="M 0.546875 0 L 0.546875 -7.359375 L 4.53125 -7.359375 C 5.875 -7.359375 6.90625 -7.039062 7.625 -6.40625 C 8.351562 -5.78125 8.71875 -4.875 8.71875 -3.6875 C 8.71875 -2.5 8.351562 -1.585938 7.625 -0.953125 C 6.90625 -0.316406 5.875 0 4.53125 0 Z M 2.421875 -1.4375 L 4.390625 -1.4375 C 5.171875 -1.4375 5.769531 -1.628906 6.1875 -2.015625 C 6.601562 -2.410156 6.8125 -2.96875 6.8125 -3.6875 C 6.8125 -4.40625 6.601562 -4.957031 6.1875 -5.34375 C 5.769531 -5.726562 5.171875 -5.921875 4.390625 -5.921875 L 2.421875 -5.921875 Z M 2.421875 -1.4375 "/></g></g></g><g fill="#ffffff" fill-opacity="0.4"><g transform="translate(61.663966, 12.479116)"><g/></g></g><g fill="#ffffff" fill-opacity="0.4"><g transform="translate(63.823197, 12.479116)"><g><path d="M 1.296875 -3.703125 C 1.003906 -3.703125 0.765625 -3.785156 0.578125 -3.953125 C 0.390625 -4.128906 0.296875 -4.359375 0.296875 -4.640625 C 0.296875 -4.898438 0.390625 -5.117188 0.578125 -5.296875 C 0.765625 -5.472656 1.003906 -5.5625 1.296875 -5.5625 C 1.597656 -5.5625 1.84375 -5.472656 2.03125 -5.296875 C 2.21875 -5.117188 2.3125 -4.898438 2.3125 -4.640625 C 2.3125 -4.359375 2.21875 -4.128906 2.03125 -3.953125 C 1.84375 -3.785156 1.597656 -3.703125 1.296875 -3.703125 Z M 1.296875 0.109375 C 1.003906 0.109375 0.765625 0.0234375 0.578125 -0.140625 C 0.390625 -0.316406 0.296875 -0.539062 0.296875 -0.8125 C 0.296875 -1.09375 0.390625 -1.316406 0.578125 -1.484375 C 0.765625 -1.660156 1.003906 -1.75 1.296875 -1.75 C 1.597656 -1.75 1.84375 -1.660156 2.03125 -1.484375 C 2.21875 -1.316406 2.3125 -1.09375 2.3125 -0.8125 C 2.3125 -0.539062 2.21875 -0.316406 2.03125 -0.140625 C 1.84375 0.0234375 1.597656 0.109375 1.296875 0.109375 Z M 1.296875 0.109375 "/></g></g></g><g fill="#004aad" fill-opacity="1"><g transform="translate(4.988579, 12.021985)"><g><path d="M 0.546875 0 L 0.546875 -7.359375 L 4.53125 -7.359375 C 5.875 -7.359375 6.90625 -7.039062 7.625 -6.40625 C 8.351562 -5.78125 8.71875 -4.875 8.71875 -3.6875 C 8.71875 -2.5 8.351562 -1.585938 7.625 -0.953125 C 6.90625 -0.316406 5.875 0 4.53125 0 Z M 2.421875 -1.4375 L 4.390625 -1.4375 C 5.171875 -1.4375 5.769531 -1.628906 6.1875 -2.015625 C 6.601562 -2.410156 6.8125 -2.96875 6.8125 -3.6875 C 6.8125 -4.40625 6.601562 -4.957031 6.1875 -5.34375 C 5.769531 -5.726562 5.171875 -5.921875 4.390625 -5.921875 L 2.421875 -5.921875 Z M 2.421875 -1.4375 "/></g></g></g><g fill="#004aad" fill-opacity="1"><g transform="translate(13.698875, 12.021985)"><g><path d="M 0.546875 0 L 0.546875 -7.359375 L 6.90625 -7.359375 L 6.90625 -5.984375 L 2.40625 -5.984375 L 2.40625 -4.390625 L 6.5 -4.390625 L 6.5 -3.15625 L 2.40625 -3.15625 L 2.40625 -1.390625 L 7.015625 -1.390625 L 7.015625 0 Z M 0.546875 0 "/></g></g></g><g fill="#004aad" fill-opacity="1"><g transform="translate(20.600917, 12.021985)"><g><path d="M 3.234375 0 L 0.03125 -7.359375 L 2.03125 -7.359375 L 4.328125 -1.6875 L 4.34375 -1.6875 L 6.625 -7.359375 L 8.640625 -7.359375 L 5.421875 0 Z M 3.234375 0 "/></g></g></g><g fill="#004aad" fill-opacity="1"><g transform="translate(28.918564, 12.021985)"><g><path d="M 0.546875 0 L 0.546875 -7.359375 L 2.46875 -7.359375 L 2.46875 0 Z M 0.546875 0 "/></g></g></g><g fill="#004aad" fill-opacity="1"><g transform="translate(31.594441, 12.021985)"><g><path d="M 4.9375 0.234375 C 4 0.234375 3.1875 0.078125 2.5 -0.234375 C 1.8125 -0.554688 1.28125 -1.007812 0.90625 -1.59375 C 0.53125 -2.175781 0.34375 -2.875 0.34375 -3.6875 C 0.34375 -4.476562 0.519531 -5.164062 0.875 -5.75 C 1.226562 -6.34375 1.726562 -6.800781 2.375 -7.125 C 3.019531 -7.445312 3.789062 -7.609375 4.6875 -7.609375 C 5.363281 -7.609375 5.972656 -7.5 6.515625 -7.28125 C 7.066406 -7.0625 7.523438 -6.753906 7.890625 -6.359375 C 8.265625 -5.960938 8.515625 -5.488281 8.640625 -4.9375 L 6.890625 -4.515625 C 6.773438 -5.003906 6.519531 -5.382812 6.125 -5.65625 C 5.738281 -5.9375 5.269531 -6.078125 4.71875 -6.078125 C 4.21875 -6.078125 3.78125 -5.976562 3.40625 -5.78125 C 3.039062 -5.59375 2.757812 -5.316406 2.5625 -4.953125 C 2.363281 -4.597656 2.265625 -4.175781 2.265625 -3.6875 C 2.265625 -3.195312 2.375 -2.769531 2.59375 -2.40625 C 2.8125 -2.050781 3.125 -1.773438 3.53125 -1.578125 C 3.945312 -1.378906 4.429688 -1.28125 4.984375 -1.28125 C 5.640625 -1.28125 6.195312 -1.445312 6.65625 -1.78125 C 7.113281 -2.113281 7.398438 -2.554688 7.515625 -3.109375 L 9.3125 -2.8125 C 9.195312 -2.1875 8.941406 -1.644531 8.546875 -1.1875 C 8.160156 -0.726562 7.65625 -0.375 7.03125 -0.125 C 6.414062 0.113281 5.71875 0.234375 4.9375 0.234375 Z M 4.9375 0.234375 "/></g></g></g><g fill="#004aad" fill-opacity="1"><g transform="translate(40.759389, 12.021985)"><g><path d="M 0.546875 0 L 0.546875 -7.359375 L 6.90625 -7.359375 L 6.90625 -5.984375 L 2.40625 -5.984375 L 2.40625 -4.390625 L 6.5 -4.390625 L 6.5 -3.15625 L 2.40625 -3.15625 L 2.40625 -1.390625 L 7.015625 -1.390625 L 7.015625 0 Z M 0.546875 0 "/></g></g></g><g fill="#004aad" fill-opacity="1"><g transform="translate(47.661431, 12.021985)"><g/></g></g><g fill="#004aad" fill-opacity="1"><g transform="translate(49.820665, 12.021985)"><g><path d="M 0.546875 0 L 0.546875 -7.359375 L 2.46875 -7.359375 L 2.46875 0 Z M 0.546875 0 "/></g></g></g><g fill="#004aad" fill-opacity="1"><g transform="translate(52.496542, 12.021985)"><g><path d="M 0.546875 0 L 0.546875 -7.359375 L 4.53125 -7.359375 C 5.875 -7.359375 6.90625 -7.039062 7.625 -6.40625 C 8.351562 -5.78125 8.71875 -4.875 8.71875 -3.6875 C 8.71875 -2.5 8.351562 -1.585938 7.625 -0.953125 C 6.90625 -0.316406 5.875 0 4.53125 0 Z M 2.421875 -1.4375 L 4.390625 -1.4375 C 5.171875 -1.4375 5.769531 -1.628906 6.1875 -2.015625 C 6.601562 -2.410156 6.8125 -2.96875 6.8125 -3.6875 C 6.8125 -4.40625 6.601562 -4.957031 6.1875 -5.34375 C 5.769531 -5.726562 5.171875 -5.921875 4.390625 -5.921875 L 2.421875 -5.921875 Z M 2.421875 -1.4375 "/></g></g></g><g fill="#004aad" fill-opacity="1"><g transform="translate(61.206836, 12.021985)"><g/></g></g><g fill="#004aad" fill-opacity="1"><g transform="translate(63.366067, 12.021985)"><g><path d="M 1.296875 -3.703125 C 1.003906 -3.703125 0.765625 -3.785156 0.578125 -3.953125 C 0.390625 -4.128906 0.296875 -4.359375 0.296875 -4.640625 C 0.296875 -4.898438 0.390625 -5.117188 0.578125 -5.296875 C 0.765625 -5.472656 1.003906 -5.5625 1.296875 -5.5625 C 1.597656 -5.5625 1.84375 -5.472656 2.03125 -5.296875 C 2.21875 -5.117188 2.3125 -4.898438 2.3125 -4.640625 C 2.3125 -4.359375 2.21875 -4.128906 2.03125 -3.953125 C 1.84375 -3.785156 1.597656 -3.703125 1.296875 -3.703125 Z M 1.296875 0.109375 C 1.003906 0.109375 0.765625 0.0234375 0.578125 -0.140625 C 0.390625 -0.316406 0.296875 -0.539062 0.296875 -0.8125 C 0.296875 -1.09375 0.390625 -1.316406 0.578125 -1.484375 C 0.765625 -1.660156 1.003906 -1.75 1.296875 -1.75 C 1.597656 -1.75 1.84375 -1.660156 2.03125 -1.484375 C 2.21875 -1.316406 2.3125 -1.09375 2.3125 -0.8125 C 2.3125 -0.539062 2.21875 -0.316406 2.03125 -0.140625 C 1.84375 0.0234375 1.597656 0.109375 1.296875 0.109375 Z M 1.296875 0.109375 "/></g></g></g><g clip-path="url(#21e19c5bd7)"><g clip-path="url(#4a1fe18cd1)"><path stroke-linecap="butt" transform="matrix(0.746394, 0, 0, 0.746394, 71.563919, 1.211204)" fill="none" stroke-linejoin="miter" d="M 5.995684 -0.000356584 L 338.102783 -0.000356584 C 339.693765 -0.000356584 341.216712 0.632896 342.341913 1.758098 C 343.467115 2.883299 344.100368 4.406246 344.100368 5.997228 L 344.100368 17.955763 C 344.100368 19.546746 343.467115 21.069693 342.341913 22.194894 C 341.216712 23.320095 339.693765 23.953348 338.102783 23.953348 L 5.995684 23.953348 C 4.409935 23.953348 2.881754 23.320095 1.756553 22.194894 C 0.631352 21.069693 -0.00190114 19.546746 -0.00190114 17.955763 L -0.00190114 5.997228 C -0.00190114 4.406246 0.631352 2.883299 1.756553 1.758098 C 2.881754 0.632896 4.409935 -0.000356584 5.995684 -0.000356584 Z M 5.995684 -0.000356584 " stroke="#004aad" stroke-width="2" stroke-opacity="1" stroke-miterlimit="4"/></g></g></svg>