<svg xmlns="http://www.w3.org/2000/svg" xmlns:xlink="http://www.w3.org/1999/xlink" width="100%" zoomAndPan="magnify" viewBox="0 0 59.25 188.249994" height="100%" preserveAspectRatio="xMidYMid meet" version="1.0"><defs><clipPath id="c1b715205f"><path d="M 0 0.804688 L 58.300781 0.804688 L 58.300781 50.0625 L 0 50.0625 Z M 0 0.804688 " clip-rule="nonzero"/></clipPath><clipPath id="b1b5575cf1"><path d="M 19.421875 2.550781 C 22.398438 1.496094 25.800781 0.804688 29.132812 0.804688 C 32.464844 0.804688 35.667969 1.398438 38.621094 2.449219 C 38.683594 2.484375 38.75 2.484375 38.8125 2.515625 C 49.902344 6.726562 58.074219 17.839844 58.230469 30.273438 L 58.230469 50.0625 L 0 50.0625 L 0 30.289062 C 0.15625 17.773438 8.203125 6.660156 19.421875 2.550781 Z M 19.421875 2.550781 " clip-rule="nonzero"/></clipPath><clipPath id="1ba7048870"><path d="M 0 136.996094 L 58.230469 136.996094 L 58.230469 186.242188 L 0 186.242188 Z M 0 136.996094 " clip-rule="nonzero"/></clipPath><clipPath id="77eac3e699"><path d="M 38.808594 184.5 C 35.835938 185.554688 32.429688 186.242188 29.101562 186.242188 C 25.769531 186.242188 22.5625 185.652344 19.609375 184.601562 C 19.546875 184.566406 19.484375 184.566406 19.421875 184.535156 C 8.328125 180.324219 0.15625 169.210938 0 156.777344 L 0 136.996094 L 58.230469 136.996094 L 58.230469 156.761719 C 58.074219 169.277344 50.03125 180.390625 38.808594 184.5 Z M 38.808594 184.5 " clip-rule="nonzero"/></clipPath><clipPath id="6ea3371d6c"><path d="M 0 50.0625 L 58.230469 50.0625 L 58.230469 93.707031 L 0 93.707031 Z M 0 50.0625 " clip-rule="nonzero"/></clipPath><clipPath id="2e902eb236"><path d="M 0 93.363281 L 58.230469 93.363281 L 58.230469 137.003906 L 0 137.003906 Z M 0 93.363281 " clip-rule="nonzero"/></clipPath></defs><g clip-path="url(#c1b715205f)"><g clip-path="url(#b1b5575cf1)"><path fill="#f41212" d="M 0 0.804688 L 58.300781 0.804688 L 58.300781 50.0625 L 0 50.0625 Z M 0 0.804688 " fill-opacity="1" fill-rule="nonzero"/></g></g></svg>
