<svg xmlns="http://www.w3.org/2000/svg" xmlns:xlink="http://www.w3.org/1999/xlink" width="100%" zoomAndPan="magnify" viewBox="0 0 16.5 50.999998" height="100%" preserveAspectRatio="xMidYMid meet" version="1.0"><defs><clipPath id="d7515e90bf"><path d="M 0 0.75 L 15.378906 0.75 L 15.378906 25.316406 L 0 25.316406 Z M 0 0.75 " clip-rule="nonzero"/></clipPath><clipPath id="71ed8e7ea1"><path d="M 5.128906 1.210938 C 5.914062 0.933594 6.8125 0.75 7.691406 0.75 C 8.574219 0.75 9.417969 0.90625 10.199219 1.183594 C 10.214844 1.191406 10.230469 1.191406 10.25 1.203125 C 13.179688 2.3125 15.335938 5.25 15.378906 8.789062 L 15.378906 25.28125 L 0 25.28125 L 0 8.800781 C 0.0429688 5.230469 2.164062 2.296875 5.128906 1.210938 Z M 5.128906 1.210938 " clip-rule="nonzero"/></clipPath><clipPath id="e4776eec7b"><path d="M 0 25.144531 L 15.367188 25.144531 L 15.367188 49.773438 L 0 49.773438 Z M 0 25.144531 " clip-rule="nonzero"/></clipPath><clipPath id="83a237083a"><path d="M 10.238281 49.253906 C 9.453125 49.53125 8.554688 49.714844 7.671875 49.714844 C 6.792969 49.714844 5.949219 49.558594 5.167969 49.277344 C 5.152344 49.269531 5.132812 49.269531 5.117188 49.261719 C 2.1875 48.148438 0.03125 45.214844 -0.0117188 41.675781 L -0.0117188 25.183594 L 15.367188 25.183594 L 15.367188 41.664062 C 15.324219 45.234375 13.199219 48.167969 10.238281 49.253906 Z M 10.238281 49.253906 " clip-rule="nonzero"/></clipPath><clipPath id="9f345de1fd"><path d="M 0 13.757812 L 15.378906 13.757812 L 15.378906 25.28125 L 0 25.28125 Z M 0 13.757812 " clip-rule="nonzero"/></clipPath><clipPath id="22c405c5ff"><path d="M 0 25.191406 L 15.378906 25.191406 L 15.378906 36.714844 L 0 36.714844 Z M 0 25.191406 " clip-rule="nonzero"/></clipPath></defs><g clip-path="url(#9f345de1fd)"><path fill="" d="M 0 13.757812 L 15.394531 13.757812 L 15.394531 25.28125 L 0 25.28125 Z M 0 13.757812 " fill-opacity="1" fill-rule="nonzero"/></g></svg>
