<svg xmlns="http://www.w3.org/2000/svg" xmlns:xlink="http://www.w3.org/1999/xlink" width="300" zoomAndPan="magnify" viewBox="0 0 224.87999 135.000003" height="180" preserveAspectRatio="xMidYMid meet" version="1.0"><defs><clipPath id="5e4bea4c56"><path d="M 11 9 L 214 9 L 214 126 L 11 126 Z M 11 9 " clip-rule="nonzero"/></clipPath><clipPath id="3e00bc4d99"><path d="M 183.777344 26.238281 C 144.425781 3.429688 80.453125 3.429688 41.101562 26.238281 C 1.75 49.042969 1.75 85.972656 41.101562 108.578125 C 80.453125 131.382812 144.425781 131.382812 183.777344 108.578125 C 223.132812 85.972656 223.132812 49.042969 183.777344 26.238281 Z M 20.71875 70.234375 C 19.105469 70.234375 17.488281 69.628906 16.683594 68.820312 C 17.488281 68.011719 18.902344 67.40625 20.71875 67.40625 C 22.332031 67.40625 23.949219 68.011719 24.753906 68.820312 C 23.949219 69.628906 22.332031 70.234375 20.71875 70.234375 Z M 33.027344 96.671875 C 31.414062 96.671875 29.800781 96.066406 28.992188 95.257812 C 29.800781 94.449219 31.210938 93.84375 33.027344 93.84375 C 34.644531 93.84375 36.257812 94.449219 37.066406 95.257812 C 36.257812 96.265625 34.644531 96.671875 33.027344 96.671875 Z M 33.027344 43.792969 C 31.414062 43.792969 29.800781 43.1875 28.992188 42.382812 C 29.800781 41.574219 31.210938 40.96875 33.027344 40.96875 C 34.644531 40.96875 36.257812 41.574219 37.066406 42.382812 C 36.257812 43.1875 34.644531 43.792969 33.027344 43.792969 Z M 66.527344 116.046875 C 64.914062 116.046875 63.300781 115.441406 62.492188 114.632812 C 63.300781 113.824219 64.710938 113.21875 66.527344 113.21875 C 68.144531 113.21875 69.757812 113.824219 70.566406 114.632812 C 69.757812 115.441406 68.144531 116.046875 66.527344 116.046875 Z M 112.339844 123.109375 C 110.726562 123.109375 109.109375 122.503906 108.304688 121.695312 C 109.109375 120.890625 110.523438 120.285156 112.339844 120.285156 C 113.953125 120.285156 115.566406 120.890625 116.375 121.695312 C 115.566406 122.503906 113.953125 123.109375 112.339844 123.109375 Z M 158.148438 116.046875 C 156.535156 116.046875 154.921875 115.441406 154.113281 114.632812 C 154.921875 113.824219 156.332031 113.21875 158.148438 113.21875 C 159.765625 113.21875 161.378906 113.824219 162.1875 114.632812 C 161.378906 115.441406 159.765625 116.046875 158.148438 116.046875 Z M 163.597656 100.304688 C 135.34375 116.652344 89.332031 116.652344 61.078125 100.304688 C 32.828125 83.957031 32.828125 57.519531 61.078125 41.171875 C 89.332031 24.824219 135.34375 24.824219 163.597656 41.171875 C 191.851562 57.519531 191.851562 83.957031 163.597656 100.304688 Z M 191.648438 96.671875 C 190.035156 96.671875 188.421875 96.066406 187.613281 95.257812 C 188.421875 94.449219 189.832031 93.84375 191.648438 93.84375 C 193.265625 93.84375 194.878906 94.449219 195.6875 95.257812 C 194.878906 96.066406 193.464844 96.671875 191.648438 96.671875 Z M 191.648438 43.792969 C 190.035156 43.792969 188.421875 43.1875 187.613281 42.382812 C 188.421875 41.574219 189.832031 40.96875 191.648438 40.96875 C 193.265625 40.96875 194.878906 41.574219 195.6875 42.382812 C 194.878906 43.1875 193.464844 43.792969 191.648438 43.792969 Z M 199.921875 68.820312 C 200.730469 68.011719 202.144531 67.40625 203.960938 67.40625 C 205.574219 67.40625 207.1875 68.011719 207.996094 68.820312 C 207.1875 69.628906 205.777344 70.234375 203.960938 70.234375 C 202.34375 70.234375 200.730469 69.628906 199.921875 68.820312 Z M 199.921875 68.820312 " clip-rule="nonzero"/></clipPath><linearGradient x1="-8.663186" gradientTransform="matrix(2.018078, 0, 0, 2.018183, 11.4352, -4658.127357)" y1="2362.229891" x2="108.785698" gradientUnits="userSpaceOnUse" y2="2320.793825" id="e635484bfd"><stop stop-opacity="1" stop-color="rgb(33.299255%, 37.298584%, 38.398743%)" offset="0"/><stop stop-opacity="1" stop-color="rgb(33.306885%, 37.307739%, 38.407898%)" offset="0.0625"/><stop stop-opacity="1" stop-color="rgb(33.444214%, 37.464905%, 38.575745%)" offset="0.09375"/><stop stop-opacity="1" stop-color="rgb(33.702087%, 37.762451%, 38.88855%)" offset="0.125"/><stop stop-opacity="1" stop-color="rgb(33.961487%, 38.058472%, 39.202881%)" offset="0.15625"/><stop stop-opacity="1" stop-color="rgb(34.21936%, 38.354492%, 39.515686%)" offset="0.169365"/><stop stop-opacity="1" stop-color="rgb(34.34906%, 38.504028%, 39.672852%)" offset="0.1875"/><stop stop-opacity="1" stop-color="rgb(34.47876%, 38.652039%, 39.830017%)" offset="0.21875"/><stop stop-opacity="1" stop-color="rgb(34.736633%, 38.948059%, 40.144348%)" offset="0.25"/><stop stop-opacity="1" stop-color="rgb(34.996033%, 39.24408%, 40.457153%)" offset="0.28125"/><stop stop-opacity="1" stop-color="rgb(35.253906%, 39.5401%, 40.771484%)" offset="0.3125"/><stop stop-opacity="1" stop-color="rgb(35.51178%, 39.837646%, 41.08429%)" offset="0.34375"/><stop stop-opacity="1" stop-color="rgb(35.771179%, 40.133667%, 41.398621%)" offset="0.375"/><stop stop-opacity="1" stop-color="rgb(36.029053%, 40.429688%, 41.711426%)" offset="0.40625"/><stop stop-opacity="1" stop-color="rgb(36.288452%, 40.727234%, 42.025757%)" offset="0.4375"/><stop stop-opacity="1" stop-color="rgb(36.546326%, 41.023254%, 42.340088%)" offset="0.46875"/><stop stop-opacity="1" stop-color="rgb(36.805725%, 41.319275%, 42.652893%)" offset="0.5"/><stop stop-opacity="1" stop-color="rgb(37.063599%, 41.616821%, 42.967224%)" offset="0.53125"/><stop stop-opacity="1" stop-color="rgb(37.322998%, 41.912842%, 43.280029%)" offset="0.5625"/><stop stop-opacity="1" stop-color="rgb(37.580872%, 42.208862%, 43.59436%)" offset="0.59375"/><stop stop-opacity="1" stop-color="rgb(37.838745%, 42.504883%, 43.908691%)" offset="0.625"/><stop stop-opacity="1" stop-color="rgb(38.098145%, 42.802429%, 44.221497%)" offset="0.65625"/><stop stop-opacity="1" stop-color="rgb(38.356018%, 43.09845%, 44.535828%)" offset="0.6875"/><stop stop-opacity="1" stop-color="rgb(38.615417%, 43.39447%, 44.848633%)" offset="0.71875"/><stop stop-opacity="1" stop-color="rgb(38.873291%, 43.692017%, 45.162964%)" offset="0.75"/><stop stop-opacity="1" stop-color="rgb(39.13269%, 43.988037%, 45.477295%)" offset="0.78125"/><stop stop-opacity="1" stop-color="rgb(39.390564%, 44.284058%, 45.7901%)" offset="0.8125"/><stop stop-opacity="1" stop-color="rgb(39.648438%, 44.580078%, 46.104431%)" offset="0.830635"/><stop stop-opacity="1" stop-color="rgb(39.778137%, 44.729614%, 46.261597%)" offset="0.84375"/><stop stop-opacity="1" stop-color="rgb(39.907837%, 44.877625%, 46.417236%)" offset="0.875"/><stop stop-opacity="1" stop-color="rgb(40.16571%, 45.173645%, 46.731567%)" offset="0.90625"/><stop stop-opacity="1" stop-color="rgb(40.42511%, 45.469666%, 47.045898%)" offset="0.9375"/><stop stop-opacity="1" stop-color="rgb(40.67688%, 45.759583%, 47.351074%)" offset="1"/></linearGradient><clipPath id="dbd52e2e7f"><path d="M 29 51 L 196 51 L 196 116 L 29 116 Z M 29 51 " clip-rule="nonzero"/></clipPath><clipPath id="79cdf6d44d"><path d="M 177.523438 80.929688 L 183.980469 84.765625 L 170.054688 92.835938 L 163.597656 89 C 133.527344 102.726562 91.148438 102.726562 61.078125 89 L 54.621094 92.835938 L 40.699219 84.765625 L 47.15625 80.929688 C 35.449219 72.453125 29.597656 62.160156 29.394531 51.867188 L 29.394531 67.40625 C 29.394531 77.902344 35.25 88.394531 47.15625 97.074219 L 40.699219 100.910156 L 54.621094 108.980469 L 61.078125 105.148438 C 91.148438 118.871094 133.527344 118.871094 163.597656 105.148438 L 170.054688 108.980469 L 183.980469 100.910156 L 177.523438 97.074219 C 189.027344 88.597656 194.878906 78.507812 195.28125 68.214844 L 195.28125 52.070312 C 195.082031 62.363281 189.226562 72.453125 177.523438 80.929688 Z M 177.523438 80.929688 " clip-rule="nonzero"/></clipPath><linearGradient x1="8.899999" gradientTransform="matrix(2.018078, 0, 0, 2.018183, 11.4352, -4658.127357)" y1="2349.55" x2="91.1" gradientUnits="userSpaceOnUse" y2="2349.55" id="66c9cbe5fa"><stop stop-opacity="1" stop-color="rgb(18.002319%, 22.001648%, 23.101807%)" offset="0"/><stop stop-opacity="1" stop-color="rgb(18.118286%, 22.135925%, 23.243713%)" offset="0.03125"/><stop stop-opacity="1" stop-color="rgb(18.353271%, 22.40448%, 23.529053%)" offset="0.0625"/><stop stop-opacity="1" stop-color="rgb(18.586731%, 22.673035%, 23.812866%)" offset="0.09375"/><stop stop-opacity="1" stop-color="rgb(18.821716%, 22.943115%, 24.09668%)" offset="0.125"/><stop stop-opacity="1" stop-color="rgb(19.055176%, 23.21167%, 24.380493%)" offset="0.15625"/><stop stop-opacity="1" stop-color="rgb(19.290161%, 23.480225%, 24.665833%)" offset="0.1875"/><stop stop-opacity="1" stop-color="rgb(19.523621%, 23.748779%, 24.949646%)" offset="0.21875"/><stop stop-opacity="1" stop-color="rgb(19.758606%, 24.017334%, 25.233459%)" offset="0.25"/><stop stop-opacity="1" stop-color="rgb(19.992065%, 24.285889%, 25.517273%)" offset="0.28125"/><stop stop-opacity="1" stop-color="rgb(20.227051%, 24.554443%, 25.802612%)" offset="0.3125"/><stop stop-opacity="1" stop-color="rgb(20.46051%, 24.822998%, 26.086426%)" offset="0.34375"/><stop stop-opacity="1" stop-color="rgb(20.695496%, 25.091553%, 26.370239%)" offset="0.375"/><stop stop-opacity="1" stop-color="rgb(20.928955%, 25.360107%, 26.654053%)" offset="0.40625"/><stop stop-opacity="1" stop-color="rgb(21.16394%, 25.628662%, 26.939392%)" offset="0.4375"/><stop stop-opacity="1" stop-color="rgb(21.3974%, 25.897217%, 27.223206%)" offset="0.46875"/><stop stop-opacity="1" stop-color="rgb(21.632385%, 26.165771%, 27.507019%)" offset="0.5"/><stop stop-opacity="1" stop-color="rgb(21.865845%, 26.434326%, 27.790833%)" offset="0.53125"/><stop stop-opacity="1" stop-color="rgb(22.10083%, 26.702881%, 28.076172%)" offset="0.5625"/><stop stop-opacity="1" stop-color="rgb(22.33429%, 26.971436%, 28.359985%)" offset="0.59375"/><stop stop-opacity="1" stop-color="rgb(22.569275%, 27.23999%, 28.643799%)" offset="0.625"/><stop stop-opacity="1" stop-color="rgb(22.802734%, 27.508545%, 28.927612%)" offset="0.65625"/><stop stop-opacity="1" stop-color="rgb(23.03772%, 27.7771%, 29.212952%)" offset="0.6875"/><stop stop-opacity="1" stop-color="rgb(23.271179%, 28.045654%, 29.496765%)" offset="0.71875"/><stop stop-opacity="1" stop-color="rgb(23.506165%, 28.314209%, 29.780579%)" offset="0.75"/><stop stop-opacity="1" stop-color="rgb(23.739624%, 28.582764%, 30.064392%)" offset="0.78125"/><stop stop-opacity="1" stop-color="rgb(23.974609%, 28.851318%, 30.349731%)" offset="0.8125"/><stop stop-opacity="1" stop-color="rgb(24.208069%, 29.119873%, 30.633545%)" offset="0.84375"/><stop stop-opacity="1" stop-color="rgb(24.443054%, 29.388428%, 30.917358%)" offset="0.875"/><stop stop-opacity="1" stop-color="rgb(24.676514%, 29.656982%, 31.201172%)" offset="0.90625"/><stop stop-opacity="1" stop-color="rgb(24.911499%, 29.925537%, 31.486511%)" offset="0.9375"/><stop stop-opacity="1" stop-color="rgb(25.144958%, 30.194092%, 31.770325%)" offset="0.96875"/><stop stop-opacity="1" stop-color="rgb(25.379944%, 30.462646%, 32.054138%)" offset="1"/></linearGradient><clipPath id="2d6e002b78"><path d="M 29 3 L 196 3 L 196 100 L 29 100 Z M 29 3 " clip-rule="nonzero"/></clipPath><clipPath id="a69a7cebfb"><path d="M 177.523438 21.796875 L 183.980469 17.960938 L 170.054688 9.890625 L 163.597656 13.722656 C 133.527344 0 91.148438 0 61.078125 13.722656 L 54.621094 9.890625 L 40.699219 17.960938 L 47.15625 21.796875 C 23.542969 39.152344 23.542969 63.773438 47.15625 80.929688 L 40.699219 84.765625 L 54.621094 92.835938 L 61.078125 89 C 91.148438 102.726562 133.527344 102.726562 163.597656 89 L 170.054688 92.835938 L 183.980469 84.765625 L 177.523438 80.929688 C 201.335938 63.574219 201.335938 39.152344 177.523438 21.796875 Z M 173.285156 80.726562 L 179.542969 84.359375 L 169.449219 90.210938 L 163.195312 86.578125 C 133.730469 100.910156 90.746094 100.910156 61.28125 86.578125 L 55.027344 90.210938 L 44.933594 84.359375 L 51.191406 80.726562 C 26.570312 63.773438 26.570312 38.949219 51.191406 21.796875 L 44.933594 18.164062 L 55.027344 12.3125 L 61.28125 15.945312 C 90.746094 1.613281 133.730469 1.613281 163.195312 15.945312 L 169.449219 12.3125 L 179.542969 18.164062 L 173.285156 21.796875 C 197.90625 38.949219 197.90625 63.773438 173.285156 80.726562 Z M 173.285156 80.726562 " clip-rule="nonzero"/></clipPath><linearGradient x1="4.37207" gradientTransform="matrix(2.018078, 0, 0, 2.018183, 11.4352, -4658.127357)" y1="2355.617447" x2="95.706656" gradientUnits="userSpaceOnUse" y2="2311.398535" id="6be515b36d"><stop stop-opacity="1" stop-color="rgb(33.299255%, 37.298584%, 38.398743%)" offset="0"/><stop stop-opacity="1" stop-color="rgb(33.299255%, 37.298584%, 38.398743%)" offset="0.125"/><stop stop-opacity="1" stop-color="rgb(33.415222%, 37.432861%, 38.540649%)" offset="0.15625"/><stop stop-opacity="1" stop-color="rgb(33.659363%, 37.712097%, 38.83667%)" offset="0.1875"/><stop stop-opacity="1" stop-color="rgb(33.914185%, 38.005066%, 39.144897%)" offset="0.218576"/><stop stop-opacity="1" stop-color="rgb(34.042358%, 38.15155%, 39.300537%)" offset="0.21875"/><stop stop-opacity="1" stop-color="rgb(34.169006%, 38.296509%, 39.454651%)" offset="0.25"/><stop stop-opacity="1" stop-color="rgb(34.423828%, 38.589478%, 39.764404%)" offset="0.28125"/><stop stop-opacity="1" stop-color="rgb(34.67865%, 38.88092%, 40.072632%)" offset="0.3125"/><stop stop-opacity="1" stop-color="rgb(34.933472%, 39.173889%, 40.382385%)" offset="0.34375"/><stop stop-opacity="1" stop-color="rgb(35.188293%, 39.465332%, 40.690613%)" offset="0.375"/><stop stop-opacity="1" stop-color="rgb(35.443115%, 39.758301%, 41.000366%)" offset="0.40625"/><stop stop-opacity="1" stop-color="rgb(35.697937%, 40.049744%, 41.31012%)" offset="0.4375"/><stop stop-opacity="1" stop-color="rgb(35.952759%, 40.342712%, 41.618347%)" offset="0.46875"/><stop stop-opacity="1" stop-color="rgb(36.207581%, 40.634155%, 41.928101%)" offset="0.5"/><stop stop-opacity="1" stop-color="rgb(36.462402%, 40.927124%, 42.237854%)" offset="0.53125"/><stop stop-opacity="1" stop-color="rgb(36.717224%, 41.218567%, 42.546082%)" offset="0.5625"/><stop stop-opacity="1" stop-color="rgb(36.972046%, 41.511536%, 42.855835%)" offset="0.59375"/><stop stop-opacity="1" stop-color="rgb(37.226868%, 41.802979%, 43.165588%)" offset="0.625"/><stop stop-opacity="1" stop-color="rgb(37.481689%, 42.095947%, 43.473816%)" offset="0.65625"/><stop stop-opacity="1" stop-color="rgb(37.736511%, 42.38739%, 43.783569%)" offset="0.6875"/><stop stop-opacity="1" stop-color="rgb(37.991333%, 42.680359%, 44.091797%)" offset="0.71875"/><stop stop-opacity="1" stop-color="rgb(38.246155%, 42.971802%, 44.40155%)" offset="0.75"/><stop stop-opacity="1" stop-color="rgb(38.500977%, 43.264771%, 44.711304%)" offset="0.78125"/><stop stop-opacity="1" stop-color="rgb(38.755798%, 43.556213%, 45.019531%)" offset="0.781424"/><stop stop-opacity="1" stop-color="rgb(38.883972%, 43.702698%, 45.175171%)" offset="0.8125"/><stop stop-opacity="1" stop-color="rgb(39.01062%, 43.849182%, 45.329285%)" offset="0.84375"/><stop stop-opacity="1" stop-color="rgb(39.265442%, 44.140625%, 45.639038%)" offset="0.875"/><stop stop-opacity="1" stop-color="rgb(39.520264%, 44.433594%, 45.947266%)" offset="0.90625"/><stop stop-opacity="1" stop-color="rgb(39.775085%, 44.725037%, 46.257019%)" offset="0.9375"/><stop stop-opacity="1" stop-color="rgb(40.029907%, 45.018005%, 46.566772%)" offset="0.96875"/><stop stop-opacity="1" stop-color="rgb(40.284729%, 45.309448%, 46.875%)" offset="1"/></linearGradient><clipPath id="85766ad43b"><path d="M 39 17 L 185 17 L 185 66 L 39 66 Z M 39 17 " clip-rule="nonzero"/></clipPath><clipPath id="5226166e95"><path d="M 61.078125 41.171875 C 89.332031 24.824219 135.34375 24.824219 163.597656 41.171875 C 175.304688 47.832031 182.164062 56.308594 184.183594 65.1875 C 187.210938 52.675781 180.347656 39.554688 163.597656 29.867188 C 135.34375 13.523438 89.332031 13.523438 61.078125 29.867188 C 44.328125 39.554688 37.46875 52.675781 40.496094 65.1875 C 42.511719 56.308594 49.375 47.832031 61.078125 41.171875 Z M 61.078125 41.171875 " clip-rule="nonzero"/></clipPath><linearGradient x1="12.900002" gradientTransform="matrix(2.018078, 0, 0, 2.018183, 11.4352, -4658.127357)" y1="2328.554" x2="87.099992" gradientUnits="userSpaceOnUse" y2="2328.554" id="890abd2824"><stop stop-opacity="1" stop-color="rgb(17.999268%, 21.998596%, 23.098755%)" offset="0"/><stop stop-opacity="1" stop-color="rgb(18.058777%, 22.068787%, 23.171997%)" offset="0.03125"/><stop stop-opacity="1" stop-color="rgb(18.240356%, 22.276306%, 23.39325%)" offset="0.0625"/><stop stop-opacity="1" stop-color="rgb(18.482971%, 22.554016%, 23.686218%)" offset="0.09375"/><stop stop-opacity="1" stop-color="rgb(18.725586%, 22.831726%, 23.979187%)" offset="0.125"/><stop stop-opacity="1" stop-color="rgb(18.966675%, 23.109436%, 24.273682%)" offset="0.15625"/><stop stop-opacity="1" stop-color="rgb(19.20929%, 23.38562%, 24.56665%)" offset="0.1875"/><stop stop-opacity="1" stop-color="rgb(19.450378%, 23.66333%, 24.861145%)" offset="0.21875"/><stop stop-opacity="1" stop-color="rgb(19.692993%, 23.94104%, 25.154114%)" offset="0.25"/><stop stop-opacity="1" stop-color="rgb(19.934082%, 24.21875%, 25.447083%)" offset="0.28125"/><stop stop-opacity="1" stop-color="rgb(20.176697%, 24.49646%, 25.741577%)" offset="0.3125"/><stop stop-opacity="1" stop-color="rgb(20.417786%, 24.772644%, 26.034546%)" offset="0.34375"/><stop stop-opacity="1" stop-color="rgb(20.6604%, 25.050354%, 26.327515%)" offset="0.375"/><stop stop-opacity="1" stop-color="rgb(20.901489%, 25.328064%, 26.622009%)" offset="0.40625"/><stop stop-opacity="1" stop-color="rgb(21.144104%, 25.605774%, 26.914978%)" offset="0.4375"/><stop stop-opacity="1" stop-color="rgb(21.385193%, 25.883484%, 27.207947%)" offset="0.46875"/><stop stop-opacity="1" stop-color="rgb(21.627808%, 26.159668%, 27.502441%)" offset="0.5"/><stop stop-opacity="1" stop-color="rgb(21.870422%, 26.437378%, 27.79541%)" offset="0.53125"/><stop stop-opacity="1" stop-color="rgb(22.111511%, 26.715088%, 28.089905%)" offset="0.5625"/><stop stop-opacity="1" stop-color="rgb(22.354126%, 26.992798%, 28.382874%)" offset="0.59375"/><stop stop-opacity="1" stop-color="rgb(22.595215%, 27.270508%, 28.675842%)" offset="0.625"/><stop stop-opacity="1" stop-color="rgb(22.83783%, 27.546692%, 28.970337%)" offset="0.65625"/><stop stop-opacity="1" stop-color="rgb(23.078918%, 27.824402%, 29.263306%)" offset="0.6875"/><stop stop-opacity="1" stop-color="rgb(23.321533%, 28.102112%, 29.556274%)" offset="0.71875"/><stop stop-opacity="1" stop-color="rgb(23.562622%, 28.379822%, 29.850769%)" offset="0.75"/><stop stop-opacity="1" stop-color="rgb(23.805237%, 28.657532%, 30.143738%)" offset="0.78125"/><stop stop-opacity="1" stop-color="rgb(24.046326%, 28.933716%, 30.438232%)" offset="0.8125"/><stop stop-opacity="1" stop-color="rgb(24.28894%, 29.211426%, 30.731201%)" offset="0.84375"/><stop stop-opacity="1" stop-color="rgb(24.531555%, 29.489136%, 31.02417%)" offset="0.875"/><stop stop-opacity="1" stop-color="rgb(24.772644%, 29.766846%, 31.318665%)" offset="0.90625"/><stop stop-opacity="1" stop-color="rgb(25.015259%, 30.044556%, 31.611633%)" offset="0.9375"/><stop stop-opacity="1" stop-color="rgb(25.256348%, 30.32074%, 31.904602%)" offset="0.96875"/><stop stop-opacity="1" stop-color="rgb(25.437927%, 30.529785%, 32.125854%)" offset="1"/></linearGradient><clipPath id="84c2349b90"><path d="M 165 81 L 180 81 L 180 91 L 165 91 Z M 165 81 " clip-rule="nonzero"/></clipPath><clipPath id="4b762cef04"><path d="M 174.292969 81.332031 C 171.871094 83.554688 169.046875 85.773438 165.617188 87.992188 L 169.652344 90.414062 L 177.726562 85.773438 C 178.332031 85.367188 178.734375 84.765625 179.339844 84.359375 Z M 174.292969 81.332031 " clip-rule="nonzero"/></clipPath><linearGradient x1="76.093546" gradientTransform="matrix(2.018078, 0, 0, 2.018183, 11.4352, -4658.127357)" y1="2352.253188" x2="83.357318" gradientUnits="userSpaceOnUse" y2="2348.701732" id="a54eeffe01"><stop stop-opacity="1" stop-color="rgb(37.989807%, 42.677307%, 44.090271%)" offset="0"/><stop stop-opacity="1" stop-color="rgb(38.084412%, 42.785645%, 44.204712%)" offset="0.244459"/><stop stop-opacity="1" stop-color="rgb(38.179016%, 42.893982%, 44.319153%)" offset="0.25"/><stop stop-opacity="1" stop-color="rgb(38.273621%, 43.002319%, 44.433594%)" offset="0.5"/><stop stop-opacity="1" stop-color="rgb(38.46283%, 43.22052%, 44.664001%)" offset="0.75"/><stop stop-opacity="1" stop-color="rgb(38.652039%, 43.437195%, 44.894409%)" offset="0.755541"/><stop stop-opacity="1" stop-color="rgb(38.748169%, 43.547058%, 45.010376%)" offset="1"/></linearGradient><clipPath id="10bd24c46c"><path d="M 45 81 L 60 81 L 60 91 L 45 91 Z M 45 81 " clip-rule="nonzero"/></clipPath><clipPath id="6789b9a31f"><path d="M 59.0625 87.789062 C 55.832031 85.773438 52.804688 83.554688 50.382812 81.132812 L 45.339844 84.160156 C 45.945312 84.5625 46.347656 85.167969 46.953125 85.570312 L 55.027344 90.210938 Z M 59.0625 87.789062 " clip-rule="nonzero"/></clipPath><linearGradient x1="16.638437" gradientTransform="matrix(2.018078, 0, 0, 2.018183, 11.4352, -4658.127357)" y1="2352.449507" x2="23.902237" gradientUnits="userSpaceOnUse" y2="2348.898139" id="dabf55245f"><stop stop-opacity="1" stop-color="rgb(33.299255%, 37.298584%, 38.398743%)" offset="0"/><stop stop-opacity="1" stop-color="rgb(33.325195%, 37.327576%, 38.42926%)" offset="0.244454"/><stop stop-opacity="1" stop-color="rgb(33.351135%, 37.358093%, 38.461304%)" offset="0.5"/><stop stop-opacity="1" stop-color="rgb(33.44574%, 37.466431%, 38.575745%)" offset="0.75"/><stop stop-opacity="1" stop-color="rgb(33.634949%, 37.684631%, 38.806152%)" offset="0.755546"/><stop stop-opacity="1" stop-color="rgb(33.729553%, 37.792969%, 38.922119%)" offset="1"/></linearGradient><clipPath id="052fda65ef"><path d="M 33 13 L 192 13 L 192 78 L 33 78 Z M 33 13 " clip-rule="nonzero"/></clipPath><clipPath id="96c7f8fa54"><path d="M 191.449219 55.296875 C 190.035156 46.214844 183.980469 37.335938 173.285156 29.867188 L 179.136719 26.4375 C 178.53125 26.035156 178.128906 25.429688 177.523438 25.027344 L 169.449219 20.382812 L 163.195312 24.015625 C 133.730469 9.6875 90.746094 9.6875 61.28125 24.015625 L 55.027344 20.382812 L 46.953125 25.027344 C 46.347656 25.429688 45.945312 26.035156 45.339844 26.4375 L 51.191406 29.867188 C 40.496094 37.335938 34.441406 46.214844 33.027344 55.296875 C 34.238281 62.96875 38.679688 70.433594 46.347656 77.09375 C 33.835938 61.554688 38.679688 42.582031 60.878906 29.867188 C 89.132812 13.523438 135.144531 13.523438 163.394531 29.867188 C 185.59375 42.582031 190.4375 61.757812 177.925781 77.09375 C 185.796875 70.636719 190.4375 62.96875 191.449219 55.296875 Z M 191.449219 55.296875 " clip-rule="nonzero"/></clipPath><linearGradient x1="13.165367" gradientTransform="matrix(2.018078, 0, 0, 2.018183, 11.4352, -4658.127357)" y1="2351.322437" x2="89.700189" gradientUnits="userSpaceOnUse" y2="2313.903021" id="1f1eeff1e7"><stop stop-opacity="1" stop-color="rgb(33.299255%, 37.298584%, 38.398743%)" offset="0"/><stop stop-opacity="1" stop-color="rgb(33.299255%, 37.298584%, 38.398743%)" offset="0.0625"/><stop stop-opacity="1" stop-color="rgb(33.38623%, 37.399292%, 38.505554%)" offset="0.09375"/><stop stop-opacity="1" stop-color="rgb(33.599854%, 37.643433%, 38.763428%)" offset="0.125"/><stop stop-opacity="1" stop-color="rgb(33.848572%, 37.930298%, 39.065552%)" offset="0.15625"/><stop stop-opacity="1" stop-color="rgb(34.098816%, 38.215637%, 39.369202%)" offset="0.172202"/><stop stop-opacity="1" stop-color="rgb(34.223938%, 38.35907%, 39.520264%)" offset="0.1875"/><stop stop-opacity="1" stop-color="rgb(34.347534%, 38.502502%, 39.671326%)" offset="0.21875"/><stop stop-opacity="1" stop-color="rgb(34.597778%, 38.787842%, 39.974976%)" offset="0.25"/><stop stop-opacity="1" stop-color="rgb(34.848022%, 39.074707%, 40.278625%)" offset="0.28125"/><stop stop-opacity="1" stop-color="rgb(35.096741%, 39.361572%, 40.58075%)" offset="0.3125"/><stop stop-opacity="1" stop-color="rgb(35.346985%, 39.646912%, 40.884399%)" offset="0.34375"/><stop stop-opacity="1" stop-color="rgb(35.597229%, 39.933777%, 41.186523%)" offset="0.375"/><stop stop-opacity="1" stop-color="rgb(35.845947%, 40.220642%, 41.490173%)" offset="0.40625"/><stop stop-opacity="1" stop-color="rgb(36.096191%, 40.505981%, 41.792297%)" offset="0.4375"/><stop stop-opacity="1" stop-color="rgb(36.346436%, 40.792847%, 42.095947%)" offset="0.46875"/><stop stop-opacity="1" stop-color="rgb(36.595154%, 41.078186%, 42.398071%)" offset="0.5"/><stop stop-opacity="1" stop-color="rgb(36.845398%, 41.365051%, 42.701721%)" offset="0.53125"/><stop stop-opacity="1" stop-color="rgb(37.094116%, 41.651917%, 43.003845%)" offset="0.5625"/><stop stop-opacity="1" stop-color="rgb(37.34436%, 41.937256%, 43.307495%)" offset="0.59375"/><stop stop-opacity="1" stop-color="rgb(37.594604%, 42.224121%, 43.609619%)" offset="0.625"/><stop stop-opacity="1" stop-color="rgb(37.843323%, 42.510986%, 43.913269%)" offset="0.65625"/><stop stop-opacity="1" stop-color="rgb(38.093567%, 42.796326%, 44.216919%)" offset="0.6875"/><stop stop-opacity="1" stop-color="rgb(38.343811%, 43.083191%, 44.519043%)" offset="0.71875"/><stop stop-opacity="1" stop-color="rgb(38.592529%, 43.370056%, 44.822693%)" offset="0.75"/><stop stop-opacity="1" stop-color="rgb(38.842773%, 43.655396%, 45.124817%)" offset="0.78125"/><stop stop-opacity="1" stop-color="rgb(39.093018%, 43.942261%, 45.428467%)" offset="0.8125"/><stop stop-opacity="1" stop-color="rgb(39.341736%, 44.2276%, 45.730591%)" offset="0.827798"/><stop stop-opacity="1" stop-color="rgb(39.466858%, 44.371033%, 45.883179%)" offset="0.84375"/><stop stop-opacity="1" stop-color="rgb(39.59198%, 44.514465%, 46.034241%)" offset="0.875"/><stop stop-opacity="1" stop-color="rgb(39.840698%, 44.801331%, 46.336365%)" offset="0.90625"/><stop stop-opacity="1" stop-color="rgb(40.090942%, 45.08667%, 46.640015%)" offset="0.9375"/><stop stop-opacity="1" stop-color="rgb(40.341187%, 45.373535%, 46.942139%)" offset="0.96875"/><stop stop-opacity="1" stop-color="rgb(40.589905%, 45.6604%, 47.245789%)" offset="1"/></linearGradient><clipPath id="dcabeb1ba1"><path d="M 173 21 L 192 21 L 192 56 L 173 56 Z M 173 21 " clip-rule="nonzero"/></clipPath><clipPath id="7dc6c9e805"><path d="M 191.449219 55.296875 C 193.265625 43.59375 187.210938 31.484375 173.285156 21.796875 L 173.285156 29.867188 C 183.980469 37.335938 190.035156 46.214844 191.449219 55.296875 Z M 191.449219 55.296875 " clip-rule="nonzero"/></clipPath><linearGradient x1="80.199992" gradientTransform="matrix(2.018078, 0, 0, 2.018183, 11.4352, -4658.127357)" y1="2327.2371" x2="90.099992" gradientUnits="userSpaceOnUse" y2="2327.2371" id="e99d76aa72"><stop stop-opacity="1" stop-color="rgb(17.999268%, 21.998596%, 23.098755%)" offset="0"/><stop stop-opacity="1" stop-color="rgb(18.115234%, 22.132874%, 23.240662%)" offset="0.03125"/><stop stop-opacity="1" stop-color="rgb(18.359375%, 22.412109%, 23.536682%)" offset="0.0625"/><stop stop-opacity="1" stop-color="rgb(18.612671%, 22.702026%, 23.843384%)" offset="0.09375"/><stop stop-opacity="1" stop-color="rgb(18.865967%, 22.993469%, 24.150085%)" offset="0.125"/><stop stop-opacity="1" stop-color="rgb(19.119263%, 23.283386%, 24.458313%)" offset="0.15625"/><stop stop-opacity="1" stop-color="rgb(19.372559%, 23.574829%, 24.765015%)" offset="0.1875"/><stop stop-opacity="1" stop-color="rgb(19.625854%, 23.864746%, 25.073242%)" offset="0.21875"/><stop stop-opacity="1" stop-color="rgb(19.87915%, 24.154663%, 25.379944%)" offset="0.25"/><stop stop-opacity="1" stop-color="rgb(20.132446%, 24.446106%, 25.688171%)" offset="0.28125"/><stop stop-opacity="1" stop-color="rgb(20.385742%, 24.736023%, 25.994873%)" offset="0.3125"/><stop stop-opacity="1" stop-color="rgb(20.639038%, 25.02594%, 26.303101%)" offset="0.34375"/><stop stop-opacity="1" stop-color="rgb(20.892334%, 25.317383%, 26.609802%)" offset="0.375"/><stop stop-opacity="1" stop-color="rgb(21.14563%, 25.6073%, 26.916504%)" offset="0.40625"/><stop stop-opacity="1" stop-color="rgb(21.398926%, 25.898743%, 27.224731%)" offset="0.4375"/><stop stop-opacity="1" stop-color="rgb(21.652222%, 26.18866%, 27.531433%)" offset="0.46875"/><stop stop-opacity="1" stop-color="rgb(21.905518%, 26.478577%, 27.839661%)" offset="0.5"/><stop stop-opacity="1" stop-color="rgb(22.160339%, 26.77002%, 28.146362%)" offset="0.53125"/><stop stop-opacity="1" stop-color="rgb(22.413635%, 27.059937%, 28.45459%)" offset="0.5625"/><stop stop-opacity="1" stop-color="rgb(22.666931%, 27.349854%, 28.761292%)" offset="0.59375"/><stop stop-opacity="1" stop-color="rgb(22.920227%, 27.641296%, 29.069519%)" offset="0.625"/><stop stop-opacity="1" stop-color="rgb(23.173523%, 27.931213%, 29.376221%)" offset="0.65625"/><stop stop-opacity="1" stop-color="rgb(23.426819%, 28.222656%, 29.682922%)" offset="0.6875"/><stop stop-opacity="1" stop-color="rgb(23.680115%, 28.512573%, 29.99115%)" offset="0.71875"/><stop stop-opacity="1" stop-color="rgb(23.933411%, 28.80249%, 30.297852%)" offset="0.75"/><stop stop-opacity="1" stop-color="rgb(24.186707%, 29.093933%, 30.606079%)" offset="0.78125"/><stop stop-opacity="1" stop-color="rgb(24.440002%, 29.38385%, 30.912781%)" offset="0.8125"/><stop stop-opacity="1" stop-color="rgb(24.693298%, 29.673767%, 31.221008%)" offset="0.84375"/><stop stop-opacity="1" stop-color="rgb(24.946594%, 29.96521%, 31.52771%)" offset="0.875"/><stop stop-opacity="1" stop-color="rgb(25.19989%, 30.255127%, 31.835938%)" offset="0.90625"/><stop stop-opacity="1" stop-color="rgb(25.411987%, 30.500793%, 32.093811%)" offset="0.9375"/><stop stop-opacity="1" stop-color="rgb(25.498962%, 30.599976%, 32.199097%)" offset="1"/></linearGradient><clipPath id="5a078c5cb7"><path d="M 32 22 L 52 22 L 52 56 L 32 56 Z M 32 22 " clip-rule="nonzero"/></clipPath><clipPath id="198d1131ee"><path d="M 51.394531 30.070312 L 51.394531 22 C 37.46875 31.683594 31.414062 43.59375 33.230469 55.5 C 34.644531 46.214844 40.699219 37.335938 51.394531 30.070312 Z M 51.394531 30.070312 " clip-rule="nonzero"/></clipPath><linearGradient x1="9.899999" gradientTransform="matrix(2.018078, 0, 0, 2.018183, 11.4352, -4658.127357)" y1="2327.2371" x2="19.799998" gradientUnits="userSpaceOnUse" y2="2327.2371" id="53d33e1343"><stop stop-opacity="1" stop-color="rgb(17.999268%, 21.998596%, 23.098755%)" offset="0"/><stop stop-opacity="1" stop-color="rgb(17.999268%, 21.998596%, 23.098755%)" offset="0.0625"/><stop stop-opacity="1" stop-color="rgb(18.084717%, 22.097778%, 23.204041%)" offset="0.09375"/><stop stop-opacity="1" stop-color="rgb(18.29834%, 22.341919%, 23.461914%)" offset="0.125"/><stop stop-opacity="1" stop-color="rgb(18.551636%, 22.633362%, 23.770142%)" offset="0.15625"/><stop stop-opacity="1" stop-color="rgb(18.804932%, 22.923279%, 24.076843%)" offset="0.1875"/><stop stop-opacity="1" stop-color="rgb(19.058228%, 23.214722%, 24.385071%)" offset="0.21875"/><stop stop-opacity="1" stop-color="rgb(19.311523%, 23.504639%, 24.691772%)" offset="0.25"/><stop stop-opacity="1" stop-color="rgb(19.566345%, 23.794556%, 25%)" offset="0.28125"/><stop stop-opacity="1" stop-color="rgb(19.819641%, 24.085999%, 25.306702%)" offset="0.3125"/><stop stop-opacity="1" stop-color="rgb(20.072937%, 24.375916%, 25.614929%)" offset="0.34375"/><stop stop-opacity="1" stop-color="rgb(20.326233%, 24.667358%, 25.921631%)" offset="0.375"/><stop stop-opacity="1" stop-color="rgb(20.579529%, 24.957275%, 26.228333%)" offset="0.40625"/><stop stop-opacity="1" stop-color="rgb(20.832825%, 25.247192%, 26.53656%)" offset="0.4375"/><stop stop-opacity="1" stop-color="rgb(21.086121%, 25.538635%, 26.843262%)" offset="0.46875"/><stop stop-opacity="1" stop-color="rgb(21.339417%, 25.828552%, 27.151489%)" offset="0.5"/><stop stop-opacity="1" stop-color="rgb(21.592712%, 26.119995%, 27.458191%)" offset="0.53125"/><stop stop-opacity="1" stop-color="rgb(21.846008%, 26.409912%, 27.766418%)" offset="0.5625"/><stop stop-opacity="1" stop-color="rgb(22.099304%, 26.699829%, 28.07312%)" offset="0.59375"/><stop stop-opacity="1" stop-color="rgb(22.3526%, 26.991272%, 28.381348%)" offset="0.625"/><stop stop-opacity="1" stop-color="rgb(22.605896%, 27.281189%, 28.688049%)" offset="0.65625"/><stop stop-opacity="1" stop-color="rgb(22.859192%, 27.572632%, 28.996277%)" offset="0.6875"/><stop stop-opacity="1" stop-color="rgb(23.112488%, 27.862549%, 29.302979%)" offset="0.71875"/><stop stop-opacity="1" stop-color="rgb(23.365784%, 28.152466%, 29.611206%)" offset="0.75"/><stop stop-opacity="1" stop-color="rgb(23.61908%, 28.443909%, 29.917908%)" offset="0.78125"/><stop stop-opacity="1" stop-color="rgb(23.872375%, 28.733826%, 30.226135%)" offset="0.8125"/><stop stop-opacity="1" stop-color="rgb(24.125671%, 29.025269%, 30.532837%)" offset="0.84375"/><stop stop-opacity="1" stop-color="rgb(24.378967%, 29.315186%, 30.839539%)" offset="0.875"/><stop stop-opacity="1" stop-color="rgb(24.632263%, 29.605103%, 31.147766%)" offset="0.90625"/><stop stop-opacity="1" stop-color="rgb(24.885559%, 29.896545%, 31.454468%)" offset="0.9375"/><stop stop-opacity="1" stop-color="rgb(25.140381%, 30.186462%, 31.762695%)" offset="0.96875"/><stop stop-opacity="1" stop-color="rgb(25.382996%, 30.465698%, 32.05719%)" offset="1"/></linearGradient><clipPath id="e19c047ada"><path d="M 61 5 L 164 5 L 164 25 L 61 25 Z M 61 5 " clip-rule="nonzero"/></clipPath><clipPath id="96d4fe07ce"><path d="M 61.28125 16.144531 L 61.28125 24.21875 C 90.746094 9.890625 133.730469 9.890625 163.195312 24.21875 L 163.195312 16.144531 C 133.933594 1.816406 90.746094 1.816406 61.28125 16.144531 Z M 61.28125 16.144531 " clip-rule="nonzero"/></clipPath><linearGradient x1="24.699999" gradientTransform="matrix(2.018078, 0, 0, 2.018183, 11.4352, -4658.127357)" y1="2315.4341" x2="75.199992" gradientUnits="userSpaceOnUse" y2="2315.4341" id="aa71d076ee"><stop stop-opacity="1" stop-color="rgb(17.999268%, 21.998596%, 23.098755%)" offset="0"/><stop stop-opacity="1" stop-color="rgb(18.112183%, 22.128296%, 23.236084%)" offset="0.03125"/><stop stop-opacity="1" stop-color="rgb(18.344116%, 22.393799%, 23.516846%)" offset="0.0625"/><stop stop-opacity="1" stop-color="rgb(18.577576%, 22.662354%, 23.802185%)" offset="0.09375"/><stop stop-opacity="1" stop-color="rgb(18.812561%, 22.932434%, 24.085999%)" offset="0.125"/><stop stop-opacity="1" stop-color="rgb(19.046021%, 23.200989%, 24.369812%)" offset="0.15625"/><stop stop-opacity="1" stop-color="rgb(19.281006%, 23.469543%, 24.655151%)" offset="0.1875"/><stop stop-opacity="1" stop-color="rgb(19.515991%, 23.738098%, 24.938965%)" offset="0.21875"/><stop stop-opacity="1" stop-color="rgb(19.749451%, 24.006653%, 25.222778%)" offset="0.25"/><stop stop-opacity="1" stop-color="rgb(19.984436%, 24.275208%, 25.508118%)" offset="0.28125"/><stop stop-opacity="1" stop-color="rgb(20.217896%, 24.543762%, 25.791931%)" offset="0.3125"/><stop stop-opacity="1" stop-color="rgb(20.452881%, 24.812317%, 26.075745%)" offset="0.34375"/><stop stop-opacity="1" stop-color="rgb(20.68634%, 25.080872%, 26.361084%)" offset="0.375"/><stop stop-opacity="1" stop-color="rgb(20.921326%, 25.349426%, 26.644897%)" offset="0.40625"/><stop stop-opacity="1" stop-color="rgb(21.156311%, 25.619507%, 26.928711%)" offset="0.4375"/><stop stop-opacity="1" stop-color="rgb(21.389771%, 25.888062%, 27.21405%)" offset="0.46875"/><stop stop-opacity="1" stop-color="rgb(21.624756%, 26.156616%, 27.497864%)" offset="0.5"/><stop stop-opacity="1" stop-color="rgb(21.858215%, 26.425171%, 27.781677%)" offset="0.53125"/><stop stop-opacity="1" stop-color="rgb(22.093201%, 26.693726%, 28.067017%)" offset="0.5625"/><stop stop-opacity="1" stop-color="rgb(22.32666%, 26.96228%, 28.35083%)" offset="0.59375"/><stop stop-opacity="1" stop-color="rgb(22.561646%, 27.230835%, 28.634644%)" offset="0.625"/><stop stop-opacity="1" stop-color="rgb(22.796631%, 27.49939%, 28.919983%)" offset="0.65625"/><stop stop-opacity="1" stop-color="rgb(23.03009%, 27.767944%, 29.203796%)" offset="0.6875"/><stop stop-opacity="1" stop-color="rgb(23.265076%, 28.036499%, 29.48761%)" offset="0.71875"/><stop stop-opacity="1" stop-color="rgb(23.498535%, 28.30658%, 29.772949%)" offset="0.75"/><stop stop-opacity="1" stop-color="rgb(23.733521%, 28.575134%, 30.056763%)" offset="0.78125"/><stop stop-opacity="1" stop-color="rgb(23.96698%, 28.843689%, 30.340576%)" offset="0.8125"/><stop stop-opacity="1" stop-color="rgb(24.201965%, 29.112244%, 30.625916%)" offset="0.84375"/><stop stop-opacity="1" stop-color="rgb(24.436951%, 29.380798%, 30.909729%)" offset="0.875"/><stop stop-opacity="1" stop-color="rgb(24.67041%, 29.649353%, 31.193542%)" offset="0.90625"/><stop stop-opacity="1" stop-color="rgb(24.905396%, 29.917908%, 31.478882%)" offset="0.9375"/><stop stop-opacity="1" stop-color="rgb(25.138855%, 30.186462%, 31.762695%)" offset="0.96875"/><stop stop-opacity="1" stop-color="rgb(25.37384%, 30.455017%, 32.046509%)" offset="1"/></linearGradient></defs><g clip-path="url(#5e4bea4c56)"><g clip-path="url(#3e00bc4d99)"><path fill="url(#e635484bfd)" d="M 1.75 3.429688 L 1.75 131.382812 L 223.132812 131.382812 L 223.132812 3.429688 Z M 1.75 3.429688 " fill-rule="nonzero"/></g></g><path fill="#2e383b" d="M 213.242188 68.617188 C 212.839844 83.148438 202.949219 97.679688 183.777344 108.78125 C 144.425781 131.585938 80.453125 131.585938 41.101562 108.78125 C 21.726562 97.679688 12.039062 83.148438 11.433594 68.617188 L 11.433594 72.25 C 12.445312 86.378906 22.132812 100.503906 40.898438 111.203125 C 80.25 134.007812 144.226562 134.007812 183.578125 111.203125 C 202.546875 100.503906 212.4375 86.378906 213.242188 72.050781 Z M 213.242188 68.617188 " fill-opacity="1" fill-rule="nonzero"/><path fill="#2e383b" d="M 108.304688 121.695312 C 109.109375 120.890625 110.523438 120.285156 112.339844 120.285156 C 113.953125 120.285156 115.566406 120.890625 116.375 121.695312 C 116.777344 121.292969 116.980469 120.890625 116.980469 120.285156 C 116.980469 118.871094 114.960938 117.660156 112.339844 117.660156 C 109.714844 117.660156 107.699219 118.871094 107.699219 120.285156 C 107.699219 120.890625 107.898438 121.292969 108.304688 121.695312 Z M 108.304688 121.695312 " fill-opacity="1" fill-rule="nonzero"/><path fill="#2e383b" d="M 62.492188 114.632812 C 63.300781 113.824219 64.710938 113.21875 66.527344 113.21875 C 68.144531 113.21875 69.757812 113.824219 70.566406 114.632812 C 70.96875 114.230469 71.171875 113.824219 71.171875 113.21875 C 71.171875 111.808594 69.152344 110.597656 66.527344 110.597656 C 63.90625 110.597656 61.886719 111.808594 61.886719 113.421875 C 61.886719 113.824219 62.089844 114.230469 62.492188 114.632812 Z M 62.492188 114.632812 " fill-opacity="1" fill-rule="nonzero"/><path fill="#2e383b" d="M 28.992188 95.460938 C 29.800781 94.652344 31.210938 94.046875 33.027344 94.046875 C 34.644531 94.046875 36.257812 94.652344 37.066406 95.460938 C 37.46875 95.054688 37.671875 94.652344 37.671875 94.046875 C 37.671875 92.632812 35.652344 91.421875 33.027344 91.421875 C 30.40625 91.421875 28.386719 92.632812 28.386719 94.046875 C 28.386719 94.449219 28.589844 95.054688 28.992188 95.460938 Z M 28.992188 95.460938 " fill-opacity="1" fill-rule="nonzero"/><path fill="#2e383b" d="M 16.683594 68.820312 C 17.488281 68.011719 18.902344 67.40625 20.71875 67.40625 C 22.332031 67.40625 23.949219 68.011719 24.753906 68.820312 C 25.15625 68.417969 25.359375 68.011719 25.359375 67.40625 C 25.359375 65.996094 23.34375 64.785156 20.71875 64.785156 C 18.09375 64.785156 16.078125 65.996094 16.078125 67.40625 C 16.078125 68.011719 16.277344 68.417969 16.683594 68.820312 Z M 16.683594 68.820312 " fill-opacity="1" fill-rule="nonzero"/><path fill="#2e383b" d="M 28.992188 42.382812 C 29.800781 41.574219 31.210938 40.96875 33.027344 40.96875 C 34.644531 40.96875 36.257812 41.574219 37.066406 42.382812 C 37.46875 41.976562 37.671875 41.574219 37.671875 40.96875 C 37.671875 39.554688 35.652344 38.34375 33.027344 38.34375 C 30.40625 38.34375 28.386719 39.554688 28.386719 40.96875 C 28.386719 41.574219 28.589844 41.976562 28.992188 42.382812 Z M 28.992188 42.382812 " fill-opacity="1" fill-rule="nonzero"/><path fill="#2e383b" d="M 154.113281 114.632812 C 154.921875 113.824219 156.332031 113.21875 158.148438 113.21875 C 159.765625 113.21875 161.378906 113.824219 162.1875 114.632812 C 162.589844 114.230469 162.792969 113.824219 162.792969 113.21875 C 162.792969 111.808594 160.773438 110.597656 158.148438 110.597656 C 155.527344 110.597656 153.507812 111.808594 153.507812 113.21875 C 153.507812 113.824219 153.710938 114.230469 154.113281 114.632812 Z M 154.113281 114.632812 " fill-opacity="1" fill-rule="nonzero"/><path fill="#2e383b" d="M 187.613281 95.257812 C 188.421875 94.449219 189.832031 93.84375 191.648438 93.84375 C 193.265625 93.84375 194.878906 94.449219 195.6875 95.257812 C 196.089844 94.855469 196.292969 94.449219 196.292969 93.84375 C 196.292969 92.433594 194.273438 91.222656 191.648438 91.222656 C 189.027344 91.222656 187.007812 92.433594 187.007812 93.84375 C 187.007812 94.449219 187.210938 94.855469 187.613281 95.257812 Z M 187.613281 95.257812 " fill-opacity="1" fill-rule="nonzero"/><path fill="#2e383b" d="M 199.921875 68.820312 C 200.730469 68.011719 202.144531 67.40625 203.960938 67.40625 C 205.574219 67.40625 207.1875 68.011719 207.996094 68.820312 C 208.398438 68.417969 208.601562 68.011719 208.601562 67.40625 C 208.601562 65.996094 206.582031 64.785156 203.960938 64.785156 C 201.335938 64.785156 199.316406 65.996094 199.316406 67.40625 C 199.316406 68.011719 199.519531 68.417969 199.921875 68.820312 Z M 199.921875 68.820312 " fill-opacity="1" fill-rule="nonzero"/><path fill="#2e383b" d="M 187.613281 42.382812 C 188.421875 41.574219 189.832031 40.96875 191.648438 40.96875 C 193.265625 40.96875 194.878906 41.574219 195.6875 42.382812 C 196.089844 41.976562 196.292969 41.574219 196.292969 40.96875 C 196.292969 39.554688 194.273438 38.34375 191.648438 38.34375 C 189.027344 38.34375 187.007812 39.554688 187.007812 40.96875 C 187.007812 41.574219 187.210938 41.976562 187.613281 42.382812 Z M 187.613281 42.382812 " fill-opacity="1" fill-rule="nonzero"/><g clip-path="url(#dbd52e2e7f)"><g clip-path="url(#79cdf6d44d)"><path fill="url(#66c9cbe5fa)" d="M 29.394531 51.867188 L 29.394531 118.871094 L 195.28125 118.871094 L 195.28125 51.867188 Z M 29.394531 51.867188 " fill-rule="nonzero"/></g></g><path fill="#2e383b" d="M 54.621094 108.980469 L 40.496094 100.910156 L 40.496094 84.765625 L 54.621094 92.835938 Z M 54.621094 108.980469 " fill-opacity="1" fill-rule="nonzero"/><path fill="#414e52" d="M 54.621094 108.980469 L 61.078125 105.148438 L 61.078125 89 L 54.621094 92.835938 Z M 54.621094 108.980469 " fill-opacity="1" fill-rule="nonzero"/><path fill="#414e52" d="M 184.183594 100.910156 L 170.054688 108.980469 L 170.054688 92.835938 L 184.183594 84.765625 Z M 184.183594 100.910156 " fill-opacity="1" fill-rule="nonzero"/><path fill="#2e383b" d="M 163.597656 105.148438 L 170.054688 108.980469 L 170.054688 92.835938 L 163.597656 89 Z M 163.597656 105.148438 " fill-opacity="1" fill-rule="nonzero"/><path fill="#2e383b" d="M 88.527344 122.101562 L 92.160156 114.027344 L 92.160156 101.109375 Z M 88.527344 122.101562 " fill-opacity="1" fill-rule="nonzero"/><path fill="#414e52" d="M 31.816406 66.195312 L 17.691406 81.332031 L 18.5 82.949219 L 32.625 67.8125 C 32.222656 67.207031 32.019531 66.800781 31.816406 66.195312 Z M 31.816406 66.195312 " fill-opacity="1" fill-rule="nonzero"/><path fill="#4e5b5f" d="M 192.054688 67.8125 L 206.179688 82.949219 L 206.988281 81.332031 L 192.859375 66.195312 C 192.660156 66.800781 192.457031 67.207031 192.054688 67.8125 Z M 192.054688 67.8125 " fill-opacity="1" fill-rule="nonzero"/><path fill="#4e5b5f" d="M 89.535156 100.707031 L 85.699219 121.695312 L 88.527344 122.101562 L 92.160156 101.109375 C 91.351562 100.910156 90.34375 100.910156 89.535156 100.707031 Z M 89.535156 100.707031 " fill-opacity="1" fill-rule="nonzero"/><path fill="#4e5b5f" d="M 132.519531 101.109375 L 136.355469 122.101562 L 139.179688 121.695312 L 135.34375 100.707031 C 134.335938 100.910156 133.328125 100.910156 132.519531 101.109375 Z M 132.519531 101.109375 " fill-opacity="1" fill-rule="nonzero"/><path fill="#2e383b" d="M 132.519531 114.027344 L 132.519531 101.109375 L 136.152344 122.101562 Z M 132.519531 114.027344 " fill-opacity="1" fill-rule="nonzero"/><path fill="#2e383b" d="M 192.054688 80.726562 L 192.054688 67.8125 L 206.179688 82.949219 Z M 192.054688 80.726562 " fill-opacity="1" fill-rule="nonzero"/><path fill="#344145" d="M 32.625 67.8125 L 32.625 80.726562 L 18.5 82.949219 Z M 32.625 67.8125 " fill-opacity="1" fill-rule="nonzero"/><path fill="#2e383b" d="M 206.988281 53.683594 L 194.476562 43.996094 C 195.484375 47.832031 195.6875 51.664062 195.082031 55.5 Z M 206.988281 53.683594 " fill-opacity="1" fill-rule="nonzero"/><path fill="#414e52" d="M 184.183594 27.246094 L 184.183594 17.960938 L 177.726562 21.796875 C 179.945312 23.613281 182.164062 25.429688 184.183594 27.246094 Z M 184.183594 27.246094 " fill-opacity="1" fill-rule="nonzero"/><path fill="#2e383b" d="M 47.15625 21.796875 L 40.699219 17.960938 L 40.699219 27.246094 C 42.511719 25.429688 44.734375 23.613281 47.15625 21.796875 Z M 47.15625 21.796875 " fill-opacity="1" fill-rule="nonzero"/><path fill="#344145" d="M 30.203125 44.199219 L 17.691406 53.886719 L 29.597656 55.5 C 28.992188 51.867188 29.195312 48.03125 30.203125 44.199219 Z M 30.203125 44.199219 " fill-opacity="1" fill-rule="nonzero"/><path fill="#414e52" d="M 30.605469 42.785156 L 18.296875 52.070312 L 17.488281 53.683594 L 30 43.996094 C 30.40625 43.792969 30.605469 43.1875 30.605469 42.785156 Z M 30.605469 42.785156 " fill-opacity="1" fill-rule="nonzero"/><path fill="#4e5b5f" d="M 194.476562 44.199219 L 206.988281 53.886719 L 206.179688 52.269531 L 193.871094 42.988281 C 194.070312 43.1875 194.273438 43.792969 194.476562 44.199219 Z M 194.476562 44.199219 " fill-opacity="1" fill-rule="nonzero"/><g clip-path="url(#2d6e002b78)"><g clip-path="url(#a69a7cebfb)"><path fill="url(#6be515b36d)" d="M 23.542969 0 L 23.542969 102.726562 L 201.335938 102.726562 L 201.335938 0 Z M 23.542969 0 " fill-rule="nonzero"/></g></g><g clip-path="url(#85766ad43b)"><g clip-path="url(#5226166e95)"><path fill="url(#890abd2824)" d="M 37.46875 13.523438 L 37.46875 65.1875 L 187.210938 65.1875 L 187.210938 13.523438 Z M 37.46875 13.523438 " fill-rule="nonzero"/></g></g><g clip-path="url(#84c2349b90)"><g clip-path="url(#4b762cef04)"><path fill="url(#a54eeffe01)" d="M 165.617188 81.332031 L 165.617188 90.414062 L 179.339844 90.414062 L 179.339844 81.332031 Z M 165.617188 81.332031 " fill-rule="nonzero"/></g></g><g clip-path="url(#10bd24c46c)"><g clip-path="url(#6789b9a31f)"><path fill="url(#dabf55245f)" d="M 45.339844 81.132812 L 45.339844 90.210938 L 59.0625 90.210938 L 59.0625 81.132812 Z M 45.339844 81.132812 " fill-rule="nonzero"/></g></g><g clip-path="url(#052fda65ef)"><g clip-path="url(#96c7f8fa54)"><path fill="url(#1f1eeff1e7)" d="M 33.027344 9.6875 L 33.027344 77.09375 L 191.449219 77.09375 L 191.449219 9.6875 Z M 33.027344 9.6875 " fill-rule="nonzero"/></g></g><g clip-path="url(#dcabeb1ba1)"><g clip-path="url(#7dc6c9e805)"><path fill="url(#e99d76aa72)" d="M 173.285156 21.796875 L 173.285156 55.296875 L 193.265625 55.296875 L 193.265625 21.796875 Z M 173.285156 21.796875 " fill-rule="nonzero"/></g></g><g clip-path="url(#5a078c5cb7)"><g clip-path="url(#198d1131ee)"><path fill="url(#53d33e1343)" d="M 31.414062 22 L 31.414062 55.5 L 51.394531 55.5 L 51.394531 22 Z M 31.414062 22 " fill-rule="nonzero"/></g></g><g clip-path="url(#e19c047ada)"><g clip-path="url(#96d4fe07ce)"><path fill="url(#aa71d076ee)" d="M 61.28125 1.816406 L 61.28125 24.21875 L 163.195312 24.21875 L 163.195312 1.816406 Z M 61.28125 1.816406 " fill-rule="nonzero"/></g></g><path fill="#344145" d="M 169.652344 20.585938 L 163.394531 24.21875 L 163.394531 16.144531 L 169.652344 12.511719 Z M 169.652344 20.585938 " fill-opacity="1" fill-rule="nonzero"/><path fill="#2e383b" d="M 169.652344 20.585938 L 173.285156 22.804688 L 173.285156 22 L 179.742188 18.367188 L 169.652344 12.511719 Z M 169.652344 20.585938 " fill-opacity="1" fill-rule="nonzero"/><path fill="#344145" d="M 51.394531 22.804688 L 51.394531 22 L 44.933594 18.367188 L 55.027344 12.511719 L 55.027344 20.585938 Z M 51.394531 22.804688 " fill-opacity="1" fill-rule="nonzero"/><path fill="#2e383b" d="M 61.28125 24.21875 L 55.027344 20.585938 L 55.027344 12.511719 L 61.28125 16.144531 Z M 61.28125 24.21875 " fill-opacity="1" fill-rule="nonzero"/><path fill="#414e52" d="M 51.394531 80.726562 L 44.933594 84.359375 L 51.394531 87.992188 Z M 51.394531 80.726562 " fill-opacity="1" fill-rule="nonzero"/><path fill="#2e383b" d="M 173.285156 87.992188 L 179.742188 84.359375 L 173.285156 80.726562 Z M 173.285156 87.992188 " fill-opacity="1" fill-rule="nonzero"/><path fill="#5c676a" d="M 168.496094 19.023438 C 199.351562 36.835938 199.351562 65.722656 168.496094 83.535156 C 137.640625 101.351562 87.613281 101.351562 56.757812 83.535156 C 25.902344 65.722656 25.902344 36.835938 56.757812 19.023438 C 87.613281 1.210938 137.640625 1.210938 168.496094 19.023438 " fill-opacity="1" fill-rule="evenodd"/><path fill="#374346" d="M 182.367188 49.457031 L 182.386719 54.800781 C 181.4375 58.410156 180.820312 61.15625 178.945312 64.480469 C 178.085938 66 176.777344 67.875 175.671875 69.222656 C 174.945312 70.105469 173.703125 71.460938 172.890625 72.265625 L 171.320312 73.742188 L 170.324219 70.164062 C 171.378906 69.175781 173.359375 68.378906 174.339844 67.308594 C 175.550781 65.984375 177 64.136719 177.972656 62.632812 C 180.738281 58.359375 180.894531 55.945312 181.878906 51.113281 L 182.367188 49.457031 " fill-opacity="1" fill-rule="evenodd"/><path fill="#808080" d="M 171.320312 70.292969 L 171.320312 73.742188 C 170.414062 73.375 169.648438 73.058594 168.695312 72.789062 C 165.863281 72 162.753906 71.925781 159.878906 72.53125 C 156.246094 73.300781 152.261719 75.347656 149.929688 78.289062 C 149.316406 79.0625 148.691406 80.125 148.429688 81.082031 L 148.285156 81.769531 L 146.328125 79.132812 C 146.363281 78.800781 148.539062 77.25 148.667969 76.933594 C 149.800781 74.160156 152.695312 71.09375 155.328125 69.832031 C 155.679688 69.660156 156.039062 69.5 156.40625 69.351562 C 159.800781 67.972656 163.84375 67.742188 167.4375 68.46875 C 168.179688 68.617188 169.296875 69.503906 170.007812 69.757812 L 171.320312 70.292969 " fill-opacity="1" fill-rule="evenodd"/><path fill="#374346" d="M 150.355469 82.394531 L 150.355469 85.847656 C 148.613281 86.464844 146.960938 87.050781 145.1875 87.589844 C 122.753906 94.433594 94.527344 93.8125 72.71875 85.003906 C 63.125 81.132812 52.824219 74.820312 47.136719 65.867188 C 46.25 64.472656 45.246094 62.542969 44.636719 61.003906 L 44.042969 59.355469 L 42.867188 55.925781 L 42.898438 47.863281 L 44.042969 55.90625 C 44.539062 57.445312 45.398438 59.394531 46.183594 60.8125 C 50.402344 68.433594 57.988281 74.234375 65.550781 78.234375 C 80.015625 85.886719 98.015625 88.996094 114.269531 88.773438 C 125.433594 88.621094 137.207031 86.878906 147.796875 83.300781 L 150.355469 82.394531 " fill-opacity="1" fill-rule="evenodd"/><path fill="#808080" d="M 78.222656 17.027344 L 77.242188 21.457031 L 77.078125 20.746094 C 76.886719 20.066406 76.253906 19.191406 75.75 18.683594 L 74.949219 17.96875 L 74.902344 14.515625 L 76.324219 14.929688 C 76.65625 15.265625 76.554688 16.171875 76.777344 16.59375 C 77.078125 17.226562 78.070312 16.382812 78.222656 17.027344 " fill-opacity="1" fill-rule="evenodd"/><path fill="#2e383b" d="M 161.957031 20.027344 C 185.605469 33.679688 188.71875 54.695312 171.320312 70.292969 C 157.347656 64.007812 142.679688 77.683594 150.355469 82.394531 C 123.339844 92.441406 86.945312 90.644531 63.296875 76.988281 C 39.640625 63.332031 36.527344 42.304688 53.957031 26.707031 C 65.417969 32.324219 83.714844 21.417969 75.011719 14.578125 C 102.015625 4.582031 138.34375 6.394531 161.957031 20.027344 " fill-opacity="1" fill-rule="evenodd"/><path fill="#fefefe" d="M 106.558594 22.570312 C 104.378906 22.714844 102.214844 22.953125 100.082031 23.277344 L 156.125 55.632812 C 156.6875 54.402344 157.097656 53.152344 157.347656 51.894531 Z M 92.398438 24.890625 C 90.699219 25.351562 89.035156 25.875 87.421875 26.460938 L 150.605469 62.941406 C 151.625 62.011719 152.535156 61.050781 153.332031 60.070312 Z M 81.449219 29.0625 C 80.050781 29.777344 78.839844 30.476562 77.597656 31.285156 L 142.257812 68.613281 C 143.65625 67.898438 144.863281 67.199219 146.109375 66.390625 Z M 136.28125 71.214844 L 73.097656 34.734375 C 72.078125 35.664062 71.171875 36.625 70.371094 37.605469 L 131.304688 72.785156 C 133.007812 72.324219 134.667969 71.800781 136.28125 71.214844 Z M 123.621094 74.398438 L 67.582031 42.042969 C 67.015625 43.273438 66.605469 44.523438 66.355469 45.78125 L 117.148438 75.105469 C 119.328125 74.960938 121.492188 74.722656 123.621094 74.398438 Z M 106.6875 75.113281 C 103.304688 74.894531 99.960938 74.457031 96.71875 73.804688 L 68.609375 57.574219 C 67.476562 55.703125 66.722656 53.773438 66.339844 51.820312 Z M 126.988281 23.871094 L 155.09375 40.101562 C 156.226562 41.972656 156.980469 43.902344 157.363281 45.855469 L 117.019531 22.5625 C 120.398438 22.78125 123.742188 23.21875 126.988281 23.871094 " fill-opacity="1" fill-rule="evenodd"/><path fill="#808080" d="M 117.019531 22.5625 L 117.019531 20.835938 L 157.363281 44.128906 L 157.363281 45.855469 L 117.019531 22.5625 " fill-opacity="1" fill-rule="evenodd"/><path fill="#374346" d="M 106.6875 73.386719 L 106.6875 75.113281 C 103.238281 74.882812 100.105469 74.480469 96.71875 73.804688 L 96.71875 72.078125 C 100.105469 72.753906 103.238281 73.15625 106.6875 73.386719 " fill-opacity="1" fill-rule="evenodd"/><path fill="#808080" d="M 96.71875 72.078125 L 96.71875 73.804688 L 68.609375 57.574219 L 68.609375 55.851562 L 96.71875 72.078125 " fill-opacity="1" fill-rule="evenodd"/><path fill="#374346" d="M 68.609375 55.851562 L 68.609375 57.574219 C 67.558594 55.816406 66.796875 54.015625 66.378906 52.003906 C 66.300781 51.621094 66.339844 50.546875 66.339844 50.09375 C 66.765625 52.210938 67.503906 54 68.609375 55.851562 " fill-opacity="1" fill-rule="evenodd"/><path fill="#374346" d="M 123.621094 72.671875 L 123.621094 74.398438 C 121.429688 74.730469 119.359375 74.953125 117.148438 75.105469 L 117.148438 73.378906 C 119.359375 73.230469 121.429688 73.003906 123.621094 72.671875 " fill-opacity="1" fill-rule="evenodd"/><path fill="#808080" d="M 117.148438 73.378906 L 117.148438 75.105469 L 66.355469 45.78125 L 66.355469 44.054688 L 117.148438 73.378906 " fill-opacity="1" fill-rule="evenodd"/><path fill="#374346" d="M 136.28125 71.214844 C 134.609375 71.820312 133.019531 72.320312 131.304688 72.785156 L 131.304688 71.058594 C 133.019531 70.59375 134.609375 70.09375 136.28125 69.488281 L 136.28125 71.214844 " fill-opacity="1" fill-rule="evenodd"/><path fill="#808080" d="M 131.304688 71.058594 L 131.304688 72.785156 L 70.371094 37.605469 L 70.371094 35.878906 L 131.304688 71.058594 " fill-opacity="1" fill-rule="evenodd"/><path fill="#374346" d="M 146.109375 64.667969 L 146.109375 66.390625 C 144.820312 67.226562 143.621094 67.914062 142.257812 68.613281 L 142.257812 66.890625 C 143.621094 66.1875 144.820312 65.5 146.109375 64.667969 " fill-opacity="1" fill-rule="evenodd"/><path fill="#808080" d="M 142.257812 66.890625 L 142.257812 68.613281 L 77.597656 31.285156 L 77.597656 29.558594 L 142.257812 66.890625 " fill-opacity="1" fill-rule="evenodd"/><path fill="#374346" d="M 151.53125 62.0625 L 150.605469 62.941406 L 150.605469 61.214844 C 151.613281 60.292969 152.46875 59.402344 153.332031 58.34375 L 153.332031 60.070312 C 153.277344 60.222656 151.765625 61.824219 151.53125 62.0625 " fill-opacity="1" fill-rule="evenodd"/><path fill="#808080" d="M 150.605469 62.941406 L 87.421875 26.460938 L 87.421875 24.738281 L 150.605469 61.214844 L 150.605469 62.941406 " fill-opacity="1" fill-rule="evenodd"/><path fill="#374346" d="M 157.347656 50.167969 C 157.347656 50.527344 157.378906 51.75 157.324219 52.011719 C 157.058594 53.285156 156.660156 54.453125 156.125 55.632812 L 156.125 53.90625 L 156.652344 52.632812 C 156.953125 51.8125 157.175781 51.027344 157.347656 50.167969 " fill-opacity="1" fill-rule="evenodd"/><path fill="#808080" d="M 100.082031 23.277344 L 100.082031 21.550781 L 156.125 53.90625 L 156.125 55.632812 L 100.082031 23.277344 " fill-opacity="1" fill-rule="evenodd"/><path fill="#4e5b5f" d="M 100.28125 21.523438 L 100.082031 21.550781 L 156.125 53.90625 C 156.6875 52.667969 157.078125 51.503906 157.347656 50.167969 L 106.558594 20.84375 L 106.351562 20.859375 C 104.304688 21 102.3125 21.21875 100.28125 21.523438 Z M 87.574219 24.683594 L 87.421875 24.738281 L 150.605469 61.214844 C 151.613281 60.292969 152.46875 59.402344 153.332031 58.34375 L 92.398438 23.164062 C 90.734375 23.617188 89.195312 24.097656 87.574219 24.683594 Z M 79.523438 28.378906 L 77.597656 29.558594 L 142.257812 66.890625 C 143.621094 66.1875 144.820312 65.5 146.109375 64.667969 L 81.449219 27.335938 Z M 131.304688 71.058594 C 133.019531 70.59375 134.609375 70.09375 136.28125 69.488281 L 73.097656 33.007812 C 72.09375 33.929688 71.234375 34.824219 70.371094 35.878906 Z M 123.621094 72.671875 L 67.582031 40.316406 C 67.015625 41.558594 66.628906 42.71875 66.355469 44.054688 L 117.148438 73.378906 L 117.351562 73.367188 C 119.472656 73.21875 121.519531 72.992188 123.621094 72.671875 Z M 106.6875 73.386719 C 103.398438 73.167969 100.253906 72.777344 97.019531 72.136719 L 96.71875 72.078125 L 68.609375 55.851562 C 68.457031 55.699219 67.636719 54.042969 67.496094 53.71875 C 66.964844 52.523438 66.597656 51.375 66.339844 50.09375 Z M 117.335938 20.859375 C 120.511719 21.082031 123.558594 21.46875 126.683594 22.085938 L 126.988281 22.144531 L 155.09375 38.375 C 155.246094 38.523438 156.066406 40.179688 156.210938 40.503906 C 156.742188 41.699219 157.105469 42.847656 157.363281 44.128906 L 117.019531 20.835938 L 117.335938 20.859375 " fill-opacity="1" fill-rule="evenodd"/><path fill="#808080" d="M 147.386719 28.441406 C 128.1875 17.355469 97.0625 17.355469 77.863281 28.441406 C 58.667969 39.523438 58.667969 57.496094 77.863281 68.578125 C 97.0625 79.664062 128.1875 79.664062 147.386719 68.578125 C 166.585938 57.496094 166.585938 39.523438 147.386719 28.441406 Z M 65.34375 75.808594 C 42.6875 62.726562 39.691406 42.597656 56.351562 27.648438 C 55.503906 27.394531 54.695312 27.085938 53.929688 26.730469 C 36.53125 42.324219 39.648438 63.335938 63.296875 76.988281 C 86.941406 90.640625 123.335938 92.441406 150.351562 82.394531 C 149.734375 81.957031 149.203125 81.488281 148.757812 81 C 122.867188 90.617188 88 88.886719 65.34375 75.808594 Z M 161.957031 20.027344 C 138.3125 6.375 101.914062 4.578125 74.902344 14.621094 C 75.519531 15.0625 76.050781 15.53125 76.496094 16.019531 C 102.386719 6.402344 137.253906 8.128906 159.910156 21.210938 C 182.5625 34.289062 185.558594 54.421875 168.902344 69.371094 C 169.746094 69.625 170.558594 69.933594 171.320312 70.289062 C 188.71875 54.691406 185.601562 33.679688 161.957031 20.027344 Z M 149.496094 27.222656 C 169.859375 38.976562 169.859375 58.039062 149.496094 69.796875 C 129.132812 81.550781 96.121094 81.550781 75.753906 69.796875 C 55.394531 58.039062 55.394531 38.976562 75.753906 27.222656 C 96.121094 15.464844 129.132812 15.464844 149.496094 27.222656 " fill-opacity="1" fill-rule="evenodd"/><path fill="#374346" d="M 156.175781 65.074219 C 153.667969 67.269531 150.5 69.324219 147.550781 70.863281 C 127.875 81.136719 97.570312 81.234375 77.703125 70.863281 C 72.664062 68.234375 67.601562 64.539062 64.300781 59.835938 C 62.546875 57.339844 61.222656 54.417969 60.722656 51.394531 C 60.507812 50.097656 60.433594 48.378906 60.542969 47.066406 L 60.722656 45.625 L 60.722656 43.898438 L 60.542969 45.339844 C 60.433594 46.652344 60.507812 48.371094 60.722656 49.667969 C 61.625 55.101562 65.007812 59.789062 69.074219 63.347656 C 71.582031 65.542969 74.75 67.597656 77.703125 69.136719 C 97.378906 79.410156 127.683594 79.511719 147.550781 69.136719 C 152.585938 66.507812 157.648438 62.8125 160.949219 58.109375 C 162.703125 55.613281 164.027344 52.691406 164.527344 49.667969 C 164.746094 48.371094 164.816406 46.652344 164.707031 45.339844 L 164.527344 43.898438 L 164.527344 45.625 L 164.707031 47.066406 C 164.816406 48.378906 164.746094 50.097656 164.527344 51.394531 C 163.628906 56.828125 160.246094 61.515625 156.175781 65.074219 " fill-opacity="1" fill-rule="evenodd"/><path fill="#374346" d="M 177.070312 64.632812 C 175.980469 66.117188 174.273438 67.75 172.960938 69.042969 L 171.320312 70.589844 L 171.320312 68.5625 C 172.371094 67.574219 173.363281 66.652344 174.34375 65.578125 C 179.257812 60.203125 182.605469 53.464844 182.375 46.054688 C 182.34375 45.113281 182.191406 43.628906 182.03125 42.703125 L 181.679688 41.035156 L 181.679688 42.761719 L 182.03125 44.429688 C 182.292969 45.933594 182.429688 47.929688 182.367188 49.457031 C 182.148438 54.828125 180.222656 60.324219 177.070312 64.632812 " fill-opacity="1" fill-rule="evenodd"/><path fill="#808080" d="M 171.320312 68.5625 L 171.320312 70.59375 C 170.511719 70.21875 169.753906 69.933594 168.902344 69.671875 L 168.902344 67.644531 C 169.753906 67.902344 170.511719 68.1875 171.320312 68.5625 " fill-opacity="1" fill-rule="evenodd"/><path fill="#374346" d="M 159.910156 21.210938 C 145.660156 12.980469 127.382812 9.695312 111.074219 9.914062 C 100.375 10.058594 89.097656 11.726562 78.949219 15.148438 L 76.496094 16.019531 L 76.496094 14.292969 C 78.164062 13.699219 79.75 13.140625 81.449219 12.621094 C 103.628906 5.867188 131.9375 6.679688 153.230469 16.105469 C 160.554688 19.347656 168.113281 24.121094 173.214844 30.425781 C 174.65625 32.207031 176.117188 34.460938 177.101562 36.53125 C 177.507812 37.382812 178.066406 38.777344 178.355469 39.675781 L 178.808594 41.265625 L 178.808594 42.992188 L 178.355469 41.402344 C 177.683594 39.316406 176.5625 37.015625 175.390625 35.167969 C 171.667969 29.316406 165.84375 24.640625 159.910156 21.210938 " fill-opacity="1" fill-rule="evenodd"/><path fill="#808080" d="M 76.496094 14.292969 L 76.496094 16.273438 C 75.980469 15.71875 75.515625 15.066406 74.902344 14.621094 L 74.902344 12.894531 C 75.515625 13.339844 75.980469 13.734375 76.496094 14.292969 " fill-opacity="1" fill-rule="evenodd"/><path fill="#374346" d="M 56.351562 25.921875 L 56.351562 27.648438 C 55.34375 28.597656 54.394531 29.480469 53.457031 30.507812 C 51.867188 32.25 50.210938 34.46875 49.054688 36.523438 C 48.289062 37.878906 47.449219 39.742188 46.960938 41.21875 L 46.492188 42.808594 L 46.492188 41.082031 L 46.960938 39.492188 C 47.652344 37.410156 48.789062 35.105469 49.980469 33.261719 C 51.296875 31.226562 53.125 29.042969 54.847656 27.339844 L 56.351562 25.921875 " fill-opacity="1" fill-rule="evenodd"/><path fill="#374346" d="M 150.351562 80.671875 L 150.351562 83.234375 C 148.609375 83.851562 146.957031 84.4375 145.179688 84.980469 C 122.75 91.820312 94.523438 90.359375 72.71875 81.554688 C 63.128906 77.679688 52.828125 71.371094 47.140625 62.425781 C 44.316406 57.980469 42.671875 52.859375 42.886719 47.5625 C 42.921875 46.621094 43.089844 45.140625 43.261719 44.214844 L 43.628906 42.546875 L 43.628906 40.820312 L 43.261719 42.488281 C 42.984375 43.992188 42.828125 45.984375 42.875 47.511719 C 43.042969 52.875 45.101562 57.960938 48.214844 62.28125 C 52.070312 67.632812 57.628906 71.992188 63.296875 75.265625 C 70.964844 79.695312 79.878906 82.757812 88.523438 84.589844 C 107.449219 88.605469 129.417969 87.78125 147.792969 81.578125 L 150.351562 80.671875 " fill-opacity="1" fill-rule="evenodd"/><path fill="#808080" d="M 137.605469 22.332031 C 120.550781 16.511719 97.976562 17.050781 81.597656 24.765625 C 75.734375 27.527344 69.648438 31.734375 66.222656 37.394531 C 65.273438 38.964844 64.417969 40.929688 63.972656 42.707031 L 63.691406 44.0625 L 63.691406 45.789062 C 63.890625 44.828125 64.050781 44.035156 64.367188 43.089844 C 65.894531 38.527344 69.238281 34.660156 72.972656 31.726562 C 77.789062 27.941406 83.925781 25.148438 89.765625 23.375 C 106.390625 18.328125 127.847656 19.042969 143.652344 26.492188 C 149.515625 29.253906 155.605469 33.460938 159.03125 39.121094 C 159.980469 40.6875 160.835938 42.652344 161.277344 44.433594 L 161.558594 45.789062 L 161.558594 44.0625 L 161.277344 42.707031 C 160.835938 40.929688 159.980469 38.964844 159.03125 37.394531 C 154.539062 29.972656 145.550781 25.042969 137.605469 22.332031 " fill-opacity="1" fill-rule="evenodd"/><path fill="#4e5b5f" d="M 150.761719 64.695312 C 156.277344 60.789062 161.152344 55.132812 161.730469 48.144531 C 162.234375 42.019531 159.253906 36.542969 154.980469 32.359375 C 151.8125 29.265625 147.664062 26.65625 143.652344 24.765625 C 127.847656 17.320312 106.390625 16.601562 89.765625 21.648438 C 81.863281 24.046875 73.21875 28.359375 68.023438 34.832031 C 62.84375 41.28125 61.875 48.988281 66.222656 56.171875 C 69.648438 61.832031 75.734375 66.039062 81.597656 68.800781 C 95.59375 75.398438 113.828125 76.617188 128.890625 73.574219 C 136.441406 72.050781 144.441406 69.175781 150.761719 64.695312 Z M 69.730469 76.402344 C 62.691406 72.996094 55.527344 68.074219 50.894531 61.644531 C 43.015625 50.71875 44.488281 38.609375 53.457031 28.785156 C 54.394531 27.753906 55.34375 26.871094 56.351562 25.921875 C 55.5 25.664062 54.738281 25.378906 53.929688 25.003906 L 52.359375 26.480469 C 51.046875 27.777344 49.457031 29.59375 48.367188 31.082031 C 41.609375 40.316406 40.960938 50.972656 47.140625 60.699219 C 52.828125 69.644531 63.128906 75.957031 72.71875 79.828125 C 94.523438 88.632812 122.75 89.253906 145.179688 82.414062 C 146.957031 81.875 148.609375 81.289062 150.351562 80.671875 C 149.738281 80.226562 149.269531 79.832031 148.757812 79.273438 L 146.304688 80.144531 C 140.484375 82.105469 134.070312 83.535156 127.988281 84.359375 C 109.085938 86.925781 87.023438 84.773438 69.730469 76.402344 Z M 77.460938 11.988281 L 74.902344 12.894531 C 75.515625 13.339844 75.980469 13.734375 76.496094 14.292969 L 78.949219 13.421875 C 84.765625 11.460938 91.183594 10.03125 97.265625 9.207031 C 116.167969 6.640625 138.226562 8.792969 155.523438 17.164062 C 162.558594 20.574219 169.722656 25.492188 174.359375 31.921875 C 182.234375 42.847656 180.765625 54.957031 171.792969 64.78125 C 170.855469 65.8125 169.910156 66.695312 168.902344 67.644531 C 169.753906 67.902344 170.511719 68.1875 171.320312 68.5625 L 172.890625 67.085938 C 173.707031 66.28125 174.949219 64.929688 175.671875 64.042969 C 181.464844 56.992188 184.082031 48.316406 181.203125 39.378906 C 179.203125 33.160156 174.835938 27.851562 169.859375 23.742188 C 166.1875 20.707031 161.683594 17.964844 157.378906 15.882812 L 154.988281 14.777344 L 152.535156 13.738281 L 150.023438 12.769531 L 147.457031 11.875 L 144.839844 11.042969 L 142.175781 10.285156 L 139.472656 9.597656 L 136.730469 8.976562 L 133.949219 8.425781 L 131.144531 7.945312 L 128.308594 7.53125 L 125.453125 7.191406 L 122.578125 6.917969 L 119.691406 6.710938 L 116.792969 6.578125 L 113.890625 6.515625 L 110.984375 6.519531 L 108.082031 6.59375 L 105.1875 6.734375 L 102.300781 6.949219 L 99.429688 7.230469 L 96.574219 7.582031 L 93.742188 8.003906 L 90.941406 8.496094 L 88.167969 9.054688 L 85.429688 9.683594 L 82.726562 10.382812 L 80.070312 11.152344 Z M 149.496094 68.070312 C 142.171875 72.300781 133.382812 74.851562 125.039062 76.027344 C 110.359375 78.097656 93.214844 76.5 79.714844 70.136719 C 73.050781 66.996094 66.078125 62.085938 62.632812 55.355469 C 58.875 48.015625 60.25 40.414062 65.316406 34.105469 C 70.828125 27.246094 79.996094 22.667969 88.378906 20.125 C 105.40625 14.953125 127.015625 15.519531 143.457031 22.5 C 147.921875 24.394531 152.5625 27.054688 156.175781 30.21875 C 160.246094 33.777344 163.628906 38.464844 164.527344 43.898438 C 165.277344 48.40625 164.195312 52.859375 161.84375 56.742188 C 158.960938 61.511719 154.265625 65.316406 149.496094 68.070312 " fill-opacity="1" fill-rule="evenodd"/></svg>
