<svg xmlns="http://www.w3.org/2000/svg" xmlns:xlink="http://www.w3.org/1999/xlink" width="100%" zoomAndPan="magnify" viewBox="0 0 630.75 121.500001" height="100%" preserveAspectRatio="xMidYMid meet" version="1.0"><defs><clipPath id="9137751571"><path d="M 1.167969 0 L 629.25 0 L 629.25 117.535156 L 1.167969 117.535156 Z M 1.167969 0 " clip-rule="nonzero"/></clipPath><clipPath id="fc95749920"><path d="M 59.9375 0 L 570.382812 0 C 602.839844 0 629.152344 26.3125 629.152344 58.769531 C 629.152344 91.222656 602.839844 117.535156 570.382812 117.535156 L 59.9375 117.535156 C 27.480469 117.535156 1.167969 91.222656 1.167969 58.769531 C 1.167969 26.3125 27.480469 0 59.9375 0 Z M 59.9375 0 " clip-rule="nonzero"/></clipPath><clipPath id="65ed592f12"><path d="M 1.167969 3.296875 L 629.25 3.296875 L 629.25 120.832031 L 1.167969 120.832031 Z M 1.167969 3.296875 " clip-rule="nonzero"/></clipPath><clipPath id="80b6f78202"><path d="M 59.9375 3.296875 L 570.382812 3.296875 C 602.839844 3.296875 629.152344 29.605469 629.152344 62.0625 C 629.152344 94.519531 602.839844 120.832031 570.382812 120.832031 L 59.9375 120.832031 C 27.480469 120.832031 1.167969 94.519531 1.167969 62.0625 C 1.167969 29.605469 27.480469 3.296875 59.9375 3.296875 Z M 59.9375 3.296875 " clip-rule="nonzero"/></clipPath></defs><g clip-path="url(#65ed592f12)"><g clip-path="url(#80b6f78202)"><path fill="" d="M 1.167969 3.296875 L 629.25 3.296875 L 629.25 120.832031 L 1.167969 120.832031 Z M 1.167969 3.296875 " fill-opacity="1" fill-rule="nonzero"/></g></g></svg>
