<svg xmlns="http://www.w3.org/2000/svg" xmlns:xlink="http://www.w3.org/1999/xlink" width="40" zoomAndPan="magnify" viewBox="0 0 30 277.499997" height="370" preserveAspectRatio="xMidYMid meet" version="1.0"><defs><clipPath id="22c917b642"><path d="M 0.0273438 0 L 29.972656 0 L 29.972656 277 L 0.0273438 277 Z M 0.0273438 0 " clip-rule="nonzero"/></clipPath><clipPath id="bb94d38a48"><path d="M 15 0 C 18.972656 0 22.78125 1.578125 25.585938 4.386719 C 28.394531 7.195312 29.972656 11 29.972656 14.972656 L 29.972656 262.027344 C 29.972656 266 28.394531 269.808594 25.585938 272.617188 C 22.78125 275.421875 18.972656 277 15 277 C 11.027344 277 7.21875 275.421875 4.414062 272.617188 C 1.605469 269.808594 0.0273438 266 0.0273438 262.027344 L 0.0273438 14.972656 C 0.0273438 11 1.605469 7.195312 4.414062 4.386719 C 7.21875 1.578125 11.027344 0 15 0 Z M 15 0 " clip-rule="nonzero"/></clipPath></defs><g clip-path="url(#22c917b642)"><g clip-path="url(#bb94d38a48)"><path fill="#005fa0" d="M 0.0273438 0 L 29.972656 0 L 29.972656 277 L 0.0273438 277 Z M 0.0273438 0 " fill-opacity="1" fill-rule="nonzero"/></g></g></svg>