<svg xmlns="http://www.w3.org/2000/svg" xmlns:xlink="http://www.w3.org/1999/xlink" width="452" zoomAndPan="magnify" viewBox="0 0 339 111.749996" height="149" preserveAspectRatio="xMidYMid meet" version="1.0"><defs><g/><clipPath id="0a9461b731"><path d="M 78.179688 61.824219 L 338.558594 61.824219 L 338.558594 79.78125 L 78.179688 79.78125 Z M 78.179688 61.824219 " clip-rule="nonzero"/></clipPath><clipPath id="6006fd082b"><path d="M 82.667969 61.824219 L 333.929688 61.824219 C 335.121094 61.824219 336.261719 62.296875 337.105469 63.136719 C 337.945312 63.980469 338.417969 65.121094 338.417969 66.3125 L 338.417969 75.257812 C 338.417969 76.449219 337.945312 77.589844 337.105469 78.433594 C 336.261719 79.273438 335.121094 79.746094 333.929688 79.746094 L 82.667969 79.746094 C 81.476562 79.746094 80.335938 79.273438 79.492188 78.433594 C 78.652344 77.589844 78.179688 76.449219 78.179688 75.257812 L 78.179688 66.3125 C 78.179688 65.121094 78.652344 63.980469 79.492188 63.136719 C 80.335938 62.296875 81.476562 61.824219 82.667969 61.824219 Z M 82.667969 61.824219 " clip-rule="nonzero"/></clipPath><clipPath id="f3e752521e"><path d="M 120.480469 41.648438 L 338.214844 41.648438 L 338.214844 59.605469 L 120.480469 59.605469 Z M 120.480469 41.648438 " clip-rule="nonzero"/></clipPath><clipPath id="0ad4f77eea"><path d="M 124.96875 41.648438 L 333.933594 41.648438 C 335.125 41.648438 336.265625 42.121094 337.109375 42.960938 C 337.949219 43.804688 338.421875 44.945312 338.421875 46.136719 L 338.421875 55.082031 C 338.421875 56.273438 337.949219 57.414062 337.109375 58.257812 C 336.265625 59.097656 335.125 59.570312 333.933594 59.570312 L 124.96875 59.570312 C 123.78125 59.570312 122.636719 59.097656 121.796875 58.257812 C 120.953125 57.414062 120.480469 56.273438 120.480469 55.082031 L 120.480469 46.136719 C 120.480469 44.945312 120.953125 43.804688 121.796875 42.960938 C 122.636719 42.121094 123.78125 41.648438 124.96875 41.648438 Z M 124.96875 41.648438 " clip-rule="nonzero"/></clipPath><clipPath id="615ebcaef9"><path d="M 78.179688 21.390625 L 338.558594 21.390625 L 338.558594 39.347656 L 78.179688 39.347656 Z M 78.179688 21.390625 " clip-rule="nonzero"/></clipPath><clipPath id="183ce56268"><path d="M 82.667969 21.390625 L 333.929688 21.390625 C 335.121094 21.390625 336.261719 21.863281 337.105469 22.703125 C 337.945312 23.546875 338.417969 24.6875 338.417969 25.878906 L 338.417969 34.824219 C 338.417969 36.015625 337.945312 37.15625 337.105469 38 C 336.261719 38.839844 335.121094 39.3125 333.929688 39.3125 L 82.667969 39.3125 C 81.476562 39.3125 80.335938 38.839844 79.492188 38 C 78.652344 37.15625 78.179688 36.015625 78.179688 34.824219 L 78.179688 25.878906 C 78.179688 24.6875 78.652344 23.546875 79.492188 22.703125 C 80.335938 21.863281 81.476562 21.390625 82.667969 21.390625 Z M 82.667969 21.390625 " clip-rule="nonzero"/></clipPath><clipPath id="d38b1076f8"><path d="M 71.308594 1.214844 L 328.703125 1.214844 L 328.703125 19.175781 L 71.308594 19.175781 Z M 71.308594 1.214844 " clip-rule="nonzero"/></clipPath><clipPath id="8b7f65ad4a"><path d="M 75.800781 1.214844 L 324.320312 1.214844 C 325.511719 1.214844 326.652344 1.6875 327.496094 2.527344 C 328.335938 3.371094 328.808594 4.511719 328.808594 5.703125 L 328.808594 14.652344 C 328.808594 15.839844 328.335938 16.984375 327.496094 17.824219 C 326.652344 18.667969 325.511719 19.140625 324.320312 19.140625 L 75.800781 19.140625 C 74.609375 19.140625 73.46875 18.667969 72.625 17.824219 C 71.785156 16.984375 71.308594 15.839844 71.308594 14.652344 L 71.308594 5.703125 C 71.308594 4.511719 71.785156 3.371094 72.625 2.527344 C 73.46875 1.6875 74.609375 1.214844 75.800781 1.214844 Z M 75.800781 1.214844 " clip-rule="nonzero"/></clipPath></defs><g fill="#ffffff" fill-opacity="0.4"><g transform="translate(5.021144, 34.032122)"><g><path d="M 0.546875 0 L 0.546875 -7.375 L 2.46875 -7.375 L 2.46875 -1.546875 L 6.3125 -1.546875 L 6.3125 0 Z M 0.546875 0 "/></g></g></g><g fill="#ffffff" fill-opacity="0.4"><g transform="translate(11.143349, 34.032122)"><g><path d="M 5.015625 0.265625 C 4.078125 0.265625 3.257812 0.101562 2.5625 -0.21875 C 1.863281 -0.550781 1.316406 -1.015625 0.921875 -1.609375 C 0.535156 -2.203125 0.34375 -2.894531 0.34375 -3.6875 C 0.34375 -4.476562 0.535156 -5.171875 0.921875 -5.765625 C 1.316406 -6.359375 1.863281 -6.816406 2.5625 -7.140625 C 3.257812 -7.472656 4.078125 -7.640625 5.015625 -7.640625 C 5.953125 -7.640625 6.769531 -7.472656 7.46875 -7.140625 C 8.175781 -6.816406 8.722656 -6.359375 9.109375 -5.765625 C 9.503906 -5.171875 9.703125 -4.476562 9.703125 -3.6875 C 9.703125 -2.894531 9.503906 -2.203125 9.109375 -1.609375 C 8.722656 -1.015625 8.175781 -0.550781 7.46875 -0.21875 C 6.769531 0.101562 5.953125 0.265625 5.015625 0.265625 Z M 5.015625 -1.25 C 5.566406 -1.25 6.046875 -1.347656 6.453125 -1.546875 C 6.867188 -1.753906 7.191406 -2.039062 7.421875 -2.40625 C 7.648438 -2.78125 7.765625 -3.207031 7.765625 -3.6875 C 7.765625 -4.175781 7.648438 -4.601562 7.421875 -4.96875 C 7.191406 -5.332031 6.867188 -5.613281 6.453125 -5.8125 C 6.046875 -6.019531 5.566406 -6.125 5.015625 -6.125 C 4.472656 -6.125 3.992188 -6.019531 3.578125 -5.8125 C 3.160156 -5.613281 2.835938 -5.332031 2.609375 -4.96875 C 2.378906 -4.601562 2.265625 -4.175781 2.265625 -3.6875 C 2.265625 -3.207031 2.378906 -2.78125 2.609375 -2.40625 C 2.835938 -2.039062 3.160156 -1.753906 3.578125 -1.546875 C 3.992188 -1.347656 4.472656 -1.25 5.015625 -1.25 Z M 5.015625 -1.25 "/></g></g></g><g fill="#ffffff" fill-opacity="0.4"><g transform="translate(20.849995, 34.032122)"><g><path d="M 4.953125 0.234375 C 4.015625 0.234375 3.195312 0.078125 2.5 -0.234375 C 1.8125 -0.554688 1.28125 -1.007812 0.90625 -1.59375 C 0.53125 -2.175781 0.34375 -2.875 0.34375 -3.6875 C 0.34375 -4.488281 0.519531 -5.179688 0.875 -5.765625 C 1.226562 -6.359375 1.726562 -6.8125 2.375 -7.125 C 3.03125 -7.445312 3.800781 -7.609375 4.6875 -7.609375 C 5.363281 -7.609375 5.976562 -7.5 6.53125 -7.28125 C 7.082031 -7.070312 7.539062 -6.765625 7.90625 -6.359375 C 8.28125 -5.960938 8.53125 -5.492188 8.65625 -4.953125 L 6.90625 -4.53125 C 6.78125 -5.007812 6.519531 -5.390625 6.125 -5.671875 C 5.738281 -5.953125 5.269531 -6.09375 4.71875 -6.09375 C 4.226562 -6.09375 3.796875 -5.992188 3.421875 -5.796875 C 3.054688 -5.597656 2.769531 -5.316406 2.5625 -4.953125 C 2.363281 -4.597656 2.265625 -4.175781 2.265625 -3.6875 C 2.265625 -3.195312 2.375 -2.769531 2.59375 -2.40625 C 2.820312 -2.050781 3.140625 -1.773438 3.546875 -1.578125 C 3.960938 -1.378906 4.445312 -1.28125 5 -1.28125 C 5.65625 -1.28125 6.210938 -1.445312 6.671875 -1.78125 C 7.128906 -2.113281 7.414062 -2.5625 7.53125 -3.125 L 9.328125 -2.8125 C 9.210938 -2.195312 8.957031 -1.65625 8.5625 -1.1875 C 8.175781 -0.726562 7.671875 -0.375 7.046875 -0.125 C 6.429688 0.113281 5.734375 0.234375 4.953125 0.234375 Z M 4.953125 0.234375 "/></g></g></g><g fill="#ffffff" fill-opacity="0.4"><g transform="translate(30.038662, 34.032122)"><g><path d="M 0.046875 0 L 3.25 -7.375 L 5.546875 -7.375 L 8.71875 0 L 6.71875 0 L 6.125 -1.453125 L 2.625 -1.453125 L 2.046875 0 Z M 3.03125 -2.703125 L 5.734375 -2.703125 L 4.40625 -6 L 4.375 -6 Z M 3.03125 -2.703125 "/></g></g></g><g fill="#ffffff" fill-opacity="0.4"><g transform="translate(38.471078, 34.032122)"><g><path d="M 2.765625 0 L 2.765625 -5.859375 L 0.109375 -5.859375 L 0.109375 -7.375 L 7.34375 -7.375 L 7.34375 -5.859375 L 4.6875 -5.859375 L 4.6875 0 Z M 2.765625 0 "/></g></g></g><g fill="#ffffff" fill-opacity="0.4"><g transform="translate(45.598172, 34.032122)"><g><path d="M 0.546875 0 L 0.546875 -7.375 L 2.46875 -7.375 L 2.46875 0 Z M 0.546875 0 "/></g></g></g><g fill="#ffffff" fill-opacity="0.4"><g transform="translate(48.280974, 34.032122)"><g><path d="M 5.015625 0.265625 C 4.078125 0.265625 3.257812 0.101562 2.5625 -0.21875 C 1.863281 -0.550781 1.316406 -1.015625 0.921875 -1.609375 C 0.535156 -2.203125 0.34375 -2.894531 0.34375 -3.6875 C 0.34375 -4.476562 0.535156 -5.171875 0.921875 -5.765625 C 1.316406 -6.359375 1.863281 -6.816406 2.5625 -7.140625 C 3.257812 -7.472656 4.078125 -7.640625 5.015625 -7.640625 C 5.953125 -7.640625 6.769531 -7.472656 7.46875 -7.140625 C 8.175781 -6.816406 8.722656 -6.359375 9.109375 -5.765625 C 9.503906 -5.171875 9.703125 -4.476562 9.703125 -3.6875 C 9.703125 -2.894531 9.503906 -2.203125 9.109375 -1.609375 C 8.722656 -1.015625 8.175781 -0.550781 7.46875 -0.21875 C 6.769531 0.101562 5.953125 0.265625 5.015625 0.265625 Z M 5.015625 -1.25 C 5.566406 -1.25 6.046875 -1.347656 6.453125 -1.546875 C 6.867188 -1.753906 7.191406 -2.039062 7.421875 -2.40625 C 7.648438 -2.78125 7.765625 -3.207031 7.765625 -3.6875 C 7.765625 -4.175781 7.648438 -4.601562 7.421875 -4.96875 C 7.191406 -5.332031 6.867188 -5.613281 6.453125 -5.8125 C 6.046875 -6.019531 5.566406 -6.125 5.015625 -6.125 C 4.472656 -6.125 3.992188 -6.019531 3.578125 -5.8125 C 3.160156 -5.613281 2.835938 -5.332031 2.609375 -4.96875 C 2.378906 -4.601562 2.265625 -4.175781 2.265625 -3.6875 C 2.265625 -3.207031 2.378906 -2.78125 2.609375 -2.40625 C 2.835938 -2.039062 3.160156 -1.753906 3.578125 -1.546875 C 3.992188 -1.347656 4.472656 -1.25 5.015625 -1.25 Z M 5.015625 -1.25 "/></g></g></g><g fill="#ffffff" fill-opacity="0.4"><g transform="translate(57.987623, 34.032122)"><g><path d="M 0.546875 0 L 0.546875 -7.375 L 2.84375 -7.375 L 6.65625 -2.0625 L 6.671875 -2.0625 L 6.671875 -7.375 L 8.5 -7.375 L 8.5 0 L 6.203125 0 L 2.375 -5.328125 L 2.375 0 Z M 0.546875 0 "/></g></g></g><g fill="#ffffff" fill-opacity="0.4"><g transform="translate(66.710102, 34.032122)"><g/></g></g><g fill="#ffffff" fill-opacity="0.4"><g transform="translate(68.874921, 34.032122)"><g><path d="M 1.3125 -3.703125 C 1.007812 -3.703125 0.765625 -3.789062 0.578125 -3.96875 C 0.390625 -4.144531 0.296875 -4.367188 0.296875 -4.640625 C 0.296875 -4.910156 0.390625 -5.132812 0.578125 -5.3125 C 0.765625 -5.488281 1.007812 -5.578125 1.3125 -5.578125 C 1.601562 -5.578125 1.84375 -5.488281 2.03125 -5.3125 C 2.226562 -5.132812 2.328125 -4.910156 2.328125 -4.640625 C 2.328125 -4.367188 2.226562 -4.144531 2.03125 -3.96875 C 1.84375 -3.789062 1.601562 -3.703125 1.3125 -3.703125 Z M 1.3125 0.109375 C 1.007812 0.109375 0.765625 0.0234375 0.578125 -0.140625 C 0.390625 -0.316406 0.296875 -0.539062 0.296875 -0.8125 C 0.296875 -1.09375 0.390625 -1.316406 0.578125 -1.484375 C 0.765625 -1.660156 1.007812 -1.75 1.3125 -1.75 C 1.601562 -1.75 1.84375 -1.660156 2.03125 -1.484375 C 2.226562 -1.316406 2.328125 -1.09375 2.328125 -0.8125 C 2.328125 -0.539062 2.226562 -0.316406 2.03125 -0.140625 C 1.84375 0.0234375 1.601562 0.109375 1.3125 0.109375 Z M 1.3125 0.109375 "/></g></g></g><g fill="#004aad" fill-opacity="1"><g transform="translate(4.562831, 33.573809)"><g><path d="M 0.546875 0 L 0.546875 -7.375 L 2.46875 -7.375 L 2.46875 -1.546875 L 6.3125 -1.546875 L 6.3125 0 Z M 0.546875 0 "/></g></g></g><g fill="#004aad" fill-opacity="1"><g transform="translate(10.685035, 33.573809)"><g><path d="M 5.015625 0.265625 C 4.078125 0.265625 3.257812 0.101562 2.5625 -0.21875 C 1.863281 -0.550781 1.316406 -1.015625 0.921875 -1.609375 C 0.535156 -2.203125 0.34375 -2.894531 0.34375 -3.6875 C 0.34375 -4.476562 0.535156 -5.171875 0.921875 -5.765625 C 1.316406 -6.359375 1.863281 -6.816406 2.5625 -7.140625 C 3.257812 -7.472656 4.078125 -7.640625 5.015625 -7.640625 C 5.953125 -7.640625 6.769531 -7.472656 7.46875 -7.140625 C 8.175781 -6.816406 8.722656 -6.359375 9.109375 -5.765625 C 9.503906 -5.171875 9.703125 -4.476562 9.703125 -3.6875 C 9.703125 -2.894531 9.503906 -2.203125 9.109375 -1.609375 C 8.722656 -1.015625 8.175781 -0.550781 7.46875 -0.21875 C 6.769531 0.101562 5.953125 0.265625 5.015625 0.265625 Z M 5.015625 -1.25 C 5.566406 -1.25 6.046875 -1.347656 6.453125 -1.546875 C 6.867188 -1.753906 7.191406 -2.039062 7.421875 -2.40625 C 7.648438 -2.78125 7.765625 -3.207031 7.765625 -3.6875 C 7.765625 -4.175781 7.648438 -4.601562 7.421875 -4.96875 C 7.191406 -5.332031 6.867188 -5.613281 6.453125 -5.8125 C 6.046875 -6.019531 5.566406 -6.125 5.015625 -6.125 C 4.472656 -6.125 3.992188 -6.019531 3.578125 -5.8125 C 3.160156 -5.613281 2.835938 -5.332031 2.609375 -4.96875 C 2.378906 -4.601562 2.265625 -4.175781 2.265625 -3.6875 C 2.265625 -3.207031 2.378906 -2.78125 2.609375 -2.40625 C 2.835938 -2.039062 3.160156 -1.753906 3.578125 -1.546875 C 3.992188 -1.347656 4.472656 -1.25 5.015625 -1.25 Z M 5.015625 -1.25 "/></g></g></g><g fill="#004aad" fill-opacity="1"><g transform="translate(20.391682, 33.573809)"><g><path d="M 4.953125 0.234375 C 4.015625 0.234375 3.195312 0.078125 2.5 -0.234375 C 1.8125 -0.554688 1.28125 -1.007812 0.90625 -1.59375 C 0.53125 -2.175781 0.34375 -2.875 0.34375 -3.6875 C 0.34375 -4.488281 0.519531 -5.179688 0.875 -5.765625 C 1.226562 -6.359375 1.726562 -6.8125 2.375 -7.125 C 3.03125 -7.445312 3.800781 -7.609375 4.6875 -7.609375 C 5.363281 -7.609375 5.976562 -7.5 6.53125 -7.28125 C 7.082031 -7.070312 7.539062 -6.765625 7.90625 -6.359375 C 8.28125 -5.960938 8.53125 -5.492188 8.65625 -4.953125 L 6.90625 -4.53125 C 6.78125 -5.007812 6.519531 -5.390625 6.125 -5.671875 C 5.738281 -5.953125 5.269531 -6.09375 4.71875 -6.09375 C 4.226562 -6.09375 3.796875 -5.992188 3.421875 -5.796875 C 3.054688 -5.597656 2.769531 -5.316406 2.5625 -4.953125 C 2.363281 -4.597656 2.265625 -4.175781 2.265625 -3.6875 C 2.265625 -3.195312 2.375 -2.769531 2.59375 -2.40625 C 2.820312 -2.050781 3.140625 -1.773438 3.546875 -1.578125 C 3.960938 -1.378906 4.445312 -1.28125 5 -1.28125 C 5.65625 -1.28125 6.210938 -1.445312 6.671875 -1.78125 C 7.128906 -2.113281 7.414062 -2.5625 7.53125 -3.125 L 9.328125 -2.8125 C 9.210938 -2.195312 8.957031 -1.65625 8.5625 -1.1875 C 8.175781 -0.726562 7.671875 -0.375 7.046875 -0.125 C 6.429688 0.113281 5.734375 0.234375 4.953125 0.234375 Z M 4.953125 0.234375 "/></g></g></g><g fill="#004aad" fill-opacity="1"><g transform="translate(29.580348, 33.573809)"><g><path d="M 0.046875 0 L 3.25 -7.375 L 5.546875 -7.375 L 8.71875 0 L 6.71875 0 L 6.125 -1.453125 L 2.625 -1.453125 L 2.046875 0 Z M 3.03125 -2.703125 L 5.734375 -2.703125 L 4.40625 -6 L 4.375 -6 Z M 3.03125 -2.703125 "/></g></g></g><g fill="#004aad" fill-opacity="1"><g transform="translate(38.012765, 33.573809)"><g><path d="M 2.765625 0 L 2.765625 -5.859375 L 0.109375 -5.859375 L 0.109375 -7.375 L 7.34375 -7.375 L 7.34375 -5.859375 L 4.6875 -5.859375 L 4.6875 0 Z M 2.765625 0 "/></g></g></g><g fill="#004aad" fill-opacity="1"><g transform="translate(45.139859, 33.573809)"><g><path d="M 0.546875 0 L 0.546875 -7.375 L 2.46875 -7.375 L 2.46875 0 Z M 0.546875 0 "/></g></g></g><g fill="#004aad" fill-opacity="1"><g transform="translate(47.82266, 33.573809)"><g><path d="M 5.015625 0.265625 C 4.078125 0.265625 3.257812 0.101562 2.5625 -0.21875 C 1.863281 -0.550781 1.316406 -1.015625 0.921875 -1.609375 C 0.535156 -2.203125 0.34375 -2.894531 0.34375 -3.6875 C 0.34375 -4.476562 0.535156 -5.171875 0.921875 -5.765625 C 1.316406 -6.359375 1.863281 -6.816406 2.5625 -7.140625 C 3.257812 -7.472656 4.078125 -7.640625 5.015625 -7.640625 C 5.953125 -7.640625 6.769531 -7.472656 7.46875 -7.140625 C 8.175781 -6.816406 8.722656 -6.359375 9.109375 -5.765625 C 9.503906 -5.171875 9.703125 -4.476562 9.703125 -3.6875 C 9.703125 -2.894531 9.503906 -2.203125 9.109375 -1.609375 C 8.722656 -1.015625 8.175781 -0.550781 7.46875 -0.21875 C 6.769531 0.101562 5.953125 0.265625 5.015625 0.265625 Z M 5.015625 -1.25 C 5.566406 -1.25 6.046875 -1.347656 6.453125 -1.546875 C 6.867188 -1.753906 7.191406 -2.039062 7.421875 -2.40625 C 7.648438 -2.78125 7.765625 -3.207031 7.765625 -3.6875 C 7.765625 -4.175781 7.648438 -4.601562 7.421875 -4.96875 C 7.191406 -5.332031 6.867188 -5.613281 6.453125 -5.8125 C 6.046875 -6.019531 5.566406 -6.125 5.015625 -6.125 C 4.472656 -6.125 3.992188 -6.019531 3.578125 -5.8125 C 3.160156 -5.613281 2.835938 -5.332031 2.609375 -4.96875 C 2.378906 -4.601562 2.265625 -4.175781 2.265625 -3.6875 C 2.265625 -3.207031 2.378906 -2.78125 2.609375 -2.40625 C 2.835938 -2.039062 3.160156 -1.753906 3.578125 -1.546875 C 3.992188 -1.347656 4.472656 -1.25 5.015625 -1.25 Z M 5.015625 -1.25 "/></g></g></g><g fill="#004aad" fill-opacity="1"><g transform="translate(57.529309, 33.573809)"><g><path d="M 0.546875 0 L 0.546875 -7.375 L 2.84375 -7.375 L 6.65625 -2.0625 L 6.671875 -2.0625 L 6.671875 -7.375 L 8.5 -7.375 L 8.5 0 L 6.203125 0 L 2.375 -5.328125 L 2.375 0 Z M 0.546875 0 "/></g></g></g><g fill="#004aad" fill-opacity="1"><g transform="translate(66.251788, 33.573809)"><g/></g></g><g fill="#004aad" fill-opacity="1"><g transform="translate(68.416608, 33.573809)"><g><path d="M 1.3125 -3.703125 C 1.007812 -3.703125 0.765625 -3.789062 0.578125 -3.96875 C 0.390625 -4.144531 0.296875 -4.367188 0.296875 -4.640625 C 0.296875 -4.910156 0.390625 -5.132812 0.578125 -5.3125 C 0.765625 -5.488281 1.007812 -5.578125 1.3125 -5.578125 C 1.601562 -5.578125 1.84375 -5.488281 2.03125 -5.3125 C 2.226562 -5.132812 2.328125 -4.910156 2.328125 -4.640625 C 2.328125 -4.367188 2.226562 -4.144531 2.03125 -3.96875 C 1.84375 -3.789062 1.601562 -3.703125 1.3125 -3.703125 Z M 1.3125 0.109375 C 1.007812 0.109375 0.765625 0.0234375 0.578125 -0.140625 C 0.390625 -0.316406 0.296875 -0.539062 0.296875 -0.8125 C 0.296875 -1.09375 0.390625 -1.316406 0.578125 -1.484375 C 0.765625 -1.660156 1.007812 -1.75 1.3125 -1.75 C 1.601562 -1.75 1.84375 -1.660156 2.03125 -1.484375 C 2.226562 -1.316406 2.328125 -1.09375 2.328125 -0.8125 C 2.328125 -0.539062 2.226562 -0.316406 2.03125 -0.140625 C 1.84375 0.0234375 1.601562 0.109375 1.3125 0.109375 Z M 1.3125 0.109375 "/></g></g></g><g fill="#ffffff" fill-opacity="0.4"><g transform="translate(5.021144, 54.705632)"><g><path d="M 4.953125 0.234375 C 4.015625 0.234375 3.195312 0.078125 2.5 -0.234375 C 1.8125 -0.554688 1.28125 -1.007812 0.90625 -1.59375 C 0.53125 -2.175781 0.34375 -2.875 0.34375 -3.6875 C 0.34375 -4.488281 0.519531 -5.179688 0.875 -5.765625 C 1.226562 -6.359375 1.726562 -6.8125 2.375 -7.125 C 3.03125 -7.445312 3.800781 -7.609375 4.6875 -7.609375 C 5.363281 -7.609375 5.976562 -7.5 6.53125 -7.28125 C 7.082031 -7.070312 7.539062 -6.765625 7.90625 -6.359375 C 8.28125 -5.960938 8.53125 -5.492188 8.65625 -4.953125 L 6.90625 -4.53125 C 6.78125 -5.007812 6.519531 -5.390625 6.125 -5.671875 C 5.738281 -5.953125 5.269531 -6.09375 4.71875 -6.09375 C 4.226562 -6.09375 3.796875 -5.992188 3.421875 -5.796875 C 3.054688 -5.597656 2.769531 -5.316406 2.5625 -4.953125 C 2.363281 -4.597656 2.265625 -4.175781 2.265625 -3.6875 C 2.265625 -3.195312 2.375 -2.769531 2.59375 -2.40625 C 2.820312 -2.050781 3.140625 -1.773438 3.546875 -1.578125 C 3.960938 -1.378906 4.445312 -1.28125 5 -1.28125 C 5.65625 -1.28125 6.210938 -1.445312 6.671875 -1.78125 C 7.128906 -2.113281 7.414062 -2.5625 7.53125 -3.125 L 9.328125 -2.8125 C 9.210938 -2.195312 8.957031 -1.65625 8.5625 -1.1875 C 8.175781 -0.726562 7.671875 -0.375 7.046875 -0.125 C 6.429688 0.113281 5.734375 0.234375 4.953125 0.234375 Z M 4.953125 0.234375 "/></g></g></g><g fill="#ffffff" fill-opacity="0.4"><g transform="translate(14.209811, 54.705632)"><g><path d="M 5.015625 0.265625 C 4.078125 0.265625 3.257812 0.101562 2.5625 -0.21875 C 1.863281 -0.550781 1.316406 -1.015625 0.921875 -1.609375 C 0.535156 -2.203125 0.34375 -2.894531 0.34375 -3.6875 C 0.34375 -4.476562 0.535156 -5.171875 0.921875 -5.765625 C 1.316406 -6.359375 1.863281 -6.816406 2.5625 -7.140625 C 3.257812 -7.472656 4.078125 -7.640625 5.015625 -7.640625 C 5.953125 -7.640625 6.769531 -7.472656 7.46875 -7.140625 C 8.175781 -6.816406 8.722656 -6.359375 9.109375 -5.765625 C 9.503906 -5.171875 9.703125 -4.476562 9.703125 -3.6875 C 9.703125 -2.894531 9.503906 -2.203125 9.109375 -1.609375 C 8.722656 -1.015625 8.175781 -0.550781 7.46875 -0.21875 C 6.769531 0.101562 5.953125 0.265625 5.015625 0.265625 Z M 5.015625 -1.25 C 5.566406 -1.25 6.046875 -1.347656 6.453125 -1.546875 C 6.867188 -1.753906 7.191406 -2.039062 7.421875 -2.40625 C 7.648438 -2.78125 7.765625 -3.207031 7.765625 -3.6875 C 7.765625 -4.175781 7.648438 -4.601562 7.421875 -4.96875 C 7.191406 -5.332031 6.867188 -5.613281 6.453125 -5.8125 C 6.046875 -6.019531 5.566406 -6.125 5.015625 -6.125 C 4.472656 -6.125 3.992188 -6.019531 3.578125 -5.8125 C 3.160156 -5.613281 2.835938 -5.332031 2.609375 -4.96875 C 2.378906 -4.601562 2.265625 -4.175781 2.265625 -3.6875 C 2.265625 -3.207031 2.378906 -2.78125 2.609375 -2.40625 C 2.835938 -2.039062 3.160156 -1.753906 3.578125 -1.546875 C 3.992188 -1.347656 4.472656 -1.25 5.015625 -1.25 Z M 5.015625 -1.25 "/></g></g></g><g fill="#ffffff" fill-opacity="0.4"><g transform="translate(23.916457, 54.705632)"><g><path d="M 0.546875 0 L 0.546875 -7.375 L 3.078125 -7.375 L 5.625 -1.921875 L 5.640625 -1.921875 L 8.1875 -7.375 L 10.71875 -7.375 L 10.71875 0 L 8.921875 0 L 8.921875 -5.203125 L 8.90625 -5.203125 L 6.46875 0 L 4.8125 0 L 2.359375 -5.203125 L 2.34375 -5.203125 L 2.34375 0 Z M 0.546875 0 "/></g></g></g><g fill="#ffffff" fill-opacity="0.4"><g transform="translate(34.855907, 54.705632)"><g><path d="M 0.546875 0 L 0.546875 -7.375 L 3.078125 -7.375 L 5.625 -1.921875 L 5.640625 -1.921875 L 8.1875 -7.375 L 10.71875 -7.375 L 10.71875 0 L 8.921875 0 L 8.921875 -5.203125 L 8.90625 -5.203125 L 6.46875 0 L 4.8125 0 L 2.359375 -5.203125 L 2.34375 -5.203125 L 2.34375 0 Z M 0.546875 0 "/></g></g></g><g fill="#ffffff" fill-opacity="0.4"><g transform="translate(45.795356, 54.705632)"><g><path d="M 4.375 0.234375 C 3.5625 0.234375 2.863281 0.101562 2.28125 -0.15625 C 1.695312 -0.414062 1.242188 -0.796875 0.921875 -1.296875 C 0.609375 -1.796875 0.453125 -2.398438 0.453125 -3.109375 L 0.453125 -7.375 L 2.375 -7.375 L 2.375 -3.1875 C 2.375 -2.59375 2.550781 -2.128906 2.90625 -1.796875 C 3.269531 -1.472656 3.757812 -1.3125 4.375 -1.3125 C 4.976562 -1.3125 5.457031 -1.472656 5.8125 -1.796875 C 6.164062 -2.117188 6.34375 -2.582031 6.34375 -3.1875 L 6.34375 -7.375 L 8.28125 -7.375 L 8.28125 -3.109375 C 8.28125 -2.398438 8.117188 -1.796875 7.796875 -1.296875 C 7.484375 -0.796875 7.035156 -0.414062 6.453125 -0.15625 C 5.867188 0.101562 5.175781 0.234375 4.375 0.234375 Z M 4.375 0.234375 "/></g></g></g><g fill="#ffffff" fill-opacity="0.4"><g transform="translate(54.196688, 54.705632)"><g><path d="M 0.546875 0 L 0.546875 -7.375 L 2.84375 -7.375 L 6.65625 -2.0625 L 6.671875 -2.0625 L 6.671875 -7.375 L 8.5 -7.375 L 8.5 0 L 6.203125 0 L 2.375 -5.328125 L 2.375 0 Z M 0.546875 0 "/></g></g></g><g fill="#ffffff" fill-opacity="0.4"><g transform="translate(62.919167, 54.705632)"><g><path d="M 0.546875 0 L 0.546875 -7.375 L 2.46875 -7.375 L 2.46875 0 Z M 0.546875 0 "/></g></g></g><g fill="#ffffff" fill-opacity="0.4"><g transform="translate(65.601966, 54.705632)"><g><path d="M 4.953125 0.234375 C 4.015625 0.234375 3.195312 0.078125 2.5 -0.234375 C 1.8125 -0.554688 1.28125 -1.007812 0.90625 -1.59375 C 0.53125 -2.175781 0.34375 -2.875 0.34375 -3.6875 C 0.34375 -4.488281 0.519531 -5.179688 0.875 -5.765625 C 1.226562 -6.359375 1.726562 -6.8125 2.375 -7.125 C 3.03125 -7.445312 3.800781 -7.609375 4.6875 -7.609375 C 5.363281 -7.609375 5.976562 -7.5 6.53125 -7.28125 C 7.082031 -7.070312 7.539062 -6.765625 7.90625 -6.359375 C 8.28125 -5.960938 8.53125 -5.492188 8.65625 -4.953125 L 6.90625 -4.53125 C 6.78125 -5.007812 6.519531 -5.390625 6.125 -5.671875 C 5.738281 -5.953125 5.269531 -6.09375 4.71875 -6.09375 C 4.226562 -6.09375 3.796875 -5.992188 3.421875 -5.796875 C 3.054688 -5.597656 2.769531 -5.316406 2.5625 -4.953125 C 2.363281 -4.597656 2.265625 -4.175781 2.265625 -3.6875 C 2.265625 -3.195312 2.375 -2.769531 2.59375 -2.40625 C 2.820312 -2.050781 3.140625 -1.773438 3.546875 -1.578125 C 3.960938 -1.378906 4.445312 -1.28125 5 -1.28125 C 5.65625 -1.28125 6.210938 -1.445312 6.671875 -1.78125 C 7.128906 -2.113281 7.414062 -2.5625 7.53125 -3.125 L 9.328125 -2.8125 C 9.210938 -2.195312 8.957031 -1.65625 8.5625 -1.1875 C 8.175781 -0.726562 7.671875 -0.375 7.046875 -0.125 C 6.429688 0.113281 5.734375 0.234375 4.953125 0.234375 Z M 4.953125 0.234375 "/></g></g></g><g fill="#ffffff" fill-opacity="0.4"><g transform="translate(74.79063, 54.705632)"><g><path d="M 0.046875 0 L 3.25 -7.375 L 5.546875 -7.375 L 8.71875 0 L 6.71875 0 L 6.125 -1.453125 L 2.625 -1.453125 L 2.046875 0 Z M 3.03125 -2.703125 L 5.734375 -2.703125 L 4.40625 -6 L 4.375 -6 Z M 3.03125 -2.703125 "/></g></g></g><g fill="#ffffff" fill-opacity="0.4"><g transform="translate(83.223044, 54.705632)"><g><path d="M 2.765625 0 L 2.765625 -5.859375 L 0.109375 -5.859375 L 0.109375 -7.375 L 7.34375 -7.375 L 7.34375 -5.859375 L 4.6875 -5.859375 L 4.6875 0 Z M 2.765625 0 "/></g></g></g><g fill="#ffffff" fill-opacity="0.4"><g transform="translate(90.350135, 54.705632)"><g><path d="M 0.546875 0 L 0.546875 -7.375 L 2.46875 -7.375 L 2.46875 0 Z M 0.546875 0 "/></g></g></g><g fill="#ffffff" fill-opacity="0.4"><g transform="translate(93.032933, 54.705632)"><g><path d="M 5.015625 0.265625 C 4.078125 0.265625 3.257812 0.101562 2.5625 -0.21875 C 1.863281 -0.550781 1.316406 -1.015625 0.921875 -1.609375 C 0.535156 -2.203125 0.34375 -2.894531 0.34375 -3.6875 C 0.34375 -4.476562 0.535156 -5.171875 0.921875 -5.765625 C 1.316406 -6.359375 1.863281 -6.816406 2.5625 -7.140625 C 3.257812 -7.472656 4.078125 -7.640625 5.015625 -7.640625 C 5.953125 -7.640625 6.769531 -7.472656 7.46875 -7.140625 C 8.175781 -6.816406 8.722656 -6.359375 9.109375 -5.765625 C 9.503906 -5.171875 9.703125 -4.476562 9.703125 -3.6875 C 9.703125 -2.894531 9.503906 -2.203125 9.109375 -1.609375 C 8.722656 -1.015625 8.175781 -0.550781 7.46875 -0.21875 C 6.769531 0.101562 5.953125 0.265625 5.015625 0.265625 Z M 5.015625 -1.25 C 5.566406 -1.25 6.046875 -1.347656 6.453125 -1.546875 C 6.867188 -1.753906 7.191406 -2.039062 7.421875 -2.40625 C 7.648438 -2.78125 7.765625 -3.207031 7.765625 -3.6875 C 7.765625 -4.175781 7.648438 -4.601562 7.421875 -4.96875 C 7.191406 -5.332031 6.867188 -5.613281 6.453125 -5.8125 C 6.046875 -6.019531 5.566406 -6.125 5.015625 -6.125 C 4.472656 -6.125 3.992188 -6.019531 3.578125 -5.8125 C 3.160156 -5.613281 2.835938 -5.332031 2.609375 -4.96875 C 2.378906 -4.601562 2.265625 -4.175781 2.265625 -3.6875 C 2.265625 -3.207031 2.378906 -2.78125 2.609375 -2.40625 C 2.835938 -2.039062 3.160156 -1.753906 3.578125 -1.546875 C 3.992188 -1.347656 4.472656 -1.25 5.015625 -1.25 Z M 5.015625 -1.25 "/></g></g></g><g fill="#ffffff" fill-opacity="0.4"><g transform="translate(102.739577, 54.705632)"><g><path d="M 0.546875 0 L 0.546875 -7.375 L 2.84375 -7.375 L 6.65625 -2.0625 L 6.671875 -2.0625 L 6.671875 -7.375 L 8.5 -7.375 L 8.5 0 L 6.203125 0 L 2.375 -5.328125 L 2.375 0 Z M 0.546875 0 "/></g></g></g><g fill="#ffffff" fill-opacity="0.4"><g transform="translate(111.462056, 54.705632)"><g/></g></g><g fill="#ffffff" fill-opacity="0.4"><g transform="translate(113.626875, 54.705632)"><g><path d="M 1.3125 -3.703125 C 1.007812 -3.703125 0.765625 -3.789062 0.578125 -3.96875 C 0.390625 -4.144531 0.296875 -4.367188 0.296875 -4.640625 C 0.296875 -4.910156 0.390625 -5.132812 0.578125 -5.3125 C 0.765625 -5.488281 1.007812 -5.578125 1.3125 -5.578125 C 1.601562 -5.578125 1.84375 -5.488281 2.03125 -5.3125 C 2.226562 -5.132812 2.328125 -4.910156 2.328125 -4.640625 C 2.328125 -4.367188 2.226562 -4.144531 2.03125 -3.96875 C 1.84375 -3.789062 1.601562 -3.703125 1.3125 -3.703125 Z M 1.3125 0.109375 C 1.007812 0.109375 0.765625 0.0234375 0.578125 -0.140625 C 0.390625 -0.316406 0.296875 -0.539062 0.296875 -0.8125 C 0.296875 -1.09375 0.390625 -1.316406 0.578125 -1.484375 C 0.765625 -1.660156 1.007812 -1.75 1.3125 -1.75 C 1.601562 -1.75 1.84375 -1.660156 2.03125 -1.484375 C 2.226562 -1.316406 2.328125 -1.09375 2.328125 -0.8125 C 2.328125 -0.539062 2.226562 -0.316406 2.03125 -0.140625 C 1.84375 0.0234375 1.601562 0.109375 1.3125 0.109375 Z M 1.3125 0.109375 "/></g></g></g><g fill="#004aad" fill-opacity="1"><g transform="translate(4.562831, 54.247319)"><g><path d="M 4.953125 0.234375 C 4.015625 0.234375 3.195312 0.078125 2.5 -0.234375 C 1.8125 -0.554688 1.28125 -1.007812 0.90625 -1.59375 C 0.53125 -2.175781 0.34375 -2.875 0.34375 -3.6875 C 0.34375 -4.488281 0.519531 -5.179688 0.875 -5.765625 C 1.226562 -6.359375 1.726562 -6.8125 2.375 -7.125 C 3.03125 -7.445312 3.800781 -7.609375 4.6875 -7.609375 C 5.363281 -7.609375 5.976562 -7.5 6.53125 -7.28125 C 7.082031 -7.070312 7.539062 -6.765625 7.90625 -6.359375 C 8.28125 -5.960938 8.53125 -5.492188 8.65625 -4.953125 L 6.90625 -4.53125 C 6.78125 -5.007812 6.519531 -5.390625 6.125 -5.671875 C 5.738281 -5.953125 5.269531 -6.09375 4.71875 -6.09375 C 4.226562 -6.09375 3.796875 -5.992188 3.421875 -5.796875 C 3.054688 -5.597656 2.769531 -5.316406 2.5625 -4.953125 C 2.363281 -4.597656 2.265625 -4.175781 2.265625 -3.6875 C 2.265625 -3.195312 2.375 -2.769531 2.59375 -2.40625 C 2.820312 -2.050781 3.140625 -1.773438 3.546875 -1.578125 C 3.960938 -1.378906 4.445312 -1.28125 5 -1.28125 C 5.65625 -1.28125 6.210938 -1.445312 6.671875 -1.78125 C 7.128906 -2.113281 7.414062 -2.5625 7.53125 -3.125 L 9.328125 -2.8125 C 9.210938 -2.195312 8.957031 -1.65625 8.5625 -1.1875 C 8.175781 -0.726562 7.671875 -0.375 7.046875 -0.125 C 6.429688 0.113281 5.734375 0.234375 4.953125 0.234375 Z M 4.953125 0.234375 "/></g></g></g><g fill="#004aad" fill-opacity="1"><g transform="translate(13.751497, 54.247319)"><g><path d="M 5.015625 0.265625 C 4.078125 0.265625 3.257812 0.101562 2.5625 -0.21875 C 1.863281 -0.550781 1.316406 -1.015625 0.921875 -1.609375 C 0.535156 -2.203125 0.34375 -2.894531 0.34375 -3.6875 C 0.34375 -4.476562 0.535156 -5.171875 0.921875 -5.765625 C 1.316406 -6.359375 1.863281 -6.816406 2.5625 -7.140625 C 3.257812 -7.472656 4.078125 -7.640625 5.015625 -7.640625 C 5.953125 -7.640625 6.769531 -7.472656 7.46875 -7.140625 C 8.175781 -6.816406 8.722656 -6.359375 9.109375 -5.765625 C 9.503906 -5.171875 9.703125 -4.476562 9.703125 -3.6875 C 9.703125 -2.894531 9.503906 -2.203125 9.109375 -1.609375 C 8.722656 -1.015625 8.175781 -0.550781 7.46875 -0.21875 C 6.769531 0.101562 5.953125 0.265625 5.015625 0.265625 Z M 5.015625 -1.25 C 5.566406 -1.25 6.046875 -1.347656 6.453125 -1.546875 C 6.867188 -1.753906 7.191406 -2.039062 7.421875 -2.40625 C 7.648438 -2.78125 7.765625 -3.207031 7.765625 -3.6875 C 7.765625 -4.175781 7.648438 -4.601562 7.421875 -4.96875 C 7.191406 -5.332031 6.867188 -5.613281 6.453125 -5.8125 C 6.046875 -6.019531 5.566406 -6.125 5.015625 -6.125 C 4.472656 -6.125 3.992188 -6.019531 3.578125 -5.8125 C 3.160156 -5.613281 2.835938 -5.332031 2.609375 -4.96875 C 2.378906 -4.601562 2.265625 -4.175781 2.265625 -3.6875 C 2.265625 -3.207031 2.378906 -2.78125 2.609375 -2.40625 C 2.835938 -2.039062 3.160156 -1.753906 3.578125 -1.546875 C 3.992188 -1.347656 4.472656 -1.25 5.015625 -1.25 Z M 5.015625 -1.25 "/></g></g></g><g fill="#004aad" fill-opacity="1"><g transform="translate(23.458144, 54.247319)"><g><path d="M 0.546875 0 L 0.546875 -7.375 L 3.078125 -7.375 L 5.625 -1.921875 L 5.640625 -1.921875 L 8.1875 -7.375 L 10.71875 -7.375 L 10.71875 0 L 8.921875 0 L 8.921875 -5.203125 L 8.90625 -5.203125 L 6.46875 0 L 4.8125 0 L 2.359375 -5.203125 L 2.34375 -5.203125 L 2.34375 0 Z M 0.546875 0 "/></g></g></g><g fill="#004aad" fill-opacity="1"><g transform="translate(34.397593, 54.247319)"><g><path d="M 0.546875 0 L 0.546875 -7.375 L 3.078125 -7.375 L 5.625 -1.921875 L 5.640625 -1.921875 L 8.1875 -7.375 L 10.71875 -7.375 L 10.71875 0 L 8.921875 0 L 8.921875 -5.203125 L 8.90625 -5.203125 L 6.46875 0 L 4.8125 0 L 2.359375 -5.203125 L 2.34375 -5.203125 L 2.34375 0 Z M 0.546875 0 "/></g></g></g><g fill="#004aad" fill-opacity="1"><g transform="translate(45.337043, 54.247319)"><g><path d="M 4.375 0.234375 C 3.5625 0.234375 2.863281 0.101562 2.28125 -0.15625 C 1.695312 -0.414062 1.242188 -0.796875 0.921875 -1.296875 C 0.609375 -1.796875 0.453125 -2.398438 0.453125 -3.109375 L 0.453125 -7.375 L 2.375 -7.375 L 2.375 -3.1875 C 2.375 -2.59375 2.550781 -2.128906 2.90625 -1.796875 C 3.269531 -1.472656 3.757812 -1.3125 4.375 -1.3125 C 4.976562 -1.3125 5.457031 -1.472656 5.8125 -1.796875 C 6.164062 -2.117188 6.34375 -2.582031 6.34375 -3.1875 L 6.34375 -7.375 L 8.28125 -7.375 L 8.28125 -3.109375 C 8.28125 -2.398438 8.117188 -1.796875 7.796875 -1.296875 C 7.484375 -0.796875 7.035156 -0.414062 6.453125 -0.15625 C 5.867188 0.101562 5.175781 0.234375 4.375 0.234375 Z M 4.375 0.234375 "/></g></g></g><g fill="#004aad" fill-opacity="1"><g transform="translate(53.738375, 54.247319)"><g><path d="M 0.546875 0 L 0.546875 -7.375 L 2.84375 -7.375 L 6.65625 -2.0625 L 6.671875 -2.0625 L 6.671875 -7.375 L 8.5 -7.375 L 8.5 0 L 6.203125 0 L 2.375 -5.328125 L 2.375 0 Z M 0.546875 0 "/></g></g></g><g fill="#004aad" fill-opacity="1"><g transform="translate(62.460854, 54.247319)"><g><path d="M 0.546875 0 L 0.546875 -7.375 L 2.46875 -7.375 L 2.46875 0 Z M 0.546875 0 "/></g></g></g><g fill="#004aad" fill-opacity="1"><g transform="translate(65.143653, 54.247319)"><g><path d="M 4.953125 0.234375 C 4.015625 0.234375 3.195312 0.078125 2.5 -0.234375 C 1.8125 -0.554688 1.28125 -1.007812 0.90625 -1.59375 C 0.53125 -2.175781 0.34375 -2.875 0.34375 -3.6875 C 0.34375 -4.488281 0.519531 -5.179688 0.875 -5.765625 C 1.226562 -6.359375 1.726562 -6.8125 2.375 -7.125 C 3.03125 -7.445312 3.800781 -7.609375 4.6875 -7.609375 C 5.363281 -7.609375 5.976562 -7.5 6.53125 -7.28125 C 7.082031 -7.070312 7.539062 -6.765625 7.90625 -6.359375 C 8.28125 -5.960938 8.53125 -5.492188 8.65625 -4.953125 L 6.90625 -4.53125 C 6.78125 -5.007812 6.519531 -5.390625 6.125 -5.671875 C 5.738281 -5.953125 5.269531 -6.09375 4.71875 -6.09375 C 4.226562 -6.09375 3.796875 -5.992188 3.421875 -5.796875 C 3.054688 -5.597656 2.769531 -5.316406 2.5625 -4.953125 C 2.363281 -4.597656 2.265625 -4.175781 2.265625 -3.6875 C 2.265625 -3.195312 2.375 -2.769531 2.59375 -2.40625 C 2.820312 -2.050781 3.140625 -1.773438 3.546875 -1.578125 C 3.960938 -1.378906 4.445312 -1.28125 5 -1.28125 C 5.65625 -1.28125 6.210938 -1.445312 6.671875 -1.78125 C 7.128906 -2.113281 7.414062 -2.5625 7.53125 -3.125 L 9.328125 -2.8125 C 9.210938 -2.195312 8.957031 -1.65625 8.5625 -1.1875 C 8.175781 -0.726562 7.671875 -0.375 7.046875 -0.125 C 6.429688 0.113281 5.734375 0.234375 4.953125 0.234375 Z M 4.953125 0.234375 "/></g></g></g><g fill="#004aad" fill-opacity="1"><g transform="translate(74.332316, 54.247319)"><g><path d="M 0.046875 0 L 3.25 -7.375 L 5.546875 -7.375 L 8.71875 0 L 6.71875 0 L 6.125 -1.453125 L 2.625 -1.453125 L 2.046875 0 Z M 3.03125 -2.703125 L 5.734375 -2.703125 L 4.40625 -6 L 4.375 -6 Z M 3.03125 -2.703125 "/></g></g></g><g fill="#004aad" fill-opacity="1"><g transform="translate(82.76473, 54.247319)"><g><path d="M 2.765625 0 L 2.765625 -5.859375 L 0.109375 -5.859375 L 0.109375 -7.375 L 7.34375 -7.375 L 7.34375 -5.859375 L 4.6875 -5.859375 L 4.6875 0 Z M 2.765625 0 "/></g></g></g><g fill="#004aad" fill-opacity="1"><g transform="translate(89.891821, 54.247319)"><g><path d="M 0.546875 0 L 0.546875 -7.375 L 2.46875 -7.375 L 2.46875 0 Z M 0.546875 0 "/></g></g></g><g fill="#004aad" fill-opacity="1"><g transform="translate(92.57462, 54.247319)"><g><path d="M 5.015625 0.265625 C 4.078125 0.265625 3.257812 0.101562 2.5625 -0.21875 C 1.863281 -0.550781 1.316406 -1.015625 0.921875 -1.609375 C 0.535156 -2.203125 0.34375 -2.894531 0.34375 -3.6875 C 0.34375 -4.476562 0.535156 -5.171875 0.921875 -5.765625 C 1.316406 -6.359375 1.863281 -6.816406 2.5625 -7.140625 C 3.257812 -7.472656 4.078125 -7.640625 5.015625 -7.640625 C 5.953125 -7.640625 6.769531 -7.472656 7.46875 -7.140625 C 8.175781 -6.816406 8.722656 -6.359375 9.109375 -5.765625 C 9.503906 -5.171875 9.703125 -4.476562 9.703125 -3.6875 C 9.703125 -2.894531 9.503906 -2.203125 9.109375 -1.609375 C 8.722656 -1.015625 8.175781 -0.550781 7.46875 -0.21875 C 6.769531 0.101562 5.953125 0.265625 5.015625 0.265625 Z M 5.015625 -1.25 C 5.566406 -1.25 6.046875 -1.347656 6.453125 -1.546875 C 6.867188 -1.753906 7.191406 -2.039062 7.421875 -2.40625 C 7.648438 -2.78125 7.765625 -3.207031 7.765625 -3.6875 C 7.765625 -4.175781 7.648438 -4.601562 7.421875 -4.96875 C 7.191406 -5.332031 6.867188 -5.613281 6.453125 -5.8125 C 6.046875 -6.019531 5.566406 -6.125 5.015625 -6.125 C 4.472656 -6.125 3.992188 -6.019531 3.578125 -5.8125 C 3.160156 -5.613281 2.835938 -5.332031 2.609375 -4.96875 C 2.378906 -4.601562 2.265625 -4.175781 2.265625 -3.6875 C 2.265625 -3.207031 2.378906 -2.78125 2.609375 -2.40625 C 2.835938 -2.039062 3.160156 -1.753906 3.578125 -1.546875 C 3.992188 -1.347656 4.472656 -1.25 5.015625 -1.25 Z M 5.015625 -1.25 "/></g></g></g><g fill="#004aad" fill-opacity="1"><g transform="translate(102.281263, 54.247319)"><g><path d="M 0.546875 0 L 0.546875 -7.375 L 2.84375 -7.375 L 6.65625 -2.0625 L 6.671875 -2.0625 L 6.671875 -7.375 L 8.5 -7.375 L 8.5 0 L 6.203125 0 L 2.375 -5.328125 L 2.375 0 Z M 0.546875 0 "/></g></g></g><g fill="#004aad" fill-opacity="1"><g transform="translate(111.003742, 54.247319)"><g/></g></g><g fill="#004aad" fill-opacity="1"><g transform="translate(113.168561, 54.247319)"><g><path d="M 1.3125 -3.703125 C 1.007812 -3.703125 0.765625 -3.789062 0.578125 -3.96875 C 0.390625 -4.144531 0.296875 -4.367188 0.296875 -4.640625 C 0.296875 -4.910156 0.390625 -5.132812 0.578125 -5.3125 C 0.765625 -5.488281 1.007812 -5.578125 1.3125 -5.578125 C 1.601562 -5.578125 1.84375 -5.488281 2.03125 -5.3125 C 2.226562 -5.132812 2.328125 -4.910156 2.328125 -4.640625 C 2.328125 -4.367188 2.226562 -4.144531 2.03125 -3.96875 C 1.84375 -3.789062 1.601562 -3.703125 1.3125 -3.703125 Z M 1.3125 0.109375 C 1.007812 0.109375 0.765625 0.0234375 0.578125 -0.140625 C 0.390625 -0.316406 0.296875 -0.539062 0.296875 -0.8125 C 0.296875 -1.09375 0.390625 -1.316406 0.578125 -1.484375 C 0.765625 -1.660156 1.007812 -1.75 1.3125 -1.75 C 1.601562 -1.75 1.84375 -1.660156 2.03125 -1.484375 C 2.226562 -1.316406 2.328125 -1.09375 2.328125 -0.8125 C 2.328125 -0.539062 2.226562 -0.316406 2.03125 -0.140625 C 1.84375 0.0234375 1.601562 0.109375 1.3125 0.109375 Z M 1.3125 0.109375 "/></g></g></g><g fill="#ffffff" fill-opacity="0.4"><g transform="translate(115.913679, 54.705632)"><g/></g></g><g fill="#004aad" fill-opacity="1"><g transform="translate(115.455365, 54.247319)"><g/></g></g><g fill="#ffffff" fill-opacity="0.4"><g transform="translate(5.021144, 74.639296)"><g><path d="M 4.953125 0.234375 C 4.015625 0.234375 3.195312 0.078125 2.5 -0.234375 C 1.8125 -0.554688 1.28125 -1.007812 0.90625 -1.59375 C 0.53125 -2.175781 0.34375 -2.875 0.34375 -3.6875 C 0.34375 -4.488281 0.519531 -5.179688 0.875 -5.765625 C 1.226562 -6.359375 1.726562 -6.8125 2.375 -7.125 C 3.03125 -7.445312 3.800781 -7.609375 4.6875 -7.609375 C 5.363281 -7.609375 5.976562 -7.5 6.53125 -7.28125 C 7.082031 -7.070312 7.539062 -6.765625 7.90625 -6.359375 C 8.28125 -5.960938 8.53125 -5.492188 8.65625 -4.953125 L 6.90625 -4.53125 C 6.78125 -5.007812 6.519531 -5.390625 6.125 -5.671875 C 5.738281 -5.953125 5.269531 -6.09375 4.71875 -6.09375 C 4.226562 -6.09375 3.796875 -5.992188 3.421875 -5.796875 C 3.054688 -5.597656 2.769531 -5.316406 2.5625 -4.953125 C 2.363281 -4.597656 2.265625 -4.175781 2.265625 -3.6875 C 2.265625 -3.195312 2.375 -2.769531 2.59375 -2.40625 C 2.820312 -2.050781 3.140625 -1.773438 3.546875 -1.578125 C 3.960938 -1.378906 4.445312 -1.28125 5 -1.28125 C 5.65625 -1.28125 6.210938 -1.445312 6.671875 -1.78125 C 7.128906 -2.113281 7.414062 -2.5625 7.53125 -3.125 L 9.328125 -2.8125 C 9.210938 -2.195312 8.957031 -1.65625 8.5625 -1.1875 C 8.175781 -0.726562 7.671875 -0.375 7.046875 -0.125 C 6.429688 0.113281 5.734375 0.234375 4.953125 0.234375 Z M 4.953125 0.234375 "/></g></g></g><g fill="#ffffff" fill-opacity="0.4"><g transform="translate(14.209811, 74.639296)"><g><path d="M 5.015625 0.265625 C 4.078125 0.265625 3.257812 0.101562 2.5625 -0.21875 C 1.863281 -0.550781 1.316406 -1.015625 0.921875 -1.609375 C 0.535156 -2.203125 0.34375 -2.894531 0.34375 -3.6875 C 0.34375 -4.476562 0.535156 -5.171875 0.921875 -5.765625 C 1.316406 -6.359375 1.863281 -6.816406 2.5625 -7.140625 C 3.257812 -7.472656 4.078125 -7.640625 5.015625 -7.640625 C 5.953125 -7.640625 6.769531 -7.472656 7.46875 -7.140625 C 8.175781 -6.816406 8.722656 -6.359375 9.109375 -5.765625 C 9.503906 -5.171875 9.703125 -4.476562 9.703125 -3.6875 C 9.703125 -2.894531 9.503906 -2.203125 9.109375 -1.609375 C 8.722656 -1.015625 8.175781 -0.550781 7.46875 -0.21875 C 6.769531 0.101562 5.953125 0.265625 5.015625 0.265625 Z M 5.015625 -1.25 C 5.566406 -1.25 6.046875 -1.347656 6.453125 -1.546875 C 6.867188 -1.753906 7.191406 -2.039062 7.421875 -2.40625 C 7.648438 -2.78125 7.765625 -3.207031 7.765625 -3.6875 C 7.765625 -4.175781 7.648438 -4.601562 7.421875 -4.96875 C 7.191406 -5.332031 6.867188 -5.613281 6.453125 -5.8125 C 6.046875 -6.019531 5.566406 -6.125 5.015625 -6.125 C 4.472656 -6.125 3.992188 -6.019531 3.578125 -5.8125 C 3.160156 -5.613281 2.835938 -5.332031 2.609375 -4.96875 C 2.378906 -4.601562 2.265625 -4.175781 2.265625 -3.6875 C 2.265625 -3.207031 2.378906 -2.78125 2.609375 -2.40625 C 2.835938 -2.039062 3.160156 -1.753906 3.578125 -1.546875 C 3.992188 -1.347656 4.472656 -1.25 5.015625 -1.25 Z M 5.015625 -1.25 "/></g></g></g><g fill="#ffffff" fill-opacity="0.4"><g transform="translate(23.916457, 74.639296)"><g><path d="M 0.546875 0 L 0.546875 -7.375 L 3.078125 -7.375 L 5.625 -1.921875 L 5.640625 -1.921875 L 8.1875 -7.375 L 10.71875 -7.375 L 10.71875 0 L 8.921875 0 L 8.921875 -5.203125 L 8.90625 -5.203125 L 6.46875 0 L 4.8125 0 L 2.359375 -5.203125 L 2.34375 -5.203125 L 2.34375 0 Z M 0.546875 0 "/></g></g></g><g fill="#ffffff" fill-opacity="0.4"><g transform="translate(34.855907, 74.639296)"><g><path d="M 0.546875 0 L 0.546875 -7.375 L 3.078125 -7.375 L 5.625 -1.921875 L 5.640625 -1.921875 L 8.1875 -7.375 L 10.71875 -7.375 L 10.71875 0 L 8.921875 0 L 8.921875 -5.203125 L 8.90625 -5.203125 L 6.46875 0 L 4.8125 0 L 2.359375 -5.203125 L 2.34375 -5.203125 L 2.34375 0 Z M 0.546875 0 "/></g></g></g><g fill="#ffffff" fill-opacity="0.4"><g transform="translate(45.795356, 74.639296)"><g><path d="M 4.375 0.234375 C 3.5625 0.234375 2.863281 0.101562 2.28125 -0.15625 C 1.695312 -0.414062 1.242188 -0.796875 0.921875 -1.296875 C 0.609375 -1.796875 0.453125 -2.398438 0.453125 -3.109375 L 0.453125 -7.375 L 2.375 -7.375 L 2.375 -3.1875 C 2.375 -2.59375 2.550781 -2.128906 2.90625 -1.796875 C 3.269531 -1.472656 3.757812 -1.3125 4.375 -1.3125 C 4.976562 -1.3125 5.457031 -1.472656 5.8125 -1.796875 C 6.164062 -2.117188 6.34375 -2.582031 6.34375 -3.1875 L 6.34375 -7.375 L 8.28125 -7.375 L 8.28125 -3.109375 C 8.28125 -2.398438 8.117188 -1.796875 7.796875 -1.296875 C 7.484375 -0.796875 7.035156 -0.414062 6.453125 -0.15625 C 5.867188 0.101562 5.175781 0.234375 4.375 0.234375 Z M 4.375 0.234375 "/></g></g></g><g fill="#ffffff" fill-opacity="0.4"><g transform="translate(54.196688, 74.639296)"><g/></g></g><g fill="#ffffff" fill-opacity="0.4"><g transform="translate(56.361508, 74.639296)"><g><path d="M 0.546875 0 L 0.546875 -7.375 L 2.46875 -7.375 L 2.46875 0 Z M 0.546875 0 "/></g></g></g><g fill="#ffffff" fill-opacity="0.4"><g transform="translate(59.044307, 74.639296)"><g><path d="M 0.546875 0 L 0.546875 -7.375 L 4.53125 -7.375 C 5.882812 -7.375 6.921875 -7.054688 7.640625 -6.421875 C 8.367188 -5.785156 8.734375 -4.875 8.734375 -3.6875 C 8.734375 -2.5 8.367188 -1.585938 7.640625 -0.953125 C 6.921875 -0.316406 5.882812 0 4.53125 0 Z M 2.421875 -1.4375 L 4.40625 -1.4375 C 5.1875 -1.4375 5.785156 -1.628906 6.203125 -2.015625 C 6.617188 -2.410156 6.828125 -2.96875 6.828125 -3.6875 C 6.828125 -4.414062 6.617188 -4.972656 6.203125 -5.359375 C 5.785156 -5.742188 5.1875 -5.9375 4.40625 -5.9375 L 2.421875 -5.9375 Z M 2.421875 -1.4375 "/></g></g></g><g fill="#ffffff" fill-opacity="0.4"><g transform="translate(67.777142, 74.639296)"><g/></g></g><g fill="#ffffff" fill-opacity="0.4"><g transform="translate(69.941961, 74.639296)"><g><path d="M 1.3125 -3.703125 C 1.007812 -3.703125 0.765625 -3.789062 0.578125 -3.96875 C 0.390625 -4.144531 0.296875 -4.367188 0.296875 -4.640625 C 0.296875 -4.910156 0.390625 -5.132812 0.578125 -5.3125 C 0.765625 -5.488281 1.007812 -5.578125 1.3125 -5.578125 C 1.601562 -5.578125 1.84375 -5.488281 2.03125 -5.3125 C 2.226562 -5.132812 2.328125 -4.910156 2.328125 -4.640625 C 2.328125 -4.367188 2.226562 -4.144531 2.03125 -3.96875 C 1.84375 -3.789062 1.601562 -3.703125 1.3125 -3.703125 Z M 1.3125 0.109375 C 1.007812 0.109375 0.765625 0.0234375 0.578125 -0.140625 C 0.390625 -0.316406 0.296875 -0.539062 0.296875 -0.8125 C 0.296875 -1.09375 0.390625 -1.316406 0.578125 -1.484375 C 0.765625 -1.660156 1.007812 -1.75 1.3125 -1.75 C 1.601562 -1.75 1.84375 -1.660156 2.03125 -1.484375 C 2.226562 -1.316406 2.328125 -1.09375 2.328125 -0.8125 C 2.328125 -0.539062 2.226562 -0.316406 2.03125 -0.140625 C 1.84375 0.0234375 1.601562 0.109375 1.3125 0.109375 Z M 1.3125 0.109375 "/></g></g></g><g fill="#004aad" fill-opacity="1"><g transform="translate(4.562831, 74.180983)"><g><path d="M 4.953125 0.234375 C 4.015625 0.234375 3.195312 0.078125 2.5 -0.234375 C 1.8125 -0.554688 1.28125 -1.007812 0.90625 -1.59375 C 0.53125 -2.175781 0.34375 -2.875 0.34375 -3.6875 C 0.34375 -4.488281 0.519531 -5.179688 0.875 -5.765625 C 1.226562 -6.359375 1.726562 -6.8125 2.375 -7.125 C 3.03125 -7.445312 3.800781 -7.609375 4.6875 -7.609375 C 5.363281 -7.609375 5.976562 -7.5 6.53125 -7.28125 C 7.082031 -7.070312 7.539062 -6.765625 7.90625 -6.359375 C 8.28125 -5.960938 8.53125 -5.492188 8.65625 -4.953125 L 6.90625 -4.53125 C 6.78125 -5.007812 6.519531 -5.390625 6.125 -5.671875 C 5.738281 -5.953125 5.269531 -6.09375 4.71875 -6.09375 C 4.226562 -6.09375 3.796875 -5.992188 3.421875 -5.796875 C 3.054688 -5.597656 2.769531 -5.316406 2.5625 -4.953125 C 2.363281 -4.597656 2.265625 -4.175781 2.265625 -3.6875 C 2.265625 -3.195312 2.375 -2.769531 2.59375 -2.40625 C 2.820312 -2.050781 3.140625 -1.773438 3.546875 -1.578125 C 3.960938 -1.378906 4.445312 -1.28125 5 -1.28125 C 5.65625 -1.28125 6.210938 -1.445312 6.671875 -1.78125 C 7.128906 -2.113281 7.414062 -2.5625 7.53125 -3.125 L 9.328125 -2.8125 C 9.210938 -2.195312 8.957031 -1.65625 8.5625 -1.1875 C 8.175781 -0.726562 7.671875 -0.375 7.046875 -0.125 C 6.429688 0.113281 5.734375 0.234375 4.953125 0.234375 Z M 4.953125 0.234375 "/></g></g></g><g fill="#004aad" fill-opacity="1"><g transform="translate(13.751497, 74.180983)"><g><path d="M 5.015625 0.265625 C 4.078125 0.265625 3.257812 0.101562 2.5625 -0.21875 C 1.863281 -0.550781 1.316406 -1.015625 0.921875 -1.609375 C 0.535156 -2.203125 0.34375 -2.894531 0.34375 -3.6875 C 0.34375 -4.476562 0.535156 -5.171875 0.921875 -5.765625 C 1.316406 -6.359375 1.863281 -6.816406 2.5625 -7.140625 C 3.257812 -7.472656 4.078125 -7.640625 5.015625 -7.640625 C 5.953125 -7.640625 6.769531 -7.472656 7.46875 -7.140625 C 8.175781 -6.816406 8.722656 -6.359375 9.109375 -5.765625 C 9.503906 -5.171875 9.703125 -4.476562 9.703125 -3.6875 C 9.703125 -2.894531 9.503906 -2.203125 9.109375 -1.609375 C 8.722656 -1.015625 8.175781 -0.550781 7.46875 -0.21875 C 6.769531 0.101562 5.953125 0.265625 5.015625 0.265625 Z M 5.015625 -1.25 C 5.566406 -1.25 6.046875 -1.347656 6.453125 -1.546875 C 6.867188 -1.753906 7.191406 -2.039062 7.421875 -2.40625 C 7.648438 -2.78125 7.765625 -3.207031 7.765625 -3.6875 C 7.765625 -4.175781 7.648438 -4.601562 7.421875 -4.96875 C 7.191406 -5.332031 6.867188 -5.613281 6.453125 -5.8125 C 6.046875 -6.019531 5.566406 -6.125 5.015625 -6.125 C 4.472656 -6.125 3.992188 -6.019531 3.578125 -5.8125 C 3.160156 -5.613281 2.835938 -5.332031 2.609375 -4.96875 C 2.378906 -4.601562 2.265625 -4.175781 2.265625 -3.6875 C 2.265625 -3.207031 2.378906 -2.78125 2.609375 -2.40625 C 2.835938 -2.039062 3.160156 -1.753906 3.578125 -1.546875 C 3.992188 -1.347656 4.472656 -1.25 5.015625 -1.25 Z M 5.015625 -1.25 "/></g></g></g><g fill="#004aad" fill-opacity="1"><g transform="translate(23.458144, 74.180983)"><g><path d="M 0.546875 0 L 0.546875 -7.375 L 3.078125 -7.375 L 5.625 -1.921875 L 5.640625 -1.921875 L 8.1875 -7.375 L 10.71875 -7.375 L 10.71875 0 L 8.921875 0 L 8.921875 -5.203125 L 8.90625 -5.203125 L 6.46875 0 L 4.8125 0 L 2.359375 -5.203125 L 2.34375 -5.203125 L 2.34375 0 Z M 0.546875 0 "/></g></g></g><g fill="#004aad" fill-opacity="1"><g transform="translate(34.397593, 74.180983)"><g><path d="M 0.546875 0 L 0.546875 -7.375 L 3.078125 -7.375 L 5.625 -1.921875 L 5.640625 -1.921875 L 8.1875 -7.375 L 10.71875 -7.375 L 10.71875 0 L 8.921875 0 L 8.921875 -5.203125 L 8.90625 -5.203125 L 6.46875 0 L 4.8125 0 L 2.359375 -5.203125 L 2.34375 -5.203125 L 2.34375 0 Z M 0.546875 0 "/></g></g></g><g fill="#004aad" fill-opacity="1"><g transform="translate(45.337043, 74.180983)"><g><path d="M 4.375 0.234375 C 3.5625 0.234375 2.863281 0.101562 2.28125 -0.15625 C 1.695312 -0.414062 1.242188 -0.796875 0.921875 -1.296875 C 0.609375 -1.796875 0.453125 -2.398438 0.453125 -3.109375 L 0.453125 -7.375 L 2.375 -7.375 L 2.375 -3.1875 C 2.375 -2.59375 2.550781 -2.128906 2.90625 -1.796875 C 3.269531 -1.472656 3.757812 -1.3125 4.375 -1.3125 C 4.976562 -1.3125 5.457031 -1.472656 5.8125 -1.796875 C 6.164062 -2.117188 6.34375 -2.582031 6.34375 -3.1875 L 6.34375 -7.375 L 8.28125 -7.375 L 8.28125 -3.109375 C 8.28125 -2.398438 8.117188 -1.796875 7.796875 -1.296875 C 7.484375 -0.796875 7.035156 -0.414062 6.453125 -0.15625 C 5.867188 0.101562 5.175781 0.234375 4.375 0.234375 Z M 4.375 0.234375 "/></g></g></g><g fill="#004aad" fill-opacity="1"><g transform="translate(53.738375, 74.180983)"><g/></g></g><g fill="#004aad" fill-opacity="1"><g transform="translate(55.903194, 74.180983)"><g><path d="M 0.546875 0 L 0.546875 -7.375 L 2.46875 -7.375 L 2.46875 0 Z M 0.546875 0 "/></g></g></g><g fill="#004aad" fill-opacity="1"><g transform="translate(58.585993, 74.180983)"><g><path d="M 0.546875 0 L 0.546875 -7.375 L 4.53125 -7.375 C 5.882812 -7.375 6.921875 -7.054688 7.640625 -6.421875 C 8.367188 -5.785156 8.734375 -4.875 8.734375 -3.6875 C 8.734375 -2.5 8.367188 -1.585938 7.640625 -0.953125 C 6.921875 -0.316406 5.882812 0 4.53125 0 Z M 2.421875 -1.4375 L 4.40625 -1.4375 C 5.1875 -1.4375 5.785156 -1.628906 6.203125 -2.015625 C 6.617188 -2.410156 6.828125 -2.96875 6.828125 -3.6875 C 6.828125 -4.414062 6.617188 -4.972656 6.203125 -5.359375 C 5.785156 -5.742188 5.1875 -5.9375 4.40625 -5.9375 L 2.421875 -5.9375 Z M 2.421875 -1.4375 "/></g></g></g><g fill="#004aad" fill-opacity="1"><g transform="translate(67.318828, 74.180983)"><g/></g></g><g fill="#004aad" fill-opacity="1"><g transform="translate(69.483648, 74.180983)"><g><path d="M 1.3125 -3.703125 C 1.007812 -3.703125 0.765625 -3.789062 0.578125 -3.96875 C 0.390625 -4.144531 0.296875 -4.367188 0.296875 -4.640625 C 0.296875 -4.910156 0.390625 -5.132812 0.578125 -5.3125 C 0.765625 -5.488281 1.007812 -5.578125 1.3125 -5.578125 C 1.601562 -5.578125 1.84375 -5.488281 2.03125 -5.3125 C 2.226562 -5.132812 2.328125 -4.910156 2.328125 -4.640625 C 2.328125 -4.367188 2.226562 -4.144531 2.03125 -3.96875 C 1.84375 -3.789062 1.601562 -3.703125 1.3125 -3.703125 Z M 1.3125 0.109375 C 1.007812 0.109375 0.765625 0.0234375 0.578125 -0.140625 C 0.390625 -0.316406 0.296875 -0.539062 0.296875 -0.8125 C 0.296875 -1.09375 0.390625 -1.316406 0.578125 -1.484375 C 0.765625 -1.660156 1.007812 -1.75 1.3125 -1.75 C 1.601562 -1.75 1.84375 -1.660156 2.03125 -1.484375 C 2.226562 -1.316406 2.328125 -1.09375 2.328125 -0.8125 C 2.328125 -0.539062 2.226562 -0.316406 2.03125 -0.140625 C 1.84375 0.0234375 1.601562 0.109375 1.3125 0.109375 Z M 1.3125 0.109375 "/></g></g></g><g clip-path="url(#0a9461b731)"><g clip-path="url(#6006fd082b)"><path stroke-linecap="butt" transform="matrix(0.748326, 0, 0, 0.748326, 78.179409, 61.822412)" fill="none" stroke-linejoin="miter" d="M 5.998136 0.00241431 L 341.763263 0.00241431 C 343.355359 0.00241431 344.879595 0.634033 346.007111 1.756329 C 347.129408 2.883846 347.761027 4.408082 347.761027 6.000178 L 347.761027 17.953944 C 347.761027 19.54604 347.129408 21.070276 346.007111 22.197793 C 344.879595 23.32009 343.355359 23.951708 341.763263 23.951708 L 5.998136 23.951708 C 4.40604 23.951708 2.881804 23.32009 1.754287 22.197793 C 0.631991 21.070276 0.000372301 19.54604 0.000372301 17.953944 L 0.000372301 6.000178 C 0.000372301 4.408082 0.631991 2.883846 1.754287 1.756329 C 2.881804 0.634033 4.40604 0.00241431 5.998136 0.00241431 Z M 5.998136 0.00241431 " stroke="#004aad" stroke-width="2" stroke-opacity="1" stroke-miterlimit="4"/></g></g><g clip-path="url(#f3e752521e)"><g clip-path="url(#0ad4f77eea)"><path stroke-linecap="butt" transform="matrix(0.748326, 0, 0, 0.748326, 120.481128, 41.64739)" fill="none" stroke-linejoin="miter" d="M 5.996882 0.00140038 L 285.240006 0.00140038 C 286.832102 0.00140038 288.356338 0.633019 289.483855 1.755316 C 290.606152 2.882832 291.23777 4.407068 291.23777 5.999164 L 291.23777 17.952931 C 291.23777 19.545026 290.606152 21.069262 289.483855 22.196779 C 288.356338 23.319076 286.832102 23.950694 285.240006 23.950694 L 5.996882 23.950694 C 4.410006 23.950694 2.880551 23.319076 1.758254 22.196779 C 0.630737 21.069262 -0.000881474 19.545026 -0.000881474 17.952931 L -0.000881474 5.999164 C -0.000881474 4.407068 0.630737 2.882832 1.758254 1.755316 C 2.880551 0.633019 4.410006 0.00140038 5.996882 0.00140038 Z M 5.996882 0.00140038 " stroke="#004aad" stroke-width="2" stroke-opacity="1" stroke-miterlimit="4"/></g></g><g clip-path="url(#615ebcaef9)"><g clip-path="url(#183ce56268)"><path stroke-linecap="butt" transform="matrix(0.748326, 0, 0, 0.748326, 78.179409, 21.389355)" fill="none" stroke-linejoin="miter" d="M 5.998136 0.00169763 L 341.763263 0.00169763 C 343.355359 0.00169763 344.879595 0.633316 346.007111 1.755613 C 347.129408 2.88313 347.761027 4.407365 347.761027 5.999461 L 347.761027 17.953228 C 347.761027 19.545323 347.129408 21.069559 346.007111 22.197076 C 344.879595 23.319373 343.355359 23.950991 341.763263 23.950991 L 5.998136 23.950991 C 4.40604 23.950991 2.881804 23.319373 1.754287 22.197076 C 0.631991 21.069559 0.000372301 19.545323 0.000372301 17.953228 L 0.000372301 5.999461 C 0.000372301 4.407365 0.631991 2.88313 1.754287 1.755613 C 2.881804 0.633316 4.40604 0.00169763 5.998136 0.00169763 Z M 5.998136 0.00169763 " stroke="#004aad" stroke-width="2" stroke-opacity="1" stroke-miterlimit="4"/></g></g><g fill="#ffffff" fill-opacity="0.4"><g transform="translate(5.021144, 12.511407)"><g><path d="M 0.546875 0 L 0.546875 -7.375 L 4.53125 -7.375 C 5.882812 -7.375 6.921875 -7.054688 7.640625 -6.421875 C 8.367188 -5.785156 8.734375 -4.875 8.734375 -3.6875 C 8.734375 -2.5 8.367188 -1.585938 7.640625 -0.953125 C 6.921875 -0.316406 5.882812 0 4.53125 0 Z M 2.421875 -1.4375 L 4.40625 -1.4375 C 5.1875 -1.4375 5.785156 -1.628906 6.203125 -2.015625 C 6.617188 -2.410156 6.828125 -2.96875 6.828125 -3.6875 C 6.828125 -4.414062 6.617188 -4.972656 6.203125 -5.359375 C 5.785156 -5.742188 5.1875 -5.9375 4.40625 -5.9375 L 2.421875 -5.9375 Z M 2.421875 -1.4375 "/></g></g></g><g fill="#ffffff" fill-opacity="0.4"><g transform="translate(13.753983, 12.511407)"><g><path d="M 0.546875 0 L 0.546875 -7.375 L 6.921875 -7.375 L 6.921875 -5.984375 L 2.40625 -5.984375 L 2.40625 -4.390625 L 6.5 -4.390625 L 6.5 -3.15625 L 2.40625 -3.15625 L 2.40625 -1.390625 L 7.03125 -1.390625 L 7.03125 0 Z M 0.546875 0 "/></g></g></g><g fill="#ffffff" fill-opacity="0.4"><g transform="translate(20.673887, 12.511407)"><g><path d="M 3.25 0 L 0.03125 -7.375 L 2.03125 -7.375 L 4.328125 -1.6875 L 4.34375 -1.6875 L 6.625 -7.375 L 8.65625 -7.375 L 5.421875 0 Z M 3.25 0 "/></g></g></g><g fill="#ffffff" fill-opacity="0.4"><g transform="translate(29.013059, 12.511407)"><g><path d="M 0.546875 0 L 0.546875 -7.375 L 2.46875 -7.375 L 2.46875 0 Z M 0.546875 0 "/></g></g></g><g fill="#ffffff" fill-opacity="0.4"><g transform="translate(31.695861, 12.511407)"><g><path d="M 4.953125 0.234375 C 4.015625 0.234375 3.195312 0.078125 2.5 -0.234375 C 1.8125 -0.554688 1.28125 -1.007812 0.90625 -1.59375 C 0.53125 -2.175781 0.34375 -2.875 0.34375 -3.6875 C 0.34375 -4.488281 0.519531 -5.179688 0.875 -5.765625 C 1.226562 -6.359375 1.726562 -6.8125 2.375 -7.125 C 3.03125 -7.445312 3.800781 -7.609375 4.6875 -7.609375 C 5.363281 -7.609375 5.976562 -7.5 6.53125 -7.28125 C 7.082031 -7.070312 7.539062 -6.765625 7.90625 -6.359375 C 8.28125 -5.960938 8.53125 -5.492188 8.65625 -4.953125 L 6.90625 -4.53125 C 6.78125 -5.007812 6.519531 -5.390625 6.125 -5.671875 C 5.738281 -5.953125 5.269531 -6.09375 4.71875 -6.09375 C 4.226562 -6.09375 3.796875 -5.992188 3.421875 -5.796875 C 3.054688 -5.597656 2.769531 -5.316406 2.5625 -4.953125 C 2.363281 -4.597656 2.265625 -4.175781 2.265625 -3.6875 C 2.265625 -3.195312 2.375 -2.769531 2.59375 -2.40625 C 2.820312 -2.050781 3.140625 -1.773438 3.546875 -1.578125 C 3.960938 -1.378906 4.445312 -1.28125 5 -1.28125 C 5.65625 -1.28125 6.210938 -1.445312 6.671875 -1.78125 C 7.128906 -2.113281 7.414062 -2.5625 7.53125 -3.125 L 9.328125 -2.8125 C 9.210938 -2.195312 8.957031 -1.65625 8.5625 -1.1875 C 8.175781 -0.726562 7.671875 -0.375 7.046875 -0.125 C 6.429688 0.113281 5.734375 0.234375 4.953125 0.234375 Z M 4.953125 0.234375 "/></g></g></g><g fill="#ffffff" fill-opacity="0.4"><g transform="translate(40.884528, 12.511407)"><g><path d="M 0.546875 0 L 0.546875 -7.375 L 6.921875 -7.375 L 6.921875 -5.984375 L 2.40625 -5.984375 L 2.40625 -4.390625 L 6.5 -4.390625 L 6.5 -3.15625 L 2.40625 -3.15625 L 2.40625 -1.390625 L 7.03125 -1.390625 L 7.03125 0 Z M 0.546875 0 "/></g></g></g><g fill="#ffffff" fill-opacity="0.4"><g transform="translate(47.804432, 12.511407)"><g/></g></g><g fill="#ffffff" fill-opacity="0.4"><g transform="translate(49.969254, 12.511407)"><g><path d="M 0.546875 0 L 0.546875 -7.375 L 2.46875 -7.375 L 2.46875 0 Z M 0.546875 0 "/></g></g></g><g fill="#ffffff" fill-opacity="0.4"><g transform="translate(52.652056, 12.511407)"><g><path d="M 0.546875 0 L 0.546875 -7.375 L 4.53125 -7.375 C 5.882812 -7.375 6.921875 -7.054688 7.640625 -6.421875 C 8.367188 -5.785156 8.734375 -4.875 8.734375 -3.6875 C 8.734375 -2.5 8.367188 -1.585938 7.640625 -0.953125 C 6.921875 -0.316406 5.882812 0 4.53125 0 Z M 2.421875 -1.4375 L 4.40625 -1.4375 C 5.1875 -1.4375 5.785156 -1.628906 6.203125 -2.015625 C 6.617188 -2.410156 6.828125 -2.96875 6.828125 -3.6875 C 6.828125 -4.414062 6.617188 -4.972656 6.203125 -5.359375 C 5.785156 -5.742188 5.1875 -5.9375 4.40625 -5.9375 L 2.421875 -5.9375 Z M 2.421875 -1.4375 "/></g></g></g><g fill="#ffffff" fill-opacity="0.4"><g transform="translate(61.384891, 12.511407)"><g/></g></g><g fill="#ffffff" fill-opacity="0.4"><g transform="translate(63.549711, 12.511407)"><g><path d="M 1.3125 -3.703125 C 1.007812 -3.703125 0.765625 -3.789062 0.578125 -3.96875 C 0.390625 -4.144531 0.296875 -4.367188 0.296875 -4.640625 C 0.296875 -4.910156 0.390625 -5.132812 0.578125 -5.3125 C 0.765625 -5.488281 1.007812 -5.578125 1.3125 -5.578125 C 1.601562 -5.578125 1.84375 -5.488281 2.03125 -5.3125 C 2.226562 -5.132812 2.328125 -4.910156 2.328125 -4.640625 C 2.328125 -4.367188 2.226562 -4.144531 2.03125 -3.96875 C 1.84375 -3.789062 1.601562 -3.703125 1.3125 -3.703125 Z M 1.3125 0.109375 C 1.007812 0.109375 0.765625 0.0234375 0.578125 -0.140625 C 0.390625 -0.316406 0.296875 -0.539062 0.296875 -0.8125 C 0.296875 -1.09375 0.390625 -1.316406 0.578125 -1.484375 C 0.765625 -1.660156 1.007812 -1.75 1.3125 -1.75 C 1.601562 -1.75 1.84375 -1.660156 2.03125 -1.484375 C 2.226562 -1.316406 2.328125 -1.09375 2.328125 -0.8125 C 2.328125 -0.539062 2.226562 -0.316406 2.03125 -0.140625 C 1.84375 0.0234375 1.601562 0.109375 1.3125 0.109375 Z M 1.3125 0.109375 "/></g></g></g><g fill="#004aad" fill-opacity="1"><g transform="translate(4.562831, 12.053094)"><g><path d="M 0.546875 0 L 0.546875 -7.375 L 4.53125 -7.375 C 5.882812 -7.375 6.921875 -7.054688 7.640625 -6.421875 C 8.367188 -5.785156 8.734375 -4.875 8.734375 -3.6875 C 8.734375 -2.5 8.367188 -1.585938 7.640625 -0.953125 C 6.921875 -0.316406 5.882812 0 4.53125 0 Z M 2.421875 -1.4375 L 4.40625 -1.4375 C 5.1875 -1.4375 5.785156 -1.628906 6.203125 -2.015625 C 6.617188 -2.410156 6.828125 -2.96875 6.828125 -3.6875 C 6.828125 -4.414062 6.617188 -4.972656 6.203125 -5.359375 C 5.785156 -5.742188 5.1875 -5.9375 4.40625 -5.9375 L 2.421875 -5.9375 Z M 2.421875 -1.4375 "/></g></g></g><g fill="#004aad" fill-opacity="1"><g transform="translate(13.295669, 12.053094)"><g><path d="M 0.546875 0 L 0.546875 -7.375 L 6.921875 -7.375 L 6.921875 -5.984375 L 2.40625 -5.984375 L 2.40625 -4.390625 L 6.5 -4.390625 L 6.5 -3.15625 L 2.40625 -3.15625 L 2.40625 -1.390625 L 7.03125 -1.390625 L 7.03125 0 Z M 0.546875 0 "/></g></g></g><g fill="#004aad" fill-opacity="1"><g transform="translate(20.215573, 12.053094)"><g><path d="M 3.25 0 L 0.03125 -7.375 L 2.03125 -7.375 L 4.328125 -1.6875 L 4.34375 -1.6875 L 6.625 -7.375 L 8.65625 -7.375 L 5.421875 0 Z M 3.25 0 "/></g></g></g><g fill="#004aad" fill-opacity="1"><g transform="translate(28.554746, 12.053094)"><g><path d="M 0.546875 0 L 0.546875 -7.375 L 2.46875 -7.375 L 2.46875 0 Z M 0.546875 0 "/></g></g></g><g fill="#004aad" fill-opacity="1"><g transform="translate(31.237548, 12.053094)"><g><path d="M 4.953125 0.234375 C 4.015625 0.234375 3.195312 0.078125 2.5 -0.234375 C 1.8125 -0.554688 1.28125 -1.007812 0.90625 -1.59375 C 0.53125 -2.175781 0.34375 -2.875 0.34375 -3.6875 C 0.34375 -4.488281 0.519531 -5.179688 0.875 -5.765625 C 1.226562 -6.359375 1.726562 -6.8125 2.375 -7.125 C 3.03125 -7.445312 3.800781 -7.609375 4.6875 -7.609375 C 5.363281 -7.609375 5.976562 -7.5 6.53125 -7.28125 C 7.082031 -7.070312 7.539062 -6.765625 7.90625 -6.359375 C 8.28125 -5.960938 8.53125 -5.492188 8.65625 -4.953125 L 6.90625 -4.53125 C 6.78125 -5.007812 6.519531 -5.390625 6.125 -5.671875 C 5.738281 -5.953125 5.269531 -6.09375 4.71875 -6.09375 C 4.226562 -6.09375 3.796875 -5.992188 3.421875 -5.796875 C 3.054688 -5.597656 2.769531 -5.316406 2.5625 -4.953125 C 2.363281 -4.597656 2.265625 -4.175781 2.265625 -3.6875 C 2.265625 -3.195312 2.375 -2.769531 2.59375 -2.40625 C 2.820312 -2.050781 3.140625 -1.773438 3.546875 -1.578125 C 3.960938 -1.378906 4.445312 -1.28125 5 -1.28125 C 5.65625 -1.28125 6.210938 -1.445312 6.671875 -1.78125 C 7.128906 -2.113281 7.414062 -2.5625 7.53125 -3.125 L 9.328125 -2.8125 C 9.210938 -2.195312 8.957031 -1.65625 8.5625 -1.1875 C 8.175781 -0.726562 7.671875 -0.375 7.046875 -0.125 C 6.429688 0.113281 5.734375 0.234375 4.953125 0.234375 Z M 4.953125 0.234375 "/></g></g></g><g fill="#004aad" fill-opacity="1"><g transform="translate(40.426214, 12.053094)"><g><path d="M 0.546875 0 L 0.546875 -7.375 L 6.921875 -7.375 L 6.921875 -5.984375 L 2.40625 -5.984375 L 2.40625 -4.390625 L 6.5 -4.390625 L 6.5 -3.15625 L 2.40625 -3.15625 L 2.40625 -1.390625 L 7.03125 -1.390625 L 7.03125 0 Z M 0.546875 0 "/></g></g></g><g fill="#004aad" fill-opacity="1"><g transform="translate(47.346119, 12.053094)"><g/></g></g><g fill="#004aad" fill-opacity="1"><g transform="translate(49.510941, 12.053094)"><g><path d="M 0.546875 0 L 0.546875 -7.375 L 2.46875 -7.375 L 2.46875 0 Z M 0.546875 0 "/></g></g></g><g fill="#004aad" fill-opacity="1"><g transform="translate(52.193742, 12.053094)"><g><path d="M 0.546875 0 L 0.546875 -7.375 L 4.53125 -7.375 C 5.882812 -7.375 6.921875 -7.054688 7.640625 -6.421875 C 8.367188 -5.785156 8.734375 -4.875 8.734375 -3.6875 C 8.734375 -2.5 8.367188 -1.585938 7.640625 -0.953125 C 6.921875 -0.316406 5.882812 0 4.53125 0 Z M 2.421875 -1.4375 L 4.40625 -1.4375 C 5.1875 -1.4375 5.785156 -1.628906 6.203125 -2.015625 C 6.617188 -2.410156 6.828125 -2.96875 6.828125 -3.6875 C 6.828125 -4.414062 6.617188 -4.972656 6.203125 -5.359375 C 5.785156 -5.742188 5.1875 -5.9375 4.40625 -5.9375 L 2.421875 -5.9375 Z M 2.421875 -1.4375 "/></g></g></g><g fill="#004aad" fill-opacity="1"><g transform="translate(60.926578, 12.053094)"><g/></g></g><g fill="#004aad" fill-opacity="1"><g transform="translate(63.091397, 12.053094)"><g><path d="M 1.3125 -3.703125 C 1.007812 -3.703125 0.765625 -3.789062 0.578125 -3.96875 C 0.390625 -4.144531 0.296875 -4.367188 0.296875 -4.640625 C 0.296875 -4.910156 0.390625 -5.132812 0.578125 -5.3125 C 0.765625 -5.488281 1.007812 -5.578125 1.3125 -5.578125 C 1.601562 -5.578125 1.84375 -5.488281 2.03125 -5.3125 C 2.226562 -5.132812 2.328125 -4.910156 2.328125 -4.640625 C 2.328125 -4.367188 2.226562 -4.144531 2.03125 -3.96875 C 1.84375 -3.789062 1.601562 -3.703125 1.3125 -3.703125 Z M 1.3125 0.109375 C 1.007812 0.109375 0.765625 0.0234375 0.578125 -0.140625 C 0.390625 -0.316406 0.296875 -0.539062 0.296875 -0.8125 C 0.296875 -1.09375 0.390625 -1.316406 0.578125 -1.484375 C 0.765625 -1.660156 1.007812 -1.75 1.3125 -1.75 C 1.601562 -1.75 1.84375 -1.660156 2.03125 -1.484375 C 2.226562 -1.316406 2.328125 -1.09375 2.328125 -0.8125 C 2.328125 -0.539062 2.226562 -0.316406 2.03125 -0.140625 C 1.84375 0.0234375 1.601562 0.109375 1.3125 0.109375 Z M 1.3125 0.109375 "/></g></g></g><g clip-path="url(#d38b1076f8)"><g clip-path="url(#8b7f65ad4a)"><path stroke-linecap="butt" transform="matrix(0.748326, 0, 0, 0.748326, 71.310465, 1.214334)" fill="none" stroke-linejoin="miter" d="M 6.000483 0.000680921 L 338.10118 0.000680921 C 339.693276 0.000680921 341.217512 0.632299 342.345029 1.754596 C 343.467326 2.882113 344.098944 4.406349 344.098944 5.998444 L 344.098944 17.957431 C 344.098944 19.544307 343.467326 21.073762 342.345029 22.196059 C 341.217512 23.323576 339.693276 23.955194 338.10118 23.955194 L 6.000483 23.955194 C 4.408387 23.955194 2.884151 23.323576 1.756635 22.196059 C 0.634338 21.073762 -0.0025006 19.544307 -0.0025006 17.957431 L -0.0025006 5.998444 C -0.0025006 4.406349 0.634338 2.882113 1.756635 1.754596 C 2.884151 0.632299 4.408387 0.000680921 6.000483 0.000680921 Z M 6.000483 0.000680921 " stroke="#004aad" stroke-width="2" stroke-opacity="1" stroke-miterlimit="4"/></g></g><g fill="#ffffff" fill-opacity="0.4"><g transform="translate(5.021144, 102.874025)"><g><path d="M 9.703125 -3.6875 C 9.703125 -2.957031 9.535156 -2.3125 9.203125 -1.75 C 8.878906 -1.195312 8.414062 -0.75 7.8125 -0.40625 C 7.207031 -0.0625 6.5 0.148438 5.6875 0.234375 L 5.6875 0.453125 C 5.6875 0.679688 5.765625 0.859375 5.921875 0.984375 C 6.085938 1.117188 6.3125 1.1875 6.59375 1.1875 C 6.882812 1.1875 7.160156 1.128906 7.421875 1.015625 C 7.691406 0.898438 7.921875 0.734375 8.109375 0.515625 L 8.65625 1.4375 C 8.40625 1.71875 8.070312 1.941406 7.65625 2.109375 C 7.25 2.285156 6.8125 2.375 6.34375 2.375 C 5.695312 2.375 5.191406 2.21875 4.828125 1.90625 C 4.460938 1.601562 4.28125 1.179688 4.28125 0.640625 L 4.28125 0.21875 C 3.488281 0.132812 2.796875 -0.078125 2.203125 -0.421875 C 1.609375 -0.765625 1.148438 -1.210938 0.828125 -1.765625 C 0.503906 -2.328125 0.34375 -2.96875 0.34375 -3.6875 C 0.34375 -4.476562 0.535156 -5.171875 0.921875 -5.765625 C 1.316406 -6.359375 1.863281 -6.816406 2.5625 -7.140625 C 3.257812 -7.472656 4.078125 -7.640625 5.015625 -7.640625 C 5.953125 -7.640625 6.769531 -7.472656 7.46875 -7.140625 C 8.175781 -6.816406 8.722656 -6.359375 9.109375 -5.765625 C 9.503906 -5.171875 9.703125 -4.476562 9.703125 -3.6875 Z M 2.265625 -3.6875 C 2.265625 -3.207031 2.378906 -2.78125 2.609375 -2.40625 C 2.835938 -2.039062 3.160156 -1.753906 3.578125 -1.546875 C 3.992188 -1.347656 4.472656 -1.25 5.015625 -1.25 C 5.566406 -1.25 6.046875 -1.347656 6.453125 -1.546875 C 6.867188 -1.753906 7.191406 -2.039062 7.421875 -2.40625 C 7.648438 -2.78125 7.765625 -3.207031 7.765625 -3.6875 C 7.765625 -4.175781 7.648438 -4.601562 7.421875 -4.96875 C 7.191406 -5.332031 6.867188 -5.613281 6.453125 -5.8125 C 6.046875 -6.019531 5.566406 -6.125 5.015625 -6.125 C 4.472656 -6.125 3.992188 -6.019531 3.578125 -5.8125 C 3.160156 -5.613281 2.835938 -5.332031 2.609375 -4.96875 C 2.378906 -4.601562 2.265625 -4.175781 2.265625 -3.6875 Z M 2.265625 -3.6875 "/></g></g></g><g fill="#ffffff" fill-opacity="0.4"><g transform="translate(14.72779, 102.874025)"><g><path d="M 4.375 0.234375 C 3.5625 0.234375 2.863281 0.101562 2.28125 -0.15625 C 1.695312 -0.414062 1.242188 -0.796875 0.921875 -1.296875 C 0.609375 -1.796875 0.453125 -2.398438 0.453125 -3.109375 L 0.453125 -7.375 L 2.375 -7.375 L 2.375 -3.1875 C 2.375 -2.59375 2.550781 -2.128906 2.90625 -1.796875 C 3.269531 -1.472656 3.757812 -1.3125 4.375 -1.3125 C 4.976562 -1.3125 5.457031 -1.472656 5.8125 -1.796875 C 6.164062 -2.117188 6.34375 -2.582031 6.34375 -3.1875 L 6.34375 -7.375 L 8.28125 -7.375 L 8.28125 -3.109375 C 8.28125 -2.398438 8.117188 -1.796875 7.796875 -1.296875 C 7.484375 -0.796875 7.035156 -0.414062 6.453125 -0.15625 C 5.867188 0.101562 5.175781 0.234375 4.375 0.234375 Z M 4.375 0.234375 "/></g></g></g><g fill="#ffffff" fill-opacity="0.4"><g transform="translate(23.129126, 102.874025)"><g><path d="M 0.046875 0 L 3.25 -7.375 L 5.546875 -7.375 L 8.71875 0 L 6.71875 0 L 6.125 -1.453125 L 2.625 -1.453125 L 2.046875 0 Z M 3.03125 -2.703125 L 5.734375 -2.703125 L 4.40625 -6 L 4.375 -6 Z M 3.03125 -2.703125 "/></g></g></g><g fill="#ffffff" fill-opacity="0.4"><g transform="translate(31.561542, 102.874025)"><g><path d="M 0.546875 0 L 0.546875 -7.375 L 2.46875 -7.375 L 2.46875 -1.546875 L 6.3125 -1.546875 L 6.3125 0 Z M 0.546875 0 "/></g></g></g><g fill="#ffffff" fill-opacity="0.4"><g transform="translate(37.683747, 102.874025)"><g><path d="M 0.546875 0 L 0.546875 -7.375 L 2.46875 -7.375 L 2.46875 0 Z M 0.546875 0 "/></g></g></g><g fill="#ffffff" fill-opacity="0.4"><g transform="translate(40.366548, 102.874025)"><g><path d="M 2.765625 0 L 2.765625 -5.859375 L 0.109375 -5.859375 L 0.109375 -7.375 L 7.34375 -7.375 L 7.34375 -5.859375 L 4.6875 -5.859375 L 4.6875 0 Z M 2.765625 0 "/></g></g></g><g fill="#ffffff" fill-opacity="0.4"><g transform="translate(47.493642, 102.874025)"><g><path d="M 3.125 0 L 3.125 -2.59375 L 0.015625 -7.375 L 2.078125 -7.375 L 4.09375 -4.09375 L 4.109375 -4.09375 L 6.03125 -7.375 L 8.109375 -7.375 L 5.0625 -2.59375 L 5.0625 0 Z M 3.125 0 "/></g></g></g><g fill="#ffffff" fill-opacity="0.4"><g transform="translate(55.304482, 102.874025)"><g/></g></g><g fill="#ffffff" fill-opacity="0.4"><g transform="translate(57.469301, 102.874025)"><g><path d="M 0.546875 0 L 0.546875 -7.375 L 2.46875 -7.375 L 2.46875 0 Z M 0.546875 0 "/></g></g></g><g fill="#ffffff" fill-opacity="0.4"><g transform="translate(60.1521, 102.874025)"><g><path d="M 0.546875 0 L 0.546875 -7.375 L 2.84375 -7.375 L 6.65625 -2.0625 L 6.671875 -2.0625 L 6.671875 -7.375 L 8.5 -7.375 L 8.5 0 L 6.203125 0 L 2.375 -5.328125 L 2.375 0 Z M 0.546875 0 "/></g></g></g><g fill="#ffffff" fill-opacity="0.4"><g transform="translate(68.874579, 102.874025)"><g><path d="M 0.546875 0 L 0.546875 -7.375 L 4.53125 -7.375 C 5.882812 -7.375 6.921875 -7.054688 7.640625 -6.421875 C 8.367188 -5.785156 8.734375 -4.875 8.734375 -3.6875 C 8.734375 -2.5 8.367188 -1.585938 7.640625 -0.953125 C 6.921875 -0.316406 5.882812 0 4.53125 0 Z M 2.421875 -1.4375 L 4.40625 -1.4375 C 5.1875 -1.4375 5.785156 -1.628906 6.203125 -2.015625 C 6.617188 -2.410156 6.828125 -2.96875 6.828125 -3.6875 C 6.828125 -4.414062 6.617188 -4.972656 6.203125 -5.359375 C 5.785156 -5.742188 5.1875 -5.9375 4.40625 -5.9375 L 2.421875 -5.9375 Z M 2.421875 -1.4375 "/></g></g></g><g fill="#ffffff" fill-opacity="0.4"><g transform="translate(77.607414, 102.874025)"><g><path d="M 0.546875 0 L 0.546875 -7.375 L 2.46875 -7.375 L 2.46875 0 Z M 0.546875 0 "/></g></g></g><g fill="#ffffff" fill-opacity="0.4"><g transform="translate(80.290213, 102.874025)"><g><path d="M 4.953125 0.234375 C 4.015625 0.234375 3.195312 0.078125 2.5 -0.234375 C 1.8125 -0.554688 1.28125 -1.007812 0.90625 -1.59375 C 0.53125 -2.175781 0.34375 -2.875 0.34375 -3.6875 C 0.34375 -4.488281 0.519531 -5.179688 0.875 -5.765625 C 1.226562 -6.359375 1.726562 -6.8125 2.375 -7.125 C 3.03125 -7.445312 3.800781 -7.609375 4.6875 -7.609375 C 5.363281 -7.609375 5.976562 -7.5 6.53125 -7.28125 C 7.082031 -7.070312 7.539062 -6.765625 7.90625 -6.359375 C 8.28125 -5.960938 8.53125 -5.492188 8.65625 -4.953125 L 6.90625 -4.53125 C 6.78125 -5.007812 6.519531 -5.390625 6.125 -5.671875 C 5.738281 -5.953125 5.269531 -6.09375 4.71875 -6.09375 C 4.226562 -6.09375 3.796875 -5.992188 3.421875 -5.796875 C 3.054688 -5.597656 2.769531 -5.316406 2.5625 -4.953125 C 2.363281 -4.597656 2.265625 -4.175781 2.265625 -3.6875 C 2.265625 -3.195312 2.375 -2.769531 2.59375 -2.40625 C 2.820312 -2.050781 3.140625 -1.773438 3.546875 -1.578125 C 3.960938 -1.378906 4.445312 -1.28125 5 -1.28125 C 5.65625 -1.28125 6.210938 -1.445312 6.671875 -1.78125 C 7.128906 -2.113281 7.414062 -2.5625 7.53125 -3.125 L 9.328125 -2.8125 C 9.210938 -2.195312 8.957031 -1.65625 8.5625 -1.1875 C 8.175781 -0.726562 7.671875 -0.375 7.046875 -0.125 C 6.429688 0.113281 5.734375 0.234375 4.953125 0.234375 Z M 4.953125 0.234375 "/></g></g></g><g fill="#ffffff" fill-opacity="0.4"><g transform="translate(89.478877, 102.874025)"><g><path d="M 0.046875 0 L 3.25 -7.375 L 5.546875 -7.375 L 8.71875 0 L 6.71875 0 L 6.125 -1.453125 L 2.625 -1.453125 L 2.046875 0 Z M 3.03125 -2.703125 L 5.734375 -2.703125 L 4.40625 -6 L 4.375 -6 Z M 3.03125 -2.703125 "/></g></g></g><g fill="#ffffff" fill-opacity="0.4"><g transform="translate(97.91129, 102.874025)"><g><path d="M 2.765625 0 L 2.765625 -5.859375 L 0.109375 -5.859375 L 0.109375 -7.375 L 7.34375 -7.375 L 7.34375 -5.859375 L 4.6875 -5.859375 L 4.6875 0 Z M 2.765625 0 "/></g></g></g><g fill="#ffffff" fill-opacity="0.4"><g transform="translate(105.038381, 102.874025)"><g><path d="M 5.015625 0.265625 C 4.078125 0.265625 3.257812 0.101562 2.5625 -0.21875 C 1.863281 -0.550781 1.316406 -1.015625 0.921875 -1.609375 C 0.535156 -2.203125 0.34375 -2.894531 0.34375 -3.6875 C 0.34375 -4.476562 0.535156 -5.171875 0.921875 -5.765625 C 1.316406 -6.359375 1.863281 -6.816406 2.5625 -7.140625 C 3.257812 -7.472656 4.078125 -7.640625 5.015625 -7.640625 C 5.953125 -7.640625 6.769531 -7.472656 7.46875 -7.140625 C 8.175781 -6.816406 8.722656 -6.359375 9.109375 -5.765625 C 9.503906 -5.171875 9.703125 -4.476562 9.703125 -3.6875 C 9.703125 -2.894531 9.503906 -2.203125 9.109375 -1.609375 C 8.722656 -1.015625 8.175781 -0.550781 7.46875 -0.21875 C 6.769531 0.101562 5.953125 0.265625 5.015625 0.265625 Z M 5.015625 -1.25 C 5.566406 -1.25 6.046875 -1.347656 6.453125 -1.546875 C 6.867188 -1.753906 7.191406 -2.039062 7.421875 -2.40625 C 7.648438 -2.78125 7.765625 -3.207031 7.765625 -3.6875 C 7.765625 -4.175781 7.648438 -4.601562 7.421875 -4.96875 C 7.191406 -5.332031 6.867188 -5.613281 6.453125 -5.8125 C 6.046875 -6.019531 5.566406 -6.125 5.015625 -6.125 C 4.472656 -6.125 3.992188 -6.019531 3.578125 -5.8125 C 3.160156 -5.613281 2.835938 -5.332031 2.609375 -4.96875 C 2.378906 -4.601562 2.265625 -4.175781 2.265625 -3.6875 C 2.265625 -3.207031 2.378906 -2.78125 2.609375 -2.40625 C 2.835938 -2.039062 3.160156 -1.753906 3.578125 -1.546875 C 3.992188 -1.347656 4.472656 -1.25 5.015625 -1.25 Z M 5.015625 -1.25 "/></g></g></g><g fill="#ffffff" fill-opacity="0.4"><g transform="translate(114.745025, 102.874025)"><g><path d="M 7.25 0.203125 C 6.832031 0.203125 6.488281 0.09375 6.21875 -0.125 C 5.957031 -0.351562 5.757812 -0.625 5.625 -0.9375 L 5.203125 -1.953125 C 5.109375 -2.191406 4.972656 -2.378906 4.796875 -2.515625 C 4.617188 -2.648438 4.410156 -2.71875 4.171875 -2.71875 L 2.46875 -2.71875 L 2.46875 0 L 0.546875 0 L 0.546875 -7.375 L 5.34375 -7.375 C 6.238281 -7.375 6.941406 -7.171875 7.453125 -6.765625 C 7.972656 -6.359375 8.234375 -5.804688 8.234375 -5.109375 C 8.234375 -4.578125 8.0625 -4.128906 7.71875 -3.765625 C 7.375 -3.410156 6.894531 -3.175781 6.28125 -3.0625 L 6.28125 -3.046875 C 6.445312 -2.972656 6.585938 -2.867188 6.703125 -2.734375 C 6.816406 -2.597656 6.914062 -2.4375 7 -2.25 L 7.359375 -1.375 C 7.421875 -1.257812 7.488281 -1.160156 7.5625 -1.078125 C 7.632812 -1.003906 7.738281 -0.96875 7.875 -0.96875 C 7.96875 -0.96875 8.0625 -0.992188 8.15625 -1.046875 C 8.257812 -1.109375 8.347656 -1.1875 8.421875 -1.28125 L 8.828125 -0.421875 C 8.648438 -0.234375 8.414062 -0.0820312 8.125 0.03125 C 7.84375 0.144531 7.550781 0.203125 7.25 0.203125 Z M 2.46875 -3.953125 L 4.9375 -3.953125 C 5.363281 -3.953125 5.695312 -4.046875 5.9375 -4.234375 C 6.1875 -4.429688 6.3125 -4.6875 6.3125 -5 C 6.3125 -5.320312 6.1875 -5.582031 5.9375 -5.78125 C 5.695312 -5.976562 5.363281 -6.078125 4.9375 -6.078125 L 2.46875 -6.078125 Z M 2.46875 -3.953125 "/></g></g></g><g fill="#ffffff" fill-opacity="0.4"><g transform="translate(123.270671, 102.874025)"><g/></g></g><g fill="#ffffff" fill-opacity="0.4"><g transform="translate(125.43549, 102.874025)"><g><path d="M 1.3125 -3.703125 C 1.007812 -3.703125 0.765625 -3.789062 0.578125 -3.96875 C 0.390625 -4.144531 0.296875 -4.367188 0.296875 -4.640625 C 0.296875 -4.910156 0.390625 -5.132812 0.578125 -5.3125 C 0.765625 -5.488281 1.007812 -5.578125 1.3125 -5.578125 C 1.601562 -5.578125 1.84375 -5.488281 2.03125 -5.3125 C 2.226562 -5.132812 2.328125 -4.910156 2.328125 -4.640625 C 2.328125 -4.367188 2.226562 -4.144531 2.03125 -3.96875 C 1.84375 -3.789062 1.601562 -3.703125 1.3125 -3.703125 Z M 1.3125 0.109375 C 1.007812 0.109375 0.765625 0.0234375 0.578125 -0.140625 C 0.390625 -0.316406 0.296875 -0.539062 0.296875 -0.8125 C 0.296875 -1.09375 0.390625 -1.316406 0.578125 -1.484375 C 0.765625 -1.660156 1.007812 -1.75 1.3125 -1.75 C 1.601562 -1.75 1.84375 -1.660156 2.03125 -1.484375 C 2.226562 -1.316406 2.328125 -1.09375 2.328125 -0.8125 C 2.328125 -0.539062 2.226562 -0.316406 2.03125 -0.140625 C 1.84375 0.0234375 1.601562 0.109375 1.3125 0.109375 Z M 1.3125 0.109375 "/></g></g></g><g fill="#004aad" fill-opacity="1"><g transform="translate(4.562831, 102.415712)"><g><path d="M 9.703125 -3.6875 C 9.703125 -2.957031 9.535156 -2.3125 9.203125 -1.75 C 8.878906 -1.195312 8.414062 -0.75 7.8125 -0.40625 C 7.207031 -0.0625 6.5 0.148438 5.6875 0.234375 L 5.6875 0.453125 C 5.6875 0.679688 5.765625 0.859375 5.921875 0.984375 C 6.085938 1.117188 6.3125 1.1875 6.59375 1.1875 C 6.882812 1.1875 7.160156 1.128906 7.421875 1.015625 C 7.691406 0.898438 7.921875 0.734375 8.109375 0.515625 L 8.65625 1.4375 C 8.40625 1.71875 8.070312 1.941406 7.65625 2.109375 C 7.25 2.285156 6.8125 2.375 6.34375 2.375 C 5.695312 2.375 5.191406 2.21875 4.828125 1.90625 C 4.460938 1.601562 4.28125 1.179688 4.28125 0.640625 L 4.28125 0.21875 C 3.488281 0.132812 2.796875 -0.078125 2.203125 -0.421875 C 1.609375 -0.765625 1.148438 -1.210938 0.828125 -1.765625 C 0.503906 -2.328125 0.34375 -2.96875 0.34375 -3.6875 C 0.34375 -4.476562 0.535156 -5.171875 0.921875 -5.765625 C 1.316406 -6.359375 1.863281 -6.816406 2.5625 -7.140625 C 3.257812 -7.472656 4.078125 -7.640625 5.015625 -7.640625 C 5.953125 -7.640625 6.769531 -7.472656 7.46875 -7.140625 C 8.175781 -6.816406 8.722656 -6.359375 9.109375 -5.765625 C 9.503906 -5.171875 9.703125 -4.476562 9.703125 -3.6875 Z M 2.265625 -3.6875 C 2.265625 -3.207031 2.378906 -2.78125 2.609375 -2.40625 C 2.835938 -2.039062 3.160156 -1.753906 3.578125 -1.546875 C 3.992188 -1.347656 4.472656 -1.25 5.015625 -1.25 C 5.566406 -1.25 6.046875 -1.347656 6.453125 -1.546875 C 6.867188 -1.753906 7.191406 -2.039062 7.421875 -2.40625 C 7.648438 -2.78125 7.765625 -3.207031 7.765625 -3.6875 C 7.765625 -4.175781 7.648438 -4.601562 7.421875 -4.96875 C 7.191406 -5.332031 6.867188 -5.613281 6.453125 -5.8125 C 6.046875 -6.019531 5.566406 -6.125 5.015625 -6.125 C 4.472656 -6.125 3.992188 -6.019531 3.578125 -5.8125 C 3.160156 -5.613281 2.835938 -5.332031 2.609375 -4.96875 C 2.378906 -4.601562 2.265625 -4.175781 2.265625 -3.6875 Z M 2.265625 -3.6875 "/></g></g></g><g fill="#004aad" fill-opacity="1"><g transform="translate(14.269477, 102.415712)"><g><path d="M 4.375 0.234375 C 3.5625 0.234375 2.863281 0.101562 2.28125 -0.15625 C 1.695312 -0.414062 1.242188 -0.796875 0.921875 -1.296875 C 0.609375 -1.796875 0.453125 -2.398438 0.453125 -3.109375 L 0.453125 -7.375 L 2.375 -7.375 L 2.375 -3.1875 C 2.375 -2.59375 2.550781 -2.128906 2.90625 -1.796875 C 3.269531 -1.472656 3.757812 -1.3125 4.375 -1.3125 C 4.976562 -1.3125 5.457031 -1.472656 5.8125 -1.796875 C 6.164062 -2.117188 6.34375 -2.582031 6.34375 -3.1875 L 6.34375 -7.375 L 8.28125 -7.375 L 8.28125 -3.109375 C 8.28125 -2.398438 8.117188 -1.796875 7.796875 -1.296875 C 7.484375 -0.796875 7.035156 -0.414062 6.453125 -0.15625 C 5.867188 0.101562 5.175781 0.234375 4.375 0.234375 Z M 4.375 0.234375 "/></g></g></g><g fill="#004aad" fill-opacity="1"><g transform="translate(22.670812, 102.415712)"><g><path d="M 0.046875 0 L 3.25 -7.375 L 5.546875 -7.375 L 8.71875 0 L 6.71875 0 L 6.125 -1.453125 L 2.625 -1.453125 L 2.046875 0 Z M 3.03125 -2.703125 L 5.734375 -2.703125 L 4.40625 -6 L 4.375 -6 Z M 3.03125 -2.703125 "/></g></g></g><g fill="#004aad" fill-opacity="1"><g transform="translate(31.103228, 102.415712)"><g><path d="M 0.546875 0 L 0.546875 -7.375 L 2.46875 -7.375 L 2.46875 -1.546875 L 6.3125 -1.546875 L 6.3125 0 Z M 0.546875 0 "/></g></g></g><g fill="#004aad" fill-opacity="1"><g transform="translate(37.225433, 102.415712)"><g><path d="M 0.546875 0 L 0.546875 -7.375 L 2.46875 -7.375 L 2.46875 0 Z M 0.546875 0 "/></g></g></g><g fill="#004aad" fill-opacity="1"><g transform="translate(39.908235, 102.415712)"><g><path d="M 2.765625 0 L 2.765625 -5.859375 L 0.109375 -5.859375 L 0.109375 -7.375 L 7.34375 -7.375 L 7.34375 -5.859375 L 4.6875 -5.859375 L 4.6875 0 Z M 2.765625 0 "/></g></g></g><g fill="#004aad" fill-opacity="1"><g transform="translate(47.035329, 102.415712)"><g><path d="M 3.125 0 L 3.125 -2.59375 L 0.015625 -7.375 L 2.078125 -7.375 L 4.09375 -4.09375 L 4.109375 -4.09375 L 6.03125 -7.375 L 8.109375 -7.375 L 5.0625 -2.59375 L 5.0625 0 Z M 3.125 0 "/></g></g></g><g fill="#004aad" fill-opacity="1"><g transform="translate(54.846168, 102.415712)"><g/></g></g><g fill="#004aad" fill-opacity="1"><g transform="translate(57.010987, 102.415712)"><g><path d="M 0.546875 0 L 0.546875 -7.375 L 2.46875 -7.375 L 2.46875 0 Z M 0.546875 0 "/></g></g></g><g fill="#004aad" fill-opacity="1"><g transform="translate(59.693786, 102.415712)"><g><path d="M 0.546875 0 L 0.546875 -7.375 L 2.84375 -7.375 L 6.65625 -2.0625 L 6.671875 -2.0625 L 6.671875 -7.375 L 8.5 -7.375 L 8.5 0 L 6.203125 0 L 2.375 -5.328125 L 2.375 0 Z M 0.546875 0 "/></g></g></g><g fill="#004aad" fill-opacity="1"><g transform="translate(68.416265, 102.415712)"><g><path d="M 0.546875 0 L 0.546875 -7.375 L 4.53125 -7.375 C 5.882812 -7.375 6.921875 -7.054688 7.640625 -6.421875 C 8.367188 -5.785156 8.734375 -4.875 8.734375 -3.6875 C 8.734375 -2.5 8.367188 -1.585938 7.640625 -0.953125 C 6.921875 -0.316406 5.882812 0 4.53125 0 Z M 2.421875 -1.4375 L 4.40625 -1.4375 C 5.1875 -1.4375 5.785156 -1.628906 6.203125 -2.015625 C 6.617188 -2.410156 6.828125 -2.96875 6.828125 -3.6875 C 6.828125 -4.414062 6.617188 -4.972656 6.203125 -5.359375 C 5.785156 -5.742188 5.1875 -5.9375 4.40625 -5.9375 L 2.421875 -5.9375 Z M 2.421875 -1.4375 "/></g></g></g><g fill="#004aad" fill-opacity="1"><g transform="translate(77.1491, 102.415712)"><g><path d="M 0.546875 0 L 0.546875 -7.375 L 2.46875 -7.375 L 2.46875 0 Z M 0.546875 0 "/></g></g></g><g fill="#004aad" fill-opacity="1"><g transform="translate(79.831899, 102.415712)"><g><path d="M 4.953125 0.234375 C 4.015625 0.234375 3.195312 0.078125 2.5 -0.234375 C 1.8125 -0.554688 1.28125 -1.007812 0.90625 -1.59375 C 0.53125 -2.175781 0.34375 -2.875 0.34375 -3.6875 C 0.34375 -4.488281 0.519531 -5.179688 0.875 -5.765625 C 1.226562 -6.359375 1.726562 -6.8125 2.375 -7.125 C 3.03125 -7.445312 3.800781 -7.609375 4.6875 -7.609375 C 5.363281 -7.609375 5.976562 -7.5 6.53125 -7.28125 C 7.082031 -7.070312 7.539062 -6.765625 7.90625 -6.359375 C 8.28125 -5.960938 8.53125 -5.492188 8.65625 -4.953125 L 6.90625 -4.53125 C 6.78125 -5.007812 6.519531 -5.390625 6.125 -5.671875 C 5.738281 -5.953125 5.269531 -6.09375 4.71875 -6.09375 C 4.226562 -6.09375 3.796875 -5.992188 3.421875 -5.796875 C 3.054688 -5.597656 2.769531 -5.316406 2.5625 -4.953125 C 2.363281 -4.597656 2.265625 -4.175781 2.265625 -3.6875 C 2.265625 -3.195312 2.375 -2.769531 2.59375 -2.40625 C 2.820312 -2.050781 3.140625 -1.773438 3.546875 -1.578125 C 3.960938 -1.378906 4.445312 -1.28125 5 -1.28125 C 5.65625 -1.28125 6.210938 -1.445312 6.671875 -1.78125 C 7.128906 -2.113281 7.414062 -2.5625 7.53125 -3.125 L 9.328125 -2.8125 C 9.210938 -2.195312 8.957031 -1.65625 8.5625 -1.1875 C 8.175781 -0.726562 7.671875 -0.375 7.046875 -0.125 C 6.429688 0.113281 5.734375 0.234375 4.953125 0.234375 Z M 4.953125 0.234375 "/></g></g></g><g fill="#004aad" fill-opacity="1"><g transform="translate(89.020563, 102.415712)"><g><path d="M 0.046875 0 L 3.25 -7.375 L 5.546875 -7.375 L 8.71875 0 L 6.71875 0 L 6.125 -1.453125 L 2.625 -1.453125 L 2.046875 0 Z M 3.03125 -2.703125 L 5.734375 -2.703125 L 4.40625 -6 L 4.375 -6 Z M 3.03125 -2.703125 "/></g></g></g><g fill="#004aad" fill-opacity="1"><g transform="translate(97.452977, 102.415712)"><g><path d="M 2.765625 0 L 2.765625 -5.859375 L 0.109375 -5.859375 L 0.109375 -7.375 L 7.34375 -7.375 L 7.34375 -5.859375 L 4.6875 -5.859375 L 4.6875 0 Z M 2.765625 0 "/></g></g></g><g fill="#004aad" fill-opacity="1"><g transform="translate(104.580068, 102.415712)"><g><path d="M 5.015625 0.265625 C 4.078125 0.265625 3.257812 0.101562 2.5625 -0.21875 C 1.863281 -0.550781 1.316406 -1.015625 0.921875 -1.609375 C 0.535156 -2.203125 0.34375 -2.894531 0.34375 -3.6875 C 0.34375 -4.476562 0.535156 -5.171875 0.921875 -5.765625 C 1.316406 -6.359375 1.863281 -6.816406 2.5625 -7.140625 C 3.257812 -7.472656 4.078125 -7.640625 5.015625 -7.640625 C 5.953125 -7.640625 6.769531 -7.472656 7.46875 -7.140625 C 8.175781 -6.816406 8.722656 -6.359375 9.109375 -5.765625 C 9.503906 -5.171875 9.703125 -4.476562 9.703125 -3.6875 C 9.703125 -2.894531 9.503906 -2.203125 9.109375 -1.609375 C 8.722656 -1.015625 8.175781 -0.550781 7.46875 -0.21875 C 6.769531 0.101562 5.953125 0.265625 5.015625 0.265625 Z M 5.015625 -1.25 C 5.566406 -1.25 6.046875 -1.347656 6.453125 -1.546875 C 6.867188 -1.753906 7.191406 -2.039062 7.421875 -2.40625 C 7.648438 -2.78125 7.765625 -3.207031 7.765625 -3.6875 C 7.765625 -4.175781 7.648438 -4.601562 7.421875 -4.96875 C 7.191406 -5.332031 6.867188 -5.613281 6.453125 -5.8125 C 6.046875 -6.019531 5.566406 -6.125 5.015625 -6.125 C 4.472656 -6.125 3.992188 -6.019531 3.578125 -5.8125 C 3.160156 -5.613281 2.835938 -5.332031 2.609375 -4.96875 C 2.378906 -4.601562 2.265625 -4.175781 2.265625 -3.6875 C 2.265625 -3.207031 2.378906 -2.78125 2.609375 -2.40625 C 2.835938 -2.039062 3.160156 -1.753906 3.578125 -1.546875 C 3.992188 -1.347656 4.472656 -1.25 5.015625 -1.25 Z M 5.015625 -1.25 "/></g></g></g><g fill="#004aad" fill-opacity="1"><g transform="translate(114.286711, 102.415712)"><g><path d="M 7.25 0.203125 C 6.832031 0.203125 6.488281 0.09375 6.21875 -0.125 C 5.957031 -0.351562 5.757812 -0.625 5.625 -0.9375 L 5.203125 -1.953125 C 5.109375 -2.191406 4.972656 -2.378906 4.796875 -2.515625 C 4.617188 -2.648438 4.410156 -2.71875 4.171875 -2.71875 L 2.46875 -2.71875 L 2.46875 0 L 0.546875 0 L 0.546875 -7.375 L 5.34375 -7.375 C 6.238281 -7.375 6.941406 -7.171875 7.453125 -6.765625 C 7.972656 -6.359375 8.234375 -5.804688 8.234375 -5.109375 C 8.234375 -4.578125 8.0625 -4.128906 7.71875 -3.765625 C 7.375 -3.410156 6.894531 -3.175781 6.28125 -3.0625 L 6.28125 -3.046875 C 6.445312 -2.972656 6.585938 -2.867188 6.703125 -2.734375 C 6.816406 -2.597656 6.914062 -2.4375 7 -2.25 L 7.359375 -1.375 C 7.421875 -1.257812 7.488281 -1.160156 7.5625 -1.078125 C 7.632812 -1.003906 7.738281 -0.96875 7.875 -0.96875 C 7.96875 -0.96875 8.0625 -0.992188 8.15625 -1.046875 C 8.257812 -1.109375 8.347656 -1.1875 8.421875 -1.28125 L 8.828125 -0.421875 C 8.648438 -0.234375 8.414062 -0.0820312 8.125 0.03125 C 7.84375 0.144531 7.550781 0.203125 7.25 0.203125 Z M 2.46875 -3.953125 L 4.9375 -3.953125 C 5.363281 -3.953125 5.695312 -4.046875 5.9375 -4.234375 C 6.1875 -4.429688 6.3125 -4.6875 6.3125 -5 C 6.3125 -5.320312 6.1875 -5.582031 5.9375 -5.78125 C 5.695312 -5.976562 5.363281 -6.078125 4.9375 -6.078125 L 2.46875 -6.078125 Z M 2.46875 -3.953125 "/></g></g></g><g fill="#004aad" fill-opacity="1"><g transform="translate(122.812357, 102.415712)"><g/></g></g><g fill="#004aad" fill-opacity="1"><g transform="translate(124.977176, 102.415712)"><g><path d="M 1.3125 -3.703125 C 1.007812 -3.703125 0.765625 -3.789062 0.578125 -3.96875 C 0.390625 -4.144531 0.296875 -4.367188 0.296875 -4.640625 C 0.296875 -4.910156 0.390625 -5.132812 0.578125 -5.3125 C 0.765625 -5.488281 1.007812 -5.578125 1.3125 -5.578125 C 1.601562 -5.578125 1.84375 -5.488281 2.03125 -5.3125 C 2.226562 -5.132812 2.328125 -4.910156 2.328125 -4.640625 C 2.328125 -4.367188 2.226562 -4.144531 2.03125 -3.96875 C 1.84375 -3.789062 1.601562 -3.703125 1.3125 -3.703125 Z M 1.3125 0.109375 C 1.007812 0.109375 0.765625 0.0234375 0.578125 -0.140625 C 0.390625 -0.316406 0.296875 -0.539062 0.296875 -0.8125 C 0.296875 -1.09375 0.390625 -1.316406 0.578125 -1.484375 C 0.765625 -1.660156 1.007812 -1.75 1.3125 -1.75 C 1.601562 -1.75 1.84375 -1.660156 2.03125 -1.484375 C 2.226562 -1.316406 2.328125 -1.09375 2.328125 -0.8125 C 2.328125 -0.539062 2.226562 -0.316406 2.03125 -0.140625 C 1.84375 0.0234375 1.601562 0.109375 1.3125 0.109375 Z M 1.3125 0.109375 "/></g></g></g></svg>