<svg xmlns="http://www.w3.org/2000/svg" xmlns:xlink="http://www.w3.org/1999/xlink" width="100%" zoomAndPan="magnify" viewBox="0 0 398.25 280.5" height="100%" preserveAspectRatio="xMidYMid meet" version="1.0"><defs><clipPath id="2a87363377"><path d="M 349.582031 0.015625 L 396.785156 0.015625 L 396.785156 279.925781 L 349.582031 279.925781 Z M 349.582031 0.015625 " clip-rule="nonzero"/></clipPath><clipPath id="c3dd46d645"><path d="M 367.496094 0.015625 L 378.871094 0.015625 C 383.625 0.015625 388.179688 1.902344 391.539062 5.261719 C 394.898438 8.621094 396.785156 13.175781 396.785156 17.925781 L 396.785156 262 C 396.785156 266.75 394.898438 271.308594 391.539062 274.667969 C 388.179688 278.027344 383.625 279.914062 378.871094 279.914062 L 367.496094 279.914062 C 362.742188 279.914062 358.1875 278.027344 354.828125 274.667969 C 351.46875 271.308594 349.582031 266.75 349.582031 262 L 349.582031 17.925781 C 349.582031 13.175781 351.46875 8.621094 354.828125 5.261719 C 358.1875 1.902344 362.742188 0.015625 367.496094 0.015625 Z M 367.496094 0.015625 " clip-rule="nonzero"/></clipPath><clipPath id="8d9ac94b35"><path d="M 279.945312 46.746094 L 327.152344 46.746094 L 327.152344 279.988281 L 279.945312 279.988281 Z M 279.945312 46.746094 " clip-rule="nonzero"/></clipPath><clipPath id="b863075316"><path d="M 297.859375 46.746094 L 309.238281 46.746094 C 313.988281 46.746094 318.546875 48.632812 321.90625 51.992188 C 325.265625 55.351562 327.152344 59.90625 327.152344 64.660156 L 327.152344 262 C 327.152344 266.75 325.265625 271.308594 321.90625 274.667969 C 318.546875 278.027344 313.988281 279.914062 309.238281 279.914062 L 297.859375 279.914062 C 293.109375 279.914062 288.550781 278.027344 285.191406 274.667969 C 281.832031 271.308594 279.945312 266.75 279.945312 262 L 279.945312 64.660156 C 279.945312 59.90625 281.832031 55.351562 285.191406 51.992188 C 288.550781 48.632812 293.109375 46.746094 297.859375 46.746094 Z M 297.859375 46.746094 " clip-rule="nonzero"/></clipPath><clipPath id="da6546ded0"><path d="M 209.960938 88.582031 L 257.164062 88.582031 L 257.164062 279.984375 L 209.960938 279.984375 Z M 209.960938 88.582031 " clip-rule="nonzero"/></clipPath><clipPath id="62899e290e"><path d="M 227.875 88.582031 L 239.25 88.582031 C 244.003906 88.582031 248.558594 90.472656 251.917969 93.832031 C 255.277344 97.191406 257.164062 101.746094 257.164062 106.496094 L 257.164062 262 C 257.164062 266.75 255.277344 271.308594 251.917969 274.667969 C 248.558594 278.027344 244.003906 279.914062 239.25 279.914062 L 227.875 279.914062 C 223.121094 279.914062 218.566406 278.027344 215.207031 274.667969 C 211.847656 271.308594 209.960938 266.75 209.960938 262 L 209.960938 106.496094 C 209.960938 101.746094 211.847656 97.191406 215.207031 93.832031 C 218.566406 90.472656 223.121094 88.582031 227.875 88.582031 Z M 227.875 88.582031 " clip-rule="nonzero"/></clipPath><clipPath id="cd1061fda1"><path d="M 139.972656 134.269531 L 187.179688 134.269531 L 187.179688 279.941406 L 139.972656 279.941406 Z M 139.972656 134.269531 " clip-rule="nonzero"/></clipPath><clipPath id="9004ab1796"><path d="M 157.886719 134.269531 L 169.265625 134.269531 C 174.015625 134.269531 178.570312 136.15625 181.929688 139.515625 C 185.289062 142.875 187.179688 147.429688 187.179688 152.183594 L 187.179688 262 C 187.179688 266.75 185.289062 271.308594 181.929688 274.667969 C 178.570312 278.027344 174.015625 279.914062 169.265625 279.914062 L 157.886719 279.914062 C 153.136719 279.914062 148.578125 278.027344 145.21875 274.667969 C 141.859375 271.308594 139.972656 266.75 139.972656 262 L 139.972656 152.183594 C 139.972656 147.429688 141.859375 142.875 145.21875 139.515625 C 148.578125 136.15625 153.136719 134.269531 157.886719 134.269531 Z M 157.886719 134.269531 " clip-rule="nonzero"/></clipPath><clipPath id="b72d8599fb"><path d="M 69.988281 184.25 L 117.191406 184.25 L 117.191406 279.949219 L 69.988281 279.949219 Z M 69.988281 184.25 " clip-rule="nonzero"/></clipPath><clipPath id="7b12ce9ead"><path d="M 87.898438 184.25 L 99.277344 184.25 C 104.027344 184.25 108.585938 186.136719 111.945312 189.496094 C 115.304688 192.855469 117.191406 197.410156 117.191406 202.164062 L 117.191406 262 C 117.191406 266.75 115.304688 271.308594 111.945312 274.667969 C 108.585938 278.027344 104.027344 279.914062 99.277344 279.914062 L 87.898438 279.914062 C 83.148438 279.914062 78.59375 278.027344 75.234375 274.667969 C 71.875 271.308594 69.988281 266.75 69.988281 262 L 69.988281 202.164062 C 69.988281 197.410156 71.875 192.855469 75.234375 189.496094 C 78.59375 186.136719 83.148438 184.25 87.898438 184.25 Z M 87.898438 184.25 " clip-rule="nonzero"/></clipPath><clipPath id="b4bde5a33f"><path d="M 0 223.730469 L 47.207031 223.730469 L 47.207031 279.972656 L 0 279.972656 Z M 0 223.730469 " clip-rule="nonzero"/></clipPath><clipPath id="d8df996355"><path d="M 17.914062 223.730469 L 29.292969 223.730469 C 34.042969 223.730469 38.597656 225.617188 41.957031 228.976562 C 45.316406 232.335938 47.207031 236.894531 47.207031 241.644531 L 47.207031 262 C 47.207031 266.75 45.316406 271.308594 41.957031 274.667969 C 38.597656 278.027344 34.042969 279.914062 29.292969 279.914062 L 17.914062 279.914062 C 13.164062 279.914062 8.605469 278.027344 5.246094 274.667969 C 1.886719 271.308594 0 266.75 0 262 L 0 241.644531 C 0 236.894531 1.886719 232.335938 5.246094 228.976562 C 8.605469 225.617188 13.164062 223.730469 17.914062 223.730469 Z M 17.914062 223.730469 " clip-rule="nonzero"/></clipPath></defs><g clip-path="url(#b72d8599fb)"><g clip-path="url(#7b12ce9ead)"><path fill="" d="M 69.988281 184.25 L 117.191406 184.25 L 117.191406 279.949219 L 69.988281 279.949219 Z M 69.988281 184.25 " fill-opacity="1" fill-rule="nonzero"/></g></g></svg>
