<svg xmlns="http://www.w3.org/2000/svg" xmlns:xlink="http://www.w3.org/1999/xlink" width="182" zoomAndPan="magnify" viewBox="0 0 136.5 136.499995" height="182" preserveAspectRatio="xMidYMid meet" version="1.0"><defs><clipPath id="97fa1fea0f"><path d="M 38 127.199219 L 98.226562 127.199219 L 98.226562 135.984375 L 38 135.984375 Z M 38 127.199219 " clip-rule="nonzero"/></clipPath><clipPath id="70076589d2"><path d="M 36.363281 0 L 99.882812 0 L 99.882812 103.121094 L 36.363281 103.121094 Z M 36.363281 0 " clip-rule="nonzero"/></clipPath></defs><path fill="#364852" d="M 114.488281 83.039062 L 114.476562 86.285156 L 111.320312 88.121094 L 111.328125 84.875 L 114.488281 83.039062 " fill-opacity="1" fill-rule="nonzero"/><path fill="#364852" d="M 24.445312 84.875 L 24.433594 88.121094 L 21.253906 86.285156 L 21.265625 83.039062 L 24.445312 84.875 " fill-opacity="1" fill-rule="nonzero"/><path fill="#364852" d="M 120.726562 102.34375 L 120.71875 105.589844 C 120.699219 111.605469 117.632812 117.609375 111.511719 122.757812 L 111.523438 119.511719 C 117.644531 114.363281 120.707031 108.355469 120.726562 102.34375 " fill-opacity="1" fill-rule="nonzero"/><path fill="#364852" d="M 15.25 105.289062 L 15.261719 102.042969 C 15.242188 108.152344 18.371094 114.269531 24.640625 119.511719 L 24.628906 122.757812 C 18.363281 117.515625 15.234375 111.398438 15.25 105.289062 " fill-opacity="1" fill-rule="nonzero"/><path fill="#364852" d="M 101.203125 129.191406 L 101.195312 132.441406 L 98.015625 130.605469 L 98.023438 127.355469 L 101.203125 129.191406 " fill-opacity="1" fill-rule="nonzero"/><path fill="#364852" d="M 114.703125 121.347656 L 114.695312 124.597656 L 101.195312 132.441406 L 101.203125 129.191406 L 114.703125 121.347656 " fill-opacity="1" fill-rule="nonzero"/><path fill="#364852" d="M 38.226562 127.355469 L 38.21875 130.605469 L 35.058594 132.441406 L 35.066406 129.191406 L 38.226562 127.355469 " fill-opacity="1" fill-rule="nonzero"/><path fill="#364852" d="M 35.066406 129.191406 L 35.058594 132.441406 L 21.472656 124.597656 L 21.480469 121.347656 L 35.066406 129.191406 " fill-opacity="1" fill-rule="nonzero"/><g clip-path="url(#97fa1fea0f)"><path fill="#364852" d="M 98.023438 127.355469 L 98.015625 130.605469 C 80.125 137.785156 56.210938 137.773438 38.21875 130.605469 L 38.226562 127.355469 C 56.222656 134.523438 80.136719 134.539062 98.023438 127.355469 " fill-opacity="1" fill-rule="nonzero"/></g><path fill="#737373" d="M 114.488281 83.039062 L 111.328125 84.875 C 123.785156 95.257812 123.863281 109.125 111.523438 119.511719 L 114.703125 121.347656 L 101.203125 129.191406 L 98.023438 127.355469 C 80.136719 134.539062 56.222656 134.523438 38.226562 127.355469 L 35.066406 129.191406 L 21.480469 121.347656 L 24.640625 119.511719 C 12.207031 109.113281 12.128906 95.273438 24.445312 84.875 L 21.265625 83.039062 L 34.761719 75.195312 L 37.941406 77.03125 C 55.855469 69.863281 79.769531 69.847656 97.765625 77.042969 L 100.925781 75.207031 L 114.488281 83.039062 " fill-opacity="1" fill-rule="nonzero"/><path fill="#364852" d="M 37.21875 119.976562 C 20.195312 110.144531 20.195312 94.238281 37.191406 84.425781 C 54.21875 74.59375 81.769531 74.59375 98.796875 84.425781 C 115.792969 94.238281 115.824219 110.164062 98.796875 119.992188 C 81.800781 129.804688 54.21875 129.789062 37.21875 119.976562 Z M 100.703125 83.324219 C 82.632812 72.890625 53.351562 72.890625 35.28125 83.324219 C 17.242188 93.738281 17.242188 110.644531 35.3125 121.078125 C 53.351562 131.492188 82.636719 131.492188 100.675781 121.078125 C 118.746094 110.644531 118.742188 93.738281 100.703125 83.324219 " fill-opacity="1" fill-rule="nonzero"/><path fill="#364852" d="M 59.734375 106.964844 C 55.167969 104.324219 55.167969 100.058594 59.726562 97.425781 C 64.296875 94.785156 71.691406 94.785156 76.257812 97.425781 C 80.820312 100.058594 80.828125 104.332031 76.257812 106.96875 C 71.699219 109.601562 64.296875 109.597656 59.734375 106.964844 Z M 77.363281 96.785156 C 72.1875 93.796875 63.796875 93.796875 58.621094 96.785156 C 53.453125 99.769531 53.453125 104.613281 58.628906 107.601562 C 63.800781 110.585938 72.1875 110.585938 77.355469 107.601562 C 82.535156 104.613281 82.535156 99.769531 77.363281 96.785156 " fill-opacity="1" fill-rule="nonzero"/><path fill="#364852" d="M 65.207031 102.777344 L 65.207031 101.605469 C 65.207031 101.042969 66 100.585938 66.976562 100.585938 L 69.007812 100.585938 C 69.984375 100.585938 70.777344 101.042969 70.777344 101.605469 L 70.777344 102.777344 C 70.777344 103.34375 69.984375 103.800781 69.007812 103.800781 L 66.976562 103.800781 C 66 103.800781 65.207031 103.34375 65.207031 102.777344 " fill-opacity="1" fill-rule="nonzero"/><path fill="#364852" d="M 64.765625 105.078125 C 63.757812 105.078125 62.996094 104.636719 62.996094 104.054688 L 62.996094 100.328125 C 62.996094 99.769531 63.757812 99.304688 64.765625 99.304688 L 71.21875 99.304688 C 72.230469 99.304688 72.992188 99.769531 72.992188 100.328125 L 72.992188 104.054688 C 72.992188 104.636719 72.230469 105.078125 71.21875 105.078125 Z M 74.128906 104.710938 L 74.128906 99.671875 C 74.128906 99.113281 73.328125 98.648438 72.359375 98.648438 L 63.628906 98.648438 C 62.660156 98.648438 61.855469 99.113281 61.855469 99.671875 L 61.855469 104.710938 C 61.855469 105.269531 62.660156 105.734375 63.628906 105.734375 L 72.359375 105.734375 C 73.328125 105.734375 74.128906 105.269531 74.128906 104.710938 " fill-opacity="1" fill-rule="nonzero"/><path fill="#364852" d="M 80.167969 97.230469 L 76.585938 95.164062 L 78.679688 93.953125 L 82.257812 96.019531 L 80.167969 97.230469 " fill-opacity="1" fill-rule="nonzero"/><path fill="#364852" d="M 70.523438 93.714844 L 65.460938 93.714844 L 65.460938 92.003906 L 70.523438 92.003906 L 70.523438 93.714844 " fill-opacity="1" fill-rule="nonzero"/><path fill="#364852" d="M 59.394531 95.164062 L 55.816406 97.230469 L 53.722656 96.023438 L 57.304688 93.957031 L 59.394531 95.164062 " fill-opacity="1" fill-rule="nonzero"/><path fill="#364852" d="M 53.304688 100.730469 L 53.304688 103.65625 L 50.347656 103.65625 L 50.347656 100.730469 L 53.304688 100.730469 " fill-opacity="1" fill-rule="nonzero"/><path fill="#364852" d="M 55.820312 107.15625 L 59.398438 109.222656 L 57.308594 110.429688 L 53.726562 108.363281 L 55.820312 107.15625 " fill-opacity="1" fill-rule="nonzero"/><path fill="#364852" d="M 65.464844 110.671875 L 70.527344 110.671875 L 70.527344 112.378906 L 65.464844 112.378906 L 65.464844 110.671875 " fill-opacity="1" fill-rule="nonzero"/><path fill="#364852" d="M 76.589844 109.222656 L 80.167969 107.15625 L 82.261719 108.363281 L 78.683594 110.429688 L 76.589844 109.222656 " fill-opacity="1" fill-rule="nonzero"/><path fill="#364852" d="M 82.679688 103.652344 L 82.679688 100.730469 L 85.636719 100.730469 L 85.636719 103.652344 L 82.679688 103.652344 " fill-opacity="1" fill-rule="nonzero"/><path fill="#364852" d="M 94.242188 89.101562 L 90.695312 87.050781 L 92.238281 86.160156 L 95.789062 88.210938 L 94.242188 89.101562 " fill-opacity="1" fill-rule="nonzero"/><path fill="#364852" d="M 97.371094 86.535156 C 96.746094 86.894531 95.734375 86.894531 95.113281 86.535156 C 94.488281 86.175781 94.488281 85.589844 95.113281 85.230469 C 95.734375 84.871094 96.746094 84.871094 97.371094 85.230469 C 97.996094 85.589844 97.996094 86.175781 97.371094 86.535156 " fill-opacity="1" fill-rule="nonzero"/><path fill="#364852" d="M 83.570312 84.296875 L 78.929688 83.191406 L 79.765625 82.023438 L 84.402344 83.132812 L 83.570312 84.296875 " fill-opacity="1" fill-rule="nonzero"/><path fill="#364852" d="M 84.753906 81.234375 C 84.417969 81.707031 83.484375 81.929688 82.667969 81.734375 C 81.851562 81.539062 81.464844 81 81.804688 80.527344 C 82.140625 80.058594 83.074219 79.835938 83.890625 80.03125 C 84.707031 80.226562 85.09375 80.765625 84.753906 81.234375 " fill-opacity="1" fill-rule="nonzero"/><path fill="#364852" d="M 70.523438 82.21875 L 65.503906 82.21875 L 65.503906 80.957031 L 70.523438 80.957031 L 70.523438 82.21875 " fill-opacity="1" fill-rule="nonzero"/><path fill="#364852" d="M 69.589844 79.125 C 69.589844 79.636719 68.875 80.046875 67.992188 80.046875 C 67.109375 80.046875 66.394531 79.636719 66.394531 79.125 C 66.394531 78.617188 67.109375 78.203125 67.992188 78.203125 C 68.875 78.203125 69.589844 78.617188 69.589844 79.125 " fill-opacity="1" fill-rule="nonzero"/><path fill="#364852" d="M 57.089844 83.179688 L 52.453125 84.289062 L 51.617188 83.125 L 56.253906 82.015625 L 57.089844 83.179688 " fill-opacity="1" fill-rule="nonzero"/><path fill="#364852" d="M 54.179688 80.53125 C 54.515625 81 54.128906 81.539062 53.3125 81.734375 C 52.5 81.929688 51.5625 81.707031 51.226562 81.234375 C 50.886719 80.765625 51.273438 80.226562 52.089844 80.03125 C 52.90625 79.835938 53.839844 80.058594 54.179688 80.53125 " fill-opacity="1" fill-rule="nonzero"/><path fill="#364852" d="M 45.316406 87.035156 L 41.769531 89.085938 L 40.226562 88.191406 L 43.773438 86.144531 L 45.316406 87.035156 " fill-opacity="1" fill-rule="nonzero"/><path fill="#364852" d="M 40.871094 85.230469 C 41.496094 85.589844 41.496094 86.175781 40.871094 86.535156 C 40.246094 86.894531 39.234375 86.894531 38.613281 86.535156 C 37.988281 86.175781 37.988281 85.589844 38.613281 85.230469 C 39.234375 84.871094 40.246094 84.871094 40.871094 85.230469 " fill-opacity="1" fill-rule="nonzero"/><path fill="#364852" d="M 37 93.199219 L 35.078125 95.875 L 33.058594 95.394531 L 34.980469 92.71875 L 37 93.199219 " fill-opacity="1" fill-rule="nonzero"/><path fill="#364852" d="M 31.691406 92.515625 C 32.507812 92.707031 32.894531 93.25 32.558594 93.71875 C 32.21875 94.1875 31.285156 94.414062 30.46875 94.21875 C 29.65625 94.023438 29.269531 93.484375 29.605469 93.011719 C 29.941406 92.542969 30.878906 92.320312 31.691406 92.515625 " fill-opacity="1" fill-rule="nonzero"/><path fill="#364852" d="M 33.398438 100.730469 L 33.398438 103.628906 L 31.210938 103.628906 L 31.210938 100.730469 L 33.398438 100.730469 " fill-opacity="1" fill-rule="nonzero"/><path fill="#364852" d="M 28.042969 101.269531 C 28.921875 101.269531 29.640625 101.683594 29.640625 102.195312 C 29.640625 102.703125 28.921875 103.117188 28.042969 103.117188 C 27.160156 103.117188 26.445312 102.703125 26.445312 102.195312 C 26.445312 101.683594 27.160156 101.269531 28.042969 101.269531 " fill-opacity="1" fill-rule="nonzero"/><path fill="#364852" d="M 35.0625 108.488281 L 36.984375 111.164062 L 34.964844 111.648438 L 33.042969 108.96875 L 35.0625 108.488281 " fill-opacity="1" fill-rule="nonzero"/><path fill="#364852" d="M 30.472656 110.167969 C 31.285156 109.972656 32.222656 110.195312 32.558594 110.667969 C 32.894531 111.136719 32.507812 111.679688 31.695312 111.871094 C 30.878906 112.066406 29.945312 111.84375 29.605469 111.371094 C 29.269531 110.902344 29.65625 110.363281 30.472656 110.167969 " fill-opacity="1" fill-rule="nonzero"/><path fill="#364852" d="M 41.742188 115.285156 L 45.292969 117.332031 L 43.746094 118.222656 L 40.195312 116.175781 L 41.742188 115.285156 " fill-opacity="1" fill-rule="nonzero"/><path fill="#364852" d="M 38.613281 117.851562 C 39.238281 117.492188 40.25 117.492188 40.875 117.851562 C 41.496094 118.210938 41.496094 118.796875 40.875 119.15625 C 40.25 119.515625 39.238281 119.515625 38.613281 119.15625 C 37.992188 118.796875 37.992188 118.210938 38.613281 117.851562 " fill-opacity="1" fill-rule="nonzero"/><path fill="#364852" d="M 52.417969 120.085938 L 57.054688 121.195312 L 56.21875 122.359375 L 51.582031 121.253906 L 52.417969 120.085938 " fill-opacity="1" fill-rule="nonzero"/><path fill="#364852" d="M 51.230469 123.148438 C 51.566406 122.679688 52.5 122.457031 53.316406 122.652344 C 54.132812 122.847656 54.519531 123.386719 54.183594 123.855469 C 53.84375 124.328125 52.910156 124.550781 52.09375 124.355469 C 51.28125 124.160156 50.890625 123.621094 51.230469 123.148438 " fill-opacity="1" fill-rule="nonzero"/><path fill="#364852" d="M 65.464844 122.167969 L 70.484375 122.167969 L 70.484375 123.425781 L 65.464844 123.425781 L 65.464844 122.167969 " fill-opacity="1" fill-rule="nonzero"/><path fill="#364852" d="M 66.398438 125.257812 C 66.398438 124.75 67.113281 124.335938 67.996094 124.335938 C 68.875 124.335938 69.59375 124.75 69.59375 125.257812 C 69.59375 125.769531 68.875 126.179688 67.996094 126.179688 C 67.113281 126.179688 66.398438 125.769531 66.398438 125.257812 " fill-opacity="1" fill-rule="nonzero"/><path fill="#364852" d="M 78.894531 121.207031 L 83.53125 120.097656 L 84.371094 121.261719 L 79.730469 122.371094 L 78.894531 121.207031 " fill-opacity="1" fill-rule="nonzero"/><path fill="#364852" d="M 81.808594 123.855469 C 81.46875 123.386719 81.855469 122.847656 82.671875 122.652344 C 83.488281 122.457031 84.421875 122.679688 84.761719 123.148438 C 85.097656 123.621094 84.710938 124.160156 83.894531 124.355469 C 83.082031 124.550781 82.144531 124.328125 81.808594 123.855469 " fill-opacity="1" fill-rule="nonzero"/><path fill="#364852" d="M 90.667969 117.347656 L 94.214844 115.300781 L 95.761719 116.191406 L 92.210938 118.242188 L 90.667969 117.347656 " fill-opacity="1" fill-rule="nonzero"/><path fill="#364852" d="M 95.113281 119.15625 C 94.492188 118.792969 94.492188 118.210938 95.113281 117.851562 C 95.738281 117.488281 96.75 117.488281 97.375 117.851562 C 97.996094 118.210938 97.996094 118.792969 97.375 119.15625 C 96.75 119.515625 95.738281 119.515625 95.113281 119.15625 " fill-opacity="1" fill-rule="nonzero"/><path fill="#364852" d="M 98.988281 111.1875 L 100.90625 108.507812 L 102.925781 108.992188 L 101.003906 111.667969 L 98.988281 111.1875 " fill-opacity="1" fill-rule="nonzero"/><path fill="#364852" d="M 104.292969 111.871094 C 103.476562 111.675781 103.089844 111.136719 103.429688 110.667969 C 103.765625 110.195312 104.699219 109.972656 105.515625 110.167969 C 106.332031 110.363281 106.71875 110.902344 106.378906 111.371094 C 106.042969 111.84375 105.109375 112.066406 104.292969 111.871094 " fill-opacity="1" fill-rule="nonzero"/><path fill="#364852" d="M 102.589844 103.652344 L 102.589844 100.753906 L 104.773438 100.753906 L 104.773438 103.652344 L 102.589844 103.652344 " fill-opacity="1" fill-rule="nonzero"/><path fill="#364852" d="M 107.945312 103.113281 C 107.0625 103.113281 106.347656 102.703125 106.347656 102.191406 C 106.347656 101.683594 107.0625 101.269531 107.945312 101.269531 C 108.828125 101.269531 109.542969 101.683594 109.542969 102.191406 C 109.542969 102.703125 108.828125 103.113281 107.945312 103.113281 " fill-opacity="1" fill-rule="nonzero"/><path fill="#364852" d="M 100.921875 95.898438 L 99 93.222656 L 101.019531 92.738281 L 102.941406 95.417969 L 100.921875 95.898438 " fill-opacity="1" fill-rule="nonzero"/><path fill="#364852" d="M 105.515625 94.21875 C 104.699219 94.410156 103.765625 94.1875 103.425781 93.71875 C 103.089844 93.246094 103.476562 92.707031 104.292969 92.511719 C 105.105469 92.316406 106.042969 92.542969 106.378906 93.011719 C 106.71875 93.484375 106.328125 94.023438 105.515625 94.21875 " fill-opacity="1" fill-rule="nonzero"/><path fill="#364852" d="M 53.03125 110.835938 C 44.753906 106.058594 44.753906 98.324219 53.015625 93.554688 C 61.296875 88.773438 74.691406 88.773438 82.96875 93.554688 C 91.234375 98.324219 91.25 106.066406 82.96875 110.847656 C 74.707031 115.617188 61.296875 115.609375 53.03125 110.835938 Z M 85.832031 91.902344 C 75.976562 86.210938 60.007812 86.210938 50.152344 91.898438 C 40.3125 97.582031 40.3125 106.800781 50.167969 112.492188 C 60.007812 118.171875 75.980469 118.171875 85.816406 112.492188 C 95.671875 106.800781 95.671875 97.582031 85.832031 91.902344 " fill-opacity="1" fill-rule="nonzero"/><path fill="#364852" d="M 90.226562 90.660156 C 89.613281 91.015625 88.613281 91.015625 88 90.660156 C 87.382812 90.304688 87.382812 89.726562 88 89.371094 C 88.613281 89.015625 89.613281 89.015625 90.226562 89.371094 C 90.84375 89.726562 90.84375 90.304688 90.226562 90.660156 " fill-opacity="1" fill-rule="nonzero"/><path fill="#364852" d="M 69.589844 84.960938 C 69.589844 85.460938 68.882812 85.871094 68.011719 85.871094 C 67.140625 85.871094 66.4375 85.460938 66.4375 84.960938 C 66.4375 84.457031 67.140625 84.050781 68.011719 84.050781 C 68.882812 84.050781 69.589844 84.457031 69.589844 84.960938 " fill-opacity="1" fill-rule="nonzero"/><path fill="#364852" d="M 48.015625 89.355469 C 48.628906 89.710938 48.628906 90.289062 48.015625 90.640625 C 47.398438 90.996094 46.402344 90.996094 45.785156 90.640625 C 45.167969 90.289062 45.167969 89.710938 45.785156 89.355469 C 46.402344 89 47.398438 89 48.015625 89.355469 " fill-opacity="1" fill-rule="nonzero"/><path fill="#364852" d="M 38.144531 101.269531 C 39.015625 101.269531 39.71875 101.679688 39.71875 102.179688 C 39.71875 102.683594 39.015625 103.089844 38.144531 103.089844 C 37.273438 103.089844 36.566406 102.683594 36.566406 102.179688 C 36.566406 101.679688 37.273438 101.269531 38.144531 101.269531 " fill-opacity="1" fill-rule="nonzero"/><path fill="#364852" d="M 45.757812 113.726562 C 46.375 113.371094 47.371094 113.371094 47.988281 113.726562 C 48.601562 114.082031 48.601562 114.65625 47.988281 115.015625 C 47.371094 115.371094 46.375 115.371094 45.757812 115.015625 C 45.140625 114.65625 45.140625 114.082031 45.757812 113.726562 " fill-opacity="1" fill-rule="nonzero"/><path fill="#364852" d="M 66.398438 119.425781 C 66.398438 118.921875 67.101562 118.515625 67.972656 118.515625 C 68.84375 118.515625 69.550781 118.921875 69.550781 119.425781 C 69.550781 119.929688 68.84375 120.335938 67.972656 120.335938 C 67.101562 120.335938 66.398438 119.929688 66.398438 119.425781 " fill-opacity="1" fill-rule="nonzero"/><path fill="#364852" d="M 87.972656 115.03125 C 87.355469 114.675781 87.355469 114.097656 87.972656 113.742188 C 88.585938 113.386719 89.585938 113.386719 90.199219 113.742188 C 90.816406 114.097656 90.816406 114.675781 90.199219 115.03125 C 89.585938 115.386719 88.585938 115.386719 87.972656 115.03125 " fill-opacity="1" fill-rule="nonzero"/><path fill="#364852" d="M 97.84375 103.113281 C 96.972656 103.113281 96.265625 102.707031 96.265625 102.203125 C 96.265625 101.703125 96.972656 101.292969 97.84375 101.292969 C 98.710938 101.292969 99.417969 101.703125 99.417969 102.203125 C 99.417969 102.707031 98.710938 103.113281 97.84375 103.113281 " fill-opacity="1" fill-rule="nonzero"/><g clip-path="url(#70076589d2)"><path fill="#c92a2a" d="M 68.230469 103.121094 C 65.886719 91.632812 61.75 82.070312 56.742188 73.207031 C 53.027344 66.632812 48.726562 60.566406 44.742188 54.191406 C 43.414062 52.0625 42.265625 49.816406 40.988281 47.609375 C 38.433594 43.191406 36.363281 38.070312 36.496094 31.429688 C 36.625 24.941406 38.503906 19.734375 41.21875 15.480469 C 45.675781 8.480469 53.148438 2.738281 63.167969 1.230469 C 71.367188 0 79.050781 2.082031 84.496094 5.261719 C 88.949219 7.859375 92.398438 11.332031 95.019531 15.421875 C 97.753906 19.691406 99.636719 24.738281 99.796875 31.316406 C 99.878906 34.6875 99.324219 37.808594 98.546875 40.398438 C 97.757812 43.019531 96.488281 45.210938 95.359375 47.550781 C 93.160156 52.117188 90.398438 56.304688 87.625 60.492188 C 79.371094 72.96875 71.625 85.6875 68.230469 103.121094 Z M 68.230469 103.121094 " fill-opacity="1" fill-rule="evenodd"/></g><path fill="#ffffff" d="M 79.238281 31.359375 C 79.238281 32.085938 79.167969 32.804688 79.023438 33.519531 C 78.882812 34.230469 78.671875 34.921875 78.394531 35.59375 C 78.117188 36.265625 77.773438 36.902344 77.367188 37.507812 C 76.964844 38.113281 76.503906 38.671875 75.988281 39.183594 C 75.476562 39.699219 74.914062 40.15625 74.308594 40.5625 C 73.703125 40.964844 73.0625 41.308594 72.390625 41.585938 C 71.71875 41.863281 71.023438 42.074219 70.3125 42.214844 C 69.597656 42.355469 68.875 42.425781 68.148438 42.425781 C 67.417969 42.425781 66.699219 42.355469 65.984375 42.214844 C 65.269531 42.074219 64.574219 41.863281 63.902344 41.585938 C 63.230469 41.308594 62.589844 40.964844 61.984375 40.5625 C 61.378906 40.15625 60.820312 39.699219 60.304688 39.183594 C 59.789062 38.671875 59.332031 38.113281 58.925781 37.507812 C 58.519531 36.902344 58.179688 36.265625 57.902344 35.59375 C 57.621094 34.921875 57.410156 34.230469 57.269531 33.519531 C 57.128906 32.804688 57.054688 32.085938 57.054688 31.359375 C 57.054688 30.632812 57.128906 29.910156 57.269531 29.199219 C 57.410156 28.484375 57.621094 27.792969 57.902344 27.121094 C 58.179688 26.449219 58.519531 25.8125 58.925781 25.207031 C 59.332031 24.605469 59.789062 24.042969 60.304688 23.53125 C 60.820312 23.015625 61.378906 22.558594 61.984375 22.152344 C 62.589844 21.75 63.230469 21.410156 63.902344 21.132812 C 64.574219 20.851562 65.269531 20.644531 65.984375 20.5 C 66.699219 20.359375 67.417969 20.289062 68.148438 20.289062 C 68.875 20.289062 69.597656 20.359375 70.3125 20.5 C 71.023438 20.644531 71.71875 20.851562 72.390625 21.132812 C 73.0625 21.410156 73.703125 21.75 74.308594 22.152344 C 74.914062 22.558594 75.476562 23.015625 75.988281 23.53125 C 76.503906 24.042969 76.964844 24.605469 77.367188 25.207031 C 77.773438 25.8125 78.117188 26.449219 78.394531 27.121094 C 78.671875 27.792969 78.882812 28.484375 79.023438 29.199219 C 79.167969 29.910156 79.238281 30.632812 79.238281 31.359375 Z M 79.238281 31.359375 " fill-opacity="1" fill-rule="nonzero"/></svg>